<svg width="353" height="153" viewBox="0 0 353 153" fill="none" xmlns="http://www.w3.org/2000/svg">
<g opacity="0.4">
<path d="M295.927 -4.48512C296.452 -7.67438 294.072 -10.4186 291.248 -11.6127C287.388 -13.2519 283.093 -11.902 279.331 -10.567C279.383 -10.8117 279.436 -11.0565 279.481 -11.3087C279.564 -11.7685 279.594 -12.2135 279.556 -12.6289C280.637 -12.6882 281.689 -13.4002 282.094 -14.3867C282.485 -15.3434 282.199 -16.456 281.508 -17.1977C281.869 -18.0506 282.365 -18.7997 283.101 -19.4005C283.851 -20.0161 284.708 -20.2312 285.564 -20.6391C285.796 -20.7503 285.684 -21.0989 285.443 -21.1063C283.506 -21.1434 281.779 -19.2299 281.208 -17.4721C281.035 -17.613 280.848 -17.7317 280.637 -17.8207C280.465 -17.8948 280.292 -17.9393 280.119 -17.9764C280.375 -19.801 279.721 -21.9445 278.114 -22.9532C277.814 -23.1386 277.498 -22.7306 277.731 -22.4785C278.963 -21.1508 279.766 -19.7861 279.654 -18.0061C278.752 -17.9764 277.889 -17.4424 277.461 -16.634C277.048 -15.8478 277.138 -14.7946 277.776 -14.2532C277.206 -13.4818 276.687 -12.6882 276.199 -11.8723C274.652 -19.9938 259.521 -23.6948 255.751 -15.4918C254.024 -11.7314 255.413 -7.50379 258.522 -4.9153C261.713 -2.26006 265.851 -1.71862 269.809 -2.37873C267.571 -0.932436 265.378 0.602858 263.448 2.44225C262.051 3.76987 259.047 6.44736 259.716 8.69467C261.053 13.2041 267.939 5.41641 270.62 1.96757C269.951 4.28163 269.583 6.71437 270.597 8.73176C270.71 8.96168 271.063 9.0136 271.243 8.82817C272.752 7.23355 273.871 5.41641 274.765 3.48061C274.795 5.80209 275.606 8.0494 277.018 9.94071C277.889 11.1126 279.879 13.5379 281.621 12.8926C283.821 12.0768 282.748 9.34736 282.109 7.90107C280.953 5.27549 279.541 2.76117 277.949 0.365519C281.005 2.33099 284.249 3.71795 288.057 2.86501C291.616 2.06398 295.303 -0.739597 295.927 -4.48512ZM278.737 -17.0196C279.023 -17.1977 279.331 -17.2867 279.631 -17.2941C279.706 -17.1977 279.864 -17.168 279.946 -17.2718C280.337 -17.2051 280.712 -17.0048 281.005 -16.6711C281.599 -16.0035 281.726 -15.0097 281.193 -14.268C280.735 -13.6376 280.082 -13.4076 279.368 -13.3631C279.248 -13.6746 279.03 -13.8378 278.76 -14.0974C278.737 -14.1493 278.662 -14.0677 278.595 -14.0826C278.527 -14.1048 278.512 -14.3125 278.445 -14.357C278.385 -14.3941 278.347 -14.4831 278.294 -14.4905C278.242 -14.5424 278.167 -14.5943 278.092 -14.5795C277.438 -15.2099 278.009 -16.5746 278.737 -17.0196ZM271.979 -2.17847C271.754 -1.4887 271.491 -0.739597 271.22 0.039175C271.108 0.0465908 270.995 0.0910931 270.92 0.209763C269.561 2.35324 267.976 4.31871 266.121 6.0691C265.258 6.88495 264.349 7.69339 263.358 8.3535C262.937 8.70209 262.457 8.95427 261.924 9.11002L260.497 8.19032C260.279 7.76015 260.955 6.72178 261.173 6.35836C263.643 2.29391 268.262 -0.428089 272.212 -2.91274C272.137 -2.66057 272.062 -2.42323 271.979 -2.17847ZM272.016 -3.7731C268.127 -2.64573 263.779 -2.51223 260.242 -4.74471C256.9 -6.85111 254.917 -10.8117 256.344 -14.6462C259.415 -22.9309 274.277 -19 275.749 -11.457C275.764 -11.3828 275.801 -11.3309 275.854 -11.3012C274.457 -8.8685 273.376 -6.27259 272.46 -3.61735C272.369 -3.75085 272.219 -3.83244 272.016 -3.7731ZM275.929 -1.98563C274.817 1.52255 273.518 4.97882 271.07 7.7824C270.462 6.03943 270.988 4.19263 271.461 2.44225C271.979 0.513857 272.527 -1.40712 273.158 -3.30584C274.389 -6.99944 275.981 -10.5002 278.039 -13.8007C278.047 -13.7933 278.054 -13.7933 278.054 -13.7859C278.257 -13.645 278.407 -13.4744 278.52 -13.2741C278.385 -13.111 278.422 -12.8069 278.67 -12.7253C278.685 -12.7179 278.7 -12.7179 278.715 -12.7104C279.023 -11.2196 277.994 -8.97233 277.671 -7.84497C277.123 -5.89433 276.545 -3.93627 275.929 -1.98563ZM280.54 6.46961C280.96 7.31513 281.771 8.50925 281.861 9.43636C282.289 10.0965 282.012 10.586 281.02 10.9049C280.57 11.9284 280.082 12.1361 279.563 11.5205C279.181 11.3128 278.82 10.9197 278.512 10.6082C277.791 9.88137 277.168 9.0581 276.672 8.16807C275.696 6.39544 275.276 4.45963 275.2 2.46449C275.613 1.48547 275.981 0.484186 276.319 -0.531925C277.311 0.877281 278.257 2.31616 279.113 3.81437C279.616 4.67472 280.097 5.56475 280.54 6.46961ZM286.795 2.26424C282.875 2.75375 279.676 0.677029 276.635 -1.4887C276.86 -2.18589 277.078 -2.89049 277.288 -3.59509C277.881 -5.54573 278.595 -7.54829 279.098 -9.55827C282.35 -10.7227 285.962 -12.0503 289.461 -11.3012C292.773 -10.5892 295.942 -7.60021 294.966 -4.02528C294.012 -0.509674 290.28 1.83406 286.795 2.26424Z" fill="#F29704"/>
<path d="M64.6081 87.1431C63.4506 86.8879 62.4572 88.0727 62.7215 89.1756C62.8035 89.5401 63.323 89.3761 63.2683 89.0206C63.1772 88.3553 63.9155 87.6079 64.5717 87.936C64.8086 88.0545 64.9909 88.2915 65.073 88.5467C65.155 88.8292 65.0547 89.0662 65.0639 89.3487C65.073 89.6586 65.4375 89.8044 65.6654 89.5948C66.5312 88.8292 65.5013 87.3345 64.6081 87.1431Z" fill="#FBC201"/>
<path d="M101.33 59.5375C97.5832 58.353 93.4255 58.9009 90.0494 60.8267C90.4442 58.4658 91.0405 52.1567 87.5273 52.0036C84.7475 51.8828 84.6266 54.7916 85.0376 56.9349C83.9337 56.2661 82.6122 55.8955 81.6131 56.9832C80.3078 58.4014 81.1941 60.1579 82.2093 61.4552C80.9524 61.4633 79.5826 61.1973 78.6237 62.1401C78.0677 62.6799 77.7777 63.4535 78.2047 64.1625C78.8252 65.1859 80.8073 65.3873 81.8387 65.4759C83.2649 65.5887 84.6347 65.3873 85.9481 64.9038C80.759 73.0501 92.5231 84.4435 101.008 82.3243C102.184 82.0262 103.248 81.5105 104.19 80.8417C104.319 84.4757 105.286 89.6648 109.702 89.9871C112.707 90.2127 113.344 87.4328 112.49 85.2331C113.65 85.7488 114.947 85.7972 115.793 84.5885C116.744 83.2268 115.938 81.5428 114.794 80.4792C116.954 80.5678 118.742 78.3439 117.461 76.1361C115.971 73.5738 111.346 73.7269 108.598 74.4118C108.961 73.2193 109.154 71.9784 109.178 70.7617C109.251 65.5484 106.358 61.1329 101.33 59.5375ZM81.041 64.5332C80.5656 64.4526 80.1063 64.3318 79.6551 64.1625C79.1878 62.5591 79.7034 61.9548 81.2102 62.3415C81.887 62.3335 82.4591 62.3979 83.136 62.269C83.426 62.2126 83.7 61.842 83.4583 61.568C83.136 61.2215 82.8298 60.8589 82.5478 60.4802C81.3633 59.0943 81.4842 58.2322 82.9023 57.8937C84.1835 57.2008 84.4977 57.5553 85.5049 58.4094C85.8675 58.7156 86.3671 58.3127 86.2301 57.8937C85.8514 56.7576 85.3115 55.3637 85.8353 54.1792L86.5363 53.2687C88.2767 52.9142 89.155 53.591 89.1711 55.2911C89.5337 57.1122 89.3564 59.0299 89.0905 60.8428C89.0583 61.0443 89.1469 61.1974 89.2758 61.286C88.1317 62.0353 87.1003 62.9458 86.222 64.0094C86.1898 64.0497 86.1656 64.09 86.1414 64.1384C84.4816 64.6621 82.7814 64.8716 81.041 64.5332ZM86.641 64.8152C86.7619 64.8152 86.8827 64.7588 86.9875 64.646C90.6215 60.5044 96.6082 58.7076 101.83 60.7864C102.095 60.8912 102.353 61.012 102.603 61.1329C99.1625 61.2296 95.4077 63.1392 92.6197 64.9844C90.0977 66.6604 87.0036 69.0374 86.2059 72.1315C85.3679 69.7545 85.3437 67.1922 86.641 64.8152ZM86.4799 72.8325C86.5282 72.8003 86.5765 72.7519 86.5927 72.6794C87.5596 69.3436 91.113 66.8215 93.9815 65.1375C96.9225 63.4132 99.9441 62.8894 103.095 61.8097C103.248 61.7533 103.32 61.6486 103.328 61.5277C105.182 62.6477 106.495 64.2753 107.285 66.1528C107.252 66.1367 107.22 66.1205 107.172 66.1205C102.297 65.6854 97.1642 67.9335 93.6028 71.1646C91.9107 72.6955 90.3153 74.5891 89.4048 76.7082C89.3564 76.813 89.3161 76.9338 89.2839 77.0627C88.1156 75.8138 87.1325 74.3715 86.4799 72.8325ZM113.344 74.9839C114.142 75.0564 115.028 75.1692 115.721 75.5963C118.275 77.1675 116.736 80.7209 113.868 79.8023C113.835 79.7862 113.803 79.762 113.771 79.7459C113.505 79.6089 113.215 79.9715 113.4 80.2052C114.23 81.2607 115.874 82.2276 115.326 83.823C114.802 85.354 113.255 85.0075 112.055 84.371C111.821 84.0003 111.547 83.6619 111.225 83.3879C110.999 83.1946 110.709 83.4202 110.733 83.6619C110.628 83.7344 110.58 83.9036 110.709 84.0164C110.87 84.1695 111.047 84.3226 111.241 84.4677C111.845 85.4184 112.216 86.329 111.837 87.5457C111.813 88.569 111.241 88.9396 110.105 88.6576C109.38 89.0605 108.735 89.0363 108.171 88.5851C107.478 88.2386 106.914 87.6665 106.471 87.038C105.109 85.1042 104.94 82.6789 104.763 80.3905C106.374 79.061 107.575 77.2319 108.316 75.2337C109.984 75.1773 111.644 74.8388 113.344 74.9839ZM106.874 76.0475C104.706 80.4711 100.419 82.2196 96.1409 81.2446C96.1651 81.1882 96.1731 81.1157 96.1248 81.0593C95.6252 80.3905 97.8813 77.7718 98.3326 77.2319C99.1947 76.2006 100.162 75.2578 101.225 74.436C103.264 72.8486 105.512 72.0751 107.841 71.0518C108.195 70.8987 108.098 70.3105 107.679 70.3669C104.497 70.802 101.346 72.9856 99.1303 75.2176C98.2923 76.0636 94.8356 79.6492 95.6897 81.1318C94.7469 80.874 93.8042 80.4872 92.8937 79.9554C91.8462 79.3511 90.839 78.5856 89.9124 77.7073C89.993 76.8694 92.2813 73.6624 92.6117 73.2837C93.8284 71.9301 95.2385 70.7617 96.7855 69.8109C100.009 67.8207 103.409 67.1519 107.131 66.9344C107.309 66.9263 107.422 66.8054 107.462 66.6685C108.542 69.6095 108.34 73.0581 106.874 76.0475Z" fill="#FDC321"/>
<path d="M259.735 142.119L263.008 137.205L264.865 142.229L269.451 143.212L265.195 146.595L266.505 152.055L261.482 147.905L257.332 151.945L257.988 146.705L254.165 143.539L259.735 142.119Z" fill="#F8E9D3"/>
<path d="M268.834 134.926L270.751 132.051L271.837 134.99L274.521 135.565L272.029 137.546L272.796 140.741L269.856 138.313L267.428 140.677L267.811 137.61L265.575 135.757L268.834 134.926Z" fill="#F8E9D3"/>
<path d="M255.926 132.906L257.197 131L257.914 132.945L259.689 133.329L258.042 134.639L258.549 136.755L256.604 135.146L254.996 136.712L255.251 134.681L253.771 133.453L255.926 132.906Z" fill="#F8E9D3"/>
<path d="M273.335 144.302L274.269 142.9L274.798 144.334L276.108 144.614L274.894 145.58L275.266 147.138L273.832 145.953L272.65 147.107L272.835 145.612L271.745 144.707L273.335 144.302Z" fill="#F8E9D3"/>
<path d="M248.418 140.276L249.838 138.143L250.643 140.326L252.635 140.752L250.785 142.218L251.353 144.589L249.174 142.79L247.374 144.543L247.658 142.268L246 140.894L248.418 140.276Z" fill="#F8E9D3"/>
<path d="M47.9466 32.8992C47.5666 31.5192 45.6266 31.0592 44.4566 31.6692C44.1566 31.8292 43.9066 32.0392 43.7066 32.2792C43.6366 32.2392 43.5766 32.1992 43.5066 32.1592C42.8666 31.6992 42.3066 31.1592 41.8066 30.5492C43.4766 29.5092 44.9166 28.1192 45.9266 26.3492C48.8566 21.2292 45.7966 15.9192 41.3966 12.9392C44.2366 12.5392 46.3766 9.28918 44.8866 6.61918C43.8966 4.83918 41.4966 4.4692 40.1066 5.6392C39.9766 4.2592 38.9066 2.87921 37.6766 2.42921C36.0966 1.84921 34.3666 2.50919 33.4466 3.80919C33.1266 1.59919 31.9066 -0.850804 29.3566 0.289196C26.2066 1.7092 25.0266 6.16919 24.3266 9.24919C22.8066 9.49919 21.3466 9.90919 20.0066 10.5292C22.4066 3.09919 13.3566 -1.6208 7.84658 2.8592C7.82658 2.8292 7.80658 2.8092 7.77658 2.7892C6.39658 1.8892 4.83659 1.20921 3.36659 0.45921C3.04659 0.29921 2.55659 0.569189 2.69659 0.969189C3.15659 2.24919 3.95658 3.72919 4.16658 5.05919C4.32658 6.04918 4.01658 6.2292 3.23658 6.7292C2.56658 7.1592 1.89658 7.58921 1.22658 8.01921C0.876582 8.23921 0.946583 8.74919 1.33658 8.87919C2.55658 9.27919 3.76658 9.7292 4.99658 10.1092C5.76658 14.4192 10.1766 18.0492 15.1966 16.8292C15.2766 16.8092 15.3366 16.7792 15.3866 16.7392C15.0066 18.7592 15.2466 20.9592 16.1166 22.9492C18.6066 28.6392 24.6866 32.2192 30.6966 32.8792C31.8366 33.0092 33.0166 33.0192 34.1966 32.9292C34.4266 33.6992 34.8166 34.4392 35.3166 35.0692C34.8066 35.4592 34.4166 36.0292 34.2966 36.7492C34.2466 37.0392 34.6666 37.1692 34.7466 36.8692C34.8866 36.3192 35.2266 35.8092 35.6866 35.4892C36.2666 36.0892 36.9566 36.5492 37.7566 36.7592C38.0966 36.8492 38.2566 36.3992 37.9866 36.2092C37.4766 35.8592 37.0166 35.4992 36.6166 35.1192C36.6266 35.1192 36.6266 35.1192 36.6366 35.1192C37.5966 34.9992 38.3466 35.5892 38.8866 36.3192C39.0566 36.5492 39.4866 36.4292 39.3766 36.1092C38.8666 34.5692 37.3666 34.1792 36.1266 34.6192C35.6566 34.0992 35.2666 33.5192 34.9866 32.8392C37.1766 32.5792 39.3366 31.9392 41.2366 30.8692C41.7866 31.5992 42.5066 32.3492 43.3066 32.9292C43.0066 33.6692 43.0266 34.5492 43.4266 35.2792C43.6066 35.5992 44.0566 35.3192 43.9066 34.9992C43.6566 34.4692 43.6666 33.8392 43.8866 33.2992C44.4266 33.6092 44.9866 33.8292 45.5566 33.8992C45.8666 33.9392 45.9066 33.5092 45.6966 33.3692C45.2666 33.0792 44.7966 32.8692 44.3366 32.6292C44.4866 32.4892 44.6666 32.3592 44.8666 32.2792C45.9166 31.8592 46.7266 32.4792 47.4266 33.1792C47.6566 33.3992 48.0266 33.1892 47.9466 32.8992ZM27.2166 3.49919C28.0566 2.18919 29.4466 0.559194 31.2366 1.09919C32.8566 1.57919 32.6866 4.25921 32.7266 5.51921C32.7466 6.02921 33.4766 6.01921 33.5166 5.51921C33.5366 5.33921 33.5366 5.13921 33.5366 4.92921C34.2166 3.57921 35.7766 2.66921 37.2966 3.17921C39.0366 3.76921 39.1866 5.48919 39.1266 7.02919C39.1166 7.38919 39.6066 7.48921 39.7766 7.20921C39.8666 7.06921 39.9266 6.9092 39.9766 6.7592C41.1366 5.1392 43.7266 5.5892 44.3066 7.6392C45.0266 10.1592 42.8466 11.4792 40.8166 12.1292C40.6766 12.1792 40.5866 12.2792 40.5466 12.3992C36.2766 9.84918 30.2866 8.45918 24.9566 9.14918C25.5466 7.19918 26.1166 5.21919 27.2166 3.49919ZM4.91658 9.37919C4.12658 9.02919 3.32658 8.70918 2.52658 8.36918C3.58658 7.80918 4.97658 7.08919 5.26658 6.18919C5.47658 5.53919 5.04659 4.76919 4.83659 4.18919C4.54659 3.38919 4.25659 2.5892 3.95659 1.7892C5.04659 2.3592 6.13658 2.92918 7.26658 3.36918C7.23658 3.39918 7.19658 3.42921 7.16658 3.45921C5.40658 5.24921 4.75658 7.35919 4.91658 9.37919ZM14.9566 15.9292C8.31659 17.3792 2.68658 9.41919 7.84658 4.12919C12.7366 -0.880808 21.1966 3.55921 19.4566 10.4592C19.4266 10.5892 19.4766 10.6792 19.5466 10.7392C19.4966 10.7692 19.4466 10.7792 19.3966 10.8092C19.2666 10.8792 19.2166 10.9792 19.2066 11.0792C17.2366 12.2692 16.0166 14.1292 15.4966 16.2292C15.4266 16.0292 15.2266 15.8692 14.9566 15.9292ZM40.9966 29.6792C39.0866 30.8692 36.9166 31.5492 34.6666 31.7892C34.6466 31.6892 34.6166 31.5992 34.5966 31.4992C34.5366 31.1392 33.9366 31.2192 33.9566 31.5892C33.9666 31.6792 33.9766 31.7692 33.9866 31.8492C30.0366 32.1092 25.9366 31.0292 22.7166 28.9192C17.1966 25.3092 12.6966 15.8292 19.5666 11.4992C19.6066 11.5092 19.6466 11.5092 19.6866 11.4992C23.1066 10.8892 26.2566 10.0492 29.7866 10.2892C33.2066 10.5292 36.6766 11.4792 39.6666 13.1792C42.4566 14.7692 45.2066 17.2992 45.8466 20.5892C46.5966 24.4292 44.0866 27.7492 40.9966 29.6792Z" fill="#F29704"/>
<path d="M260.977 63.0665C259.43 59.8503 257.779 56.6786 256.013 53.5464C255.484 52.6126 255.001 50.8292 253.667 50.5377C253.011 50.3944 252.154 50.5278 251.481 50.5327C251.119 50.5377 250.756 50.5476 250.394 50.5575C250.405 50.513 250.405 50.4636 250.388 50.4092C248.777 45.9975 247.012 41.6154 245.159 37.2629C246.885 38.33 248.841 39.1995 250.704 40.0443C250.969 40.1629 251.257 39.9653 251.193 39.7183C250.814 38.1423 249.985 36.7442 249.082 35.3461C247.943 33.5873 246.966 31.8285 246.195 29.9215C245.677 28.637 245.344 26.6856 244.095 25.7469C243.497 25.2973 242.669 25.0306 241.973 24.7243C240.995 24.2895 240.023 23.835 239.022 23.4348C237.239 19.527 235.508 15.5698 233.437 11.7657C231.752 8.66806 229.549 5.6989 225.959 4.03399C225.787 3.95495 225.511 4.01423 225.471 4.20691C224.544 8.64336 225.171 13.2626 225.764 17.704C226.23 21.1771 226.863 24.6353 227.668 28.064C227.639 28.0788 227.61 28.0985 227.593 28.1331C226.805 29.6498 225.879 31.1863 225.309 32.7771C224.78 34.2592 225.189 35.5239 225.706 36.9616C227.001 40.5186 228.341 44.0658 229.71 47.5982C229.813 47.8649 230.268 47.8798 230.36 47.5982C230.923 45.874 231.625 44.135 232.074 42.3811C233.811 46.9016 235.864 51.3281 238.251 55.6263C238.292 55.6954 238.361 55.7152 238.424 55.7004C237.331 57.4937 237.97 59.6082 238.832 61.4411C240.144 64.2324 241.542 66.9941 242.899 69.7705C243.014 70.0077 243.382 70.0867 243.56 69.8447C244.625 68.3872 245.689 66.9348 246.753 65.4774C246.833 67.2164 247.731 68.7924 249.226 69.9978C249.422 70.1559 249.681 70.0275 249.709 69.8249C249.847 68.8566 249.974 67.8833 250.106 66.9101C251.412 68.2489 252.718 69.5828 254.018 70.9167C254.202 71.1044 254.564 70.9464 254.564 70.724C254.541 69.3111 254.202 67.992 253.529 66.7273C254.529 66.9891 255.99 67.3399 256.244 66.4556C256.364 66.0356 255.921 65.428 255.743 65.0624C255.254 64.0595 254.679 63.0714 253.92 62.2019C256.146 62.5181 258.349 62.8837 260.552 63.437C260.776 63.5062 261.087 63.2888 260.977 63.0665ZM244.032 26.5077C244.579 27.1796 244.814 28.2023 245.119 28.973C245.436 29.7783 245.752 30.5835 246.103 31.3789C247.288 34.0714 249.468 36.4527 250.359 39.2341C248.467 38.3251 246.672 37.2876 244.78 36.3885C243.003 32.2435 241.156 28.1232 239.281 24.0178C239.902 24.3241 240.541 24.6106 241.168 24.9071C242.082 25.3369 243.411 25.7469 244.032 26.5077ZM226.028 4.74046C229.664 6.6178 231.723 9.89821 233.379 13.1589C233.679 13.7468 233.972 14.3396 234.265 14.9324C232.494 17.1111 229.399 18.0844 226.402 17.4026C226.379 17.3977 226.356 17.3977 226.333 17.3977C225.787 13.2379 225.217 8.90025 226.028 4.74046ZM231.694 41.5462C230.975 43.142 230.509 44.8513 229.992 46.5162C228.904 43.6903 227.84 40.8546 226.793 38.0188C226.172 36.3341 225.35 34.7038 225.896 32.9203C226.339 31.4629 227.139 30.0401 227.783 28.6272C227.927 29.2299 228.076 29.8277 228.231 30.4304C229.192 34.1653 230.354 37.8656 231.723 41.5067C231.717 41.5215 231.706 41.5314 231.694 41.5462ZM238.464 55.315C234.398 47.4055 231.125 39.2045 228.922 30.7564C227.812 26.4979 226.966 22.1849 226.391 17.8473C229.399 18.6377 232.695 17.6892 234.57 15.55C236.152 18.7859 237.63 22.0663 239.114 25.3369C242.87 33.6219 246.218 42.0156 249.658 50.3994C248.415 50.3796 247.167 50.4586 245.925 50.508C245.2 50.5328 244.418 50.4833 243.756 50.76C243.641 50.7007 243.457 50.7748 243.48 50.8983C242.68 51.3479 242.019 52.1482 241.375 52.7263C240.414 53.5908 239.419 54.4307 238.476 55.3101C238.47 55.3101 238.47 55.3101 238.464 55.315ZM246.195 65.0673C245.229 66.3864 244.262 67.7055 243.296 69.0245C242.243 66.8755 241.196 64.7264 240.144 62.5774C239.022 60.285 237.584 57.6716 239.477 55.3743C239.592 55.236 239.546 55.1075 239.436 55.0235C240.684 53.9317 241.869 52.7213 243.244 51.7827C243.411 51.669 243.589 51.5752 243.773 51.4912C245.148 54.2825 246.632 57.0293 248.053 59.8058C248.386 60.458 248.801 61.0952 248.536 61.8758C248.415 62.2365 247.984 62.6268 247.754 62.938L246.195 65.0673ZM254.944 64.924C255.277 65.5564 256.036 66.2777 254.742 66.3321C254.202 66.3568 253.511 66.1147 252.988 66.0258C252.712 65.9763 252.482 66.2135 252.62 66.4358C253.316 67.5573 253.713 68.6985 253.851 69.9286C252.597 68.654 251.337 67.3794 250.083 66.1048C249.893 65.9121 249.589 66.09 249.566 66.2876C249.439 67.2954 249.312 68.3082 249.186 69.321C247.834 68.16 247.144 66.7075 247.058 65.0377C247.132 64.9389 247.201 64.8401 247.276 64.7413C247.92 63.8569 249.255 62.6663 249.422 61.53C249.456 61.5794 249.519 61.6189 249.606 61.6338C250.894 61.8067 252.171 61.9697 253.442 62.1476C253.35 62.2118 253.304 62.3205 253.385 62.4489C253.914 63.269 254.495 64.0644 254.944 64.924ZM249.692 61.0854C249.571 61.0804 249.485 61.1397 249.433 61.2188C249.427 61.1595 249.427 61.1051 249.416 61.0459C249.284 60.3246 248.634 59.4896 248.289 58.8326C247.811 57.9285 247.334 57.0293 246.845 56.1351C245.971 54.5295 245.09 52.9189 244.136 51.3479C245.562 50.8341 247.351 50.9724 248.944 50.923C250.25 50.9428 251.636 50.8588 252.879 51.0515C254.598 51.3133 255.363 53.7143 256.042 54.9544C257.434 57.5036 258.751 60.0775 260.017 62.6762C256.681 61.861 253.149 61.1694 249.692 61.0854Z" fill="#E54428"/>
<path d="M232.988 21.3302C232.977 21.3302 232.971 21.3351 232.965 21.3351C232.919 21.3006 232.862 21.2759 232.793 21.266C231.441 21.1128 230.389 22.5258 230.371 23.5435C230.354 24.744 231.562 25.569 232.902 25.569C234.248 25.5641 235.439 24.7391 235.421 23.5336C235.41 22.3677 234.352 21.3648 232.988 21.3302ZM232.908 25.0059C231.919 25.0009 231.033 24.4476 231.033 23.5484C231.033 22.5406 231.89 22.0367 232.873 21.7501C232.919 21.7353 232.954 21.7156 232.983 21.6958C235.157 22.0219 235.422 25.0108 232.908 25.0059Z" fill="#E54428"/>
<path d="M236.928 28.3258C236.175 27.7972 234.3 27.7527 233.955 28.6914C233.155 29.2793 232.896 30.3513 233.477 31.1665C234.219 32.204 236.077 32.3373 237.101 31.5419C238.165 30.7021 238.027 29.0965 236.928 28.3258ZM236.531 31.2455C235.732 31.7346 234.398 31.5765 233.937 30.7861C233.644 30.2822 233.742 29.6745 234.093 29.2101C234.202 29.2299 234.329 29.2002 234.403 29.1113C234.697 28.7605 234.904 28.5184 235.45 28.474C235.933 28.4345 236.393 28.5876 236.716 28.8988C237.394 29.5411 237.4 30.712 236.531 31.2455Z" fill="#E54428"/>
<path d="M94.1494 -26.3907C92.7694 -27.0888 92.0984 -28.1062 91.476 -29.4699C91.1513 -30.1788 90.7509 -30.7633 90.0257 -31.1042C88.6295 -31.759 87.2117 -31.1096 86.5623 -29.8596C86.5136 -29.8433 86.4703 -29.8163 86.4378 -29.7784C85.7505 -33.442 82.5144 -36.2453 78.8561 -36.7431C78.7263 -36.7594 78.6234 -36.7052 78.5531 -36.6295C76.9783 -36.662 75.3981 -36.3102 74.0019 -35.6121C74.4024 -36.7431 74.24 -38.1555 73.0441 -38.7346C70.6413 -39.8927 68.428 -36.2074 66.1876 -38.9023C65.9819 -39.1513 65.6572 -38.8753 65.7005 -38.621C66.3229 -35.0493 69.7322 -34.059 72.7897 -34.8815C72.0213 -34.3241 71.3448 -33.6369 70.8037 -32.8251C68.6931 -29.6593 69.2126 -25.7413 71.8481 -23.0734C72.8871 -22.0235 74.1534 -21.228 75.5172 -20.741C73.0711 -17.6618 70.6467 -14.5934 68.1574 -11.5846C66.9019 -12.7913 66.3878 -14.1172 66.1767 -15.7353C67.0859 -15.7894 68.0546 -16.3089 68.3143 -17.1856C68.3793 -17.4074 68.087 -17.5806 67.9247 -17.4129C67.3998 -16.8609 66.9398 -16.363 66.2038 -16.2818C66.2038 -16.3414 66.1713 -16.4063 66.1064 -16.4225C66.0956 -16.5199 66.0902 -16.6228 66.0847 -16.7256C66.1334 -17.1964 66.1659 -17.6888 66.0739 -18.1164C66.036 -18.2949 65.7492 -18.2949 65.7113 -18.1164C65.6356 -17.7592 65.6464 -17.3587 65.6789 -16.9637C65.6356 -16.9312 65.5977 -16.8879 65.5815 -16.8176C65.5761 -16.7905 65.5706 -16.7689 65.5652 -16.7418C65.1756 -17.1423 65.0728 -17.7917 65.3704 -18.2949C65.4786 -18.4789 65.2081 -18.7008 65.0674 -18.5276C64.4883 -17.8187 64.786 -16.7743 65.5003 -16.3305V-16.3251C64.6344 -16.5524 64.0229 -17.3641 63.9363 -18.2516C63.9147 -18.4843 63.5521 -18.4952 63.5629 -18.2516C63.6062 -17.1098 64.3422 -16.0708 65.4786 -15.7948C65.5057 -14.0522 66.5231 -12.2772 67.8597 -11.2166C65.3758 -8.22393 62.8161 -5.29085 60.0941 -2.46599C59.9209 -2.28741 59.9967 -1.98434 60.2402 -1.91399C63.0272 -1.12931 65.8088 -0.339222 68.5957 0.445461C67.968 1.6739 67.4214 2.94563 66.837 4.1903C66.7558 4.36889 66.6367 4.82345 66.4852 4.9425C66.1443 5.20768 65.8033 4.96957 65.4841 4.8451C65.0078 4.66111 64.537 4.48252 64.0608 4.29852C64.077 4.15782 63.9905 4.01712 63.8119 4.01171C63.6387 4.00089 63.4655 4.0063 63.2923 4.02794C62.9135 4.055 62.8594 4.53664 63.2058 4.67192C64.077 5.01286 64.9808 5.46744 65.8899 5.69473C66.3337 5.80837 66.5826 5.80836 66.9073 5.46743C67.3889 4.95333 67.6433 3.75195 67.9031 3.12961C68.2602 2.27999 68.6336 1.43578 68.9583 0.575333C68.9637 0.56451 68.9637 0.553688 68.9637 0.542866C71.5775 1.28426 74.1859 2.02024 76.7997 2.76163C76.7835 2.77245 76.7618 2.78868 76.751 2.81033C75.8906 4.54746 75.5551 6.65258 75.0247 8.51417C74.9598 8.73064 75.133 8.90381 75.3386 8.92546C76.1612 9.00122 77.027 9.08239 77.8171 8.82264C78.0823 8.73605 78.0119 8.3897 77.7522 8.35723C77.092 8.27606 76.4209 8.31936 75.7499 8.29771C76.2261 6.53353 76.8971 4.68817 77.0162 2.8861C77.0162 2.86446 77.0108 2.84281 77 2.82116C79.2674 3.46515 81.5295 4.10371 83.7969 4.7477C84.0513 4.81805 84.2732 4.57993 84.2136 4.33099C83.272 0.385929 82.4711 -3.58078 81.7946 -7.57455C83.0285 -7.00092 84.3165 -8.24017 85.1444 -9.06814C85.7614 -9.67966 86.3891 -10.4156 86.887 -11.2112C86.9519 -11.1787 87.0223 -11.1462 87.0926 -11.1137C88.0992 -10.7187 89.4737 -11.2544 89.7714 -12.3313C89.8417 -12.5911 89.4954 -12.721 89.3493 -12.5099C88.873 -11.8172 88.1371 -11.2761 87.2604 -11.59C87.2171 -11.6062 87.1846 -11.6278 87.1467 -11.6441C87.4281 -12.1636 87.65 -12.6993 87.7691 -13.2459C87.8232 -13.5111 87.4606 -13.6897 87.3199 -13.4353C87.0656 -12.9807 86.8383 -12.5208 86.6056 -12.0662C86.2538 -12.5045 86.1294 -13.1269 86.2701 -13.6842C86.3242 -13.9061 86.0157 -13.9819 85.9345 -13.7763C85.6477 -13.0403 85.8479 -12.1852 86.3675 -11.617C86.1348 -11.1895 85.8804 -10.7674 85.5665 -10.3669C84.7656 -9.34956 83.2612 -7.53667 81.8271 -7.94795C81.7946 -7.95878 81.7622 -7.95337 81.7351 -7.94795C81.0478 -12.0608 80.5013 -16.1952 80.1008 -20.3459C80.6744 -20.4488 81.2427 -20.6111 81.7946 -20.8438C85.0308 -22.1967 86.8816 -25.6114 86.5569 -29.0532C87.6284 -26.2392 91.6925 -23.1925 94.2305 -25.9361C94.3279 -26.066 94.3225 -26.3041 94.1494 -26.3907ZM68.9691 -35.3686C67.8056 -35.7961 66.9777 -36.6944 66.5447 -37.793C67.2915 -37.2897 68.1899 -37.1328 69.1423 -37.3871C69.9324 -37.5982 70.6359 -38.0419 71.4206 -38.253C73.3363 -38.7725 73.9911 -37.1382 73.661 -35.6608C72.0916 -35.4119 70.5656 -34.7841 68.9691 -35.3686ZM83.4181 3.94677C75.923 1.83624 68.428 -0.274284 60.9383 -2.39563C66.3607 -8.02371 71.6695 -14.0306 75.9176 -20.6003C77.0433 -20.2539 78.2338 -20.1295 79.4081 -20.2485C80.2036 -12.1041 81.5349 -4.01912 83.4181 3.94677ZM79.9601 -20.9575C79.7924 -21.1631 79.4081 -21.136 79.3594 -20.86C78.6721 -20.7789 77.9524 -20.7897 77.2218 -20.9087C73.1198 -21.5798 69.3534 -25.4707 70.2192 -29.8109C71.0364 -33.902 74.6946 -35.9097 78.5152 -36.2182C78.5531 -36.1749 78.6018 -36.137 78.683 -36.1262C82.5685 -35.4552 85.9129 -32.4192 85.9237 -28.2956C85.9399 -24.5995 83.337 -21.6393 79.9601 -20.9575ZM86.9249 -29.681C86.9249 -29.6918 86.914 -29.6972 86.914 -29.7026C87.6608 -30.8823 89.3005 -31.3477 90.4045 -30.2005C90.9511 -29.6269 91.0864 -28.788 91.4652 -28.1116C91.9522 -27.2403 92.6612 -26.5693 93.5108 -26.0768C91.108 -24.0204 87.5959 -27.3323 86.9249 -29.681Z" fill="#EE8299"/>
<path d="M162.943 16.7844C161.773 15.3822 159.913 14.8594 158.148 15.1565C158.19 14.4435 158.178 13.7306 158.101 13.0176C157.828 10.5163 156.562 7.30209 154.631 4.78299C155.903 3.21449 157.685 2.3233 159.711 2.10941C160.014 2.07971 160.026 1.61629 159.711 1.62817C157.578 1.69352 155.647 2.79266 154.393 4.48593C152.463 2.09159 149.914 0.404266 147.038 0.707271C147.246 -1.5623 148.417 -3.37439 150.496 -4.48541C150.829 -4.66365 150.538 -5.11518 150.211 -4.97259C147.995 -4.02793 146.498 -1.61577 146.569 0.778566C146.486 0.790449 146.408 0.802331 146.325 0.820155C146.135 0.861744 146.064 1.00434 146.064 1.14693C143.479 1.06375 140.871 1.68164 138.584 2.89366C138.584 2.88772 138.584 2.88178 138.578 2.8699C137.948 1.34893 137.74 -0.189863 137.847 -1.82966C137.871 -2.16831 137.366 -2.15049 137.33 -1.82966C137.134 -0.148274 137.449 1.50934 138.156 3.04814C138.168 3.0719 138.18 3.08972 138.198 3.10161C136.213 4.23045 134.49 5.80489 133.278 7.76551C132.684 8.728 132.233 9.77961 131.924 10.8728C130.48 10.4629 129.339 9.46472 128.62 8.0804C128.513 7.87246 128.151 8.02099 128.24 8.24082C128.858 9.78555 130.236 10.8966 131.829 11.2649C131.009 14.5445 131.454 18.1568 133.231 21.0265C131.234 21.7572 129.363 21.7869 127.283 21.1334C127.046 21.0621 126.879 21.4305 127.111 21.5374C129.101 22.4524 131.502 22.3751 133.433 21.3354C133.641 21.6443 133.86 21.9533 134.104 22.2444C135.684 24.1575 137.936 25.5002 140.408 26.2667C138.958 28.4055 136.986 29.8493 134.508 30.7107C134.27 30.7939 134.365 31.1445 134.615 31.091C137.229 30.4969 139.505 28.7204 140.818 26.3974C142.867 26.9737 145.054 27.1519 147.133 26.9143C147.418 28.459 147.264 29.9562 146.658 31.4296C146.569 31.6495 146.949 31.8158 147.05 31.596C147.721 30.0869 147.882 28.4649 147.496 26.8727C148.613 26.7182 149.694 26.4449 150.698 26.0468C152.326 25.4052 153.722 24.3952 154.857 23.1415C156.414 24.3595 157.293 26.1657 157.358 28.1382C157.37 28.4352 157.822 28.4412 157.822 28.1382C157.828 25.9993 156.829 24.0862 155.142 22.8088C156.841 20.7947 157.893 18.2222 158.131 15.5724C159.842 15.305 161.398 15.9288 162.646 17.0993C162.842 17.2894 163.121 16.9983 162.943 16.7844ZM151.102 25.0725C148.137 26.4746 144.388 26.635 141.038 25.6904C140.99 25.6428 140.925 25.6191 140.859 25.6369C138.78 25.0249 136.861 23.9852 135.393 22.5474C132.476 19.6956 131.567 15.2753 132.559 11.3838C132.666 11.3897 132.773 11.4016 132.88 11.4016C133.106 11.4075 133.094 11.0807 132.88 11.057C132.809 11.051 132.732 11.0392 132.66 11.0273C132.868 10.2965 133.142 9.5776 133.486 8.90624C136.071 3.86803 141.774 1.49152 147.211 1.61629C147.353 1.62223 147.413 1.5034 147.395 1.4024C152.463 1.1291 156.449 7.91404 157.239 12.1621C158.166 17.1587 155.837 22.8326 151.102 25.0725Z" fill="#FBC201"/>
<path d="M141.079 8.74577C141.091 8.73389 141.103 8.71606 141.115 8.70418C141.269 8.53188 141.031 8.29423 140.865 8.45465C140.699 8.60318 140.532 8.7933 140.408 8.99531C140.271 9.1379 140.194 9.32208 140.212 9.5122C140.182 9.72608 140.217 9.94591 140.366 10.1598C140.705 10.6351 141.465 10.742 141.697 10.1182C141.881 9.60726 141.709 8.81113 141.079 8.74577ZM141.115 9.99344C140.984 10.0707 140.847 9.95185 140.764 9.8152C140.818 9.74985 140.841 9.66667 140.812 9.58349C140.752 9.42902 140.954 9.30425 141.079 9.39337C141.21 9.47655 141.251 9.9162 141.115 9.99344Z" fill="#FBC201"/>
<path d="M150.603 9.02506C150.549 8.68046 150.276 8.42499 149.973 8.32992C149.938 8.26457 149.872 8.21704 149.783 8.21704C149.064 8.22892 148.607 9.19735 149.189 9.70236C149.724 10.1658 150.722 9.79742 150.603 9.02506Z" fill="#FBC201"/>
<path d="M153.282 14.0751C151.643 17.218 149.254 19.7728 145.499 20.1233C141.964 20.4501 138.554 18.5727 136.671 15.6258C136.534 15.4119 136.201 15.602 136.326 15.8278C138.192 19.1311 141.911 21.1749 145.725 20.765C149.189 20.3907 152.926 17.8003 153.817 14.3009C153.894 13.986 153.443 13.7721 153.282 14.0751Z" fill="#FBC201"/>
<path d="M235.323 86.5999C240.123 82.7999 240.133 74.8899 234.313 71.7999C231.453 70.2799 227.933 70.2799 225.193 72.0599C222.413 73.8599 220.833 76.8699 219.533 79.8499C217.763 76.1099 213.963 73.4599 209.693 73.6199C209.283 73.6399 208.883 73.6899 208.483 73.7499C206.543 61.2299 195.323 50.4499 183.423 47.2299C169.953 43.5799 155.143 48.1999 146.433 59.1499C142.133 64.5499 139.523 71.0499 138.893 77.8999C138.823 77.8999 138.763 77.9299 138.733 78.0099C138.473 78.5999 138.573 79.2399 138.823 79.8099C137.333 79.8099 135.883 80.1799 134.613 81.2199C132.603 82.8599 131.623 85.6199 132.133 88.1499C133.283 93.8699 139.123 95.5499 143.973 94.0399C142.323 97.0999 143.643 101.37 147.233 102.85C152.673 105.1 157.543 100.95 159.063 95.9299C159.893 96.2299 160.713 96.5199 161.543 96.8199C161.893 96.9499 162.143 96.7099 162.203 96.4299C166.923 96.8399 169.713 90.5499 165.613 87.3499C169.813 84.9499 170.603 79.0599 166.473 75.8899C163.883 73.8999 161.543 74.1699 159.593 75.4799C162.343 68.5599 169.973 60.5399 177.783 63.0099C181.703 64.2499 184.643 67.4399 186.403 71.0599C187.313 72.9199 187.923 74.8999 188.423 76.8999C188.643 77.7899 188.833 78.6799 189.013 79.5799C189.053 79.7999 189.553 81.8599 189.913 82.9699C189.853 82.9599 189.793 82.9599 189.733 82.9899C189.683 83.0099 189.623 83.0299 189.573 83.0499C189.383 83.1299 189.183 83.2999 189.203 83.5399L189.233 83.7799C189.263 84.0599 189.393 84.2399 189.653 84.3299C189.673 84.3399 189.693 84.3499 189.713 84.3499C189.663 84.4099 189.613 84.4699 189.563 84.5399C187.573 87.3999 188.143 91.7899 191.113 93.6499C186.703 97.6099 184.753 104.85 190.153 108.99C195.713 113.25 201.273 107.79 204.523 103.29C206.443 107.49 211.043 110.79 215.793 109.28C219.553 108.08 221.863 104.1 221.173 100.37C226.813 103.79 234.673 104.91 239.093 98.9099C242.283 94.5599 240.383 87.9999 235.323 86.5999ZM139.373 79.1599C141.013 61.9899 154.843 47.9999 172.253 47.1899C180.673 46.7999 188.983 49.4599 195.483 54.8399C201.683 59.9599 205.063 66.4799 207.403 73.9899C205.783 74.4499 204.323 75.3299 203.123 76.4899C202.423 69.7099 198.503 62.3499 193.713 57.6699C188.593 52.6599 182.083 50.5499 174.983 50.8799C161.883 51.4899 147.293 59.0799 146.003 73.3899C144.073 74.8899 143.433 78.0699 143.253 80.5699C141.963 80.1999 140.613 79.8899 139.293 79.8199C139.253 79.6799 139.223 79.5399 139.203 79.4099C139.303 79.3599 139.363 79.2799 139.373 79.1599ZM176.823 56.4899C166.213 56.4399 154.813 62.8399 151.143 73.0899C150.573 72.8399 149.953 72.6599 149.303 72.5699C148.273 72.4399 147.413 72.5899 146.693 72.9499C149.013 59.4199 162.593 52.3199 175.483 51.9499C182.423 51.7499 188.643 54.0399 193.483 59.0799C195.673 61.3499 197.433 64.0299 198.793 66.8799C200.393 70.2099 201.043 73.7099 202.293 77.1399C202.313 77.1999 202.353 77.2499 202.393 77.2999C201.223 78.6799 200.373 80.3599 200.003 82.1599C199.993 82.1899 200.003 82.2099 200.003 82.2399C198.983 81.8599 197.883 81.6099 196.773 81.5199C197.723 70.1599 189.013 56.5499 176.823 56.4899ZM164.513 76.0199C169.473 78.0699 169.143 84.7999 164.383 86.8399C164.033 86.9899 164.093 87.5299 164.383 87.6899C169.243 90.4699 165.653 97.3899 160.523 95.2499C160.493 95.2399 160.473 95.2399 160.443 95.2399C159.903 95.0499 159.353 94.8499 158.813 94.6599C158.533 94.5599 158.193 94.7699 158.133 95.0499C157.123 99.1599 153.703 103.14 149.033 102.23C144.673 101.38 142.463 95.6899 146.363 92.9799C146.533 92.8799 146.703 92.7699 146.863 92.6599C147.453 92.2599 146.933 91.3399 146.303 91.6999C146.123 91.7999 145.963 91.9099 145.803 92.0199C141.583 94.5199 135.413 94.1299 133.503 88.8399C132.633 86.4199 133.323 83.6999 135.363 82.0799C137.823 80.1299 140.913 81.0199 143.643 81.8299C143.993 81.9399 144.323 81.6499 144.343 81.2999C144.403 79.6899 144.453 78.0499 145.103 76.5499C146.173 74.0799 148.693 72.9799 151.213 74.4299C153.833 75.9299 155.113 78.9199 154.893 81.8499C154.853 82.3799 155.703 82.6299 155.933 82.1299C156.663 80.5099 157.593 78.6599 158.853 77.3399C158.903 77.3199 158.953 77.2699 158.983 77.2099C160.363 75.7799 162.163 75.0499 164.513 76.0199ZM187.773 71.2699C185.933 67.1799 182.763 63.5199 178.413 62.0499C169.663 59.0899 160.553 68.2999 158.523 76.2999C157.503 77.2499 156.613 78.4599 155.893 79.7199C155.473 77.1299 153.973 74.6199 151.703 73.3599C155.763 63.9299 165.783 57.9399 175.923 57.6099C182.223 57.3999 187.463 60.8099 191.023 65.8399C194.363 70.5599 195.533 75.8099 195.693 81.4799C193.943 81.5199 192.253 82.0099 190.893 83.0899C191.033 81.7099 190.313 79.8799 190.073 78.7699C189.523 76.2199 188.843 73.6599 187.773 71.2699ZM236.293 100.04C231.333 103.75 225.033 101.75 220.453 98.4699C219.933 98.0899 219.443 98.7999 219.663 99.2599C221.393 103.07 218.583 107.65 214.573 108.33C210.313 109.06 206.523 105.74 205.213 101.91C205.053 101.43 204.453 101.36 204.173 101.77C201.503 105.71 196.643 111.72 191.283 108.37C185.563 104.79 188.233 97.3099 192.513 93.8999C192.773 93.6899 192.713 93.1399 192.403 93.0099C189.253 91.6699 188.643 87.4699 190.643 84.8699C193.063 81.7199 197.713 81.9899 200.993 83.4199C201.383 83.5899 201.733 83.0399 201.343 82.8299C201.243 82.7799 201.133 82.7299 201.033 82.6799C201.073 82.6199 201.113 82.5499 201.133 82.4599C202.013 78.4399 205.453 75.0199 209.713 74.8499C213.973 74.6799 217.703 77.6499 218.923 81.6299C219.113 82.2699 219.893 82.1699 220.123 81.6299C222.323 76.3999 226.093 69.8699 232.843 72.4699C239.093 74.8799 239.063 83.2999 233.433 86.4099C232.883 86.7099 233.163 87.5099 233.733 87.5299C236.563 87.6599 238.773 89.8099 239.433 92.5099C240.143 95.4799 238.633 98.2899 236.293 100.04Z" fill="#E54428"/>
<path d="M347.015 9.09835C344.44 9.64472 342.882 12.2536 343.126 14.7669C341.933 14.323 340.517 14.084 339.63 15.204C338.695 16.3924 339.298 18.571 339.88 20.1486C336.513 18.7964 332.996 22.5868 335.246 25.9675C334.704 25.7831 333.769 25.2708 333.179 25.5167C332.17 25.9265 331.926 28.5559 331.668 29.43C331.661 29.4505 331.661 29.4642 331.661 29.4779C328.958 25.346 326.227 21.2277 323.517 17.0958C323.375 16.8841 323.043 16.7885 322.853 17.007C314.22 27.1695 305.554 37.3046 297.071 47.5831C296.901 47.7812 297.064 48.0475 297.261 48.068C297.301 48.1841 297.396 48.2797 297.545 48.3002C299.212 48.4914 300.886 48.6622 302.552 48.8124C301.374 59.5554 300.825 70.3871 300.391 81.1847C300.384 81.4169 300.594 81.6013 300.811 81.6082C312.33 81.9565 323.849 82.0726 335.368 81.9565C335.605 81.9565 335.781 81.7652 335.795 81.5262C336.398 70.995 336.614 60.4501 336.465 49.9052C338.132 49.8779 339.792 49.8027 341.425 49.6115C341.811 49.5637 341.886 49.0993 341.622 48.9286C341.771 48.949 341.954 48.8739 342.022 48.7373C342.442 47.8631 341.947 47.187 341.568 46.3401C340.951 44.9674 340.287 43.6219 339.575 42.297C338.525 40.3232 337.38 38.4041 336.201 36.5123C336.391 36.6831 336.75 36.6694 336.804 36.3621C337.19 34.0674 337.489 31.8614 338.315 29.6759C338.688 28.6856 339.406 27.75 338.363 27.0124C337.732 26.5685 336.723 26.3567 335.876 26.145C335.944 26.0631 335.964 25.947 335.883 25.824C333.816 22.7712 337.312 18.9056 340.389 21.3438C340.666 21.5624 341.236 21.3711 341.066 20.9477C340.741 20.1145 340.456 19.2744 340.28 18.3934C340.05 17.2324 339.975 17.1436 340.815 16.1328C341.039 15.3269 341.446 15.0606 342.042 15.3269C342.543 15.3952 343.011 15.5591 343.458 15.8118C343.783 15.9553 344.176 15.7162 344.081 15.3338C343.519 13.1278 344.752 10.5735 347.036 9.97937C349.583 9.3169 351.758 11.3794 352.246 13.7357C352.334 14.1591 353.039 14.0703 352.998 13.6332C352.721 10.7852 349.861 8.49052 347.015 9.09835ZM322.48 81.1437C322.534 78.89 322.738 76.6499 323.219 74.4371C323.408 73.5561 323.524 72.3404 323.984 71.5687C324.547 70.6398 325.854 71.0769 326.844 71.152C327.779 71.2272 328.849 71.1657 329.757 71.3843C331.255 71.7531 330.875 72.1082 330.699 73.1941C330.611 73.7473 330.509 74.3073 330.415 74.8605C330.218 75.9737 330.015 77.0801 329.805 78.1865C329.696 78.7602 329.676 80.0988 329.378 80.7271C329.324 80.7408 329.269 80.7545 329.222 80.7954L329.134 80.8637C329.059 80.9252 329.026 81.0345 329.032 81.1437C326.851 81.1574 324.669 81.1574 322.48 81.1437ZM334.968 81.1164C333.342 81.1301 331.716 81.1437 330.096 81.1506C330.618 80.2627 330.598 78.5485 330.74 77.7563C331.072 75.9669 331.844 73.7405 331.716 71.9238C331.661 71.1452 331.316 70.8106 330.584 70.6535C328.483 70.2027 326.078 70.2915 323.93 70.1481C323.761 70.1344 323.612 70.2779 323.557 70.4349C322.439 73.9112 321.836 77.4967 321.87 81.1506C314.993 81.1096 308.122 80.9935 301.245 80.7886C301.678 70.1413 302.444 59.5144 303.04 48.8807C308.502 49.3588 313.976 49.632 319.451 49.7959C323.049 49.8983 326.654 49.9462 330.259 49.9325C332.02 49.9257 333.809 49.9598 335.598 49.9462C335.767 60.3271 335.551 70.7286 334.968 81.1164ZM337.434 40.2071C338.132 41.416 338.81 42.6385 339.447 43.8815C339.738 44.4552 340.023 45.0289 340.3 45.6162C340.483 46.0055 340.666 46.3948 340.843 46.784C340.971 47.1938 341.181 47.549 341.473 47.8563C341.459 47.8631 341.446 47.8563 341.432 47.8631C341.385 47.8836 341.344 47.8973 341.296 47.9178C341.107 47.9929 340.992 48.1568 341.039 48.3754C341.114 48.6827 341.181 48.792 341.405 48.8807C339.765 48.8056 338.112 48.8329 336.452 48.8876C336.452 48.8603 336.452 48.8329 336.452 48.8056C336.445 48.2524 335.591 48.2524 335.598 48.8056C335.598 48.8398 335.598 48.8807 335.598 48.9149C333.816 48.9763 332.034 49.0583 330.266 49.0651C326.661 49.0788 323.063 49.0378 319.458 48.9354C312.201 48.7305 304.965 48.2251 297.728 47.6856C306.286 37.8851 314.688 27.9412 323.11 18.0178C326.41 23.0376 329.717 28.0505 332.996 33.0839C334.527 35.4264 336.032 37.7826 337.434 40.2071ZM337.644 29.1705C337.407 30.3657 336.804 31.5472 336.533 32.7561C336.276 33.9103 336.072 35.0918 336.079 36.2733C336.079 36.3075 336.093 36.3416 336.099 36.3758C335.659 35.6791 335.219 34.9825 334.771 34.2859C333.782 32.7492 332.786 31.2194 331.79 29.6964C331.898 29.7306 332.034 29.6964 332.088 29.5598C332.319 28.952 332.495 28.2963 332.773 27.709C332.908 27.1148 333.227 26.6367 333.735 26.2679C333.958 26.3431 334.182 26.4182 334.406 26.4933C335.856 26.5685 337.956 27.6134 337.644 29.1705Z" fill="#F29704"/>
</g>
</svg>
