<svg width="140" height="204" viewBox="0 0 140 204" fill="none" xmlns="http://www.w3.org/2000/svg">
<g opacity="0.3">
<path d="M68.8513 204C93.8224 204 114.065 200.617 114.065 196.443C114.065 192.269 93.8224 188.886 68.8513 188.886C43.8803 188.886 23.6372 192.269 23.6372 196.443C23.6372 200.617 43.8803 204 68.8513 204Z" fill="#000072"/>
</g>
<path d="M53.0591 142.904C53.0591 142.904 56.6131 161.506 71.5964 169.933C76.4981 172.69 82.1213 167.736 80.0358 162.514C80.0013 162.427 79.9649 162.339 79.9285 162.25C79.9285 162.25 78.3161 159.093 75.2936 156.944C72.2706 154.795 64.9491 143.913 64.3446 141.494C63.7394 139.075 53.0591 142.904 53.0591 142.904Z" fill="#FCAF03"/>
<g opacity="0.3">
<path d="M80.0359 162.514C80.0014 162.427 79.965 162.339 79.9285 162.25C79.9285 162.25 78.3161 159.093 75.2937 156.944C72.2706 154.794 64.9491 143.913 64.3446 141.494C63.988 140.067 60.1249 140.815 57.0166 141.668C58.411 141.554 59.4645 141.723 59.6428 142.435C60.2473 144.853 67.5694 155.735 70.5918 157.885C73.6149 160.034 75.2267 163.191 75.2267 163.191C75.2638 163.28 75.2995 163.367 75.334 163.455C76.4753 166.312 75.3061 169.087 73.2121 170.564C77.6309 171.603 81.8942 167.168 80.0359 162.514Z" fill="#000072"/>
</g>
<path d="M74.5297 171.967C73.3227 171.967 72.1046 171.657 70.9822 171.026C55.667 162.413 51.977 143.922 51.8273 143.139C51.7115 142.532 52.0544 141.932 52.6355 141.724C54.7925 140.951 62.0203 138.529 64.4792 139.843C65.1898 140.222 65.4592 140.785 65.5607 141.189C66.0845 143.285 73.2277 153.936 76.0198 155.922C79.2556 158.223 80.9734 161.54 81.045 161.68C81.0593 161.708 81.0724 161.737 81.0847 161.765C81.1251 161.86 81.1628 161.955 81.2005 162.048C82.3536 164.935 81.589 168.123 79.2524 170.169C77.8938 171.358 76.2222 171.967 74.5297 171.967ZM54.5361 143.72C55.5486 147.699 59.9355 161.936 72.2113 168.84C74.3449 170.039 76.3939 169.338 77.5997 168.281C78.8138 167.218 79.7853 165.267 78.8717 162.978C78.8457 162.914 78.8197 162.849 78.793 162.784C78.6115 162.447 77.124 159.783 74.5668 157.964C71.545 155.815 64.1877 145.145 63.1883 142.007C62.1914 141.671 58.4038 142.43 54.5361 143.72Z" fill="#000072"/>
<path d="M105.643 109.319C104.232 110.431 103.176 114.112 101.464 117.83C99.6211 121.845 97.0099 125.908 92.3549 126.848C83.3865 128.657 80.2957 118.873 80.2957 118.873C76.5966 110.394 76.9382 82.3135 92.3549 79.9964C93.7278 79.7894 95.0097 79.7016 96.2043 79.7172C108.405 79.8428 111.489 90.3754 111.489 90.3754C116.514 106.699 105.643 109.319 105.643 109.319Z" fill="#FF2765"/>
<g opacity="0.3">
<path d="M101.464 117.83C99.6211 121.845 97.0099 125.908 92.3549 126.848C83.3865 128.657 80.2957 118.873 80.2957 118.873C76.5966 110.394 76.9382 82.3135 92.3549 79.9964C93.7278 79.7894 95.0097 79.7016 96.2043 79.7172C94.3206 87.9653 90.9448 108.57 101.464 117.83Z" fill="#000072"/>
</g>
<path d="M104.806 110.253C104.342 109.837 93.4863 99.8488 97.6279 79.6685L100.084 80.1727C98.0762 89.9551 99.9203 97.0996 101.82 101.371C103.881 106.003 106.455 108.362 106.48 108.386L104.806 110.253Z" fill="#000072"/>
<path d="M90.2249 128.322C83.802 128.322 80.207 122.686 79.119 119.315C76.3718 112.921 75.8311 96.8309 81.2799 86.9789C83.9159 82.2133 87.5792 79.4472 92.1691 78.7575C100.651 77.4835 105.783 80.597 108.594 83.4346C111.639 86.5091 112.651 89.881 112.692 90.0228C114.646 96.3689 114.529 101.546 112.339 105.391C110.357 108.871 107.287 110.112 106.271 110.44C105.597 111.146 104.826 113.045 104.079 114.887C102.052 119.885 99.2746 126.73 92.6045 128.076C91.7716 128.244 90.9777 128.322 90.2249 128.322ZM81.4888 118.493C81.6027 118.848 84.3668 127.179 92.1067 125.618C97.4559 124.538 99.8394 118.663 101.754 113.943C102.807 111.351 103.637 109.303 104.865 108.334C105.008 108.221 105.172 108.141 105.349 108.099C105.466 108.07 108.391 107.297 110.185 104.104C111.994 100.886 112.029 96.3911 110.29 90.7438C110.144 90.2558 106.649 79.1147 92.542 81.2373C88.7635 81.8053 85.713 84.1452 83.474 88.1924C78.5471 97.1016 78.8412 112.404 81.4439 118.372C81.4608 118.412 81.4758 118.452 81.4888 118.493Z" fill="#000072"/>
<path d="M133.621 122.507C133.621 122.507 131.875 129.695 126.232 127.275C126.232 127.275 124.151 137.35 116.558 130.635C116.558 130.635 110.21 132.582 106.684 124.623C106.543 124.304 106.415 123.987 106.308 123.673C104.737 119.253 106.248 115.786 107.725 113.708C108.725 112.297 109.71 111.523 109.71 111.523C109.71 111.523 103.563 105.225 113.992 99.8365C124.421 94.4449 127.089 103.513 127.089 103.513C127.089 103.513 128.522 103.67 130.324 104.532C132.152 105.4 134.355 106.997 135.823 109.877C135.823 109.877 135.823 109.88 135.826 109.89C135.998 110.225 136.158 110.579 136.309 110.952C138.997 117.67 138.527 122.642 133.621 122.507Z" fill="white"/>
<g opacity="0.3">
<path d="M133.621 122.507C133.621 122.507 131.875 129.695 126.232 127.275C126.232 127.275 124.151 137.35 116.559 130.635C116.559 130.635 110.211 132.582 106.684 124.623C106.543 124.303 106.415 123.987 106.308 123.673C109.415 126.532 114.719 127.071 114.719 127.071C123.631 132.362 125.327 123.419 125.327 123.419C130.286 124.776 133.086 119.438 133.086 119.438C136.848 117.313 135.87 110.213 135.826 109.89C135.998 110.226 136.159 110.58 136.309 110.953C138.997 117.67 138.527 122.642 133.621 122.507Z" fill="#000072"/>
</g>
<g opacity="0.3">
<path d="M130.323 104.532C128.683 108.943 125.326 108.197 125.326 108.197C127.815 105.667 127.088 103.514 127.088 103.514C127.088 103.514 128.521 103.67 130.323 104.532Z" fill="#000072"/>
</g>
<g opacity="0.3">
<path d="M113.267 113.134C113.267 113.134 110.793 114.924 107.725 113.708C108.725 112.297 109.709 111.523 109.709 111.523C109.709 111.523 110.167 112.485 113.267 113.134Z" fill="#000072"/>
</g>
<path d="M121.269 134.199C119.699 134.199 118.003 133.457 116.206 131.98C114.243 132.273 108.744 132.364 105.539 125.13C102.525 118.327 106.204 113.317 108.026 111.397C107.294 110.296 106.368 108.378 106.74 106.08C107.197 103.251 109.442 100.775 113.414 98.7218C117.231 96.7489 120.57 96.3481 123.338 97.5304C126.112 98.7153 127.473 101.162 128.008 102.405C129.972 102.836 135.081 104.508 137.472 110.487C138.89 114.032 140.159 118.861 138.155 121.735C137.574 122.569 136.491 123.53 134.548 123.727C134.07 125.041 132.947 127.399 130.806 128.47C129.658 129.044 128.407 129.176 127.073 128.871C126.504 130.505 125.233 133.141 122.793 133.953C122.3 134.117 121.792 134.199 121.269 134.199ZM116.556 129.382C116.86 129.382 117.16 129.49 117.391 129.695C118.669 130.826 120.506 132.071 122.002 131.574C123.809 130.972 124.8 128.011 125.004 127.021C125.08 126.653 125.318 126.338 125.652 126.164C125.986 125.989 126.38 125.974 126.727 126.123C127.871 126.614 128.837 126.649 129.679 126.23C131.294 125.427 132.194 123.054 132.404 122.208C132.546 121.636 133.073 121.234 133.656 121.253C134.828 121.289 135.629 120.974 136.098 120.301C137.132 118.818 136.776 115.498 135.145 111.419C132.783 105.516 127.184 104.787 126.947 104.76C126.448 104.7 126.028 104.35 125.887 103.868C125.879 103.844 124.97 100.941 122.332 99.828C120.288 98.9658 117.676 99.3432 114.567 100.95C111.34 102.618 109.539 104.479 109.216 106.481C108.846 108.771 110.588 110.63 110.606 110.648C110.854 110.903 110.983 111.252 110.96 111.607C110.936 111.961 110.764 112.289 110.486 112.509C110.251 112.696 104.757 117.174 107.832 124.115C110.841 130.905 115.983 129.498 116.2 129.434C116.316 129.398 116.436 129.382 116.556 129.382Z" fill="#000072"/>
<path d="M110.507 110.557L111.083 111.167C111.29 111.387 111.507 111.603 111.733 111.822C111.959 112.043 112.199 112.243 112.452 112.455C112.707 112.662 112.981 112.846 113.281 113.043L113.285 113.047C113.332 113.077 113.345 113.14 113.314 113.187C113.3 113.209 113.279 113.223 113.256 113.23C112.905 113.326 112.532 113.378 112.161 113.379C111.788 113.389 111.411 113.354 111.043 113.289C110.673 113.227 110.309 113.131 109.955 113.006C109.78 112.941 109.605 112.871 109.434 112.79C109.258 112.702 109.107 112.631 108.909 112.491L108.86 112.456C108.29 112.054 108.153 111.267 108.556 110.696C108.958 110.126 109.745 109.99 110.316 110.392C110.385 110.439 110.451 110.499 110.507 110.557Z" fill="#000072"/>
<path d="M128.327 103.314C128.355 103.507 128.357 103.617 128.36 103.759C128.359 103.893 128.357 104.026 128.342 104.156C128.322 104.417 128.275 104.674 128.214 104.927C128.093 105.434 127.881 105.922 127.616 106.369C127.357 106.818 127.006 107.217 126.62 107.537C126.241 107.867 125.776 108.075 125.337 108.214C125.326 108.217 125.315 108.211 125.311 108.2C125.31 108.194 125.311 108.189 125.313 108.184L125.314 108.182C125.552 107.773 125.755 107.399 125.861 106.995C125.977 106.601 126.042 106.219 126.051 105.834C126.064 105.453 126.032 105.08 125.993 104.716C125.972 104.534 125.948 104.353 125.922 104.178L125.851 103.711L125.846 103.679C125.742 102.994 126.213 102.355 126.897 102.25C127.582 102.146 128.221 102.617 128.325 103.302L128.327 103.314Z" fill="#000072"/>
<path d="M115.597 131.437L115.482 131.301L115.387 131.182C115.324 131.104 115.268 131.024 115.214 130.946C115.1 130.789 115.004 130.629 114.905 130.468C114.711 130.147 114.547 129.812 114.393 129.474C114.096 128.794 113.869 128.09 113.722 127.37C113.578 126.651 113.484 125.923 113.527 125.192C113.56 124.465 113.702 123.74 113.99 123.06C114.008 123.018 114.056 122.999 114.098 123.016C114.117 123.024 114.132 123.039 114.139 123.057L114.141 123.06C114.461 123.73 114.671 124.359 114.94 124.964C115.183 125.57 115.429 126.155 115.7 126.721C115.964 127.289 116.266 127.833 116.581 128.359C116.732 128.625 116.902 128.877 117.059 129.134L117.522 129.83L117.591 129.933C117.974 130.508 117.818 131.285 117.243 131.668C116.71 132.024 116.002 131.915 115.597 131.437Z" fill="#000072"/>
<path d="M124.983 127.383C124.949 127.172 124.914 126.898 124.883 126.65L124.791 125.887C124.731 125.376 124.668 124.864 124.588 124.358C124.504 123.854 124.409 123.35 124.3 122.844C124.187 122.336 124.054 121.835 123.851 121.266L123.849 121.261C123.83 121.207 123.858 121.146 123.912 121.127C123.934 121.12 123.958 121.12 123.979 121.126C124.581 121.317 125.084 121.733 125.505 122.189C125.934 122.65 126.234 123.182 126.508 123.722C126.782 124.262 126.988 124.823 127.158 125.393C127.24 125.678 127.312 125.966 127.365 126.258C127.422 126.556 127.464 126.829 127.481 127.168C127.518 127.86 126.986 128.45 126.295 128.487C125.65 128.521 125.094 128.061 124.992 127.438L124.983 127.383Z" fill="#000072"/>
<path d="M132.368 122.534C132.39 122.383 132.415 122.154 132.427 121.956C132.443 121.75 132.459 121.54 132.468 121.33C132.479 120.91 132.496 120.482 132.476 120.054C132.457 119.626 132.431 119.193 132.365 118.759C132.313 118.318 132.214 117.887 132.101 117.43L132.101 117.427C132.094 117.398 132.111 117.369 132.14 117.362C132.157 117.358 132.174 117.362 132.187 117.372C132.555 117.67 132.887 118.026 133.18 118.413C133.454 118.807 133.729 119.22 133.936 119.659C134.147 120.096 134.35 120.545 134.502 121.01C134.579 121.243 134.655 121.477 134.716 121.716C134.778 121.963 134.836 122.182 134.875 122.478L134.884 122.551C134.977 123.246 134.489 123.886 133.793 123.979C133.098 124.072 132.458 123.583 132.366 122.888C132.35 122.769 132.352 122.647 132.368 122.534Z" fill="#000072"/>
<path d="M36.2651 39.0886C33.0429 42.2796 32.8386 46.9821 32.8386 46.9821C33.3904 48.0102 33.7255 48.9504 33.9109 49.8002C34.8043 53.9411 32.0239 55.9628 32.0239 55.9628C25.9049 57.8277 19.5633 58.3925 19.5633 58.3925C12.5574 58.5805 13.5354 50.9317 13.5601 50.7437V50.7404C11.0081 48.8534 9.46272 44.4301 9.46272 44.4301C9.46272 44.4301 -0.747181 38.0475 1.60374 32.4054C3.86683 26.9729 12.7161 36.7598 13.3714 37.4931C12.7819 36.7787 5.16494 27.3991 9.37747 23.5717C13.7032 19.6442 21.1106 33.6027 21.3143 33.9853C17.3894 23.2523 17.5247 18.4996 22.5617 19.1705C25.5711 19.572 27.7964 23.9101 29.1004 27.3333C29.9782 29.6374 30.4356 31.5309 30.4356 31.5309C30.4356 31.5309 30.4388 31.5277 30.4421 31.5186C30.5299 31.3207 30.6301 31.1236 30.7401 30.9323C32.577 27.6567 36.9249 25.2869 39.2543 26.9982C41.723 28.8104 39.4912 35.8977 36.2651 39.0886Z" fill="white"/>
<g opacity="0.3">
<path d="M29.1025 27.334C29.9803 29.6381 30.4377 31.5316 30.4377 31.5316C30.4377 31.5316 29.0114 34.2182 28.742 35.2274C28.742 35.2274 22.8989 35.6289 19.3032 43.2868C19.3032 43.2868 19.0813 36.5913 25.3787 33.4042C26.1029 33.0379 26.6182 32.3683 26.7854 31.5738C27.0047 30.5321 27.5858 28.9672 29.1025 27.334Z" fill="#000072"/>
</g>
<g opacity="0.3">
<path d="M32.024 55.9627C25.905 57.8276 19.5634 58.3923 19.5634 58.3923C12.5575 58.5804 13.5354 50.9316 13.5602 50.7435C13.5602 50.7435 24.845 55.461 33.911 49.8C34.805 53.941 32.024 55.9627 32.024 55.9627Z" fill="#000072"/>
</g>
<path d="M19.3069 59.6496C17.0992 59.6496 15.3553 58.9501 14.1197 57.5687C12.3082 55.5437 12.1989 52.6352 12.2594 51.2922C10.2032 49.4423 8.87126 46.371 8.4353 45.2564C6.50602 43.9733 -2.03097 37.8705 0.447493 31.9232C1.15088 30.2347 2.33773 29.7102 3.20965 29.5671C4.61513 29.3348 6.2503 29.9673 7.83146 30.9452C6.60883 27.9716 6.2041 24.7631 8.5368 22.6445C9.46338 21.8038 10.5956 21.4732 11.8098 21.6873C13.8041 22.04 15.8791 23.9413 17.6633 26.1198C17.0191 22.7948 17.2553 20.6299 18.3316 19.2882C19.2673 18.1222 20.7456 17.6641 22.7282 17.9296C26.9668 18.495 29.6541 24.8184 30.8891 28.582C32.2321 27.0522 34.0254 25.8549 35.8083 25.3864C37.4331 24.9596 38.8808 25.1678 39.9974 25.9883C40.6279 26.451 41.4075 27.386 41.5415 29.2079C41.7842 32.5108 39.8126 37.3434 37.1481 39.9807C34.7562 42.3485 34.2278 45.7002 34.1191 46.7257C36.8045 52.088 34.4308 55.7663 32.7631 56.9792C32.6505 57.0611 32.5243 57.1243 32.3909 57.1646C26.2166 59.0431 19.9401 59.6177 19.6759 59.6411C19.6499 59.6431 19.6245 59.645 19.5984 59.6457C19.5002 59.6483 19.4032 59.6496 19.3069 59.6496ZM3.86749 32.0215C3.77965 32.0215 3.69571 32.028 3.61568 32.041C3.45431 32.0677 3.07821 32.1295 2.76198 32.8869C1.17301 36.7012 7.54126 41.744 10.129 43.3655C10.3704 43.5171 10.5539 43.7462 10.6476 44.0156C10.6613 44.0552 12.1006 48.1019 14.3064 49.7305C14.676 50.0038 14.8667 50.4573 14.8036 50.9122C14.7997 50.9408 14.3949 54.1239 15.9956 55.9036C16.7751 56.7709 17.9203 57.1815 19.4904 57.1392C20.0123 57.0898 25.8183 56.5087 31.424 54.8358C32.0617 54.2664 34.0866 51.9832 31.7337 47.5709C31.6283 47.3731 31.5776 47.1512 31.5873 46.9274C31.5964 46.7152 31.8502 41.6939 35.3834 38.1971C37.5203 36.0824 39.229 31.9668 39.0403 29.3901C39.0116 28.9971 38.9049 28.295 38.5126 28.0074C37.8996 27.5565 37.0498 27.6515 36.4453 27.8102C34.5037 28.3204 32.4586 30.102 31.5821 32.0462C31.3622 32.5342 30.854 32.8283 30.323 32.7789C29.7901 32.7294 29.347 32.3468 29.2201 31.8269C28.1979 27.6294 25.4416 20.8193 22.3964 20.4133C20.8146 20.2031 20.4177 20.6944 20.2869 20.8557C19.5223 21.8083 19.2855 24.7859 22.4966 33.5617C22.7237 34.1818 22.4309 34.8715 21.827 35.1389C21.2226 35.407 20.5159 35.1597 20.2088 34.5754C18.2255 30.8001 14.0728 24.6323 11.3712 24.1541C10.9196 24.0734 10.5754 24.1775 10.2214 24.4983C7.37403 27.0841 12.3876 34.3763 14.3682 36.7272C14.8114 37.253 14.7482 38.0371 14.227 38.4854C13.7065 38.9337 12.9211 38.879 12.4669 38.3624C10.0887 35.6562 5.95359 32.0215 3.86749 32.0215Z" fill="#000072"/>
<path d="M31.9342 47.8487C31.8066 47.6619 31.644 47.4134 31.4989 47.1856L31.046 46.4725L30.5664 45.747C30.3992 45.5017 30.2307 45.2433 30.0186 44.9668C30.3563 44.8848 30.7089 44.89 31.0447 44.9369C31.3824 44.9837 31.6999 45.0787 32.0123 45.188C32.3246 45.2967 32.622 45.4307 32.9115 45.5798C33.203 45.7372 33.4665 45.8856 33.7457 46.1146L31.9342 47.8487Z" fill="#000072"/>
<path d="M31.4645 32.2531C31.3031 32.488 31.1183 32.7795 30.957 33.0514C30.7924 33.3293 30.6368 33.6104 30.4911 33.8934C30.2035 34.4576 29.9614 35.0347 29.8254 35.5631V35.5637C29.6738 36.0823 29.234 36.4383 28.731 36.5072L28.718 36.5085L28.5924 36.5254C28.5429 36.5313 28.4876 36.5417 28.4317 36.5521C28.321 36.5723 28.2098 36.5918 28.0946 36.6178C27.8662 36.6595 27.6378 36.7304 27.4062 36.7844C26.9488 36.9198 26.4907 37.072 26.0443 37.2594C25.1548 37.6375 24.2855 38.104 23.5014 38.7072C23.2913 38.8419 23.1188 39.0202 22.9249 39.177C22.7336 39.3371 22.5352 39.4926 22.366 39.6774L21.8298 40.2129L21.3412 40.7985C20.9878 41.1746 20.7152 41.6119 20.3573 42.012C20.0281 42.4291 19.7262 42.8716 19.324 43.2926L19.3227 43.2939C19.3149 43.3017 19.3019 43.3023 19.2941 43.2945C19.2895 43.2906 19.2876 43.2841 19.2876 43.2789C19.3221 42.718 19.3989 42.1506 19.5531 41.6093C19.637 41.3412 19.7281 41.0731 19.8303 40.8083C19.9214 40.5369 20.0502 40.2858 20.1894 40.0378C20.3248 39.788 20.4647 39.5388 20.6098 39.2922L21.1011 38.5849C21.2592 38.3422 21.4466 38.1229 21.6366 37.9036C21.8311 37.6895 22.0068 37.4533 22.2241 37.2594L22.8573 36.6517C23.0824 36.4649 23.3147 36.286 23.5457 36.1032C24.0207 35.7576 24.5132 35.4284 25.039 35.1558C25.2947 35.0048 25.5706 34.8955 25.838 34.7647C26.1094 34.643 26.3911 34.5454 26.6703 34.4387C26.9559 34.3457 27.2403 34.2546 27.5383 34.1849C27.684 34.1452 27.8363 34.114 27.9899 34.0867C28.066 34.0717 28.1428 34.0574 28.2267 34.0463C28.3087 34.034 28.3822 34.0216 28.5006 34.0106L27.3938 34.9553V34.9547C27.6066 34.1355 27.9176 33.4282 28.2586 32.7534C28.431 32.4177 28.6119 32.091 28.8026 31.7709C28.9971 31.4456 29.1819 31.1482 29.4148 30.8105C29.8079 30.2405 30.5887 30.096 31.1587 30.489C31.7287 30.8821 31.8731 31.6622 31.4801 32.2329L31.4645 32.2531Z" fill="#000072"/>
<path d="M39.0852 76.8419C39.0852 76.8419 19.8086 69.0474 18.3979 53.1616C18.3979 53.1616 21.7229 48.2834 29.5318 49.996C29.5318 49.996 31.1761 60.1219 43.3348 65.3957C45.1183 66.1694 45.689 68.4201 44.4898 69.9499L39.0852 76.8419Z" fill="#FCAF03"/>
<g opacity="0.3">
<path d="M24.3582 51.3759C25.4305 50.696 26.8634 50.0804 28.7126 49.839C21.4913 48.6281 18.3979 53.1614 18.3979 53.1614C19.8086 69.0479 39.0852 76.8418 39.0852 76.8418L40.8329 74.6126C35.5507 72.2525 25.5412 66.6065 22.4198 56.6959C21.788 54.6918 22.5838 52.5016 24.3582 51.3759Z" fill="#000072"/>
</g>
<g opacity="0.7">
<path d="M43.3348 65.3956C31.1761 60.1218 29.5318 49.9959 29.5318 49.9959C24.6764 48.9307 21.5551 50.4142 19.8887 51.6883C21.192 51.1528 22.861 50.7871 24.9282 50.9088C26.2602 50.9875 27.4151 51.8529 27.8524 53.1133C28.954 56.288 32.2126 62.7766 41.1407 66.6488C42.9242 67.4225 43.4949 69.6732 42.295 71.203L38.1853 76.4436C38.7559 76.7078 39.0845 76.8412 39.0845 76.8412L44.4891 69.9485C45.689 68.42 45.1183 66.1686 43.3348 65.3956Z" fill="white"/>
</g>
<path d="M39.0845 78.0964C38.927 78.0964 38.7676 78.0665 38.6147 78.0047C37.7987 77.6748 18.6107 69.7338 17.1486 53.2721C17.1226 52.9832 17.198 52.6943 17.3614 52.4549C17.5169 52.2272 21.2622 46.8987 29.7999 48.7707C30.3022 48.8807 30.6861 49.2867 30.7687 49.7942C30.8331 50.1775 32.4982 59.3281 43.8332 64.2446C45.0428 64.7697 45.9219 65.8037 46.2459 67.081C46.57 68.3589 46.2889 69.6863 45.4762 70.7229L40.0716 77.6156C39.8289 77.9259 39.4612 78.0964 39.0845 78.0964ZM19.6973 53.5461C21.1659 66.2989 35.0854 73.606 38.7019 75.2985L43.5026 69.1762C43.8325 68.7552 43.947 68.2164 43.815 67.6978C43.6835 67.1786 43.3263 66.7589 42.8357 66.5455C32.1592 61.9152 29.196 53.7615 28.4887 51.0709C23.2533 50.1983 20.5204 52.6293 19.6973 53.5461Z" fill="#000072"/>
<path d="M19.134 54.1765C19.0871 54.185 18.9882 54.2299 18.9062 54.2566L18.6401 54.3516L18.0805 54.55C17.886 54.6171 17.7031 54.6984 17.4962 54.7771C17.2899 54.8572 17.0602 54.9307 16.7694 55.025C16.6581 54.7439 16.6399 54.4576 16.6731 54.1967C16.7095 53.9377 16.787 53.6937 16.8728 53.453C16.9639 53.2161 17.0707 52.9858 17.1969 52.7691C17.2613 52.6617 17.3264 52.5544 17.4012 52.4535C17.4786 52.3462 17.5424 52.2616 17.6628 52.1458L19.134 54.1765Z" fill="#000072"/>
<path d="M29.597 48.7434C29.6569 48.7493 29.6764 48.7545 29.7057 48.7597L29.7824 48.7759C29.8312 48.7877 29.8768 48.8013 29.9191 48.815C30.0076 48.841 30.0863 48.8761 30.1676 48.908C30.3245 48.9796 30.4735 49.0577 30.6121 49.1507C30.8912 49.331 31.1372 49.5509 31.3434 49.7962C31.5484 50.0435 31.7189 50.3083 31.8327 50.5966C31.9557 50.8757 32.013 51.1835 32.026 51.4821C31.7345 51.3878 31.4729 51.3104 31.223 51.2577C30.9764 51.2017 30.7402 51.1757 30.5216 51.162C30.3043 51.1457 30.0941 51.1581 29.9041 51.1724C29.8085 51.1815 29.718 51.1919 29.6328 51.2043L29.515 51.2245C29.4961 51.2271 29.4805 51.2316 29.4669 51.2355C29.4597 51.2368 29.4519 51.2381 29.4512 51.2407C29.4493 51.2427 29.4382 51.2446 29.4669 51.2485L29.597 48.7434Z" fill="#000072"/>
<path d="M116.207 25.2895C115.975 36.6342 114.831 50.2198 111.499 62.7683C111.499 62.7683 96.6591 94.1437 86.9822 117.717C85.8038 120.591 84.7002 123.346 83.7092 125.917C83.123 127.44 82.5744 128.899 82.076 130.274C73.8162 153.048 60.1798 148.882 45.1334 143.509C45.1334 143.509 21.4881 136.791 26.6604 114.152C26.6604 114.152 27.2187 111.162 28.5819 106.115C32.1333 92.9711 41.1616 65.8714 60.0828 41.3672C68.4494 30.5333 78.7503 20.205 91.3671 11.8164C97.1979 7.93896 103.521 4.47471 110.379 1.56615C112.803 0.53807 115.524 2.19341 115.709 4.82023C116.029 9.41537 116.379 16.7102 116.207 25.2895Z" fill="#FCAF03"/>
<g opacity="0.4">
<path d="M60.6495 47.9223C60.6495 47.9223 41.2364 78.8891 36.092 103.496C36.092 103.496 45.9122 109.828 51.1268 112.009C51.1268 112.009 66.4933 68.6779 80.7336 57.0573L78.1139 41.6744L60.6495 47.9223Z" fill="white"/>
</g>
<path d="M111.499 62.7682C111.499 62.7682 96.6591 94.1436 86.9821 117.717H80.7349C87.3178 101.865 103.236 66.7303 103.236 66.7303L111.499 62.7682Z" fill="#FFE97D"/>
<path d="M83.71 125.918C83.1237 127.441 82.5752 128.899 82.0767 130.275C73.8169 153.049 60.1805 148.882 45.1341 143.51C45.1341 143.51 21.4889 136.792 26.6612 114.153C26.6612 114.153 27.2194 111.162 28.5826 106.116C28.5826 106.116 43.698 126.732 83.71 125.918Z" fill="#FF4A94"/>
<path d="M116.207 25.2895C115.975 36.6342 114.831 50.2199 111.499 62.7683L103.236 66.7303L99.3426 51.4139L80.7349 57.0566L78.1146 41.6744L60.6509 47.9216L60.0835 41.3666C68.45 30.5327 78.751 20.2044 91.3678 11.8158C97.1986 7.93835 103.521 4.4741 110.38 1.56554C112.803 0.53746 115.524 2.1928 115.709 4.81962C116.029 9.4154 116.379 16.7102 116.207 25.2895Z" fill="#FFDAA5"/>
<path d="M83.7112 125.918C43.6974 126.732 28.5813 106.117 28.5813 106.117L30.9556 98.077C30.9556 98.077 44.81 119.28 87.0213 117.624L83.7112 125.918Z" fill="#00B1FF"/>
<path d="M116.207 25.2895C96.5148 27.0886 91.4615 12.1014 91.3672 11.8164C97.198 7.93896 103.521 4.47471 110.38 1.56615C112.803 0.538071 115.524 2.19341 115.709 4.82023C116.029 9.41536 116.38 16.7102 116.207 25.2895Z" fill="#000072"/>
<g opacity="0.7">
<path d="M29.4818 116.347C29.4818 116.347 30.0401 113.356 31.4033 108.31C34.9547 95.1659 43.983 68.0662 62.9042 43.562C71.2707 32.7281 81.5717 22.3998 94.1885 14.0112C100.019 10.1338 106.342 6.66951 113.201 3.76095C113.926 3.45317 114.677 3.39006 115.38 3.51759C114.558 1.68982 112.37 0.72225 110.379 1.56684C103.521 4.47605 97.1979 7.93964 91.3671 11.8171C78.7497 20.2057 68.4494 30.5347 60.0828 41.3679C41.1616 65.8721 32.1333 92.9718 28.5819 106.116C27.2181 111.162 26.6604 114.153 26.6604 114.153C23.6647 127.266 30.3361 135.036 36.4819 139.255C31.3428 134.726 26.9448 127.453 29.4818 116.347Z" fill="white"/>
</g>
<g opacity="0.3">
<path d="M115.709 4.82015C115.631 3.70747 115.095 2.77244 114.322 2.13867C114.381 5.00819 114.394 8.15295 114.326 11.4968C114.158 19.7351 113.508 29.1551 111.889 38.5015C110.868 44.3935 109.065 50.1208 106.545 55.543C101.683 65.9982 92.0583 86.9776 85.1012 103.924C83.9228 106.799 82.8192 109.554 81.8282 112.125C81.242 113.648 80.6935 115.106 80.195 116.482C71.9352 139.256 58.2988 135.089 43.2524 129.716C43.2524 129.716 31.311 126.321 26.2578 116.23C22.9439 137.205 45.1329 143.509 45.1329 143.509C60.1793 148.882 73.8157 153.048 82.0755 130.274C82.5739 128.898 83.1225 127.44 83.7087 125.917C84.6991 123.347 85.8026 120.591 86.9817 117.717C96.6587 94.1436 111.498 62.7682 111.498 62.7682C114.83 50.2197 115.974 36.6341 116.207 25.2894C116.38 16.7101 116.029 9.41528 115.709 4.82015Z" fill="#000072"/>
</g>
<path d="M62.6732 149.004C56.8033 149.005 50.6121 146.797 44.7468 144.702C44.1469 144.527 38.3753 142.756 33.1405 138.273C28.0776 133.937 22.6326 126.189 25.4319 113.898C25.5997 113.023 29.6997 92.1466 41.8493 68.1318C49.109 53.7829 57.7839 41.1206 67.6333 30.4981C79.9671 17.1962 94.1839 7.07348 109.889 0.41242C111.426 -0.240217 113.123 -0.113334 114.546 0.757933C115.962 1.62595 116.842 3.07502 116.958 4.73231C117.664 14.8153 118.664 40.6853 112.71 63.0903C112.691 63.1638 112.665 63.2354 112.632 63.3044C112.421 63.7514 91.4029 108.249 83.2556 130.705C78.1133 144.879 70.6955 149.004 62.6732 149.004ZM111.888 2.51088C111.545 2.51088 111.2 2.5805 110.869 2.7204C76.0461 17.4903 55.3504 47.0236 44.1208 69.1983C31.9153 93.3009 27.9318 114.176 27.8934 114.384C27.8902 114.4 27.8869 114.417 27.883 114.433C25.8568 123.302 28.1537 130.665 34.7119 136.315C39.7046 140.617 45.4203 142.286 45.4769 142.303C45.5029 142.31 45.5296 142.318 45.555 142.327C51.4905 144.447 57.2881 146.517 62.6107 146.518C69.8704 146.519 76.2478 142.67 80.8995 129.848C88.8945 107.814 109.169 64.7678 110.317 62.3348C116.142 40.3196 115.154 14.8479 114.457 4.9067C114.399 4.06731 113.954 3.33399 113.237 2.89478C112.819 2.63971 112.356 2.51088 111.888 2.51088Z" fill="#000072"/>
<path d="M103.237 67.9848C103.055 67.9848 102.874 67.9451 102.706 67.8664C102.366 67.707 102.114 67.4037 102.021 67.0394L98.4491 52.9956L81.0973 58.2577C80.7531 58.3618 80.3803 58.313 80.0738 58.1243C79.768 57.935 79.5578 57.6226 79.4973 57.2687L77.1288 43.3596L61.0712 49.1032C60.7055 49.234 60.2995 49.1885 59.9722 48.9776C59.6449 48.7681 59.4334 48.4181 59.4002 48.0303L58.8335 41.4766L61.3321 41.2605L61.7583 46.194L77.6916 40.4947C78.0404 40.3704 78.4269 40.4062 78.7471 40.5929C79.0672 40.7803 79.2878 41.0992 79.3502 41.4648L81.7311 55.4455L98.9768 50.2152C99.3048 50.117 99.6588 50.1547 99.9568 50.3233C100.255 50.4911 100.471 50.7742 100.556 51.106L104.074 64.9383L110.957 61.6374L112.041 63.8985L103.779 67.8618C103.608 67.9432 103.422 67.9848 103.237 67.9848Z" fill="#000072"/>
<path d="M82.4539 118.969C62.949 118.969 50.0667 113.948 42.5273 109.555C33.6337 104.372 30.0536 98.9899 29.9053 98.7635L32.005 97.3918L30.9555 98.0777L32.0037 97.3892C32.0376 97.4406 35.4953 102.591 43.9438 107.477C51.7605 111.998 65.5693 117.216 86.9723 116.371L87.0705 118.877C85.4926 118.939 83.9525 118.969 82.4539 118.969Z" fill="#000072"/>
<path d="M81.4546 127.195C61.7479 127.195 48.366 121.926 40.5161 117.409C31.6089 112.285 27.7314 107.077 27.5701 106.859L29.5911 105.374C29.6282 105.424 33.3976 110.451 41.9027 115.314C49.7617 119.807 63.3903 125.082 83.6858 124.664L83.7365 127.172C82.9681 127.187 82.2048 127.195 81.4546 127.195Z" fill="#000072"/>
<path d="M68.3211 85.0126C68.1519 86.1382 67.8103 87.5645 67.1173 88.9557C65.7379 91.7302 62.9673 94.3694 57.4059 94.2471C55.7447 94.2126 54.1648 93.5385 53.0014 92.3536C52.365 91.7049 51.6876 90.8772 51.1268 89.8738C49.7694 87.4416 49.0986 83.9838 51.4092 79.5917C52.1555 78.1719 53.9169 77.626 55.3399 78.3632C57.8945 79.6795 62.2079 81.6485 66.5779 82.5165C67.729 82.7462 68.4935 83.8498 68.3211 85.0126Z" fill="#000072"/>
<path d="M67.1173 88.9557C65.7378 91.7302 62.9672 94.3694 57.4058 94.2471C55.7446 94.2126 54.1648 93.5385 53.0013 92.3536C52.365 91.7049 51.6876 90.8772 51.1267 89.8738C53.5186 87.2379 59.246 82.8087 67.1173 88.9557Z" fill="#FF4A94"/>
<path d="M57.7709 95.1931C57.6433 95.1931 57.5151 95.1918 57.385 95.1886C55.4622 95.1469 53.6676 94.3739 52.3318 93.012C50.1338 90.7724 46.9832 85.9931 50.5769 79.1557C51.5588 77.2876 53.8889 76.5575 55.7713 77.527C58.4886 78.9273 62.6009 80.7694 66.7594 81.5945C68.4044 81.9205 69.4982 83.4834 69.2502 85.1531C68.798 88.1944 66.7731 95.1931 57.7709 95.1931ZM53.9995 78.9774C53.285 78.9774 52.594 79.3613 52.242 80.0309C49.3556 85.5227 51.428 89.4053 53.6748 91.6951C54.6645 92.7043 55.9971 93.2775 57.4266 93.3088C64.6089 93.463 66.8056 88.8093 67.3899 84.8759C67.4908 84.2011 67.0529 83.57 66.3937 83.4392C62.0198 82.5718 57.7344 80.6549 54.9098 79.1987C54.6189 79.0484 54.3073 78.9774 53.9995 78.9774Z" fill="#000072"/>
<path d="M60.4629 68.0242C62.4221 64.6307 61.9995 60.7188 59.5188 59.2865C57.0382 57.8543 53.4389 59.4441 51.4797 62.8375C49.5204 66.231 49.9431 70.1429 52.4237 71.5752C54.9044 73.0074 58.5036 71.4176 60.4629 68.0242Z" fill="#000072"/>
<path d="M59.4655 66.3623C60.1695 65.143 60.0177 63.7373 59.1264 63.2227C58.2351 62.7081 56.9418 63.2794 56.2378 64.4987C55.5338 65.718 55.6857 67.1237 56.577 67.6383C57.4683 68.1529 58.7615 67.5816 59.4655 66.3623Z" fill="white"/>
<path d="M80.2788 76.0857C82.238 72.6923 81.8154 68.7803 79.3347 67.348C76.8541 65.9158 73.2548 67.5057 71.2956 70.8991C69.3363 74.2925 69.759 78.2045 72.2397 79.6367C74.7203 81.0689 78.3195 79.4791 80.2788 76.0857Z" fill="#000072"/>
<path d="M79.2817 74.4245C79.9857 73.2052 79.8338 71.7995 78.9425 71.2849C78.0512 70.7703 76.758 71.3416 76.054 72.5609C75.35 73.7802 75.5018 75.1858 76.3931 75.7005C77.2844 76.2151 78.5777 75.6438 79.2817 74.4245Z" fill="white"/>
<path d="M94.1565 72.7725C92.9651 72.0658 92.3593 71.6533 92.1381 71.4971C92.0724 71.4509 92.0125 71.3976 91.9579 71.339C83.5159 62.3133 73.0379 63.521 72.602 63.6056C72.274 63.6707 71.9786 63.8477 71.7697 64.1079C71.7248 64.1619 71.4906 64.4606 71.1483 64.9551C70.7625 65.5121 70.0012 65.652 69.4338 65.2805C67.947 64.3064 66.6228 63.8177 65.5563 63.5854C64.8933 63.441 64.4593 62.802 64.5862 62.1351C64.5862 62.1344 64.5862 62.1331 64.5868 62.1325C64.6415 61.8214 64.5829 61.5026 64.4248 61.2319C64.2127 60.8695 58.525 52.7242 46.8908 52.4002C46.8095 52.3982 46.7281 52.3878 46.6494 52.3689C46.3943 52.3078 45.7267 52.136 44.4982 51.741C43.4454 51.404 42.2924 51.836 41.7341 52.786C41.6027 53.0105 41.4784 53.2513 41.3788 53.5063C41.0535 54.3268 41.3008 55.2632 41.9807 55.8293L42.2195 56.0264C42.5989 56.3394 42.757 56.8443 42.6275 57.3187C41.6651 60.8363 40.8342 66.0782 42.8006 70.0435C43.1409 70.7339 43.5521 71.3572 44.0317 71.9175C45.2973 73.3958 47.0313 74.4115 49.2196 74.9562C52.4333 75.7539 55.3172 75.3407 57.793 73.7296C60.4771 71.9806 62.1689 69.1299 63.1917 66.6918C63.4065 66.1797 63.9283 65.8615 64.4795 65.9285C65.3507 66.0346 66.7074 66.4146 68.3829 67.5943C68.8664 67.9353 69.0499 68.5742 68.8098 69.1156C67.7316 71.5472 66.8772 74.6002 67.3308 77.6637C67.7914 80.7661 69.4884 83.3506 72.3833 85.3417C74.3523 86.6991 76.385 87.3654 78.4477 87.3315C79.2279 87.3192 80.0165 87.2059 80.8032 86.9925C85.3593 85.7601 88.9524 81.3791 91.0684 78.1374C91.3371 77.7261 91.8193 77.5114 92.3047 77.5869L92.6782 77.6454C93.6054 77.7905 94.5261 77.3273 94.9484 76.4898C95.0792 76.2334 95.1846 75.9654 95.2712 75.7038C95.631 74.5892 95.1631 73.3704 94.1565 72.7725ZM61.7036 62.8131C61.1421 64.9135 59.6117 69.3739 56.3322 71.5056C54.4771 72.7113 52.3591 72.9963 49.8599 72.3781C47.6059 71.8159 46.0761 70.6681 45.1821 68.867C43.2346 64.9454 44.7975 59.0287 45.7579 56.1826C45.9401 55.6406 46.4548 55.2749 47.0287 55.2749C55.4245 55.2677 59.872 59.6507 61.459 61.6347C61.7245 61.9659 61.813 62.4038 61.7036 62.8131ZM89.739 74.8943C88.1501 77.6571 84.5505 83.0604 80.0621 84.2681C78.002 84.8251 76.0109 84.4184 73.9814 83.0181C71.7307 81.4715 70.4677 79.5858 70.1228 77.2615C69.5112 73.1551 71.9799 68.8013 73.2565 66.8805C73.5077 66.5031 73.9144 66.2682 74.3653 66.2448C77.0591 66.1101 83.6694 66.5649 89.5712 73.2442C89.9733 73.699 90.041 74.366 89.739 74.8943Z" fill="#00B1FF"/>
<path d="M78.2992 87.9601C76.1598 87.9601 74.0509 87.2534 72.026 85.8583C68.986 83.767 67.1972 81.0407 66.7092 77.756C66.3078 75.0433 66.8212 72.0508 68.2351 68.8618C68.3535 68.5957 68.2624 68.2788 68.0204 68.1077C66.4372 66.993 65.1788 66.6462 64.4019 66.5512C64.1377 66.5174 63.8762 66.6762 63.7681 66.9345C62.8071 69.2255 61.0496 72.3553 58.1332 74.2553C55.5044 75.9653 52.4534 76.4058 49.0666 75.5652C46.756 74.9899 44.9015 73.9001 43.554 72.3254C43.0393 71.7248 42.5962 71.0501 42.237 70.3206C40.2036 66.22 40.9974 60.8968 42.0216 57.1534C42.086 56.9172 42.0066 56.6654 41.8192 56.5105L41.5804 56.3133C40.6844 55.5677 40.3695 54.3476 40.7951 53.2759C40.8927 53.0248 41.0228 52.76 41.1913 52.4704C41.8934 51.277 43.364 50.7207 44.6881 51.1443C45.9107 51.5373 46.5679 51.7058 46.7937 51.7598C46.8276 51.7677 46.8666 51.7729 46.9095 51.7742C59.0676 52.1125 64.9133 60.8278 64.9647 60.9156C65.1977 61.3145 65.2829 61.785 65.2035 62.2404C65.2022 62.2476 65.2009 62.2547 65.1996 62.2619C65.143 62.5892 65.3565 62.9002 65.6896 62.9731C67.0476 63.2692 68.4231 63.8684 69.7772 64.756C70.0655 64.9447 70.4409 64.8757 70.6322 64.5985C70.9706 64.1105 71.2172 63.7923 71.2842 63.711C71.5809 63.342 72.0065 63.0844 72.4795 62.9907C72.5882 62.9698 83.6225 61.5097 92.4152 70.9102C92.4432 70.9401 92.4705 70.9642 92.4998 70.985C92.7008 71.1268 93.2975 71.5335 94.4759 72.233H94.4766C95.7486 72.9891 96.3199 74.4961 95.8658 75.897C95.7591 76.2197 95.638 76.5139 95.5053 76.7741C94.9613 77.853 93.7855 78.4509 92.5798 78.2649L92.2063 78.2063C91.9662 78.1686 91.7248 78.2759 91.5914 78.4796C89.3335 81.938 85.6565 86.3275 80.9644 87.597C80.1316 87.8228 79.287 87.9438 78.456 87.9575C78.404 87.9594 78.3519 87.9601 78.2992 87.9601ZM64.3355 65.2928C64.4078 65.2928 64.4813 65.2974 64.5542 65.3065C65.4742 65.4184 66.9467 65.8179 68.7433 67.0822C69.474 67.5962 69.7421 68.5586 69.3822 69.37C68.0659 72.3384 67.5838 75.0986 67.9501 77.5719C68.3847 80.4987 69.9952 82.9387 72.7372 84.8251C74.5923 86.1036 76.5131 86.7322 78.4359 86.7049C79.1633 86.6932 79.9045 86.5865 80.6371 86.3873C84.9479 85.2213 88.4024 81.0713 90.5419 77.7951C90.944 77.1789 91.6747 76.8555 92.4002 76.968L92.7737 77.0266C93.4394 77.132 94.0881 76.8015 94.3868 76.208C94.4922 76.0018 94.5885 75.7669 94.6737 75.5079C94.9405 74.6841 94.5891 73.7589 93.8356 73.3118C92.6624 72.6156 92.041 72.1972 91.7756 72.0092C91.6767 71.9395 91.5843 71.8582 91.499 71.7671C83.1358 62.8254 72.8192 64.2042 72.7183 64.2218C72.5381 64.2576 72.3728 64.3571 72.257 64.5009C72.2511 64.5081 72.0292 64.7833 71.6622 65.313C71.0805 66.153 69.9503 66.3703 69.0888 65.8049C67.8635 65.0019 66.6298 64.4619 65.4222 64.1983C64.4169 63.9797 63.7792 63.0219 63.9692 62.0185C63.9692 62.0172 63.9698 62.0159 63.9698 62.014C63.9952 61.8539 63.964 61.6893 63.8827 61.5494C63.8339 61.47 58.3746 53.3482 46.8725 53.028C46.7443 53.0241 46.6206 53.0079 46.5035 52.9799C46.2048 52.9083 45.5229 52.7307 44.3055 52.3383C43.5344 52.0923 42.6801 52.4138 42.2741 53.1042C42.14 53.3339 42.0379 53.5401 41.963 53.734C41.7366 54.3053 41.9051 54.9521 42.3814 55.3477L42.6183 55.5429C43.1857 56.0114 43.4264 56.7734 43.2312 57.4839C42.2643 61.0171 41.5017 66.0157 43.3614 69.765C43.675 70.402 44.0602 70.9882 44.5072 71.5094C45.6817 72.8817 47.3182 73.8369 49.3698 74.3477C52.4059 75.1019 55.1251 74.7167 57.45 73.2045C60.0989 71.4782 61.7198 68.5781 62.6125 66.4497C62.9073 65.7457 63.5957 65.2928 64.3355 65.2928ZM78.2875 85.138C76.7187 85.138 75.1798 84.6064 73.6254 83.5341C71.2243 81.884 69.8748 79.8623 69.5033 77.3539C68.8721 73.1199 71.2569 68.7577 72.7352 66.5343C73.1003 65.9864 73.6826 65.6533 74.334 65.6194C77.0239 65.486 83.9361 65.9201 90.0415 72.8303C90.6232 73.4869 90.7201 74.4421 90.2835 75.206C90.2835 75.2066 90.2835 75.2066 90.2829 75.2073C88.5143 78.2831 84.8562 83.6278 80.2253 84.8739C79.572 85.0495 78.9271 85.138 78.2875 85.138ZM75.0894 66.8544C74.8337 66.8544 74.602 66.8609 74.3964 66.8714C74.1466 66.8844 73.9208 67.0145 73.7783 67.2279C72.6688 68.8969 70.1527 73.2071 70.7428 77.1691C71.061 79.3144 72.2362 81.0589 74.3359 82.5015C76.2034 83.7898 78.0227 84.1698 79.898 83.6629C84.2484 82.493 87.8474 76.9251 89.1943 74.5833C89.3641 74.2859 89.327 73.915 89.1012 73.6606C83.8268 67.6899 77.9563 66.8544 75.0894 66.8544ZM52.2972 73.3235C51.4767 73.3235 50.6165 73.211 49.7088 72.9871C47.2648 72.3768 45.601 71.121 44.6204 69.1462C42.6007 65.0787 44.0934 59.1529 45.1631 55.9821C45.4338 55.1785 46.2055 54.6359 47.0481 54.6476C55.7341 54.6476 60.3605 59.259 61.9475 61.2429C62.334 61.7251 62.4694 62.3725 62.3086 62.9744C61.656 65.4132 60.0566 69.832 56.6731 72.0306C55.3457 72.8947 53.8992 73.3235 52.2972 73.3235ZM47.0481 55.9015C46.726 55.9034 46.4508 56.0895 46.3519 56.3823C45.5405 58.7872 43.8572 64.7892 45.7435 68.5879C46.551 70.2139 47.9474 71.2544 50.012 71.7697C52.333 72.3436 54.2896 72.0853 55.9911 70.9798C59.1359 68.936 60.6104 64.4749 61.0984 62.651C61.1569 62.433 61.1088 62.1994 60.9702 62.027C59.4951 60.1843 55.1895 55.9015 47.0481 55.9015Z" fill="#000072"/>
<path d="M121.777 102.366C121.777 102.366 120.433 107.438 111.969 107.034C111.969 107.034 110.022 98.5039 101.693 99.3758C96.9916 99.8677 92.1167 99.3446 88.7624 98.796C85.1478 98.2033 83.6434 93.7682 86.211 91.157C87.5118 89.8374 89.6655 88.8152 93.1955 88.6961C93.1955 88.6961 94.3303 88.7872 96.0949 88.931C96.0982 88.931 96.0982 88.931 96.0982 88.931C100.991 89.3325 110.728 90.1595 114.725 90.6768C119.286 91.2689 121.157 99.0843 121.643 101.595C121.737 102.078 121.777 102.366 121.777 102.366Z" fill="#FCAF03"/>
<g opacity="0.3">
<path d="M121.777 102.366C121.777 102.366 120.433 107.438 111.969 107.034C111.969 107.034 110.022 98.5039 101.693 99.3758C96.9916 99.8677 92.1167 99.3446 88.7624 98.796C85.1478 98.2033 83.6434 93.7682 86.211 91.157C87.5118 89.8374 89.6655 88.8152 93.1955 88.6961C93.1955 88.6961 94.3303 88.7872 96.0949 88.931C94.1767 89.8335 90.5023 91.8435 91.1484 93.7116C91.9872 96.1256 110.355 92.8182 113.028 100.161C113.413 101.219 114.114 102.146 115.113 102.664C116.515 103.392 118.706 103.687 121.643 101.595C121.737 102.078 121.777 102.366 121.777 102.366Z" fill="#000072"/>
</g>
<g opacity="0.7">
<path d="M85.8974 93.664C87.1982 92.3444 89.3519 91.3222 92.8819 91.2031C92.8819 91.2031 94.0167 91.2942 95.7813 91.438C95.7846 91.438 95.7846 91.438 95.7846 91.438C100.678 91.8395 110.415 92.6665 114.411 93.1838C118.665 93.7362 120.578 100.568 121.211 103.524C121.647 102.858 121.778 102.366 121.778 102.366C121.778 102.366 121.737 102.077 121.643 101.595C121.157 99.0836 119.286 91.2688 114.725 90.6761C110.729 90.1588 100.992 89.3311 96.0989 88.9303C96.0989 88.9303 96.0989 88.9303 96.0956 88.9303C94.331 88.7858 93.1962 88.6954 93.1962 88.6954C89.6662 88.8144 87.5131 89.8367 86.2117 91.1563C85.1329 92.2533 84.7757 93.6725 84.9891 94.9934C85.198 94.5203 85.4986 94.07 85.8974 93.664Z" fill="white"/>
</g>
<path d="M112.034 108.286C111.932 108.337 111.838 108.319 111.74 108.289L111.45 108.199C111.257 108.134 111.065 108.061 110.873 107.96C110.682 107.863 110.491 107.752 110.303 107.619C110.115 107.48 109.928 107.336 109.749 107.145C109.702 107.095 109.706 107.016 109.756 106.969C109.947 106.792 110.13 106.656 110.311 106.52C110.493 106.389 110.671 106.278 110.849 106.175C111.028 106.069 111.205 105.988 111.382 105.912L111.646 105.803C111.732 105.766 111.823 105.741 111.906 105.782L112.04 105.85C112.712 106.188 112.983 107.007 112.645 107.679C112.507 107.952 112.289 108.159 112.034 108.286Z" fill="#000072"/>
<path d="M121.258 101.224C121.218 101.248 121.243 101.243 121.245 101.248C121.25 101.251 121.263 101.252 121.274 101.254C121.297 101.255 121.325 101.258 121.354 101.258C121.412 101.258 121.48 101.256 121.549 101.25C121.691 101.243 121.845 101.224 122.012 101.201C122.343 101.148 122.704 101.068 123.203 101.004C123.266 101.247 123.284 101.479 123.266 101.7C123.253 101.925 123.197 102.131 123.128 102.34C123.057 102.548 122.962 102.749 122.839 102.943C122.777 103.038 122.71 103.133 122.629 103.223C122.589 103.269 122.546 103.314 122.497 103.358C122.472 103.38 122.45 103.403 122.418 103.425C122.384 103.45 122.372 103.464 122.295 103.506L121.258 101.224Z" fill="#000072"/>
<path d="M112.919 108.311C112.593 108.311 112.257 108.303 111.91 108.286C111.348 108.259 110.873 107.861 110.747 107.313C110.678 107.012 108.925 99.8832 101.823 100.623C96.954 101.134 91.9235 100.584 88.5621 100.033C86.407 99.6796 84.645 98.1661 83.9657 96.0839C83.2857 94.001 83.7913 91.831 85.3184 90.2778C87.0532 88.5145 89.6884 87.5606 93.1533 87.4428C93.2002 87.4408 93.2477 87.4421 93.2952 87.446C93.9537 87.4981 109.476 88.7331 114.886 89.4339C121.09 90.2381 122.84 100.963 123.019 102.183C123.044 102.351 123.034 102.522 122.99 102.686C122.926 102.925 121.397 108.31 112.919 108.311ZM102.85 98.0607C108.796 98.0607 111.864 102.618 112.924 105.803C118.555 105.799 120.143 103.053 120.489 102.244C119.992 99.2573 118.118 92.3815 114.563 91.9208C109.399 91.2513 94.3428 90.0449 93.1676 89.9512C90.4029 90.0559 88.3636 90.7574 87.1059 92.036C86.2483 92.9079 85.9652 94.1305 86.3485 95.305C86.7421 96.5114 87.7214 97.3534 88.9668 97.5577C92.1767 98.0841 96.9683 98.6105 101.561 98.1283C102.005 98.0828 102.435 98.0607 102.85 98.0607Z" fill="#000072"/>
<path d="M105.694 89.756C105.753 89.0838 105.524 88.3908 105.008 87.8781C104.787 87.6588 99.5296 82.5217 93.2023 83.3565C89.3665 83.8627 86.1131 86.3678 83.5331 90.8023C80.3864 96.2108 79.5269 101.438 80.9785 106.337C83.3705 114.41 91.2138 118.452 91.5463 118.62C91.886 118.791 92.2471 118.873 92.603 118.873C93.4593 118.873 94.2838 118.402 94.6989 117.587C95.2865 116.432 94.8258 115.018 93.6728 114.427C93.609 114.394 87.27 111.085 85.4774 104.969C84.422 101.369 85.1351 97.3989 87.5973 93.1669C89.4017 90.065 91.4878 88.3336 93.7977 88.0212C95.6163 87.7746 97.3979 88.3973 98.8073 89.1567L105.694 89.756Z" fill="#FF2765"/>
<path d="M92.6031 120.127C92.0435 120.127 91.4827 119.993 90.981 119.74C90.629 119.562 82.3197 115.28 79.7762 106.693C78.2223 101.449 79.1222 95.8906 82.4492 90.1711C85.2341 85.384 88.7966 82.6732 93.0378 82.113C99.965 81.2027 105.652 86.7517 105.891 86.9879C106.653 87.7453 107.037 88.7942 106.942 89.8659C106.882 90.555 106.274 91.0638 105.585 91.0046L98.6988 90.4047C98.5283 90.3897 98.363 90.3403 98.2127 90.2589C96.6654 89.4254 95.2378 89.0883 93.9663 89.2621C92.0592 89.5197 90.2808 91.0456 88.6808 93.796C86.3989 97.719 85.7254 101.359 86.68 104.615C88.306 110.161 94.1895 113.281 94.2481 113.312C96.0095 114.215 96.7148 116.388 95.8156 118.154C95.1981 119.372 93.9663 120.127 92.6031 120.127ZM94.6196 84.5179C94.2071 84.5179 93.79 84.544 93.3664 84.5999C89.9353 85.0528 86.9916 87.3517 84.6173 91.4321C81.6508 96.5309 80.8316 101.425 82.1811 105.981C84.4208 113.541 91.7995 117.343 92.1125 117.501C92.2674 117.579 92.4327 117.619 92.6031 117.619C93.0183 117.619 93.3931 117.389 93.5818 117.018C93.8551 116.48 93.6397 115.818 93.1009 115.542C93.0326 115.507 86.2173 111.95 84.2744 105.321C83.1188 101.378 83.8722 97.0768 86.514 92.5357C88.5227 89.0818 90.9172 87.1447 93.6299 86.7778C95.3646 86.5409 97.2289 86.9294 99.1685 87.9288L103.633 88.3179C102.366 87.2189 98.8256 84.5179 94.6196 84.5179Z" fill="#000072"/>
<path d="M86.4179 194.371C81.0452 201.812 61.4875 200.022 58.9544 193.148C58.0519 190.694 58.929 188.819 60.4341 187.424C63.1455 184.906 67.8851 183.947 67.8851 183.947C70.3017 178.157 70.534 172.352 70.534 172.352C69.9477 170.315 69.5339 168.352 73.1172 165.907C76.7031 163.458 79.0105 169.662 79.0105 169.662C80.0386 168.17 80.3522 166.703 80.3242 165.421C80.2741 163.004 79.0105 161.255 79.0105 161.255C79.0105 161.255 82.8567 162.484 84.879 161.919C84.9981 161.888 85.1107 161.85 85.2141 161.803C87.1076 160.979 88.694 162.045 88.694 162.045C94.1389 175.349 91.7938 186.929 86.4179 194.371Z" fill="#FF2765"/>
<path d="M86.4192 194.371C81.0446 201.813 61.4863 200.022 58.9551 193.149C56.4207 186.272 67.8871 183.947 67.8871 183.947C67.8871 183.947 76.2692 184.091 80.9424 189.691C81.7272 190.63 83.1775 190.633 83.985 189.717C86.8572 186.446 91.4373 178.118 84.8791 161.921C84.9981 161.889 85.1107 161.85 85.2135 161.805C87.1077 160.979 88.6934 162.046 88.6934 162.046C94.139 175.349 91.7939 186.928 86.4192 194.371Z" fill="white"/>
<path d="M78.2514 184.147C78.0379 184.147 77.8232 184.077 77.6436 183.934C74.0505 181.072 69.0097 182.901 68.9596 182.919C68.4566 183.106 67.8931 182.851 67.7044 182.345C67.5164 181.84 67.7734 181.278 68.2783 181.09C68.5262 180.998 74.413 178.865 78.8598 182.407C79.2814 182.743 79.351 183.357 79.0153 183.779C78.8227 184.021 78.5383 184.147 78.2514 184.147Z" fill="white"/>
<path d="M79.5266 179.322C79.3086 179.322 79.0887 179.249 78.9071 179.1C74.9789 175.868 70.3499 178.309 70.3031 178.335C69.8274 178.591 69.2366 178.414 68.9803 177.941C68.7239 177.467 68.9002 176.875 69.3739 176.619C69.6101 176.49 75.2164 173.536 80.1473 177.593C80.5638 177.936 80.623 178.551 80.2807 178.967C80.0881 179.2 79.8083 179.322 79.5266 179.322Z" fill="white"/>
<path d="M80.9393 174.222C80.7578 174.222 80.5736 174.171 80.4103 174.065C76.771 171.711 70.898 173.961 70.8394 173.984C70.3371 174.181 69.771 173.932 69.5751 173.43C69.3786 172.928 69.6272 172.362 70.1288 172.166C70.4073 172.057 77.0014 169.534 81.4709 172.426C81.9232 172.719 82.0533 173.323 81.7598 173.776C81.5731 174.065 81.2595 174.222 80.9393 174.222Z" fill="white"/>
<g opacity="0.3">
<path d="M86.4179 194.371C81.0452 201.812 61.4875 200.022 58.9544 193.148C58.0519 190.694 58.929 188.819 60.4341 187.424C63.3966 190.671 69.8287 195.866 79.0105 193.148C90.6024 189.719 92.0261 170.111 80.3242 165.422C80.2741 163.005 79.0105 161.255 79.0105 161.255C79.0105 161.255 82.8567 162.484 84.879 161.92C84.9981 161.888 85.1107 161.851 85.2141 161.804C87.1076 160.979 88.694 162.045 88.694 162.045C94.1389 175.349 91.7938 186.929 86.4179 194.371Z" fill="#000072"/>
</g>
<path d="M73.427 200.309C72.0657 200.309 70.7182 200.216 69.4324 200.039C63.4051 199.213 59.093 196.782 57.8971 193.536C57.2249 191.712 57.3277 189.993 58.201 188.426C60.1153 184.994 65.2843 183.43 67.0613 182.982C68.9555 178.176 69.3387 173.426 69.3979 172.476C68.7518 170.154 68.5423 167.665 72.4815 164.976C73.8629 164.032 75.083 164.131 75.8631 164.378C77.2354 164.814 78.2791 166.019 78.9845 167.128C79.7705 164.33 78.177 162.026 78.0937 161.908C77.8139 161.513 77.8165 160.982 78.1021 160.591C78.3878 160.2 78.8895 160.033 79.3515 160.181C80.9749 160.699 83.7254 161.224 84.7613 160.773C87.1955 159.71 89.2354 161.055 89.3213 161.112C89.5061 161.236 89.6498 161.413 89.7338 161.619C92.3658 168.05 93.375 174.41 92.7321 180.522C92.166 185.903 90.2979 190.919 87.3302 195.028C84.6175 198.789 78.9142 200.309 73.427 200.309ZM74.783 166.459C74.5188 166.459 74.1798 166.543 73.7523 166.835C70.7136 168.91 71.1112 170.291 71.6148 172.038C71.648 172.154 71.6623 172.274 71.6578 172.394C71.648 172.64 71.3923 178.471 68.9242 184.38C68.7804 184.724 68.4753 184.975 68.1096 185.049C66.3996 185.399 61.6366 186.885 60.1667 189.525C59.6214 190.504 59.57 191.561 60.0105 192.757C60.887 195.136 64.7052 197.118 69.7382 197.808C75.3524 198.578 82.6804 197.623 85.5063 193.711C91.4971 185.416 92.3274 174.186 87.8026 162.845C87.4011 162.672 86.5825 162.435 85.6631 162.836C84.4144 163.38 82.5509 163.214 81.042 162.925C81.6289 164.766 81.8742 167.484 79.9371 170.299C79.6989 170.645 79.2877 170.829 78.8713 170.778C78.4542 170.727 78.1008 170.447 77.9544 170.054C77.6616 169.274 76.5216 166.947 75.1793 166.523C75.0732 166.49 74.9418 166.459 74.783 166.459Z" fill="#000072"/>
<path d="M71.1119 173.316L69.9543 171.385C70.1404 171.273 74.5671 168.646 78.9826 168.537L79.0386 170.788C75.2249 170.882 71.1523 173.292 71.1119 173.316Z" fill="#000072"/>
<path d="M82.4697 191.184C82.4573 191.184 82.4456 191.184 82.4333 191.184C81.6206 191.173 80.858 190.812 80.3413 190.193C75.9583 184.943 67.9516 184.732 67.8716 184.73L67.8989 183.163C68.2561 183.169 76.6955 183.38 81.5438 189.188C81.7709 189.459 82.0936 189.611 82.4528 189.616C82.458 189.616 82.4638 189.616 82.4684 189.616C82.825 189.616 83.162 189.464 83.3956 189.198C86.394 185.788 90.4725 177.734 84.1075 162.101L85.5585 161.51C92.2417 177.924 87.8092 186.551 84.5721 190.233C84.0418 190.838 83.2766 191.184 82.4697 191.184Z" fill="#000072"/>
<path d="M62.9325 140.704C56.4843 143.475 51.4968 134.055 51.4968 134.055C51.5469 138.738 52.8573 149.974 52.8573 149.974C42.0768 154.56 38.8169 143.98 38.8169 143.98C38.8169 143.98 38.8077 142.419 38.9112 140.04C39.2938 131.353 41.184 111.749 50.5409 117.178C59.6095 122.444 64.6094 128.955 65.6973 133.88C66.4085 137.08 65.4715 139.613 62.9325 140.704Z" fill="#FCAF03"/>
<g opacity="0.3">
<path d="M62.9325 140.704C56.4843 143.475 51.4968 134.055 51.4968 134.055C51.5469 138.738 52.8573 149.974 52.8573 149.974C42.0768 154.56 38.8169 143.98 38.8169 143.98C38.8169 143.98 38.8077 142.419 38.9112 140.04L39.2216 140.516C39.2216 140.516 39.4168 140.673 39.7643 140.913C43.0372 143.169 47.5406 141.225 48.1438 137.296C48.7652 133.25 50.118 128.356 53.0584 127.071L53.264 130.076C53.372 131.65 54.1483 133.11 55.4145 134.05C57.7589 135.791 61.8173 137.653 65.6973 133.88C66.4085 137.08 65.4715 139.613 62.9325 140.704Z" fill="#000072"/>
</g>
<g opacity="0.7">
<path d="M41.6382 144.607C41.6382 144.607 41.6291 143.046 41.7326 140.666C42.0638 133.142 43.5278 117.43 49.9943 116.888C41.1112 112.525 39.2867 131.525 38.9112 140.04C38.8077 142.419 38.8169 143.98 38.8169 143.98C38.8169 143.98 40.9166 150.789 47.3142 151.113C43.1029 149.359 41.6382 144.607 41.6382 144.607Z" fill="white"/>
</g>
<path d="M50.2444 134.098C50.258 133.613 50.3257 133.177 50.4097 132.722C50.4975 132.272 50.6101 131.825 50.7539 131.382C50.8951 130.94 51.0597 130.499 51.2926 130.08C51.5249 129.666 51.8002 129.245 52.2036 128.966C52.1841 129.445 52.2316 129.867 52.2758 130.294C52.3233 130.718 52.3676 131.134 52.4248 131.551L52.5999 132.796C52.6558 133.204 52.715 133.633 52.7515 134.011L50.2444 134.098Z" fill="#000072"/>
<path d="M47.7863 152.383C46.3222 152.383 44.9447 152.085 43.6635 151.49C39.2298 149.429 37.6844 144.554 37.6206 144.348C37.5848 144.231 37.566 144.109 37.5653 143.986C37.551 141.532 37.6317 119.891 44.8302 115.717C46.1296 114.964 48.2847 114.417 51.1698 116.092C62.6629 122.763 67.4871 131.08 67.1695 136.363C67.0147 138.935 65.6866 140.886 63.4287 141.856C58.9963 143.762 55.2906 140.973 52.9748 138.326C53.3568 143.397 54.094 149.745 54.1038 149.829C54.1682 150.382 53.8611 150.911 53.349 151.129C51.3813 151.964 49.5223 152.382 47.7863 152.383ZM40.0717 143.767C40.3489 144.525 41.7063 147.825 44.7372 149.223C46.6521 150.107 48.9256 150.084 51.5023 149.159C51.1835 146.32 50.2856 138.011 50.2433 134.067C50.2368 133.489 50.6272 132.981 51.1881 132.838C51.7476 132.697 52.3339 132.955 52.6046 133.466C52.6664 133.582 57.1431 141.828 62.4377 139.552C63.8185 138.958 64.5674 137.835 64.665 136.212C64.9273 131.844 60.4219 124.363 49.9101 118.261C48.407 117.389 47.1571 117.267 46.0873 117.886C41.1024 120.777 40.0594 137.346 40.0717 143.767Z" fill="#000072"/>
<path d="M53.0424 168.575L53.0391 168.584C52.691 169.562 52.2837 170.452 51.823 171.226V171.23C50.0297 174.223 47.4185 175.452 44.1931 173.208C35.6886 167.289 12.0121 156.12 12.3538 146.422C12.3538 146.422 12.3538 146.422 12.357 146.418C12.3603 146.334 12.3635 146.246 12.3726 146.161C12.385 145.948 12.4136 145.738 12.454 145.528C12.5229 145.174 12.6043 144.829 12.6986 144.5C15.2441 135.642 26.8894 135.851 31.8457 140.513C31.8489 140.516 31.8489 140.516 31.8489 140.516C36.9867 145.353 40.2623 144.698 40.2623 144.698C46.4594 143.084 46.9142 150.541 46.9142 150.541C49.2404 150.347 50.7604 149.848 51.6571 149.441C52.3937 149.106 52.7073 148.83 52.7073 148.83C55.1116 154.694 55.0081 163.042 53.0424 168.575Z" fill="#FF2765"/>
<path d="M53.0425 168.574L53.0392 168.583L51.8198 171.222C51.8198 171.222 35.8644 151.395 26.7262 145.887C17.7357 140.467 12.5198 146.232 12.3564 146.417C12.3656 146.116 12.3974 145.822 12.4534 145.527C14.3658 135.631 26.704 135.677 31.8451 140.511C31.8484 140.515 31.8484 140.515 31.8484 140.515C32.8328 143.151 32.9142 144.687 32.8387 145.461C32.7951 145.906 32.9487 146.348 33.2714 146.662C45.0397 158.088 53.0425 168.574 53.0425 168.574Z" fill="white"/>
<path d="M41.2461 151.9C41.2292 151.9 41.2116 151.9 41.194 151.899C40.5024 151.871 39.9642 151.287 39.9922 150.596C40.0508 149.143 38.5867 146.822 37.6504 145.701C37.2066 145.17 37.2769 144.379 37.8079 143.935C38.3388 143.491 39.1281 143.56 39.5732 144.091C39.8849 144.462 42.6145 147.807 42.498 150.698C42.4707 151.371 41.915 151.9 41.2461 151.9Z" fill="white"/>
<path d="M34.7964 146.128C34.2856 146.128 33.8672 145.72 33.8568 145.207C33.8432 144.543 33.1385 143.164 32.6433 142.397C32.3616 141.961 32.4865 141.379 32.9225 141.096C33.3584 140.815 33.9401 140.939 34.2225 141.375C34.4704 141.757 35.7087 143.739 35.738 145.168C35.749 145.687 35.3365 146.116 34.8172 146.127C34.8094 146.128 34.8023 146.128 34.7964 146.128Z" fill="white"/>
<path d="M37.5169 149.238C37.5117 149.238 37.5065 149.238 37.502 149.238C36.8096 149.23 36.2546 148.662 36.2631 147.97C36.2839 146.24 35.2213 144.388 35.2109 144.369C34.8641 143.771 35.0658 143.003 35.6631 142.655C36.2605 142.307 37.0263 142.507 37.3757 143.104C37.4336 143.203 38.7994 145.563 38.7708 147.999C38.7623 148.687 38.2027 149.238 37.5169 149.238Z" fill="white"/>
<g opacity="0.3">
<path d="M53.0424 168.575L53.0391 168.584C52.691 169.562 52.2837 170.452 51.823 171.226V171.23C50.0297 174.223 47.4185 175.452 44.1931 173.208C35.6886 167.289 12.0121 156.12 12.3538 146.422C12.3538 146.422 12.3538 146.422 12.357 146.418C12.3603 146.334 12.3635 146.246 12.3726 146.161C12.385 145.948 12.4136 145.738 12.454 145.528C12.5229 145.174 12.6043 144.829 12.6986 144.5C20.4977 149.6 46.0833 164.866 51.6571 149.441C52.3937 149.106 52.7073 148.83 52.7073 148.83C55.1116 154.694 55.0081 163.042 53.0424 168.575Z" fill="#000072"/>
</g>
<path d="M51.823 171.226V171.23C50.0297 174.223 47.4185 175.452 44.1931 173.208C35.6886 167.289 12.0121 156.12 12.3538 146.422C12.3538 146.422 12.3538 146.422 12.357 146.418C12.3603 146.334 12.3635 146.246 12.3726 146.161C12.8242 145.706 13.2628 145.603 13.2628 145.603C26.065 135.271 51.8197 171.223 51.8197 171.223C51.8197 171.223 51.8197 171.223 51.823 171.226Z" fill="#000072"/>
<path d="M47.3865 175.484C46.1437 175.484 44.8436 175.033 43.5488 174.132C41.6481 172.809 38.994 171.231 35.9214 169.402C24.2416 162.454 9.70535 153.806 11.347 145.314C12.1539 141.143 14.7807 138.142 18.7447 136.862C23.4328 135.348 29.2675 136.54 32.6199 139.695C36.9482 143.769 39.7559 143.618 40.0416 143.59C42.0203 143.09 43.7199 143.341 45.0928 144.337C46.8939 145.644 47.6012 147.918 47.8726 149.302C50.8091 148.893 51.9686 147.977 51.981 147.966C52.2549 147.727 52.62 147.642 52.972 147.726C53.3253 147.809 53.609 148.065 53.747 148.4C57.2613 156.969 55.714 170.254 50.7375 174.247C49.7101 175.071 48.574 175.484 47.3865 175.484ZM23.0301 138.465C21.7931 138.465 20.5679 138.639 19.437 139.004C17.211 139.723 14.3831 141.476 13.5587 145.742C12.217 152.681 27.1749 161.58 37.0732 167.468C40.1828 169.318 42.8682 170.915 44.8352 172.284C46.5471 173.476 48.0183 173.544 49.3295 172.491C53.2837 169.319 54.6078 158.034 52.1124 150.469C51.0974 150.931 49.4557 151.459 47.0065 151.663C46.7059 151.688 46.4053 151.59 46.1762 151.392C45.9472 151.194 45.8079 150.912 45.7891 150.609C45.7871 150.581 45.5626 147.454 43.7655 146.155C42.9391 145.559 41.8869 145.438 40.5465 145.787C40.5257 145.792 40.5049 145.797 40.4841 145.801C40.091 145.88 36.4836 146.424 31.0784 141.335C29.1302 139.502 26.046 138.465 23.0301 138.465Z" fill="#000072"/>
<path d="M51.821 172.006C51.5854 172.006 51.3603 171.899 51.2106 171.714C51.0519 171.517 35.2344 151.934 26.3219 146.56C17.85 141.452 12.992 146.878 12.9439 146.933L11.7603 145.906C11.8169 145.841 17.5409 139.435 27.1314 145.218C35.2174 150.093 48.2604 165.643 51.6349 169.753L52.1301 168.679C50.5977 166.718 43.0855 157.282 32.726 147.226C32.2341 146.749 31.9907 146.078 32.0584 145.386C32.1182 144.773 32.0753 143.36 31.1149 140.789L32.5835 140.241C33.6005 142.964 33.7079 144.624 33.6187 145.538C33.5979 145.753 33.6708 145.958 33.8185 146.101C45.4937 157.434 53.5843 167.994 53.6644 168.099C53.8407 168.329 53.8745 168.639 53.7529 168.902L52.5328 171.55C52.4196 171.796 52.1867 171.966 51.9173 171.999C51.8847 172.004 51.8529 172.006 51.821 172.006Z" fill="#000072"/>
<path d="M45.7637 151.43C44.5274 151.43 43.4252 151.078 42.4752 150.378C39.9772 148.537 39.5041 144.945 39.4846 144.793L41.0404 144.6L40.2628 144.697L41.0404 144.598C41.0443 144.629 41.4562 147.685 43.4115 149.121C44.3186 149.787 45.4501 150.005 46.7755 149.769L47.0508 151.312C46.607 151.391 46.1776 151.43 45.7637 151.43Z" fill="#000072"/>
</svg>
