<svg width="596" height="960" viewBox="0 0 596 960" fill="none" xmlns="http://www.w3.org/2000/svg">
<g opacity="0.75">
<path d="M92.0543 463.465C85.7583 461.584 79.4214 459.78 73.0692 458.047C73.8523 456.043 74.5433 453.999 75.2088 451.939C77.072 452.747 79.0222 453.248 80.8393 454.224C82.81 455.282 84.6169 456.58 86.2702 458.083C86.48 458.272 86.8076 458.155 86.823 457.868C87.3656 449.439 87.8621 439.421 82.6359 432.193C82.6411 432.163 82.6359 432.127 82.6103 432.096C82.5233 432.004 82.4414 431.907 82.3544 431.81C82.3186 431.764 82.2879 431.723 82.2572 431.677C82.2418 431.657 82.2162 431.641 82.1957 431.631C82.1906 431.626 82.1855 431.621 82.1804 431.616C82.0678 431.498 81.9603 431.36 81.8221 431.263C82.0166 430.624 82.2111 429.98 82.4005 429.341C82.421 429.275 82.4056 429.218 82.38 429.178C82.3493 429.06 82.252 428.963 82.119 429.014C71.5336 433.037 62.6681 441.849 57.5187 451.786C57.401 452.011 57.534 452.251 57.7849 452.271C63.0776 452.721 68.2679 453.58 73.4889 454.49C73.1357 455.619 72.803 456.749 72.4959 457.884C65.5089 455.982 58.4964 454.168 51.4736 452.45C51.4736 452.43 51.4736 452.404 51.4736 452.384C51.4633 452.133 51.1101 452.133 51.0845 452.379C51.0845 452.394 51.0845 452.409 51.0794 452.425C50.9924 452.491 50.9719 452.629 51.059 452.706C50.9003 454.73 51.0743 456.79 51.4326 458.788C51.7909 460.797 52.2772 461.426 54.2069 461.988C58.957 463.363 63.7225 464.697 68.4829 466.052C73.2381 467.406 77.9728 468.873 82.7537 470.126C84.279 470.524 85.2055 470.08 86.3777 469.073C88.2511 467.457 90.0836 465.796 91.9263 464.145C91.9519 464.125 91.9724 464.099 91.9877 464.074C92.2948 464.048 92.4023 463.568 92.0543 463.465ZM81.689 431.682C81.7658 431.743 81.8425 431.805 81.9193 431.861C81.9603 431.892 81.9961 431.922 82.0371 431.953C84.1511 435.598 85.5126 439.426 86.0961 443.607C86.7155 448.105 86.5108 452.665 86.2241 457.183C84.6732 455.834 82.9942 454.643 81.1771 453.672C79.4214 452.731 77.3688 451.704 75.3726 451.433C76.1864 448.867 76.9593 446.286 77.7937 443.75C79.0989 439.733 80.4452 435.72 81.689 431.682ZM58.2967 451.683C60.8663 446.843 64.2139 442.452 68.2218 438.71C72.2963 434.913 76.903 432.071 81.8681 429.622C80.2097 434.238 78.715 438.915 77.1794 443.571C76.0482 447.001 74.7839 450.431 73.6834 453.892C68.6415 452.767 63.441 452.133 58.2967 451.683ZM86.7309 467.902C86.045 468.51 85.2055 469.482 84.2637 469.66C83.3116 469.844 82.0422 469.262 81.1515 469.006C77.159 467.871 73.1613 466.742 69.1688 465.607C65.2581 464.493 61.3526 463.384 57.4419 462.269C56.4233 461.978 55.3996 461.692 54.381 461.4C53.5313 461.155 52.7481 461.048 52.3079 460.01C52.139 459.616 52.0878 459.054 52.011 458.64C51.6527 456.713 51.5555 454.786 51.4889 452.839C64.7258 456.58 77.9882 460.271 91.2506 463.895C89.7406 465.224 88.2409 466.568 86.7309 467.902Z" fill="#5E3300"/>
<path d="M98.5634 572.565C99.4312 567.3 95.5014 562.77 90.8401 560.799C84.468 558.093 77.377 560.321 71.1661 562.525C71.2528 562.121 71.3396 561.717 71.414 561.301C71.5504 560.541 71.6 559.807 71.538 559.121C73.3232 559.023 75.0587 557.848 75.7282 556.219C76.3728 554.64 75.9017 552.803 74.7612 551.579C75.3562 550.171 76.1745 548.934 77.3894 547.942C78.6291 546.926 80.0423 546.571 81.4556 545.897C81.8399 545.714 81.6539 545.138 81.2572 545.126C78.0588 545.065 75.2075 548.224 74.2653 551.126C73.9802 550.893 73.6703 550.697 73.3232 550.55C73.038 550.428 72.7529 550.354 72.4678 550.293C72.8893 547.281 71.8107 543.743 69.1578 542.077C68.6619 541.771 68.1412 542.445 68.5255 542.861C70.5586 545.053 71.8851 547.306 71.6992 550.244C70.2115 550.293 68.7859 551.175 68.0792 552.509C67.3974 553.807 67.5462 555.546 68.5999 556.44C67.6577 557.713 66.8023 559.023 65.9965 560.37C63.4427 546.963 38.4628 540.853 32.2395 554.395C29.3882 560.603 31.6816 567.582 36.814 571.855C42.0827 576.238 48.9135 577.132 55.4467 576.042C51.7524 578.43 48.1324 580.965 44.9464 584.001C42.6406 586.193 37.6818 590.613 38.7851 594.323C40.9918 601.767 52.3598 588.911 56.7855 583.217C55.6822 587.038 55.0747 591.054 56.7483 594.384C56.9343 594.764 57.517 594.849 57.8145 594.543C60.3063 591.911 62.1535 588.911 63.6287 585.715C63.6783 589.548 65.0172 593.258 67.3478 596.38C68.7859 598.314 72.0711 602.318 74.9472 601.253C78.5795 599.906 76.8067 595.4 75.753 593.013C73.8438 588.678 71.5132 584.528 68.885 580.573C73.9306 583.817 79.2861 586.107 85.5714 584.699C91.4475 583.377 97.5345 578.748 98.5634 572.565ZM70.1867 551.873C70.6578 551.579 71.166 551.432 71.6619 551.42C71.7859 551.579 72.0463 551.628 72.1826 551.456C72.8273 551.566 73.4471 551.897 73.9306 552.448C74.91 553.55 75.1207 555.191 74.2405 556.415C73.4843 557.456 72.4058 557.835 71.2281 557.909C71.0297 557.395 70.6702 557.125 70.2239 556.697C70.1867 556.611 70.0628 556.746 69.9512 556.721C69.8396 556.685 69.8148 556.342 69.7032 556.268C69.604 556.207 69.542 556.06 69.4553 556.048C69.3685 555.962 69.2445 555.876 69.1206 555.901C68.042 554.86 68.9842 552.607 70.1867 551.873ZM59.0294 576.373C58.6575 577.512 58.2236 578.748 57.7773 580.034C57.5914 580.046 57.4054 580.12 57.2814 580.316C55.0376 583.854 52.4218 587.099 49.3597 589.988C47.9341 591.335 46.4341 592.67 44.7977 593.76C44.1034 594.335 43.31 594.751 42.4298 595.008L40.0744 593.49C39.7149 592.78 40.8306 591.066 41.1901 590.466C45.2687 583.756 52.8929 579.263 59.4137 575.161C59.2898 575.577 59.1658 575.969 59.0294 576.373ZM59.0914 573.74C52.6697 575.602 45.4919 575.822 39.6529 572.137C34.1362 568.659 30.8634 562.121 33.2189 555.791C38.2892 542.114 62.8229 548.603 65.2527 561.056C65.2775 561.178 65.3395 561.264 65.4262 561.313C63.1204 565.329 61.3352 569.614 59.8228 573.998C59.674 573.777 59.4261 573.643 59.0914 573.74ZM65.5502 576.691C63.7155 582.483 61.5708 588.188 57.5294 592.817C56.5252 589.939 57.393 586.891 58.174 584.001C59.0294 580.818 59.9344 577.646 60.9757 574.512C63.0088 568.414 65.637 562.635 69.0338 557.187C69.0462 557.199 69.0586 557.199 69.0586 557.211C69.3933 557.444 69.6412 557.725 69.8272 558.056C69.6041 558.325 69.666 558.827 70.0751 558.962C70.0999 558.974 70.1247 558.974 70.1495 558.986C70.6578 561.447 68.9594 565.157 68.4263 567.019C67.5214 570.239 66.5668 573.471 65.5502 576.691ZM73.162 590.65C73.8562 592.045 75.1951 594.017 75.3438 595.547C76.0505 596.637 75.5918 597.445 73.9554 597.972C73.2116 599.661 72.4058 600.004 71.5504 598.988C70.9181 598.645 70.3231 597.996 69.8148 597.482C68.6247 596.282 67.5958 594.923 66.7775 593.453C65.1659 590.527 64.4717 587.331 64.3477 584.038C65.0295 582.422 65.637 580.769 66.1949 579.091C67.8313 581.418 69.3933 583.793 70.8066 586.266C71.6372 587.686 72.4306 589.156 73.162 590.65ZM83.4887 583.707C77.0174 584.515 71.7363 581.087 66.7155 577.512C67.0875 576.361 67.447 575.198 67.7941 574.034C68.7734 570.814 69.9512 567.508 70.7818 564.19C76.1497 562.268 82.1126 560.076 87.8896 561.313C93.3567 562.488 98.5882 567.423 96.9766 573.324C95.4022 579.128 89.2409 582.997 83.4887 583.707Z" fill="#F29704"/>
<path d="M294.423 162.637C302.653 167.675 312.167 169.388 321.638 167.601C321.697 167.586 321.727 167.556 321.771 167.542C321.948 177.175 329.572 184.872 337.698 189.245C348.276 194.948 360.583 196.884 372.462 197.386C392.983 198.243 415.071 192.939 428.545 176.362C429.949 174.633 431.205 172.801 432.313 170.881C432.505 170.792 432.697 170.718 432.874 170.615C433.258 170.423 433.155 170.009 432.889 169.817C440.173 156.328 440.217 138.938 429.461 127.06C422.281 119.126 412.102 114.945 401.479 113.807C400.947 108.06 401.508 102.268 404.256 97.0973C405.808 94.1868 408.127 91.3353 411.215 89.9908C415.234 88.2474 421.143 90.4784 419.518 95.8415C419.341 96.4177 420.213 96.787 420.493 96.2552C421.941 93.5367 420.848 90.5966 418.366 88.8532C415.278 86.6961 411.348 87.7599 408.526 89.8135C405.483 92.0297 403.37 95.1175 402.025 98.5747C402.144 95.8415 402.173 93.0934 402.144 90.3602C402.04 83.431 402.188 75.3642 399.425 68.8634C397.667 64.7118 393.781 60.8705 388.98 61.0034C384.961 61.1216 381.489 64.2833 381.637 68.3611C381.666 69.1885 382.819 69.1589 382.907 68.3611C383.336 64.5345 386.793 62.2149 390.442 62.8059C393.353 63.2787 395.584 65.3619 397.106 67.7701C399.957 72.2911 400.06 78.4668 400.43 83.6378C401.154 93.6696 400.651 103.642 399.632 113.63C391.432 113.024 383.07 114.206 375.683 116.851C356.845 123.603 345.159 139.47 337.136 156.978C337.121 156.712 337.107 156.476 337.107 156.254C337.077 153.107 336.722 149.975 336.087 146.887C334.698 140.106 331.906 133.782 327.991 128.079C327.621 127.533 326.883 127.518 326.499 128.079C321.431 135.718 319.244 144.671 320.234 153.757C310.956 152.885 301.87 155.441 294.409 161.1C293.906 161.514 293.818 162.267 294.423 162.637ZM296.462 161.809C303.746 156.727 312.359 154.57 321.224 155.634C321.653 155.678 322.155 155.19 322.096 154.762C320.929 146.074 322.716 137.564 327.282 130.133C330 134.285 332.142 138.746 333.546 143.533C334.329 146.193 334.89 148.926 335.216 151.689C335.363 152.989 335.467 154.319 335.511 155.619C335.511 155.766 335.718 158.293 335.939 159.519C335.821 159.475 335.688 159.46 335.555 159.534C335.481 159.578 335.393 159.623 335.319 159.667C335.068 159.815 335.009 160.125 335.127 160.376C335.186 160.494 335.245 160.598 335.304 160.716C335.348 160.79 335.393 160.849 335.467 160.893C335.23 161.883 336.649 162.651 337.077 161.647C345.425 141.938 358.101 123.632 379.672 117.456C396.81 112.537 419.238 115.536 430.363 130.901C439.08 142.942 437.647 158.455 430.407 170.556C423.109 173.097 416.12 171.856 409.132 168.325C408.423 167.97 407.92 168.901 408.526 169.359C414.406 173.732 422.591 174.264 429.491 172.018C427.615 174.885 425.413 177.544 422.946 179.864C408.393 193.604 387.591 196.913 368.31 195.421C351.423 194.121 322.953 187.591 322.894 165.857C322.894 165.148 321.859 165.163 321.815 165.857C321.815 165.931 321.815 166.005 321.8 166.064C321.623 165.961 321.416 165.902 321.18 165.946C312.611 167.556 304.012 166.079 296.462 161.809Z" fill="#4591D6"/>
<path d="M418.188 140.475C420.818 140.386 423.182 143.548 421.557 145.882C421.247 146.326 420.552 145.927 420.833 145.454C421.985 143.459 419.43 141.154 417.465 141.923C415.381 142.735 415.293 144.848 415.071 146.71C414.997 147.36 414.17 147.507 413.919 146.872C412.929 144.242 415.396 140.564 418.188 140.475Z" fill="#4591D6"/>
<path d="M103.33 124.974C101.028 120.009 95.7765 117.511 90.4201 118.158C85.9665 118.7 80.58 121.288 78.3531 125.456C78.3832 125.23 78.4284 124.989 78.4434 124.764C79.0904 117.526 74.2305 110.229 67.3845 107.882C58.7631 104.933 48.8929 109.853 42.6487 115.661C35.8328 122.01 35.7576 130.782 40.2413 138.516C34.8097 140.848 29.2577 142.834 23.5703 144.429C23.0437 144.579 22.8782 145.136 23.0888 145.602C24.5031 148.597 28.7612 147.694 31.4093 147.604C36.9463 147.438 42.5133 147.273 48.0503 146.911C53.0456 150.297 59.1694 151.862 65.3684 150.914C69.7468 150.252 75.1032 148.281 77.7212 144.459C78.0071 144.038 78.2328 143.601 78.4434 143.135C78.5638 143.315 78.7443 143.451 79.0001 143.481C90.2095 144.835 110.371 140.186 103.33 124.974ZM36.9162 145.979C34.6893 145.994 27.7681 147.167 25.2554 145.587C30.657 144.008 35.9231 142.097 41.0689 139.795C42.6337 142.157 44.5445 144.233 46.7262 145.933C43.4612 145.903 40.1812 145.963 36.9162 145.979ZM77.7964 139.734C77.4353 145.016 72.0037 147.784 67.4597 148.973C61.4112 150.553 55.0618 149.469 49.8408 146.279C49.7956 146.114 49.6753 145.979 49.4496 145.979C49.4195 145.979 49.3894 145.979 49.3593 145.979C47.9901 145.091 46.6961 144.068 45.5225 142.894C39.8201 137.192 35.863 127.442 40.7981 120.084C44.8004 114.126 52.9252 109.477 59.9668 108.664C67.8058 107.776 75.0881 112.772 76.7281 120.611C78.323 128.284 72.8011 136.093 65.248 137.778C60.6589 138.802 55.0768 137.372 53.4518 132.422C52.0676 128.239 53.813 122.883 57.5293 120.475C61.1254 118.158 67.2942 119.151 68.4528 123.816C68.9343 125.787 68.3174 128.329 66.7376 129.699C63.623 132.121 61.8325 130.947 61.3661 126.178C62.0732 125.17 62.976 124.478 64.0894 124.086C64.5107 123.891 64.2098 123.199 63.7735 123.334C58.1462 125.11 58.6277 133.671 65.1276 132.121C71.0407 130.707 71.447 122.371 66.8579 119.272C60.6288 115.059 53.3014 120.024 51.8419 126.584C50.0213 134.709 56.4761 140.517 64.3753 139.418C70.0627 138.621 75.0881 134.528 77.2999 129.262C77.5557 132.723 78.0372 136.319 77.7964 139.734ZM79.0152 142.052C78.955 142.052 78.9098 142.067 78.8496 142.082C80.1436 137.824 78.8045 132.302 78.4886 128.224C79.7976 122.928 86.8091 119.573 91.8946 119.618C98.0485 119.678 102.623 124.252 103.134 130.331C104.112 141.645 86.4931 142.006 79.0152 142.052Z" fill="#FBC201"/>
<path d="M137.912 475.373C136.001 474.952 134.361 476.908 134.797 478.728C134.933 479.33 135.79 479.059 135.7 478.472C135.55 477.374 136.768 476.14 137.852 476.682C138.243 476.878 138.544 477.269 138.679 477.69C138.815 478.156 138.649 478.548 138.664 479.014C138.679 479.526 139.281 479.766 139.657 479.42C141.086 478.156 139.386 475.689 137.912 475.373Z" fill="#FBC201"/>
<path d="M425.33 497.974C423.028 493.009 417.777 490.511 412.42 491.158C407.966 491.7 402.58 494.288 400.353 498.456C400.383 498.23 400.428 497.989 400.443 497.763C401.09 490.526 396.23 483.229 389.385 480.882C380.763 477.933 370.893 482.853 364.649 488.661C357.833 495.01 357.758 503.782 362.241 511.516C356.81 513.848 351.258 515.834 345.57 517.429C345.044 517.579 344.878 518.136 345.089 518.602C346.503 521.596 350.761 520.694 353.409 520.603C358.946 520.438 364.513 520.272 370.05 519.911C375.046 523.297 381.169 524.861 387.368 523.914C391.747 523.252 397.103 521.281 399.721 517.459C400.007 517.038 400.233 516.601 400.443 516.135C400.564 516.315 400.744 516.451 401 516.481C412.209 517.835 432.371 513.186 425.33 497.974ZM358.916 518.978C356.689 518.993 349.768 520.167 347.255 518.587C352.657 517.007 357.923 515.097 363.069 512.795C364.634 515.157 366.545 517.233 368.726 518.933C365.461 518.903 362.181 518.963 358.916 518.978ZM399.796 512.734C399.435 518.016 394.004 520.784 389.46 521.973C383.411 523.552 377.062 522.469 371.841 519.279C371.796 519.114 371.675 518.978 371.45 518.978C371.42 518.978 371.389 518.978 371.359 518.978C369.99 518.091 368.696 517.068 367.523 515.894C361.82 510.192 357.863 500.442 362.798 493.084C366.8 487.126 374.925 482.477 381.967 481.664C389.806 480.776 397.088 485.772 398.728 493.611C400.323 501.284 394.801 509.093 387.248 510.778C382.659 511.801 377.077 510.372 375.452 505.422C374.068 501.239 375.813 495.883 379.529 493.475C383.125 491.158 389.294 492.151 390.453 496.816C390.934 498.787 390.317 501.329 388.738 502.699C385.623 505.121 383.833 503.947 383.366 499.178C384.073 498.17 384.976 497.478 386.089 497.086C386.511 496.891 386.21 496.199 385.773 496.334C380.146 498.11 380.628 506.671 387.128 505.121C393.041 503.707 393.447 495.371 388.858 492.272C382.629 488.059 375.301 493.024 373.842 499.584C372.021 507.709 378.476 513.517 386.375 512.418C392.063 511.621 397.088 507.528 399.3 502.262C399.556 505.723 400.037 509.319 399.796 512.734ZM401.015 515.051C400.955 515.051 400.91 515.066 400.85 515.082C402.144 510.823 400.805 505.302 400.489 501.224C401.798 495.928 408.809 492.573 413.895 492.618C420.048 492.678 424.623 497.252 425.134 503.331C426.112 514.645 408.493 515.006 401.015 515.051Z" fill="#FBC201"/>
<path d="M459.912 848.373C458.001 847.952 456.361 849.908 456.797 851.728C456.933 852.33 457.79 852.059 457.7 851.472C457.55 850.374 458.768 849.14 459.852 849.682C460.243 849.877 460.544 850.269 460.679 850.69C460.815 851.156 460.649 851.548 460.664 852.014C460.679 852.526 461.281 852.766 461.657 852.42C463.086 851.156 461.386 848.689 459.912 848.373Z" fill="#FBC201"/>
<path d="M242.269 55.7075C237.158 57.4709 236.736 49.2288 234.526 46.7497C233.043 45.0885 230.794 44.3346 228.596 44.6285C225.874 44.9991 224.622 46.8264 223.038 48.8326C218.936 54.0207 213.352 51.2094 210.08 46.8264C210.591 43.1334 209.735 39.2743 207.116 35.7729C201.455 28.1697 191.219 25.2562 182.287 28.0292C178.185 29.307 174.569 31.4538 171.106 33.9073C170.16 32.2077 167.055 32.3355 165.713 33.3961C164.09 34.674 163.962 36.8847 165.036 38.4692C161.535 41.1655 157.995 43.8106 154.085 45.7658C153.855 45.5102 153.612 45.2674 153.382 45.0118C153.19 44.8074 152.896 45.0374 153.037 45.2674C153.241 45.5741 153.446 45.8808 153.663 46.2002C153.522 46.6219 153.829 47.1586 154.302 47.1075C164.972 61.854 187.117 71.5145 202.886 58.7999C206.477 55.9119 208.981 52.0911 209.863 48.0404C211.69 50.5705 214.105 52.7173 217.377 52.9729C220.827 53.2412 222.68 51.3244 224.661 48.8198C227.382 45.3696 232.021 44.7179 234.372 49.1265C235.203 50.6727 235.433 52.4873 236.289 54.0207C237.58 56.3592 240.11 58.2376 242.768 56.9598C243.573 56.5764 243.1 55.4136 242.269 55.7075ZM166.493 34.1756C167.17 33.7156 168.064 33.6134 168.857 33.8051C169.419 33.9328 169.802 34.2651 170.224 34.559C168.639 35.7091 167.068 36.9102 165.509 38.1242C164.959 36.7825 165.279 34.9935 166.493 34.1756ZM156.436 46.5836C156.244 46.4941 156.04 46.4302 155.835 46.4047C156.116 46.2641 156.385 46.1236 156.653 45.983C156.602 46.1875 156.538 46.3919 156.436 46.5836ZM183.935 63.2596C172.792 62.774 164.346 56.1931 156.909 48.6793C157.139 48.7048 157.369 48.5898 157.433 48.2831C157.535 47.7337 157.65 47.1842 157.752 46.6347C157.854 46.328 157.905 46.0086 157.918 45.6635C157.918 45.6252 157.931 45.5741 157.931 45.5741H157.918C157.918 45.5741 157.931 45.4463 157.931 45.3952C157.931 45.3441 157.918 45.293 157.905 45.2546C165.509 40.7821 171.796 34.214 179.91 30.6232C185.277 28.2592 191.155 27.7736 196.688 29.8565C202.579 32.08 208.406 37.4214 208.905 44.0534C209.876 56.7936 194.529 63.7196 183.935 63.2596Z" fill="#E54428"/>
<path d="M162.148 44.5265C161.228 44.4499 160.525 45.3188 160.679 46.2005C160.755 46.635 161.33 46.5328 161.33 46.1111C161.33 45.7788 161.726 45.421 162.059 45.4849C162.519 45.5744 162.442 46.0472 162.468 46.3794C162.506 46.7883 163.106 46.9672 163.349 46.6222C163.924 45.766 163.081 44.5904 162.148 44.5265Z" fill="#E54428"/>
<path d="M176.933 39.2743C174.339 37.4853 170.582 38.3159 169.023 41.0378C168.908 41.2422 169.049 41.4467 169.228 41.5234C169.176 41.6767 169.176 41.8428 169.279 42.0345C171.221 45.2802 173.853 48.2576 176.128 51.2862C176.358 51.5801 176.856 51.6184 177.086 51.2989C179.361 48.1043 180.818 41.9451 176.933 39.2743ZM176.601 49.855C174.531 47.0054 172.537 43.9513 170.16 41.3828C170.058 41.2806 169.956 41.2294 169.854 41.2039C171.336 39.2488 174.467 38.6354 176.46 40.2583C179.246 42.5073 178.249 47.082 176.601 49.855Z" fill="#E54428"/>
<path d="M64.6004 0.126545C57.2447 4.30141 52.712 12.1144 53.0102 20.5238C45.2966 19.9671 37.0661 19.6093 29.2134 20.7822C29.3128 20.3846 29.1538 19.9273 28.6767 19.8478C22.8517 18.814 3.78649 19.8081 7.90172 30.0663C-0.0305312 37.263 -7.1278 50.384 -0.169688 59.9067C8.39873 71.6758 24.9789 64.8171 34.1438 57.8988C44.8791 49.7876 53.6264 36.8853 55.3361 23.307C62.8111 25.8517 70.4452 22.3726 77.3835 19.1719C78.1986 18.7942 77.9003 17.5019 77.1051 17.3429C72.7513 16.3886 68.3975 15.4543 64.0437 14.5C66.4492 10.2456 67.1251 5.61351 66.1112 0.742836C65.9721 0.0669052 65.1372 -0.171659 64.6004 0.126545ZM18.3985 21.3985C20.9829 21.14 23.5475 21.2394 26.112 21.319C20.5654 22.4521 15.2574 24.4601 10.5656 27.8596C9.94932 28.297 9.35295 28.7741 8.73666 29.291C7.84204 24.1221 14.0646 21.8359 18.3985 21.3985ZM36.6884 53.1076C28.3386 60.6422 8.5578 71.7553 0.724951 57.362C-6.03436 44.9567 8.21975 30.1458 18.6569 25.7722C29.5911 21.1997 41.6983 21.9949 53.2686 22.5714C53.4475 22.8696 53.7457 23.0486 54.0837 23.0883C50.704 34.6587 45.8333 44.8573 36.6884 53.1076ZM61.5587 14.6988C61.2008 15.2555 61.6184 16.0308 62.2148 16.17C66.1113 17.0049 70.0278 17.8598 73.9243 18.6948C68.1391 21.5973 61.5189 23.9233 55.2368 21.975C55.2169 21.975 55.197 21.9551 55.197 21.9551C54.6005 14.1422 57.8809 7.00514 64.3619 2.71099C64.9384 6.98526 63.9841 10.9812 61.5587 14.6988Z" fill="#EC1C24"/>
<path d="M6.3907 46.0305C5.05871 45.7522 3.54782 46.0702 2.67309 47.1835C1.20194 49.0324 2.45443 52.6307 5.05875 52.3524C5.87384 52.2729 5.87382 51.0602 5.03885 51.0801C3.62735 51.1 3.13035 48.8535 4.18401 48.0782C4.78042 47.6408 5.63529 47.6607 6.31122 47.9191C7.14619 48.2372 7.56366 48.9529 8.27935 49.3903C8.75648 49.6885 9.53174 49.271 9.45222 48.6746C9.2733 47.2432 7.68292 46.3088 6.3907 46.0305Z" fill="#EC1C24"/>
<path d="M32.6528 33.1281C30.8238 31.7961 28.955 30.0466 26.9669 28.993C26.1916 28.5755 25.4164 28.2375 24.6013 28.8339C23.5079 29.649 23.309 31.8359 22.9512 32.9889C22.2554 35.2354 21.4999 37.462 20.8836 39.7284C20.8637 39.7085 20.8638 39.7085 20.8439 39.6886C20.327 39.2512 19.6113 39.9669 20.1083 40.4639C22.2156 42.611 24.4422 44.6587 26.5296 46.8256C26.9074 47.2034 27.5634 47.0642 27.802 46.6268C29.0743 44.3406 30.6846 42.3128 32.8317 40.8019C33.9052 40.0464 35.933 39.5693 36.5692 38.297C37.7222 35.971 34.0047 34.1022 32.6528 33.1281ZM33.9053 38.0982C33.1697 38.8536 31.8775 39.291 31.0425 39.9669C29.3129 41.3585 27.961 43.0484 26.8875 44.9569C25.2772 43.5851 23.7066 42.1736 22.136 40.7621C22.315 40.6627 22.4741 40.5037 22.5735 40.2651C23.5476 37.5813 24.0049 34.4998 25.2176 31.9353C25.317 31.3786 25.635 30.9214 26.132 30.5834C26.4103 30.7822 26.6688 30.981 26.9472 31.1798C27.4044 31.3587 27.8815 31.7961 28.299 32.1341C27.5237 32.969 26.7881 33.8438 26.0127 34.6986C25.635 35.1161 26.2314 35.6926 26.629 35.295C27.464 34.4601 28.3587 33.6649 29.1936 32.81C30.2075 33.5456 31.2214 34.2613 32.2154 34.9968C33.4082 35.8716 35.2969 36.6867 33.9053 38.0982Z" fill="#EC1C24"/>
<path d="M30.8237 34.5396C29.7899 35.8318 28.9947 37.3626 28.1001 38.7741C27.8417 39.1717 28.4778 39.4699 28.7363 39.1121C29.6905 37.7801 30.7839 36.5077 31.5792 35.0764C31.8177 34.639 31.1617 34.1221 30.8237 34.5396Z" fill="#EC1C24"/>
<path d="M250.642 468.978C257.554 465.903 262.177 457.466 262.917 450.323C263.61 443.851 260.628 433.31 253.069 433.379C257.785 420.643 259.426 404.438 243.522 399.145C230.601 394.822 208.964 403.121 206.144 417.637C198.331 409.57 184.115 410.148 176.671 418.539C170.083 425.959 171.331 437.309 179.052 442.88C172.903 443.828 166.477 445.515 162.293 450.277C157.208 456.056 157.323 465.788 159.149 472.838C161.137 480.559 167.91 483.633 175.053 485.506C179.33 486.638 184.323 487.702 188.46 486.315C186.588 490.522 188.044 496.717 191.396 499.375C195.973 503.004 202.63 501.294 205.89 496.971C203.647 510.864 200.665 524.595 197.452 538.349C197.291 539.042 198.053 539.389 198.516 539.088C199.579 541.331 201.868 542.787 204.48 541.885C209.288 540.221 209.172 530.697 209.981 526.606C211.738 517.891 213.264 509.107 214.558 500.3C214.789 498.705 215.067 497.064 215.321 495.422C223.735 507.119 241.373 511.002 252.722 501.086C261.83 493.203 265.552 471.96 250.642 468.978ZM206.676 530.535C206.352 532.038 206.028 533.564 205.682 535.066C205.774 537.932 204.133 538.903 200.735 537.979C200.481 537.308 199.856 537.077 199.302 537.17C202.284 527.207 204.572 517.013 206.537 506.819C207.577 501.456 208.479 496.047 209.265 490.637C209.611 488.326 209.912 485.991 210.212 483.656C210.582 480.836 209.634 477.138 213.056 476.467C215.205 475.104 215.783 475.658 214.836 478.132C214.674 479.68 214.512 481.206 214.35 482.755C214.026 485.714 213.68 488.696 213.287 491.655C212.593 497.017 211.807 502.38 210.929 507.743C210.051 513.083 209.103 518.423 208.039 523.739C207.623 525.982 207.161 528.27 206.676 530.535ZM247.036 501.802C235.917 507.628 223.735 501.802 216.384 492.949C216.222 492.764 216.038 492.672 215.83 492.625C216.754 487.008 217.609 481.229 217.563 475.774C217.54 473.231 216.639 471.058 213.657 471.197C207.485 471.474 208.109 481.414 207.6 485.367C207.277 487.817 206.953 490.268 206.583 492.695C206.491 492.764 206.421 492.857 206.375 492.995C204.48 498.682 196.181 501.733 191.928 496.671C188.368 492.44 190.356 487.771 193.199 483.98C193.476 483.61 193.384 483.24 193.13 482.986C193.384 482.408 192.691 481.761 192.159 482.269C191.835 482.593 191.512 482.87 191.188 483.125C190.957 483.263 190.749 483.425 190.541 483.587C186.195 486.315 180.277 484.812 175.562 483.518C168.003 481.437 161.993 478.062 160.837 469.625C159.889 462.644 160.074 454.461 166.107 449.861C170.73 446.324 176.833 445.353 182.45 444.66C183.444 444.544 184.138 443.042 183.005 442.533C173.088 438.026 172.117 425.335 180.115 418.447C188.345 411.373 198.446 414.124 206.051 420.458C207.022 421.267 208.178 420.065 207.415 419.094C207.392 419.048 207.346 419.024 207.323 418.978C210.443 405.733 229.63 397.642 242.043 401.202C257.808 405.733 254.78 422.654 249.995 434.281C249.579 435.275 250.272 436.454 251.451 436.153C253.347 436.754 255.219 437.355 257.114 437.956C258.201 439.043 258.941 440.314 259.357 441.77C259.935 443.319 260.304 444.914 260.42 446.555C260.628 449.745 260.073 452.843 258.894 455.802C256.467 461.858 252.237 464.771 246.943 468.076C245.926 468.7 246.62 470.157 247.729 469.926C247.914 469.879 248.122 469.81 248.307 469.764C248.377 469.856 248.469 469.949 248.585 469.972C264.257 475.612 259.172 495.422 247.036 501.802Z" fill="#13B094"/>
<path d="M243.153 485.645C241.489 483.588 238.576 482.894 236.079 483.541C236.01 483.495 235.941 483.449 235.825 483.426C231.456 482.339 228.382 487.078 229.838 490.962C231.364 495.03 237.05 497.804 241.026 495.562C244.355 493.643 245.649 488.696 243.153 485.645ZM240.841 493.181C238.53 495.423 234.716 494.221 232.728 492.14C231.618 490.985 230.832 489.297 231.225 487.656C231.526 486.477 232.358 485.46 233.444 484.951C233.19 485.206 232.936 485.46 232.704 485.76C232.057 486.639 233.444 487.563 234.184 486.893C235.964 485.229 238.645 484.628 240.772 486.153C243.13 487.841 242.783 491.308 240.841 493.181Z" fill="#13B094"/>
<path d="M236.472 454.438C234.391 452.751 230.323 453.051 228.844 455.363C226.994 456.634 226.023 459.385 226.671 461.489C227.803 465.257 232.935 466.089 235.894 464.078C238.991 461.951 239.454 456.842 236.472 454.438ZM234.414 462.76C232.288 463.939 228.89 463.245 228.196 460.656C227.896 459.57 228.15 458.53 228.682 457.675C228.982 457.79 229.375 457.698 229.583 457.42C230.092 456.75 230.762 456.126 231.525 455.733C231.548 455.733 231.594 455.71 231.617 455.71C231.733 455.687 231.826 455.64 231.895 455.571C233.12 455.039 234.484 455.086 235.57 456.264C237.35 458.137 236.587 461.558 234.414 462.76Z" fill="#13B094"/>
<path d="M254.178 443.55C252.237 441.932 248.03 441.308 246.712 444.059C246.643 444.198 246.62 444.313 246.62 444.429C244.932 445.238 243.892 447.526 244.724 449.491C246.18 453.028 250.596 453.606 253.485 451.525C256.166 449.63 256.86 445.793 254.178 443.55ZM253.739 448.636C252.884 450.323 250.757 451.387 248.908 451.017C247.683 450.786 246.666 449.953 246.18 448.798C245.418 446.995 247.105 444.66 249.185 445.7C249.833 446.024 250.341 445.145 249.74 444.752C249.463 444.567 249.209 444.452 248.931 444.359C249.902 443.851 250.919 443.781 252.121 444.336C253.786 445.122 254.618 446.902 253.739 448.636Z" fill="#13B094"/>
<path d="M241.164 422.377C238.321 416.991 230.97 419.626 227.526 422.885C227.271 423.116 227.225 423.394 227.294 423.648C226 424.919 225.214 426.792 225.33 428.965C225.63 434.304 231.571 437.125 236.286 435.298C241.048 433.426 243.568 426.954 241.164 422.377ZM236.795 432.779C233.698 434.952 228.496 433.935 227.271 430.051C226.532 427.693 227.364 425.312 229.005 423.948C229.49 423.694 230.022 423.394 230.554 423.07C231.594 422.7 232.773 422.654 233.998 423.093C234.368 423.209 234.599 422.608 234.252 422.469C233.698 422.238 233.166 422.076 232.634 422.007C234.715 421.059 236.888 420.62 238.621 422.284C241.58 425.104 239.731 430.745 236.795 432.779Z" fill="#13B094"/>
<path d="M234.877 404.739C232.357 402.243 227.156 404 225.215 406.45C224.96 406.773 225.053 407.351 225.376 407.536C224.267 408.785 224.059 410.796 224.845 412.367C226.486 415.627 230.832 415.049 233.282 413.153C235.686 411.304 237.374 407.236 234.877 404.739ZM232.958 411.027C231.572 412.576 228.405 413.962 226.648 412.159C225.376 410.842 225.585 407.929 227.549 407.444C227.989 407.328 227.989 406.889 227.757 406.635C228.983 405.941 230.208 405.248 231.687 405.271C235.085 405.317 234.6 409.178 232.958 411.027Z" fill="#13B094"/>
<path d="M218.164 422.631C216.638 420.596 213.148 419.926 210.975 421.313C208.409 421.798 206.698 424.642 207.461 427.485C208.432 431.045 212.685 432.848 215.991 431.299C219.181 429.843 220.291 425.428 218.164 422.631ZM215.598 429.496C213.726 430.652 210.859 430.051 209.611 428.225C208.594 426.768 208.71 424.78 209.634 423.509C209.842 423.833 210.328 423.948 210.721 423.648C211.483 423.07 212.362 422.607 213.287 422.422C213.402 422.446 213.518 422.422 213.587 422.353C214.581 422.238 215.598 422.469 216.453 423.347C218.164 425.081 217.609 428.271 215.598 429.496Z" fill="#13B094"/>
<path d="M209.889 443.666C206.93 439.875 200.897 439.69 197.314 442.672C196.921 442.996 197.083 443.597 197.452 443.874C196.25 445.723 196.204 448.335 197.406 450.508C199.417 454.114 204.318 455.64 208.039 453.814C211.969 451.895 212.432 446.949 209.889 443.666ZM207.67 451.803C205.728 453.12 202.815 452.912 200.874 451.733C197.938 449.954 197.059 445.446 199.579 443.389C201.914 442.533 204.341 442.002 206.699 443.412C209.588 445.145 210.79 449.676 207.67 451.803Z" fill="#13B094"/>
<path d="M192.621 425.173C190.379 422.816 186.126 422.446 183.768 424.827C183.19 425.405 183.953 426.491 184.669 426.006C185.224 425.613 185.825 425.335 186.449 425.15C184.115 426.237 183.306 429.265 184.23 431.623C185.409 434.651 189.038 435.136 191.489 433.31C194.124 431.415 194.956 427.647 192.621 425.173ZM191.026 431.669C189.293 433.333 186.426 433.426 185.455 430.929C184.693 429.011 185.317 426.422 187.397 425.705C187.767 425.566 187.767 425.127 187.513 424.942C188.599 424.827 189.709 425.058 190.703 425.728C192.876 427.161 192.829 429.935 191.026 431.669Z" fill="#13B094"/>
<path d="M185.039 456.773C181.872 455.27 176.463 456.01 175.469 459.917C175.446 460.009 175.446 460.102 175.469 460.194C174.614 462.552 175.123 465.418 176.718 467.406C179.561 470.92 184.531 469.972 187.05 466.62C189.524 463.338 188.946 458.622 185.039 456.773ZM185.756 465.164C184.091 467.707 180.578 468.955 178.22 466.574C176.648 464.979 176.209 462.598 176.81 460.541C178.613 458.53 180.948 457.374 183.675 458.345C186.634 459.385 187.42 462.621 185.756 465.164Z" fill="#13B094"/>
<path d="M229.994 106.843C223.809 104.887 216.945 105.792 211.372 108.971C212.024 105.073 213.008 94.6582 207.209 94.4055C202.619 94.2059 202.42 99.0079 203.098 102.546C201.276 101.442 199.094 100.83 197.445 102.626C195.29 104.967 196.753 107.867 198.429 110.008C196.354 110.022 194.093 109.583 192.51 111.139C191.592 112.03 191.113 113.307 191.818 114.478C192.843 116.167 196.115 116.5 197.818 116.646C200.172 116.832 202.433 116.5 204.601 115.702C196.035 129.15 215.456 147.958 229.462 144.46C231.404 143.968 233.16 143.117 234.717 142.012C234.929 148.012 236.526 156.578 243.815 157.11C248.777 157.482 249.827 152.893 248.417 149.262C250.333 150.113 252.474 150.193 253.871 148.198C255.441 145.95 254.111 143.17 252.222 141.414C255.787 141.56 258.74 137.889 256.625 134.244C254.164 130.014 246.529 130.267 241.993 131.398C242.591 129.429 242.911 127.381 242.95 125.372C243.07 116.766 238.295 109.476 229.994 106.843ZM196.501 115.09C195.716 114.957 194.958 114.757 194.213 114.478C193.441 111.831 194.293 110.833 196.78 111.472C197.897 111.458 198.842 111.565 199.959 111.352C200.438 111.259 200.89 110.647 200.491 110.195C199.959 109.623 199.454 109.024 198.988 108.399C197.033 106.111 197.232 104.688 199.573 104.129C201.688 102.985 202.207 103.57 203.87 104.98C204.468 105.486 205.293 104.821 205.067 104.129C204.442 102.254 203.551 99.9523 204.415 97.9969L205.572 96.4938C208.446 95.9086 209.896 97.0259 209.922 99.8326C210.521 102.839 210.228 106.005 209.789 108.998C209.736 109.33 209.882 109.583 210.095 109.729C208.206 110.966 206.504 112.469 205.054 114.225C205 114.292 204.961 114.358 204.921 114.438C202.18 115.303 199.374 115.648 196.501 115.09ZM205.745 115.555C205.945 115.555 206.144 115.462 206.317 115.276C212.316 108.439 222.2 105.473 230.819 108.904C231.258 109.077 231.684 109.277 232.096 109.476C226.416 109.636 220.218 112.789 215.615 115.835C211.452 118.601 206.344 122.525 205.027 127.633C203.644 123.709 203.604 119.479 205.745 115.555ZM205.479 128.791C205.559 128.737 205.639 128.658 205.666 128.538C207.262 123.031 213.128 118.867 217.863 116.087C222.718 113.241 227.707 112.376 232.908 110.594C233.16 110.501 233.28 110.328 233.293 110.128C236.353 111.977 238.521 114.664 239.825 117.763C239.771 117.737 239.718 117.71 239.638 117.71C231.591 116.992 223.117 120.703 217.238 126.037C214.445 128.564 211.811 131.69 210.308 135.189C210.228 135.362 210.162 135.561 210.108 135.774C208.18 133.712 206.557 131.331 205.479 128.791ZM249.827 132.342C251.144 132.462 252.608 132.648 253.751 133.353C257.968 135.947 255.427 141.813 250.692 140.297C250.639 140.27 250.586 140.23 250.532 140.203C250.093 139.977 249.615 140.576 249.921 140.962C251.291 142.704 254.004 144.3 253.1 146.934C252.235 149.461 249.681 148.889 247.699 147.839C247.313 147.227 246.861 146.668 246.329 146.216C245.957 145.897 245.478 146.269 245.518 146.668C245.345 146.788 245.265 147.067 245.478 147.253C245.744 147.506 246.036 147.759 246.356 147.998C247.353 149.568 247.965 151.071 247.34 153.08C247.3 154.769 246.356 155.381 244.48 154.915C243.283 155.58 242.219 155.54 241.288 154.795C240.144 154.224 239.213 153.279 238.481 152.242C236.233 149.049 235.954 145.045 235.661 141.268C238.321 139.073 240.303 136.053 241.527 132.754C244.281 132.661 247.021 132.103 249.827 132.342ZM239.146 134.098C235.568 141.401 228.491 144.287 221.428 142.678C221.468 142.584 221.481 142.465 221.402 142.372C220.577 141.268 224.301 136.945 225.046 136.053C226.47 134.351 228.066 132.794 229.822 131.438C233.187 128.817 236.898 127.54 240.742 125.851C241.328 125.598 241.168 124.627 240.476 124.72C235.222 125.438 230.021 129.043 226.363 132.728C224.98 134.125 219.273 140.044 220.683 142.491C219.127 142.066 217.571 141.427 216.068 140.549C214.338 139.552 212.676 138.288 211.146 136.838C211.279 135.455 215.057 130.161 215.602 129.535C217.611 127.301 219.938 125.372 222.492 123.802C227.813 120.517 233.426 119.413 239.572 119.054C239.864 119.04 240.051 118.841 240.117 118.615C241.9 123.47 241.567 129.163 239.146 134.098Z" fill="#FDC321"/>
<path d="M568.858 614.152L574.262 606.041L577.327 614.334L584.898 615.957L577.872 621.542L580.034 630.556L571.742 623.705L564.891 630.374L565.975 621.724L559.663 616.496L568.858 614.152Z" fill="#F8E9D3"/>
<path d="M583.879 602.279L587.044 597.532L588.837 602.384L593.267 603.334L589.153 606.604L590.419 611.878L585.567 607.87L581.558 611.773L582.191 606.709L578.499 603.65L583.879 602.279Z" fill="#F8E9D3"/>
<path d="M562.57 598.944L564.668 595.797L565.852 599.009L568.782 599.642L566.063 601.804L566.901 605.297L563.689 602.642L561.034 605.227L561.456 601.875L559.012 599.847L562.57 598.944Z" fill="#F8E9D3"/>
<path d="M591.31 617.756L592.851 615.442L593.724 617.809L595.887 618.272L593.883 619.866L594.498 622.439L592.13 620.482L590.179 622.386L590.484 619.919L588.684 618.425L591.31 617.756Z" fill="#F8E9D3"/>
<path d="M550.175 611.111L552.519 607.589L553.849 611.193L557.137 611.896L554.084 614.316L555.022 618.231L551.423 615.26L548.452 618.155L548.921 614.399L546.184 612.13L550.175 611.111Z" fill="#F8E9D3"/>
<path d="M192.501 249.311C191.874 247.033 188.671 246.274 186.74 247.281C186.245 247.545 185.832 247.892 185.502 248.288C185.386 248.222 185.287 248.156 185.171 248.09C184.115 247.33 183.19 246.439 182.365 245.432C185.122 243.715 187.499 241.42 189.167 238.498C194.003 230.046 188.952 221.28 181.688 216.361C186.377 215.7 189.909 210.335 187.45 205.927C185.815 202.989 181.853 202.378 179.559 204.309C179.344 202.031 177.578 199.753 175.547 199.01C172.939 198.053 170.083 199.142 168.564 201.288C168.036 197.64 166.022 193.595 161.812 195.477C156.612 197.822 154.664 205.184 153.508 210.269C150.999 210.682 148.589 211.358 146.377 212.382C150.339 200.116 135.399 192.324 126.303 199.72C126.27 199.671 126.237 199.638 126.187 199.605C123.909 198.119 121.334 196.996 118.907 195.758C118.379 195.494 117.57 195.94 117.801 196.6C118.56 198.713 119.881 201.156 120.228 203.352C120.492 204.986 119.98 205.283 118.692 206.109C117.586 206.819 116.48 207.529 115.374 208.238C114.796 208.602 114.912 209.443 115.556 209.658C117.57 210.318 119.567 211.061 121.598 211.689C122.869 218.804 130.149 224.796 138.436 222.782C138.568 222.749 138.667 222.7 138.75 222.634C138.123 225.968 138.519 229.6 139.955 232.885C144.066 242.279 154.103 248.189 164.024 249.278C165.906 249.493 167.854 249.509 169.802 249.361C170.182 250.632 170.826 251.854 171.651 252.894C170.809 253.537 170.165 254.478 169.967 255.667C169.885 256.146 170.578 256.36 170.71 255.865C170.941 254.957 171.503 254.115 172.262 253.587C173.219 254.577 174.359 255.337 175.679 255.683C176.24 255.832 176.505 255.089 176.059 254.776C175.217 254.198 174.458 253.603 173.797 252.976C173.814 252.976 173.814 252.976 173.83 252.976C175.415 252.778 176.653 253.752 177.545 254.957C177.825 255.337 178.535 255.139 178.354 254.61C177.512 252.068 175.035 251.424 172.988 252.151C172.212 251.292 171.569 250.335 171.106 249.212C174.722 248.783 178.287 247.726 181.424 245.96C182.332 247.165 183.521 248.403 184.841 249.361C184.346 250.582 184.379 252.035 185.039 253.24C185.337 253.768 186.079 253.306 185.832 252.778C185.419 251.903 185.436 250.863 185.799 249.972C186.69 250.483 187.615 250.847 188.556 250.962C189.067 251.028 189.134 250.318 188.787 250.087C188.077 249.608 187.301 249.262 186.542 248.866C186.789 248.634 187.086 248.42 187.417 248.288C189.15 247.594 190.487 248.618 191.643 249.774C192.022 250.137 192.633 249.79 192.501 249.311ZM158.279 200.777C159.666 198.614 161.961 195.923 164.916 196.815C167.59 197.607 167.309 202.031 167.375 204.111C167.408 204.953 168.614 204.937 168.68 204.111C168.713 203.814 168.713 203.484 168.713 203.137C169.835 200.909 172.411 199.406 174.92 200.248C177.792 201.222 178.04 204.062 177.941 206.604C177.924 207.198 178.733 207.363 179.014 206.901C179.162 206.67 179.261 206.406 179.344 206.158C181.259 203.484 185.535 204.227 186.492 207.611C187.681 211.771 184.082 213.95 180.731 215.023C180.5 215.106 180.351 215.271 180.285 215.469C173.236 211.259 163.347 208.965 154.548 210.104C155.522 206.885 156.463 203.616 158.279 200.777ZM121.466 210.484C120.161 209.906 118.841 209.377 117.52 208.816C119.27 207.892 121.565 206.703 122.043 205.217C122.39 204.144 121.68 202.873 121.334 201.916C120.855 200.595 120.376 199.274 119.881 197.954C121.68 198.895 123.48 199.836 125.345 200.562C125.296 200.612 125.23 200.661 125.18 200.711C122.275 203.666 121.202 207.149 121.466 210.484ZM138.04 221.297C127.078 223.69 117.784 210.55 126.303 201.817C134.375 193.546 148.341 200.876 145.469 212.266C145.419 212.481 145.502 212.63 145.617 212.729C145.535 212.778 145.452 212.795 145.37 212.844C145.155 212.96 145.073 213.125 145.056 213.29C141.804 215.254 139.79 218.325 138.932 221.792C138.816 221.462 138.486 221.197 138.04 221.297ZM181.028 243.996C177.875 245.96 174.292 247.083 170.578 247.479C170.545 247.314 170.496 247.165 170.463 247C170.363 246.406 169.373 246.538 169.406 247.149C169.422 247.297 169.439 247.446 169.456 247.578C162.935 248.007 156.166 246.224 150.851 242.741C141.738 236.781 134.309 221.131 145.65 213.983C145.716 214 145.782 214 145.849 213.983C151.494 212.976 156.695 211.59 162.522 211.986C168.168 212.382 173.896 213.95 178.832 216.757C183.438 219.382 187.978 223.558 189.034 228.989C190.273 235.329 186.129 240.809 181.028 243.996Z" fill="#F29704"/>
<path d="M366.257 912.372C361.816 901.625 357.078 891.027 352.01 880.561C350.491 877.44 349.104 871.481 345.275 870.507C343.393 870.028 340.933 870.474 339.001 870.49C337.961 870.507 336.921 870.54 335.881 870.573C335.914 870.424 335.914 870.259 335.865 870.078C331.242 855.336 326.174 840.693 320.859 826.149C325.811 829.715 331.424 832.62 336.773 835.443C337.532 835.839 338.358 835.179 338.176 834.354C337.086 829.087 334.709 824.416 332.117 819.744C328.849 813.867 326.042 807.99 323.83 801.617C322.344 797.325 321.387 790.805 317.805 787.668C316.088 786.166 313.711 785.274 311.713 784.251C308.907 782.798 306.117 781.279 303.244 779.942C298.127 766.884 293.158 753.661 287.215 740.949C282.378 730.598 276.055 720.677 265.754 715.114C265.258 714.849 264.466 715.048 264.35 715.691C261.693 730.516 263.492 745.951 265.192 760.792C266.53 772.398 268.346 783.954 270.657 795.41C270.574 795.46 270.492 795.526 270.442 795.641C268.18 800.71 265.523 805.844 263.888 811.159C262.369 816.112 263.542 820.338 265.027 825.142C268.742 837.028 272.588 848.881 276.517 860.684C276.814 861.576 278.118 861.625 278.383 860.684C280 854.923 282.014 849.112 283.302 843.252C288.288 858.357 294.181 873.148 301.032 887.511C301.148 887.742 301.346 887.808 301.527 887.758C298.391 893.751 300.223 900.816 302.699 906.941C306.463 916.268 310.475 925.496 314.371 934.774C314.701 935.566 315.758 935.831 316.269 935.022C319.323 930.152 322.377 925.298 325.431 920.428C325.663 926.239 328.238 931.505 332.53 935.533C333.091 936.062 333.834 935.633 333.917 934.956C334.313 931.72 334.676 928.468 335.056 925.216C338.803 929.689 342.551 934.147 346.282 938.604C346.81 939.231 347.85 938.703 347.85 937.96C347.784 933.239 346.81 928.831 344.878 924.605C347.751 925.48 351.944 926.652 352.67 923.697C353.017 922.294 351.746 920.263 351.234 919.042C349.831 915.69 348.18 912.389 346.001 909.483C352.39 910.54 358.712 911.761 365.035 913.61C365.679 913.841 366.57 913.115 366.257 912.372ZM317.623 790.21C319.191 792.455 319.868 795.873 320.743 798.448C321.651 801.139 322.559 803.83 323.566 806.487C326.967 815.485 333.223 823.442 335.782 832.736C330.351 829.698 325.2 826.231 319.769 823.227C314.668 809.376 309.369 795.608 303.987 781.89C305.77 782.914 307.602 783.871 309.402 784.861C312.027 786.298 315.84 787.668 317.623 790.21ZM265.952 717.474C276.385 723.747 282.295 734.709 287.049 745.605C287.908 747.569 288.75 749.55 289.592 751.531C284.507 758.811 275.626 762.063 267.025 759.785C266.959 759.769 266.893 759.769 266.827 759.769C265.258 745.869 263.624 731.374 265.952 717.474ZM282.213 840.462C280.149 845.794 278.812 851.506 277.326 857.069C274.206 847.626 271.152 838.151 268.147 828.675C266.364 823.045 264.004 817.598 265.572 811.638C266.843 806.768 269.138 802.014 270.987 797.292C271.4 799.306 271.829 801.304 272.274 803.318C275.031 815.798 278.366 828.163 282.295 840.33C282.279 840.379 282.246 840.412 282.213 840.462ZM301.643 886.471C289.971 860.041 280.578 832.637 274.256 804.407C271.069 790.177 268.643 775.765 266.992 761.271C275.626 763.912 285.085 760.743 290.467 753.595C295.007 764.408 299.249 775.369 303.508 786.298C314.288 813.982 323.896 842.03 333.768 870.045C330.202 869.979 326.62 870.243 323.054 870.408C320.974 870.49 318.729 870.325 316.831 871.25C316.5 871.052 315.972 871.299 316.038 871.712C313.744 873.214 311.845 875.889 309.996 877.82C307.239 880.709 304.383 883.516 301.676 886.454C301.659 886.454 301.659 886.454 301.643 886.471ZM323.83 919.058C321.057 923.466 318.283 927.874 315.51 932.281C312.489 925.1 309.484 917.919 306.463 910.738C303.244 903.078 299.117 894.345 304.548 886.669C304.879 886.206 304.746 885.777 304.433 885.497C308.015 881.848 311.416 877.804 315.361 874.667C315.84 874.287 316.352 873.974 316.88 873.693C320.826 883.02 325.085 892.199 329.162 901.477C330.12 903.656 331.308 905.785 330.549 908.394C330.202 909.599 328.964 910.903 328.304 911.943L323.83 919.058ZM348.939 918.579C349.897 920.692 352.076 923.103 348.362 923.284C346.81 923.367 344.829 922.558 343.327 922.261C342.534 922.096 341.874 922.888 342.27 923.631C344.268 927.378 345.407 931.192 345.803 935.302C342.204 931.043 338.589 926.784 334.99 922.525C334.445 921.881 333.57 922.475 333.504 923.136C333.141 926.503 332.778 929.888 332.414 933.272C328.535 929.392 326.554 924.539 326.306 918.959C326.521 918.629 326.719 918.299 326.934 917.969C328.783 915.014 332.613 911.035 333.091 907.238C333.19 907.403 333.372 907.535 333.62 907.585C337.318 908.163 340.982 908.707 344.631 909.302C344.367 909.516 344.235 909.879 344.466 910.309C345.984 913.049 347.652 915.707 348.939 918.579ZM333.867 905.752C333.521 905.736 333.273 905.934 333.124 906.198C333.108 906 333.108 905.818 333.075 905.62C332.695 903.21 330.83 900.42 329.839 898.225C328.469 895.204 327.099 892.199 325.696 889.211C323.186 883.846 320.661 878.464 317.92 873.214C322.014 871.497 327.148 871.96 331.721 871.795C335.469 871.861 339.447 871.58 343.013 872.224C347.949 873.099 350.145 881.122 352.093 885.265C356.088 893.784 359.868 902.385 363.5 911.068C353.925 908.344 343.789 906.033 333.867 905.752Z" fill="#E54428"/>
<path d="M285.927 772.909C285.894 772.909 285.877 772.926 285.861 772.926C285.729 772.81 285.563 772.728 285.365 772.695C281.486 772.183 278.465 776.904 278.415 780.305C278.366 784.317 281.833 787.074 285.679 787.074C289.542 787.057 292.959 784.3 292.91 780.272C292.877 776.376 289.839 773.025 285.927 772.909ZM285.696 785.192C282.856 785.175 280.314 783.326 280.314 780.322C280.314 776.954 282.774 775.27 285.596 774.313C285.729 774.263 285.828 774.197 285.91 774.131C292.15 775.221 292.91 785.208 285.696 785.192Z" fill="#E54428"/>
<path d="M297.235 796.285C295.072 794.519 289.691 794.37 288.7 797.507C286.405 799.471 285.663 803.054 287.33 805.778C289.459 809.244 294.792 809.69 297.73 807.032C300.784 804.226 300.388 798.861 297.235 796.285ZM296.096 806.042C293.801 807.676 289.971 807.148 288.651 804.506C287.809 802.822 288.089 800.792 289.096 799.24C289.41 799.306 289.773 799.207 289.988 798.91C290.83 797.738 291.424 796.929 292.992 796.78C294.379 796.648 295.7 797.16 296.624 798.2C298.572 800.346 298.589 804.259 296.096 806.042Z" fill="#E54428"/>
<path d="M221.396 629.502C217.889 627.88 216.123 625.399 214.448 622.049C213.574 620.307 212.523 618.883 210.681 618.096C207.137 616.584 203.653 618.331 202.142 621.51C202.022 621.555 201.917 621.627 201.839 621.724C199.798 612.636 191.469 605.922 182.289 605.002C181.963 604.973 181.711 605.117 181.542 605.313C177.607 605.371 173.691 606.39 170.267 608.256C171.167 605.396 170.636 601.884 167.598 600.543C161.495 597.864 156.294 607.263 150.461 600.731C149.925 600.128 149.139 600.846 149.269 601.477C151.14 610.342 159.741 612.513 167.304 610.188C165.434 611.648 163.806 613.424 162.526 615.499C157.536 623.592 159.18 633.33 165.998 639.76C168.685 642.29 171.918 644.164 175.367 645.26C169.531 653.166 163.748 661.043 157.798 668.777C154.556 665.875 153.154 662.609 152.484 658.587C154.75 658.371 157.123 656.988 157.694 654.776C157.836 654.216 157.091 653.81 156.701 654.243C155.439 655.668 154.334 656.952 152.503 657.22C152.498 657.071 152.411 656.912 152.248 656.877C152.212 656.635 152.189 656.378 152.167 656.122C152.247 654.942 152.284 653.709 152.017 652.65C151.906 652.207 151.19 652.233 151.111 652.682C150.954 653.581 151.016 654.58 151.132 655.563C151.027 655.648 150.936 655.76 150.902 655.937C150.891 656.005 150.879 656.059 150.868 656.127C149.859 655.162 149.545 653.549 150.244 652.266C150.498 651.797 149.803 651.267 149.467 651.712C148.083 653.533 148.919 656.115 150.742 657.16L150.743 657.174C148.56 656.683 146.961 654.71 146.666 652.501C146.592 651.922 145.685 651.927 145.734 652.534C145.943 655.382 147.873 657.911 150.736 658.5C150.957 662.849 153.655 667.192 157.087 669.723C151.149 677.416 145.016 684.967 138.469 692.262C138.052 692.724 138.268 693.474 138.882 693.628C145.912 695.341 152.928 697.068 159.957 698.781C158.498 701.904 157.246 705.128 155.896 708.288C155.71 708.741 155.452 709.887 155.085 710.198C154.257 710.89 153.384 710.326 152.576 710.043C151.37 709.626 150.179 709.222 148.973 708.804C149.001 708.451 148.773 708.108 148.326 708.11C147.893 708.098 147.461 708.127 147.03 708.197C146.087 708.298 145.994 709.505 146.871 709.812C149.077 710.587 151.374 711.642 153.665 712.129C154.783 712.374 155.405 712.352 156.185 711.471C157.342 710.145 157.871 707.122 158.465 705.545C159.282 703.392 160.139 701.25 160.874 699.073C160.887 699.045 160.886 699.018 160.885 698.991C167.478 700.611 174.057 702.219 180.65 703.839C180.61 703.867 180.558 703.91 180.532 703.965C178.537 708.379 177.886 713.666 176.726 718.362C176.583 718.908 177.031 719.325 177.547 719.361C179.607 719.477 181.777 719.603 183.727 718.885C184.381 718.645 184.175 717.786 183.524 717.728C181.868 717.584 180.196 717.751 178.518 717.757C179.551 713.309 181.064 708.641 181.201 704.13C181.2 704.076 181.184 704.023 181.155 703.97C186.875 705.377 192.58 706.772 198.3 708.179C198.941 708.332 199.474 707.718 199.303 707.102C196.603 697.333 194.251 687.498 192.209 677.584C195.341 678.908 198.447 675.699 200.442 673.558C201.928 671.976 203.431 670.083 204.604 668.052C204.769 668.127 204.947 668.202 205.126 668.277C207.675 669.175 211.06 667.715 211.708 664.999C211.86 664.344 210.984 664.051 210.638 664.591C209.51 666.363 207.72 667.779 205.503 667.073C205.393 667.036 205.31 666.985 205.214 666.948C205.871 665.626 206.378 664.268 206.627 662.893C206.738 662.226 205.817 661.812 205.488 662.459C204.893 663.617 204.366 664.786 203.825 665.942C202.908 664.878 202.542 663.335 202.844 661.931C202.96 661.372 202.183 661.21 201.998 661.731C201.347 663.594 201.923 665.711 203.27 667.084C202.727 668.173 202.129 669.249 201.381 670.277C199.471 672.889 195.874 677.549 192.257 676.649C192.175 676.625 192.094 676.641 192.027 676.657C189.947 666.447 188.216 656.171 186.848 645.84C188.272 645.533 189.676 645.077 191.034 644.447C198.996 640.782 203.316 632.091 202.2 623.525C205.125 630.457 215.544 637.706 221.639 630.63C221.871 630.297 221.837 629.703 221.396 629.502ZM157.72 609.31C154.776 608.345 152.629 606.175 151.451 603.47C153.36 604.661 155.618 604.973 157.974 604.254C159.928 603.657 161.646 602.486 163.587 601.89C168.325 600.423 170.104 604.446 169.411 608.165C165.514 608.926 161.758 610.628 157.72 609.31ZM197.283 706.213C178.379 701.605 159.475 696.998 140.583 692.363C153.626 677.829 166.352 662.358 176.379 645.576C179.221 646.341 182.205 646.546 185.127 646.145C187.835 666.414 191.875 686.486 197.283 706.213ZM186.443 644.326C186.006 643.827 185.049 643.929 184.951 644.622C183.242 644.886 181.444 644.922 179.609 644.69C169.306 643.377 159.555 633.994 161.334 623.079C163.012 612.789 171.97 607.452 181.484 606.343C181.582 606.448 181.707 606.538 181.911 606.558C191.674 607.89 200.294 615.176 200.686 625.473C201.054 634.701 194.815 642.324 186.443 644.326ZM203.064 621.924C203.063 621.897 203.035 621.885 203.035 621.871C204.795 618.859 208.849 617.552 211.707 620.319C213.123 621.703 213.535 623.786 214.541 625.442C215.834 627.574 217.664 629.187 219.83 630.342C214.011 635.69 204.947 627.73 203.064 621.924Z" fill="#EE8299"/>
<path d="M186.94 636.974C180.073 639.477 173.041 638.441 168.478 632.243C168.222 631.887 167.666 632.231 167.896 632.615C171.594 638.844 180.979 642.111 187.395 637.986C187.911 637.643 187.541 636.763 186.94 636.974Z" fill="#EE8299"/>
<path d="M172.831 619.532C171.589 619.224 170.008 620.052 170.288 621.476C170.371 621.892 171.07 621.773 171.028 621.355C170.926 620.371 172.367 620.184 172.979 620.663C173.968 621.44 173.654 622.886 174.015 623.928C174.137 624.303 174.663 624.271 174.772 623.901C175.18 622.426 174.497 619.947 172.831 619.532Z" fill="#EE8299"/>
<path d="M192.855 626.724C192.549 625.72 191.867 624.797 190.865 624.399C189.122 623.703 186.769 624.91 186.841 626.924C186.859 627.451 187.629 627.41 187.652 626.895C187.707 625.391 189.744 624.832 190.815 625.66C191.455 626.151 191.78 626.924 191.862 627.706C191.926 628.367 191.639 629.054 191.864 629.682C191.94 629.909 192.257 630.087 192.481 629.904C193.336 629.224 193.159 627.66 192.855 626.724Z" fill="#EE8299"/>
<path d="M85.3361 750.962C83.4039 748.648 80.334 747.785 77.4209 748.275C77.4896 747.098 77.47 745.921 77.3425 744.744C76.8913 740.615 74.8022 735.309 71.6146 731.15C73.7135 728.561 76.6559 727.09 80.0005 726.736C80.5007 726.687 80.5203 725.922 80.0005 725.942C76.4794 726.05 73.2917 727.864 71.2222 730.66C68.0346 726.707 63.8269 723.922 59.0798 724.422C59.4231 720.675 61.3553 717.684 64.7881 715.85C65.3374 715.555 64.8568 714.81 64.3173 715.045C60.6589 716.605 58.1873 720.587 58.305 724.539C58.1677 724.559 58.0401 724.579 57.9028 724.608C57.589 724.677 57.4713 724.912 57.4713 725.148C53.2047 725.01 48.899 726.03 45.1229 728.031C45.1229 728.021 45.1229 728.012 45.1131 727.992C44.0734 725.481 43.7302 722.941 43.9067 720.234C43.9459 719.675 43.1123 719.704 43.0534 720.234C42.7297 723.009 43.2495 725.746 44.4167 728.286C44.4363 728.325 44.4559 728.355 44.4854 728.374C41.2095 730.238 38.3651 732.837 36.3643 736.074C35.3835 737.663 34.638 739.399 34.128 741.203C31.7446 740.527 29.8615 738.879 28.6747 736.594C28.4982 736.25 27.8999 736.496 28.047 736.858C29.067 739.409 31.3425 741.243 33.9711 741.851C32.6176 747.265 33.3532 753.228 36.2858 757.965C32.9903 759.172 29.9007 759.221 26.4679 758.142C26.0756 758.024 25.801 758.632 26.1835 758.809C29.4692 760.319 33.4317 760.192 36.6193 758.475C36.9626 758.985 37.3254 759.496 37.7276 759.976C40.3365 763.134 44.0538 765.351 48.134 766.616C45.7408 770.147 42.4845 772.53 38.3946 773.953C38.0022 774.09 38.1592 774.669 38.5711 774.58C42.8867 773.6 46.6432 770.667 48.8108 766.832C52.1945 767.783 55.8039 768.078 59.2368 767.685C59.7076 770.235 59.4525 772.707 58.4521 775.139C58.3049 775.502 58.9327 775.777 59.0994 775.414C60.2078 772.923 60.4726 770.245 59.835 767.617C61.679 767.362 63.4641 766.91 65.1216 766.253C67.809 765.194 70.1139 763.527 71.9873 761.457C74.557 763.468 76.0086 766.449 76.1165 769.706C76.1361 770.196 76.8815 770.206 76.8815 769.706C76.8913 766.175 75.2436 763.017 72.4581 760.908C75.2632 757.583 76.9992 753.336 77.3915 748.962C80.2162 748.52 82.786 749.55 84.8457 751.482C85.1693 751.796 85.6303 751.316 85.3361 750.962ZM65.7886 764.645C60.8943 766.959 54.7054 767.224 49.1737 765.665C49.0952 765.586 48.9873 765.547 48.8794 765.577C45.4466 764.566 42.2786 762.85 39.856 760.476C35.0402 755.768 33.5395 748.471 35.1775 742.047C35.354 742.057 35.5306 742.076 35.7071 742.076C36.0798 742.086 36.0602 741.547 35.7071 741.507C35.5894 741.498 35.4619 741.478 35.3442 741.458C35.6875 740.252 36.1387 739.065 36.7075 737.957C40.9741 729.64 50.3899 725.716 59.3643 725.922C59.5997 725.932 59.6977 725.736 59.6683 725.569C68.0346 725.118 74.6158 736.319 75.9203 743.332C77.4503 751.58 73.6056 760.947 65.7886 764.645Z" fill="#FBC201"/>
<path d="M49.2422 737.692C49.2618 737.673 49.2814 737.643 49.301 737.624C49.5561 737.339 49.1637 736.947 48.8891 737.212C48.6144 737.457 48.3398 737.771 48.1339 738.104C47.9083 738.34 47.7808 738.644 47.8102 738.958C47.7612 739.311 47.82 739.674 48.0652 740.027C48.6243 740.811 49.8797 740.988 50.2622 739.958C50.5663 739.114 50.2819 737.8 49.2422 737.692ZM49.301 739.752C49.0853 739.879 48.8596 739.683 48.7223 739.458C48.8106 739.35 48.8499 739.213 48.8008 739.075C48.7027 738.82 49.0362 738.614 49.2422 738.761C49.458 738.899 49.5266 739.624 49.301 739.752Z" fill="#FBC201"/>
<path d="M64.9647 738.153C64.8764 737.584 64.4253 737.162 63.925 737.006C63.8662 736.898 63.7583 736.819 63.6112 736.819C62.4244 736.839 61.6692 738.438 62.6304 739.271C63.5131 740.036 65.1609 739.428 64.9647 738.153Z" fill="#FBC201"/>
<path d="M69.3882 746.49C66.6812 751.678 62.7383 755.896 56.5396 756.475C50.7038 757.014 45.0739 753.915 41.9647 749.05C41.7392 748.697 41.1899 749.011 41.3959 749.383C44.4757 754.837 50.6155 758.211 56.9123 757.534C62.6304 756.916 68.7997 752.64 70.2709 746.863C70.3984 746.343 69.653 745.99 69.3882 746.49Z" fill="#FBC201"/>
<path d="M207.1 339.05C216.907 331.277 216.928 315.096 205.037 308.776C199.194 305.666 192.002 305.666 186.404 309.307C180.724 312.989 177.496 319.147 174.84 325.242C171.223 317.592 163.46 312.171 154.736 312.498C153.898 312.539 153.081 312.642 152.263 312.764C148.3 287.154 125.376 265.103 101.063 258.516C73.5427 251.05 43.2842 260.5 25.4888 282.899C16.7034 293.945 11.371 307.241 10.0838 321.254C9.94078 321.254 9.81825 321.315 9.75695 321.479C9.22575 322.685 9.42999 323.995 9.94076 325.161C6.89654 325.161 3.93412 325.917 1.33937 328.045C-2.76727 331.4 -4.76959 337.045 -3.72761 342.221C-1.37804 353.921 10.5537 357.358 20.4628 354.269C17.0917 360.528 19.7886 369.263 27.1233 372.29C38.2378 376.893 48.1877 368.404 51.2932 358.135C52.989 358.749 54.6644 359.342 56.3602 359.956C57.0752 360.222 57.586 359.731 57.7086 359.158C67.352 359.997 73.0523 347.13 64.6756 340.584C73.2566 335.675 74.8707 323.626 66.4326 317.142C61.141 313.071 56.3601 313.624 52.3761 316.303C57.9946 302.148 73.5835 285.742 89.5402 290.795C97.5491 293.332 103.556 299.857 107.152 307.262C109.011 311.067 110.257 315.117 111.279 319.208C111.728 321.028 112.116 322.849 112.484 324.69C112.566 325.14 113.588 329.354 114.323 331.625C114.2 331.604 114.078 331.604 113.955 331.665C113.853 331.706 113.73 331.747 113.628 331.788C113.24 331.952 112.832 332.3 112.872 332.791L112.934 333.281C112.995 333.854 113.261 334.222 113.792 334.407C113.833 334.427 113.874 334.447 113.914 334.447C113.812 334.57 113.71 334.693 113.608 334.836C109.542 340.686 110.707 349.666 116.775 353.471C107.765 361.572 103.781 376.382 114.813 384.85C126.173 393.564 137.533 382.396 144.173 373.19C148.096 381.782 157.494 388.532 167.199 385.443C174.881 382.989 179.6 374.847 178.19 367.217C189.714 374.213 205.772 376.504 214.803 364.231C221.32 355.333 217.438 341.914 207.1 339.05ZM11.0644 323.831C14.4151 288.709 42.6713 260.091 78.2417 258.434C95.4447 257.636 112.423 263.078 125.703 274.083C138.37 284.556 145.276 297.893 150.057 313.255C146.747 314.196 143.764 315.996 141.312 318.369C139.882 304.5 131.873 289.445 122.087 279.872C111.626 269.623 98.3255 265.307 83.8195 265.982C57.0548 267.23 27.2458 282.756 24.6102 312.028C20.667 315.096 19.3595 321.601 18.9917 326.715C16.3561 325.958 13.598 325.324 10.9011 325.181C10.8194 324.895 10.758 324.608 10.7172 324.342C10.9215 324.24 11.044 324.076 11.0644 323.831ZM87.5787 277.458C65.9014 277.356 42.61 290.447 35.1118 311.414C33.9473 310.903 32.6805 310.535 31.3525 310.351C29.2481 310.085 27.491 310.392 26.02 311.128C30.76 283.451 58.5054 268.928 84.841 268.171C99.0202 267.762 111.728 272.446 121.617 282.756C126.091 287.399 129.687 292.881 132.466 298.711C135.735 305.523 137.063 312.683 139.617 319.699C139.658 319.822 139.739 319.924 139.821 320.026C137.43 322.849 135.694 326.286 134.938 329.968C134.917 330.029 134.938 330.07 134.938 330.131C132.854 329.354 130.607 328.843 128.339 328.658C130.28 305.421 112.484 277.581 87.5787 277.458ZM62.4281 317.408C72.5619 321.601 71.8877 335.368 62.1625 339.541C61.4474 339.848 61.57 340.952 62.1625 341.28C72.092 346.966 64.7573 361.122 54.2762 356.744C54.2149 356.724 54.174 356.724 54.1127 356.724C53.0094 356.335 51.8857 355.926 50.7824 355.537C50.2103 355.333 49.5157 355.762 49.3931 356.335C47.3296 364.742 40.3422 372.884 30.8009 371.022C21.893 369.283 17.3777 357.644 25.3458 352.101C25.6932 351.896 26.0405 351.671 26.3674 351.446C27.5728 350.628 26.5103 348.746 25.2231 349.482C24.8554 349.687 24.5285 349.912 24.2016 350.137C15.5797 355.251 2.97376 354.453 -0.928567 343.632C-2.70607 338.682 -1.29623 333.118 2.8717 329.804C7.89774 325.815 14.2109 327.636 19.7885 329.293C20.5036 329.518 21.1779 328.924 21.2187 328.208C21.3413 324.915 21.4435 321.56 22.7715 318.492C24.9576 313.439 30.1062 311.189 35.2549 314.155C40.6078 317.224 43.2229 323.34 42.7735 329.333C42.6917 330.418 44.4283 330.929 44.8983 329.906C46.3897 326.592 48.2899 322.808 50.8642 320.108C50.9664 320.067 51.0685 319.965 51.1298 319.842C53.9493 316.917 57.6268 315.424 62.4281 317.408ZM109.951 307.691C106.191 299.325 99.7148 291.838 90.8273 288.831C72.9502 282.776 54.3374 301.616 50.1899 317.981C48.106 319.924 46.2876 322.399 44.8166 324.976C43.9585 319.678 40.8938 314.544 36.256 311.967C44.551 292.677 65.0229 280.424 85.74 279.749C98.6116 279.319 109.317 286.295 116.591 296.584C123.415 306.239 125.805 316.978 126.132 328.577C122.557 328.658 119.104 329.661 116.325 331.87C116.611 329.047 115.14 325.304 114.65 323.033C113.526 317.817 112.137 312.58 109.951 307.691ZM209.082 366.542C198.948 374.131 186.077 370.04 176.719 363.331C175.657 362.553 174.656 364.006 175.105 364.947C178.64 372.74 172.899 382.109 164.706 383.5C156.002 384.993 148.259 378.202 145.583 370.368C145.256 369.386 144.03 369.243 143.458 370.081C138.003 378.141 128.073 390.435 117.122 383.582C105.436 376.259 110.891 360.958 119.635 353.983C120.166 353.553 120.044 352.428 119.41 352.162C112.975 349.421 111.728 340.83 115.814 335.511C120.759 329.068 130.259 329.62 136.961 332.545C137.757 332.893 138.473 331.768 137.676 331.338C137.471 331.236 137.247 331.134 137.042 331.031C137.124 330.909 137.206 330.765 137.247 330.581C139.045 322.358 146.073 315.362 154.776 315.015C163.48 314.667 171.101 320.742 173.594 328.883C173.982 330.193 175.575 329.988 176.045 328.883C180.54 318.185 188.243 304.828 202.033 310.146C214.803 315.076 214.742 332.3 203.239 338.661C202.115 339.275 202.687 340.911 203.852 340.952C209.634 341.218 214.149 345.616 215.497 351.139C216.948 357.215 213.863 362.963 209.082 366.542Z" fill="#E54428"/>
<path d="M189.641 797.22C183.894 798.44 180.415 804.265 180.96 809.877C178.298 808.886 175.137 808.352 173.156 810.853C171.068 813.506 172.414 818.371 173.715 821.894C166.198 818.874 158.349 827.338 163.37 834.886C162.16 834.475 160.073 833.331 158.757 833.88C156.503 834.795 155.959 840.666 155.384 842.618C155.369 842.664 155.369 842.694 155.369 842.725C149.334 833.499 143.239 824.303 137.189 815.077C136.872 814.604 136.131 814.391 135.707 814.879C116.438 837.57 97.0942 860.201 78.1582 883.151C77.7801 883.594 78.1431 884.188 78.5817 884.234C78.6724 884.493 78.8841 884.707 79.2169 884.753C82.9375 885.18 86.6733 885.561 90.394 885.896C87.7623 909.884 86.5372 934.07 85.5692 958.18C85.5541 958.698 86.0229 959.11 86.5069 959.125C112.219 959.903 137.93 960.162 163.642 959.903C164.171 959.903 164.565 959.476 164.595 958.942C165.941 935.427 166.425 911.882 166.092 888.336C169.813 888.275 173.518 888.107 177.163 887.68C178.026 887.574 178.192 886.537 177.602 886.156C177.935 886.201 178.343 886.034 178.494 885.729C179.432 883.777 178.328 882.267 177.481 880.376C176.105 877.311 174.623 874.307 173.035 871.348C170.69 866.941 168.134 862.656 165.503 858.432C165.926 858.813 166.728 858.782 166.849 858.096C167.711 852.972 168.376 848.047 170.221 843.167C171.053 840.956 172.656 838.866 170.327 837.219C168.921 836.228 166.667 835.755 164.776 835.283C164.928 835.1 164.973 834.84 164.792 834.566C160.179 827.749 167.983 819.118 174.849 824.562C175.47 825.05 176.74 824.623 176.362 823.678C175.636 821.817 175.001 819.942 174.607 817.974C174.093 815.382 173.927 815.184 175.802 812.927C176.301 811.127 177.209 810.533 178.54 811.127C179.659 811.28 180.703 811.646 181.701 812.21C182.427 812.53 183.304 811.997 183.092 811.143C181.837 806.217 184.59 800.514 189.687 799.187C195.373 797.708 200.228 802.313 201.317 807.574C201.514 808.52 203.087 808.321 202.996 807.345C202.376 800.986 195.994 795.862 189.641 797.22ZM134.875 958.088C134.996 953.056 135.45 948.054 136.524 943.113C136.947 941.146 137.204 938.431 138.233 936.708C139.488 934.634 142.407 935.61 144.616 935.778C146.703 935.946 149.092 935.808 151.119 936.296C154.462 937.12 153.615 937.913 153.221 940.338C153.025 941.573 152.798 942.823 152.586 944.058C152.147 946.544 151.694 949.015 151.225 951.485C150.983 952.766 150.938 955.755 150.272 957.158C150.151 957.188 150.03 957.219 149.924 957.31L149.728 957.463C149.561 957.6 149.486 957.844 149.501 958.088C144.631 958.119 139.761 958.119 134.875 958.088ZM162.75 958.027C159.12 958.058 155.49 958.088 151.875 958.103C153.04 956.121 152.995 952.293 153.312 950.524C154.053 946.529 155.777 941.557 155.49 937.501C155.369 935.763 154.598 935.015 152.964 934.665C148.276 933.658 142.906 933.856 138.112 933.536C137.734 933.506 137.401 933.826 137.28 934.177C134.784 941.939 133.438 949.945 133.514 958.103C118.163 958.012 102.826 957.753 87.4749 957.295C88.4429 933.521 90.152 909.792 91.483 886.049C103.673 887.116 115.894 887.726 128.115 888.092C136.146 888.321 144.192 888.428 152.238 888.397C156.171 888.382 160.164 888.458 164.156 888.428C164.535 911.607 164.051 934.832 162.75 958.027ZM168.255 866.682C169.813 869.381 171.325 872.111 172.747 874.886C173.397 876.167 174.033 877.448 174.653 878.759C175.061 879.629 175.47 880.498 175.863 881.367C176.15 882.282 176.619 883.075 177.269 883.761C177.239 883.777 177.209 883.761 177.179 883.777C177.073 883.822 176.982 883.853 176.876 883.899C176.453 884.066 176.195 884.432 176.301 884.92C176.468 885.607 176.619 885.851 177.118 886.049C173.458 885.881 169.768 885.942 166.062 886.064C166.062 886.003 166.062 885.942 166.062 885.881C166.047 884.646 164.141 884.646 164.156 885.881C164.156 885.957 164.156 886.049 164.156 886.125C160.179 886.262 156.201 886.445 152.253 886.46C144.207 886.491 136.176 886.399 128.13 886.171C111.931 885.713 95.7783 884.585 79.6253 883.38C98.7276 861.497 117.482 839.293 136.282 817.136C143.648 828.344 151.028 839.537 158.349 850.776C161.767 856.007 165.124 861.268 168.255 866.682ZM168.724 842.038C168.195 844.707 166.849 847.345 166.244 850.044C165.669 852.622 165.215 855.26 165.23 857.898C165.23 857.974 165.26 858.05 165.276 858.127C164.293 856.571 163.309 855.016 162.311 853.46C160.103 850.029 157.88 846.613 155.656 843.213C155.898 843.289 156.201 843.213 156.322 842.908C156.836 841.55 157.229 840.086 157.849 838.775C158.152 837.448 158.863 836.381 159.997 835.557C160.496 835.725 160.995 835.893 161.494 836.06C164.731 836.228 169.42 838.561 168.724 842.038Z" fill="#F29704"/>
</g>
</svg>
