<svg width="121" height="206" viewBox="0 0 121 206" fill="none" xmlns="http://www.w3.org/2000/svg">
<g opacity="0.2">
<path d="M57.4077 205.061C80.9966 205.061 100.119 202.593 100.119 199.55C100.119 196.506 80.9966 194.038 57.4077 194.038C33.8188 194.038 14.6963 196.506 14.6963 199.55C14.6963 202.593 33.8188 205.061 57.4077 205.061Z" fill="#000072"/>
</g>
<path d="M25.5954 142.514C29.5847 142.514 32.8187 140.695 32.8187 138.452C32.8187 136.208 29.5847 134.389 25.5954 134.389C21.6061 134.389 18.3721 136.208 18.3721 138.452C18.3721 140.695 21.6061 142.514 25.5954 142.514Z" fill="#FDC7A3"/>
<path d="M22.2197 143.134C21.8958 143.134 21.5749 142.99 21.3599 142.715C20.9889 142.24 21.0728 141.554 21.5467 141.183C22.4334 140.49 22.9478 138.836 23.0709 138.258C23.1964 137.669 23.7751 137.292 24.3635 137.417C24.952 137.541 25.3292 138.117 25.2061 138.706C25.1449 138.998 24.5619 141.594 22.8914 142.902C22.6918 143.058 22.4548 143.134 22.2197 143.134Z" fill="#000072"/>
<path d="M26.558 143.194C26.3394 143.194 26.1226 143.103 25.9683 142.925C25.6866 142.599 25.7228 142.107 26.0485 141.826C27.1183 140.901 26.9242 138.583 26.9218 138.559C26.8795 138.131 27.193 137.75 27.6217 137.708C28.0503 137.668 28.4312 137.98 28.4728 138.408C28.4857 138.536 28.7588 141.543 27.0675 143.005C26.9199 143.132 26.7387 143.194 26.558 143.194Z" fill="#000072"/>
<path d="M25.5956 143.605C20.9332 143.605 17.2817 141.341 17.2817 138.452C17.2817 135.562 20.9338 133.299 25.5956 133.299C30.258 133.299 33.9095 135.562 33.9095 138.452C33.9095 141.341 30.258 143.605 25.5956 143.605ZM25.5956 135.481C21.9815 135.481 19.4635 137.046 19.4635 138.452C19.4635 139.857 21.9821 141.423 25.5956 141.423C29.2097 141.423 31.7277 139.857 31.7277 138.452C31.7283 137.046 29.2097 135.481 25.5956 135.481Z" fill="#000072"/>
<path d="M98.5675 129.086C97.0311 130.348 94.6307 131.239 91.0466 131.411L90.7539 121.447L90.7135 120.047C90.7135 120.047 94.0079 116.572 97.2277 117.093C99.6709 117.485 103.398 125.115 98.5675 129.086Z" fill="#F28B51"/>
<g opacity="0.3">
<path d="M97.2396 130.369C95.7032 131.631 93.3028 132.523 89.7187 132.694L89.426 122.73L89.3856 121.331C89.3856 121.331 92.68 117.856 95.8998 118.376C98.343 118.768 102.07 126.398 97.2396 130.369Z" fill="#000072"/>
</g>
<path d="M99.2823 134.802C95.0466 133.985 90.713 139.444 90.713 139.444L90.7663 141.643L91.1515 155.086C95.2787 157.09 99.0967 156.857 101.045 153.645C107.4 147.406 102.496 135.419 99.2823 134.802Z" fill="#F28B51"/>
<g opacity="0.3">
<path d="M97.3078 137.159C93.0722 136.4 88.7386 141.471 88.7386 141.471L88.7919 143.513L89.177 155.999C93.3043 157.861 97.1223 157.644 99.0702 154.661C105.426 148.866 100.523 137.732 97.3078 137.159Z" fill="#000072"/>
</g>
<path d="M98.5675 129.851C98.3985 129.851 98.2295 129.795 98.0893 129.683C97.4249 129.152 97.1224 128.303 97.1898 127.162C97.3698 124.166 96.8101 121.952 95.6913 121.24C94.8836 120.727 93.6706 120.903 92.0858 121.764C91.6572 121.997 91.2487 122.144 90.8715 122.203C90.6548 122.237 90.4331 122.175 90.2647 122.035C90.0957 121.894 89.9953 121.689 89.9891 121.469L89.9487 120.07C89.9426 119.866 90.0185 119.668 90.1581 119.521C90.3039 119.367 93.7728 115.757 97.3496 116.337C98.9019 116.586 100.616 118.78 101.336 121.439C102.231 124.747 101.4 127.75 99.0538 129.678C98.9123 129.793 98.7396 129.851 98.5675 129.851ZM94.635 119.422C95.3331 119.422 95.9602 119.597 96.5125 119.948C98.7286 121.358 98.8456 125.129 98.7176 127.252C98.7041 127.485 98.7114 127.689 98.739 127.864C100.627 125.744 100.171 122.997 99.8578 121.839C99.2117 119.45 97.8205 117.963 97.1059 117.848C94.7851 117.473 92.2952 119.599 91.5157 120.332C92.6731 119.725 93.7159 119.422 94.635 119.422Z" fill="#000072"/>
<path d="M91.0468 132.501C90.7724 132.501 90.5079 132.398 90.3058 132.211C90.0909 132.012 89.9654 131.735 89.9562 131.443L89.6231 120.079C89.6145 119.788 89.7223 119.507 89.9219 119.297C90.0725 119.138 93.6566 115.408 97.4018 116.016C99.3258 116.325 100.996 118.935 101.65 121.354C102.58 124.791 101.71 127.916 99.2608 129.928C97.3895 131.465 94.6437 132.331 91.0994 132.5C91.0811 132.501 91.0639 132.501 91.0468 132.501ZM91.8177 120.491L92.1037 130.241C94.6235 129.992 96.5616 129.322 97.8751 128.243C100.28 126.266 99.9528 123.434 99.5438 121.923C98.9204 119.621 97.5916 118.255 97.0545 118.169C95.1232 117.858 92.8544 119.526 91.8177 120.491Z" fill="#000072"/>
<path d="M101.045 154.563C100.817 154.563 100.588 154.479 100.411 154.308C99.6055 153.539 99.238 152.307 99.3201 150.647C99.5791 145.512 98.7133 141.859 97.0048 140.875C95.965 140.275 94.4623 140.605 92.5371 141.855C91.9737 142.22 91.4342 142.452 90.934 142.545C90.67 142.594 90.3963 142.525 90.1875 142.355C89.9787 142.186 89.8544 141.933 89.8476 141.664L89.7944 139.465C89.7889 139.25 89.8593 139.04 89.9934 138.872C90.1844 138.631 94.7299 132.988 99.456 133.899C101.534 134.298 103.374 137.486 104.274 140.468C105.921 145.922 104.954 151.093 101.688 154.299C101.51 154.476 101.278 154.563 101.045 154.563ZM95.8701 138.746C96.6154 138.746 97.3 138.925 97.9221 139.284C101.144 141.14 101.33 147.257 101.155 150.739C101.13 151.249 101.156 151.689 101.232 152.053C104.294 148.063 103.017 142.661 102.515 141.001C101.5 137.639 99.8822 135.853 99.1088 135.705C95.9473 135.095 92.5077 138.769 91.6394 139.77L91.651 140.242C93.215 139.245 94.6264 138.746 95.8701 138.746Z" fill="#000072"/>
<path d="M96.0742 157.47C94.438 157.47 92.6108 157.007 90.6751 156.067C90.3096 155.89 90.0732 155.523 90.0616 155.117L89.6764 141.674L89.6231 139.471C89.6084 138.868 90.0848 138.368 90.6874 138.354C91.301 138.341 91.7896 138.816 91.8043 139.418L91.8576 141.617L92.2232 154.376C94.2935 155.264 98.1458 156.323 100.113 153.079C100.425 152.565 101.096 152.4 101.611 152.713C102.126 153.025 102.291 153.696 101.978 154.211C100.671 156.367 98.6002 157.47 96.0742 157.47Z" fill="#000072"/>
<path d="M25.9368 75.3845C28.424 72.8972 28.424 68.8646 25.9368 66.3773C23.4496 63.8901 19.4169 63.8901 16.9297 66.3773C14.4424 68.8646 14.4424 72.8972 16.9297 75.3845C19.4169 77.8717 23.4496 77.8717 25.9368 75.3845Z" fill="#FDC7A3"/>
<path d="M21.4354 78.3409C17.3216 78.3409 13.9751 74.9944 13.9751 70.8807C13.9751 66.7669 17.3216 63.4204 21.4354 63.4204C25.5492 63.4204 28.8956 66.7669 28.8956 70.8807C28.8956 74.9944 25.5485 78.3409 21.4354 78.3409ZM21.4354 65.6028C18.5249 65.6028 16.1569 67.9708 16.1569 70.8813C16.1569 73.7918 18.5249 76.1597 21.4354 76.1597C24.3459 76.1597 26.7138 73.7918 26.7138 70.8813C26.7138 67.9708 24.3453 65.6028 21.4354 65.6028Z" fill="#000072"/>
<path d="M79.6172 114.351C79.6172 114.351 68.1828 120.002 67.6697 130.441C67.1565 140.881 67.6697 154.2 67.6697 154.2C67.6697 154.2 71.6175 156.193 78.0588 154.2" fill="#F28B51"/>
<g opacity="0.3">
<path d="M79.6172 114.351C79.6172 114.351 68.1828 120.002 67.6697 130.441C67.1565 140.881 67.6697 154.2 67.6697 154.2C67.6697 154.2 71.6175 156.193 78.0588 154.2" fill="#000072"/>
</g>
<g opacity="0.3">
<path d="M67.6696 154.2C67.6696 154.2 71.6174 156.193 78.0587 154.2H67.6696Z" fill="#000072"/>
</g>
<path d="M71.0988 156.219C67.5172 156.219 64.6379 154.262 64.5044 154.17C64.0084 153.828 63.8841 153.149 64.2264 152.653C64.5681 152.157 65.2466 152.033 65.742 152.373C65.7714 152.394 68.7382 154.392 72.0014 153.982C72.6009 153.909 73.1447 154.332 73.2194 154.929C73.2941 155.527 72.8697 156.073 72.2721 156.147C71.8747 156.196 71.4828 156.219 71.0988 156.219Z" fill="#000072"/>
<path d="M54.9945 183.998C54.9945 183.998 60.2932 189.193 59.9815 194.907C59.9815 194.907 52.0858 201.037 50.3192 201.141C48.5532 201.245 41.0727 199.375 41.0727 199.375C41.0727 199.375 39.9301 194.7 45.4363 194.596C45.4363 194.596 46.7657 188.466 46.2048 185.661" fill="white"/>
<path d="M50.1772 201.767C48.1362 201.767 41.6735 200.167 40.9215 199.979C40.6968 199.923 40.5222 199.747 40.4671 199.523C40.4451 199.433 39.9479 197.322 41.1964 195.699C41.9754 194.687 43.2276 194.115 44.9226 193.994C45.2129 192.526 46.0352 187.992 45.5931 185.783C45.5258 185.445 45.7444 185.116 46.0824 185.049C46.4204 184.98 46.748 185.201 46.816 185.538C47.3953 188.437 46.1008 194.471 46.045 194.727C45.9838 195.009 45.7364 195.212 45.4474 195.218C43.8981 195.247 42.802 195.663 42.1897 196.452C41.5583 197.267 41.5657 198.324 41.6226 198.868C43.9281 199.433 48.9929 200.593 50.2819 200.518C51.3413 200.455 56.1494 197.074 59.3686 194.592C59.4757 189.339 54.6069 184.492 54.5567 184.443C54.3111 184.202 54.3075 183.807 54.5487 183.562C54.7894 183.316 55.1838 183.312 55.4299 183.553C55.6546 183.774 60.9264 189.013 60.6024 194.941C60.5926 195.121 60.5051 195.288 60.3624 195.4C59.0183 196.443 52.2194 201.654 50.3548 201.763C50.3009 201.766 50.2415 201.767 50.1772 201.767Z" fill="#000072"/>
<g opacity="0.3">
<path d="M49.2254 195.215C49.1287 195.177 47.5794 194.583 45.4362 194.596C45.4705 194.418 45.6034 193.756 45.6536 193.489C47.9536 193.89 49.1538 195.137 49.2254 195.215Z" fill="#000072"/>
</g>
<g opacity="0.3">
<path d="M59.9815 194.906C59.9815 194.906 52.0865 201.037 50.3192 201.14C48.552 201.246 41.0715 199.376 41.0715 199.376C41.0715 199.376 40.7286 197.973 41.3238 196.689C43.7861 197.428 48.0933 198.678 49.3309 198.752C51.0982 198.855 55.3056 195.427 55.6706 194.233C55.8194 193.741 55.6871 192.714 55.4807 191.678C55.174 190.139 53.6216 189.214 52.1042 189.612C49.8171 190.212 47.6047 190.331 46.1461 190.3C46.3426 188.636 46.4425 186.849 46.2055 185.662L54.9945 183.998C54.9945 183.997 60.2932 189.193 59.9815 194.906Z" fill="#000072"/>
</g>
<path d="M50.1931 202.235C48.0793 202.235 41.5663 200.622 40.8088 200.433C40.4163 200.335 40.1101 200.027 40.014 199.634C39.9901 199.536 39.4433 197.213 40.8272 195.414C41.6343 194.366 42.8786 193.744 44.5338 193.561C44.9257 191.511 45.5025 187.71 45.1357 185.875C45.0175 185.284 45.4009 184.71 45.9912 184.592C46.5827 184.474 47.1571 184.857 47.2747 185.448C47.8729 188.441 46.5588 194.568 46.5025 194.827C46.3953 195.321 45.9624 195.677 45.4572 195.687C44.0598 195.713 43.0862 196.066 42.5638 196.735C42.1315 197.289 42.0544 197.996 42.0672 198.496C44.944 199.195 49.1827 200.117 50.2556 200.052C51.1912 199.933 55.384 197.066 58.9038 194.362C58.8707 189.386 54.2787 184.825 54.231 184.778C53.8005 184.356 53.7937 183.666 54.2156 183.235C54.6376 182.805 55.3283 182.799 55.7582 183.22C55.989 183.446 61.4053 188.83 61.0709 194.967C61.0538 195.283 60.9001 195.575 60.6508 195.769C58.1965 197.675 52.2825 202.119 50.3836 202.23C50.3248 202.233 50.2611 202.235 50.1931 202.235Z" fill="#000072"/>
<path d="M69.8514 167.895C69.8514 167.895 73.8513 165.817 81.254 168.414C81.254 168.414 83.5644 182.128 82.7341 185.141C81.9037 188.154 78.4752 185.141 78.4752 185.141C78.4752 185.141 72.6572 177.141 68.917 174.544" fill="white"/>
<path d="M81.2669 187.102C79.8095 187.102 78.2572 185.78 78.0631 185.609C78.0288 185.579 77.9976 185.545 77.9706 185.508C77.9131 185.429 72.1711 177.563 68.5612 175.056C68.2783 174.86 68.2085 174.471 68.4045 174.189C68.6011 173.907 68.9893 173.836 69.2722 174.033C72.9273 176.571 78.3552 183.922 78.9357 184.717C79.5027 185.197 80.796 186.039 81.5131 185.824C81.6172 185.793 81.9338 185.698 82.1322 184.977C82.7635 182.687 81.3655 172.921 80.6993 168.885C73.9052 166.606 70.173 168.432 70.1356 168.451C69.8294 168.607 69.4541 168.486 69.2979 168.181C69.1411 167.875 69.2593 167.502 69.5637 167.344C69.737 167.254 73.8899 165.172 81.4598 167.828C81.6741 167.903 81.8303 168.089 81.8682 168.312C81.9638 168.878 84.1915 182.198 83.3342 185.308C83.0182 186.455 82.363 186.871 81.8688 187.019C81.6735 187.077 81.4708 187.102 81.2669 187.102Z" fill="#000072"/>
<g opacity="0.3">
<path d="M82.7339 185.141C81.9017 188.155 78.4732 185.141 78.4732 185.141C78.4732 185.141 78.3642 184.988 78.1615 184.72C78.6103 183.842 79.0249 182.782 79.358 181.504C80.298 177.902 78.2509 175.395 76.4787 173.973C75.5216 173.205 74.0949 173.56 73.6258 174.694C73.1929 175.741 72.6387 176.653 72.0925 177.402C70.986 176.243 69.8825 175.214 68.9162 174.544L69.8513 167.896C69.8513 167.896 73.8499 165.817 81.2526 168.413C81.2532 168.413 83.563 182.127 82.7339 185.141Z" fill="#000072"/>
</g>
<path d="M81.265 187.57C79.6778 187.57 78.0948 186.26 77.7544 185.961C77.6937 185.908 77.6392 185.848 77.5921 185.783C77.5351 185.704 71.8391 177.902 68.2942 175.44C67.7994 175.097 67.6769 174.417 68.0204 173.922C68.3646 173.427 69.0443 173.305 69.5385 173.648C73.1924 176.187 78.5437 183.392 79.2797 184.394C79.9686 184.967 80.9827 185.496 81.3789 185.375C81.5393 185.327 81.6514 184.962 81.682 184.851C82.2178 182.908 81.1474 174.517 80.2846 169.239C73.8819 167.168 70.3817 168.849 70.3461 168.867C69.8097 169.133 69.1545 168.921 68.8832 168.388C68.6113 167.854 68.8171 167.203 69.3486 166.927C69.5293 166.833 73.8561 164.663 81.6152 167.385C81.99 167.517 82.2637 167.841 82.3298 168.233C82.5705 169.661 84.6555 182.276 83.7854 185.431C83.4125 186.784 82.6109 187.284 82.0035 187.466C81.7603 187.538 81.5124 187.57 81.265 187.57Z" fill="#000072"/>
<path d="M72.8899 166.025L67.1895 163.427C67.3328 160.518 66.1473 157.09 66.1473 157.09C68.3646 154.596 67.8778 144.649 67.8778 144.649L57.2327 144.716C50.7124 144.757 44.2576 143.417 38.2927 140.783L33.9052 138.847C33.9052 138.847 24.5528 165.9 44.2931 188.673C44.2931 188.673 50.8171 189.608 57.3215 184.725L53.4594 173.063C60.3379 179.019 68.9163 178.076 68.9163 178.076C73.0724 174.336 72.8899 166.025 72.8899 166.025ZM46.1675 160.305L46.1896 160.311C46.1945 160.331 46.2 160.35 46.2049 160.371L46.1675 160.305Z" fill="#5065C2"/>
<g opacity="0.6">
<path d="M33.9045 138.847C33.9045 138.847 24.5521 165.901 44.2924 188.674C44.2924 188.674 44.3365 188.68 44.413 188.688C32.6829 169.863 32.2138 150.077 33.9045 138.847Z" fill="white"/>
</g>
<g opacity="0.3">
<path d="M59.9949 150.778C65.8263 156.83 65.1246 171.219 65.1246 171.219C66.9427 169.037 66.5269 166.232 66.5269 166.232L72.6277 169.634C72.9235 167.574 72.8898 166.025 72.8898 166.025L67.1894 163.427C67.3327 160.518 66.1472 157.09 66.1472 157.09C68.3645 154.596 67.8777 144.649 67.8777 144.649L57.2326 144.716C50.7123 144.757 44.2575 143.417 38.2926 140.783L33.9051 138.847C33.9051 138.847 33.0313 141.379 32.3816 145.541C38.5596 145.506 55.2713 145.876 59.9949 150.778Z" fill="#000072"/>
</g>
<g opacity="0.3">
<path d="M48.2415 156.675C43.4627 156.415 37.5407 154.2 37.5407 154.2C37.4801 157.362 39.788 159.445 41.7212 160.632C43.7064 161.85 45.2998 163.611 46.2403 165.742C46.6947 166.772 47.1601 167.898 47.6267 169.082C47.6702 169.208 51.2463 179.558 50.0081 183.998C48.762 188.465 44.5062 188.688 44.5062 188.688C44.5062 188.688 53.2064 189.297 57.3214 184.726L53.4593 173.064C60.3379 179.019 68.9163 178.077 68.9163 178.077C69.7773 177.302 70.4502 176.329 70.9793 175.276C52.7851 176.421 48.2415 156.675 48.2415 156.675ZM46.1675 160.305L46.1895 160.311C46.1944 160.331 46.1999 160.35 46.2048 160.371L46.1675 160.305Z" fill="#000072"/>
</g>
<path d="M46.0352 161.39C44.6244 161.003 43.2601 160.425 42.0672 159.622C40.8719 158.823 39.867 157.806 39.0992 156.674C40.1401 157.565 41.3214 158.235 42.5559 158.646C43.791 159.062 45.0726 159.228 46.3445 159.231C46.9532 159.231 47.4455 159.725 47.4443 160.334C47.443 160.943 46.9495 161.435 46.3408 161.434C46.2422 161.434 46.1467 161.42 46.0561 161.396L46.0352 161.39Z" fill="#000072"/>
<path d="M67.5515 179.224C65.7451 179.224 62.5009 178.988 58.9602 177.613C54.0823 175.718 47.7236 171.222 45.1303 160.569C44.9876 159.984 45.3471 159.393 45.9325 159.251C46.5185 159.109 47.1082 159.468 47.2503 160.054C49.1535 167.873 53.3597 173.097 59.7508 175.58C63.7354 177.128 67.3384 177.079 68.448 177.018C71.2954 174.161 71.7278 168.639 71.7902 166.723L66.7377 164.42C66.3311 164.235 66.0782 163.82 66.1002 163.374C66.2313 160.706 65.1278 157.479 65.1162 157.447C64.987 157.074 65.0697 156.66 65.3324 156.365C66.7304 154.793 66.9673 148.378 66.7885 144.703C66.7591 144.101 67.2233 143.59 67.8246 143.56C68.4223 143.528 68.9379 143.995 68.9673 144.597C69.0163 145.6 69.3628 154.023 67.3531 157.283C67.6587 158.296 68.2557 160.544 68.2906 162.731L73.3425 165.033C73.724 165.206 73.972 165.582 73.9806 166.001C73.9885 166.361 74.122 174.859 69.6464 178.888C69.4768 179.041 69.263 179.136 69.0359 179.161C68.9722 179.167 68.4333 179.224 67.5515 179.224Z" fill="#000072"/>
<path d="M45.6833 189.839C44.774 189.839 44.2155 189.765 44.1377 189.754C43.8781 189.716 43.6405 189.587 43.4678 189.388C33.0548 177.375 30.7248 164.185 30.6042 155.236C30.4737 145.546 32.7743 138.774 32.8729 138.491C33.0695 137.921 33.6904 137.619 34.2605 137.816C34.83 138.013 35.1319 138.634 34.9353 139.204C34.9004 139.305 32.6488 145.985 32.7878 155.288C32.9146 163.769 35.1166 176.229 44.8315 187.627C46.2099 187.714 51.0793 187.73 56.0339 184.309L52.4234 173.406C52.2342 172.835 52.5441 172.217 53.116 172.028C53.6879 171.839 54.3052 172.149 54.4944 172.721L58.3565 184.383C58.5035 184.828 58.3504 185.317 57.9756 185.598C53.0376 189.306 48.1113 189.839 45.6833 189.839Z" fill="#000072"/>
<path d="M68.841 101.799C64.3347 97.3415 57.2829 93.8223 47.9825 99.7419C30.8404 110.652 36.1262 140.701 36.1262 140.701C48.5808 147.844 69.1766 143.428 69.1766 143.428V134.234C70.6829 133.039 69.4362 131.323 69.4362 131.323C80.4346 112.789 76.4341 103.211 68.841 101.799Z" fill="#FF3E3E"/>
<g opacity="0.6">
<path d="M47.6512 115.882L49.9554 117.04C49.9554 117.04 59.5399 102.858 69.8972 102.391C69.8972 102.39 55.9693 101.165 47.6512 115.882Z" fill="white"/>
</g>
<path d="M65.2754 125.21C61.4341 117.433 54.7631 114.686 51.2801 113.753C49.9831 113.405 48.6151 113.977 47.933 115.133L47.7199 115.493C47.0224 116.675 47.3096 118.19 48.391 119.035L61.0244 128.903C62.1444 129.778 63.7445 129.667 64.7346 128.647C65.6238 127.732 65.8406 126.354 65.2754 125.21Z" fill="white"/>
<path d="M49.0166 94.987C49.0166 94.987 38.5326 100.074 37.1015 115.881L49.0166 94.987Z" fill="#FA9B27"/>
<path d="M37.1028 116.972C37.0697 116.972 37.0367 116.971 37.003 116.968C36.4029 116.913 35.9608 116.383 36.0147 115.783C37.4843 99.549 48.089 94.2247 48.5403 94.0061C49.0822 93.7434 49.735 93.9693 49.9977 94.5112C50.2604 95.0526 50.035 95.7035 49.4949 95.9674C49.0889 96.167 39.5412 101.028 38.1873 115.98C38.1364 116.546 37.6607 116.972 37.1028 116.972Z" fill="#000072"/>
<path d="M33.3859 124.987C33.3112 124.987 33.2353 124.979 33.1587 124.963C32.5696 124.839 32.193 124.26 32.318 123.67C36.6442 103.253 49.8673 97.2583 50.4282 97.0127C50.98 96.7708 51.6229 97.0231 51.8648 97.5755C52.1061 98.1266 51.855 98.7689 51.3045 99.0108C51.1771 99.0671 38.5333 104.862 34.452 124.123C34.3436 124.636 33.8905 124.987 33.3859 124.987Z" fill="#000072"/>
<path d="M39.9549 118.713C43.2108 116.455 39.6751 114.116 39.6751 114.116L39.7572 112.799C26.9468 109.328 11.0894 109.316 11.0894 109.316L10.8548 113.082L16.2429 114.087L11.03 114.803L10.8842 117.144L39.9549 118.713Z" fill="white"/>
<path d="M11.7106 109.353L11.4699 113.358L10.9353 112.703L16.2511 114.023C16.2866 114.032 16.3087 114.067 16.2995 114.103C16.2934 114.128 16.2738 114.146 16.2505 114.152L11.1135 115.421L11.6512 114.842L11.5054 117.183C11.484 117.526 11.1882 117.788 10.8447 117.766C10.5012 117.745 10.2397 117.449 10.2611 117.106L10.4069 114.765L10.4105 114.703C10.4283 114.417 10.6634 114.195 10.9439 114.186L16.2328 114.023V114.152L10.7602 113.938C10.4503 113.926 10.2091 113.665 10.2213 113.356L10.2219 113.347L10.2256 113.283L10.4663 109.279C10.4871 108.936 10.7822 108.674 11.1258 108.694C11.4693 108.715 11.7314 109.01 11.7106 109.353Z" fill="#000072"/>
<path d="M39.8862 119.998C39.5047 119.973 39.1379 119.771 38.9082 119.416C38.517 118.811 38.6725 117.991 39.2555 117.585C39.7723 117.225 40.068 116.864 40.0656 116.594C40.0625 116.153 39.4373 115.498 38.9872 115.195C38.6021 114.936 38.3761 114.478 38.4049 114.002L38.4184 113.782C25.9962 110.682 9.4793 110.647 9.30907 110.647C8.60486 110.646 8.50505 110.086 8.50505 109.357C8.50505 108.628 8.6067 108.007 9.30907 108.007C10.0353 108.007 27.2448 108.044 40.0723 111.489C40.662 111.648 41.0607 112.218 41.0227 112.849L40.9859 113.463C41.6522 114.059 42.5915 115.147 42.6093 116.557C42.6197 117.403 42.2927 118.647 40.6736 119.775C40.4318 119.945 40.155 120.015 39.8862 119.998Z" fill="#FF3E3E"/>
<path d="M39.9687 120.766C39.9246 120.766 39.8805 120.765 39.8364 120.761C39.1935 120.72 38.6209 120.381 38.2657 119.832C37.6534 118.885 37.9014 117.595 38.8181 116.957C39.0661 116.784 39.2039 116.645 39.27 116.563C39.1684 116.378 38.8756 116.043 38.5603 115.831C38.0673 115.498 37.7428 114.967 37.6589 114.384C25.4003 111.447 9.4712 111.412 9.30954 111.412C8.26793 111.411 7.74008 110.72 7.74008 109.357C7.74008 107.609 8.5937 107.242 9.30954 107.242C9.31076 107.242 9.31259 107.242 9.31382 107.242C10.1031 107.242 27.3653 107.285 40.2712 110.751C41.2093 111.003 41.8468 111.905 41.7874 112.896L41.7721 113.153C42.5473 113.922 43.3568 115.075 43.3752 116.549C43.3881 117.58 43.006 119.085 41.1113 120.404C40.7703 120.642 40.3777 120.766 39.9687 120.766ZM9.31076 109.881C9.50426 109.881 26.1051 109.92 38.6038 113.039C38.9614 113.129 39.2045 113.46 39.1824 113.828L39.169 114.048C39.1567 114.25 39.2535 114.451 39.4151 114.56C39.902 114.888 40.8248 115.733 40.8309 116.588C40.8352 117.137 40.4524 117.683 39.6925 118.213C39.4488 118.382 39.3839 118.743 39.5505 119C39.6399 119.139 39.7801 119.224 39.9344 119.234C40.0079 119.238 40.1199 119.228 40.2338 119.149C41.2987 118.407 41.8541 117.515 41.8425 116.568C41.8284 115.417 40.9791 114.487 40.4745 114.035C40.3006 113.879 40.2069 113.652 40.221 113.419L40.2577 112.805C40.2736 112.536 40.112 112.295 39.8726 112.23C27.2036 108.828 10.2115 108.774 9.32117 108.774C9.29851 108.849 9.26973 109.012 9.26973 109.358C9.27034 109.658 9.29239 109.808 9.31076 109.881Z" fill="#000072"/>
<path d="M15.0328 114.021C15.0328 114.021 24.9008 114.72 32.7126 115.881L15.0328 114.021Z" fill="white"/>
<path d="M32.7128 115.881C32.6761 116.11 28.724 115.71 23.846 115.222C18.9692 114.722 15.0171 114.252 15.0336 114.021C15.0496 113.789 19.0396 113.884 23.9317 114.384C28.8262 114.874 32.7502 115.651 32.7128 115.881Z" fill="#000072"/>
<path d="M40.6491 127.227C44.0831 124.609 40.0367 122.371 40.0367 122.371L40.0398 120.968C25.7089 118.166 8.25328 119.243 8.25328 119.243L8.24409 123.254L14.2415 123.95L8.55088 125.067L8.54537 127.56L40.6491 127.227Z" fill="white"/>
<path d="M8.8762 119.243V123.507L8.29876 122.885L14.2459 123.885C14.282 123.891 14.3065 123.925 14.3004 123.962C14.2961 123.987 14.2771 124.007 14.2539 124.014L8.67106 125.679L9.17441 125.069L9.1689 127.562C9.16829 127.906 8.88845 128.185 8.54431 128.184C8.20017 128.184 7.92155 127.904 7.92216 127.56L7.92767 125.066V125.009C7.92828 124.721 8.14996 124.484 8.43103 124.456L14.2294 123.886L14.2373 124.015L8.20752 124.128C7.8946 124.134 7.63619 123.885 7.63007 123.572V123.564V123.507V119.243C7.63007 118.899 7.9093 118.619 8.25344 118.619C8.59758 118.619 8.8762 118.899 8.8762 119.243Z" fill="#000072"/>
<path d="M40.659 128.595C40.2377 128.595 39.8207 128.406 39.5445 128.045C39.0737 127.43 39.1906 126.55 39.8054 126.079C40.3504 125.661 40.6517 125.258 40.6321 124.973C40.5996 124.505 39.8679 123.853 39.3529 123.563C38.912 123.314 38.6328 122.843 38.6328 122.338V122.103C24.7538 119.668 6.5707 120.765 6.38332 120.777C5.60808 120.825 5.46112 120.238 5.41275 119.465C5.36437 118.691 5.4354 118.025 6.20819 117.977C7.00792 117.927 25.9534 116.785 40.3008 119.558C40.9603 119.686 41.4373 120.263 41.4373 120.935V121.589C42.2101 122.176 43.316 123.266 43.4287 124.76C43.496 125.656 43.2186 126.999 41.5108 128.306C41.2561 128.502 40.956 128.595 40.659 128.595Z" fill="#4881FF"/>
<path d="M40.6589 129.361C39.978 129.361 39.3503 129.051 38.937 128.511C38.2101 127.562 38.3907 126.199 39.3399 125.472C39.6234 125.254 39.7716 125.086 39.8371 124.992C39.7165 124.799 39.3576 124.445 38.9762 124.23C38.4159 123.914 38.0289 123.371 37.907 122.756C24.2565 120.48 6.60853 121.53 6.42911 121.541C5.33301 121.607 4.73535 120.926 4.64718 119.512C4.55594 118.055 5.06479 117.282 6.15906 117.213C6.96247 117.163 26.0072 116.016 40.4452 118.807C41.4629 119.003 42.2014 119.899 42.2014 120.935V121.221C43.1028 121.978 44.0734 123.142 44.1909 124.703C44.273 125.787 43.9546 127.398 41.9748 128.914C41.5946 129.206 41.139 129.361 40.6589 129.361ZM16.419 119.76C22.9007 119.76 31.4467 120.065 38.7637 121.349C39.1299 121.414 39.3968 121.731 39.3968 122.103V122.338C39.3968 122.564 39.5267 122.783 39.7275 122.896C39.7434 122.905 41.3159 123.804 41.3943 124.919C41.4341 125.49 41.0557 126.085 40.2694 126.687C39.9902 126.9 39.9375 127.301 40.1512 127.58C40.2725 127.739 40.4574 127.829 40.6583 127.829C40.7563 127.829 40.9032 127.807 41.0441 127.698C42.1812 126.827 42.7409 125.831 42.6643 124.816C42.5719 123.585 41.5652 122.647 40.973 122.197C40.7826 122.053 40.6705 121.828 40.6705 121.588V120.934C40.6705 120.629 40.4538 120.366 40.1543 120.308C25.9061 117.555 7.05004 118.69 6.2546 118.739C6.23378 118.741 6.21785 118.743 6.20622 118.745C6.18478 118.805 6.14804 118.976 6.1756 119.415C6.19948 119.796 6.24357 119.951 6.2699 120.011C6.28521 120.013 6.30725 120.013 6.33542 120.011C6.42238 120.008 10.5851 119.76 16.419 119.76Z" fill="#000072"/>
<path d="M9.33409 122.39C9.33409 122.39 20.2431 122.453 28.9177 123.149L9.33409 122.39Z" fill="white"/>
<path d="M28.9176 123.149C28.9078 123.27 27.8074 123.277 26.0353 123.245C24.2632 123.208 21.818 123.13 19.117 123.033C13.7148 122.837 9.33284 122.622 9.33406 122.39C9.33467 122.158 13.7307 121.996 19.1476 122.191C21.856 122.289 24.3054 122.462 26.0733 122.651C27.8411 122.835 28.9268 123.038 28.9176 123.149Z" fill="#000072"/>
<path d="M38.8651 136.364H7.90525C5.71058 136.364 3.93109 134.585 3.93109 132.389C3.93109 130.195 5.70997 128.415 7.90525 128.415H38.8651C41.0597 128.415 42.8392 130.194 42.8392 132.389C42.8392 134.584 41.0597 136.364 38.8651 136.364Z" fill="white"/>
<path d="M38.8654 137.299H7.90555C5.19896 137.299 2.99695 135.097 2.99695 132.39C2.99695 129.683 5.19896 127.481 7.90555 127.481H38.8654C41.572 127.481 43.7746 129.683 43.7746 132.39C43.7746 135.097 41.5726 137.299 38.8654 137.299ZM7.90555 129.35C6.23016 129.35 4.86646 130.713 4.86646 132.389C4.86646 134.065 6.22955 135.429 7.90555 135.429H38.8654C40.5414 135.429 41.9045 134.065 41.9045 132.389C41.9045 130.713 40.5414 129.35 38.8654 129.35H7.90555Z" fill="#000072"/>
<path d="M42.8388 128.416H7.69719V136.364H42.8388V128.416Z" fill="white"/>
<path d="M42.8393 137.142H7.69711C7.26662 137.142 6.9182 136.793 6.9182 136.364V128.416C6.9182 127.985 7.26724 127.637 7.69711 127.637H42.8387C43.2692 127.637 43.6176 127.986 43.6176 128.416V136.364C43.6182 136.794 43.2698 137.142 42.8393 137.142ZM8.47663 135.584H42.0604V129.195H8.47663V135.584Z" fill="#000072"/>
<path d="M41.5045 138.484H8.44552C4.29501 138.484 0.918503 135.855 0.918503 132.623C0.918503 129.392 4.29501 126.763 8.44552 126.763H43.4095C44.4285 126.763 45.2545 127.499 45.2545 128.406C45.2545 129.314 44.4285 130.049 43.4095 130.049H8.44552C6.36536 130.049 4.60791 131.228 4.60791 132.623C4.60791 134.019 6.36536 135.198 8.44552 135.198H41.5045C42.5234 135.198 43.3495 135.933 43.3495 136.841C43.3495 137.748 42.5234 138.484 41.5045 138.484Z" fill="#99FF22"/>
<path d="M41.5045 139.402H8.44554C3.78861 139.402 0 136.361 0 132.623C0 128.886 3.78861 125.845 8.44554 125.845H43.4095C44.9331 125.845 46.1731 126.994 46.1731 128.406C46.1731 129.818 44.9337 130.968 43.4095 130.968H8.44554C6.80138 130.968 5.52646 131.857 5.52646 132.623C5.52646 133.389 6.80138 134.279 8.44554 134.279H41.5045C43.028 134.279 44.2674 135.428 44.2674 136.841C44.268 138.253 43.0286 139.402 41.5045 139.402ZM8.44554 127.682C4.80144 127.682 1.83705 129.898 1.83705 132.623C1.83705 135.348 4.80205 137.565 8.44554 137.565H41.5045C42.0066 137.565 42.4304 137.233 42.4304 136.841C42.4304 136.448 42.006 136.116 41.5045 136.116H8.44554C5.82284 136.116 3.68941 134.549 3.68941 132.623C3.68941 130.697 5.82284 129.13 8.44554 129.13H43.4095C43.9117 129.13 44.336 128.799 44.336 128.406C44.336 128.014 43.9117 127.682 43.4095 127.682H8.44554Z" fill="#000072"/>
<path d="M28.5539 132.389C28.5539 132.626 24.344 132.818 19.1513 132.818C13.9585 132.818 9.74924 132.626 9.74924 132.389C9.74924 132.153 13.9591 131.961 19.1513 131.961C24.3434 131.961 28.5539 132.153 28.5539 132.389Z" fill="#000072"/>
<path d="M42.0311 104.573L7.23004 101.185C3.72372 107.469 7.23004 109.55 7.23004 109.55L40.112 112.667C42.5278 110.407 42.0311 104.573 42.0311 104.573Z" fill="white"/>
<path d="M40.112 113.29C40.0924 113.29 40.0728 113.289 40.0532 113.287L7.17125 110.17C7.0794 110.162 6.99122 110.133 6.91161 110.086C6.74689 109.988 2.92644 107.618 6.68566 100.881C6.80629 100.665 7.04266 100.541 7.29066 100.564L42.0918 103.952C42.3912 103.982 42.627 104.221 42.6527 104.52C42.6741 104.771 43.145 110.683 40.5382 113.122C40.4219 113.23 40.2694 113.29 40.112 113.29ZM7.45232 108.945L39.8763 112.018C41.4604 110.263 41.4861 106.513 41.4378 105.142L7.58092 101.845C5.03354 106.663 6.96121 108.563 7.45232 108.945Z" fill="#000072"/>
<path d="M7.95059 104.315L8.47476 102.948C8.47476 102.948 26.8294 103.952 42.5741 106.155C43.0309 106.219 43.4375 105.865 43.4375 105.404V104.445C43.4375 104.084 43.1846 103.771 42.8295 103.7C27.964 100.739 6.60036 100.545 6.60036 100.545L5.40015 103.316C5.40015 103.316 4.11299 103.16 3.48962 105.147C2.86624 107.132 4.8919 107.992 4.8919 107.992L5.90473 110.598L42.0113 113.838C42.4559 113.877 42.8386 113.527 42.8386 113.081V112.469C42.8386 112.09 42.5612 111.769 42.1853 111.716C31.2983 110.193 7.90283 108.274 7.90283 108.274L7.51766 107.229C5.40015 105.226 7.95059 104.315 7.95059 104.315Z" fill="#FA9B27"/>
<path d="M42.0787 114.606C42.0334 114.606 41.9887 114.604 41.9434 114.599L5.83672 111.359C5.54708 111.334 5.29725 111.146 5.19192 110.874L4.28625 108.543C3.36773 108.025 2.17119 106.793 2.75966 104.917C3.28077 103.256 4.24094 102.752 4.87349 102.606L5.89796 100.24C6.0192 99.9599 6.29538 99.7793 6.60033 99.7793C6.60278 99.7793 6.60523 99.7793 6.60706 99.7793C6.82138 99.7811 28.2132 100.008 42.9788 102.948C43.6879 103.089 44.2029 103.719 44.2029 104.444V105.403C44.2029 105.844 44.0119 106.263 43.6794 106.553C43.3469 106.842 42.906 106.973 42.4681 106.912C28.4588 104.952 12.1788 103.932 8.98972 103.744L8.66578 104.588C8.58618 104.796 8.42023 104.958 8.21203 105.034C7.99771 105.113 7.50905 105.386 7.44966 105.678C7.40373 105.904 7.62601 106.276 8.04486 106.672C8.13059 106.753 8.19672 106.853 8.23714 106.963L8.4533 107.551C11.8745 107.836 32.3772 109.57 42.2924 110.958C43.0407 111.062 43.6047 111.712 43.6047 112.468V113.08C43.6047 113.508 43.424 113.917 43.1087 114.206C42.827 114.464 42.4577 114.606 42.0787 114.606ZM6.44663 109.878L42.0799 113.075L42.0738 112.469C31.3393 110.972 8.07487 109.056 7.84095 109.037C7.54396 109.013 7.28799 108.819 7.18512 108.539L6.85996 107.655C6.0982 106.887 5.79263 106.116 5.95123 105.362C6.13493 104.488 6.89119 103.979 7.34923 103.746L7.76012 102.674C7.87952 102.364 8.18325 102.166 8.51698 102.184C8.70068 102.194 27.0841 103.215 42.6806 105.397L42.6727 104.445C29.3155 101.789 10.4226 101.372 7.10061 101.318L6.1031 103.621C5.9592 103.953 5.66281 104.149 5.30887 104.076C5.26601 104.076 4.62366 104.092 4.22073 105.376C3.8172 106.662 5.04986 107.227 5.19192 107.287C5.38236 107.368 5.53178 107.522 5.60648 107.714L6.44663 109.878Z" fill="#000072"/>
<path d="M23.9049 106.745C23.8792 106.976 20.6888 106.805 16.7802 106.364C12.871 105.922 9.72347 105.377 9.7498 105.147C9.77613 104.916 12.9659 105.086 16.8751 105.527C20.7831 105.968 23.9306 106.514 23.9049 106.745Z" fill="#000072"/>
<path d="M41.9429 108.082C41.9135 108.313 38.7066 108.096 34.7802 107.597C30.8532 107.099 27.6941 106.508 27.7235 106.277C27.7529 106.046 30.9598 106.263 34.8868 106.762C38.8126 107.26 41.9717 107.852 41.9429 108.082Z" fill="#000072"/>
<path d="M51.2904 100.883C49.1747 103.444 46.8508 105.017 46.0995 104.397C45.3481 103.777 46.454 101.197 48.5697 98.636C50.6854 96.0752 53.0092 94.5021 53.7606 95.1224C54.5119 95.7427 53.4054 98.3225 51.2904 100.883Z" fill="#FDC7A3"/>
<path d="M51.899 101.387C51.1335 102.23 50.286 102.997 49.3577 103.67C48.8929 104.008 48.4141 104.328 47.8826 104.603C47.615 104.741 47.3363 104.865 47.0075 104.951C46.8446 104.994 46.664 105.025 46.4552 105.016C46.2506 105.008 45.9959 104.944 45.7877 104.774C45.5777 104.605 45.4626 104.366 45.4117 104.167C45.3591 103.963 45.3517 103.778 45.3597 103.608C45.375 103.265 45.4479 102.966 45.5311 102.675C45.7014 102.098 45.9273 101.566 46.1833 101.051C46.6909 100.022 47.2941 99.0567 47.9597 98.1321C48.6309 97.2105 49.3706 96.3318 50.2426 95.5363C50.6859 95.1444 51.147 94.7611 51.7128 94.4323C52.0018 94.2712 52.3031 94.1144 52.7067 94.0012C52.9063 93.946 53.1384 93.8995 53.4347 93.9093C53.7219 93.9179 54.1206 94.0079 54.4549 94.2804C54.788 94.5541 54.957 94.9283 55.0238 95.2093C55.0936 95.499 55.0954 95.7378 55.0832 95.946C55.0544 96.3673 54.9546 96.6943 54.8523 97.0109C54.6349 97.6312 54.3447 98.1584 54.0312 98.6618C53.3937 99.6593 52.6601 100.54 51.899 101.387ZM50.681 100.381C51.3117 99.5356 51.8549 98.6232 52.2768 97.6998C52.4874 97.2423 52.6754 96.7769 52.7948 96.3538C52.8561 96.1481 52.8934 95.9399 52.8989 95.8137C52.9063 95.7488 52.8971 95.7102 52.902 95.7335C52.9051 95.75 52.9442 95.867 53.0655 95.9637C53.1861 96.0611 53.308 96.0733 53.3233 96.0691C53.346 96.0654 53.3031 96.0605 53.2388 96.0764C53.1108 96.1003 52.9124 96.1799 52.7195 96.2773C52.3239 96.4757 51.9008 96.7494 51.4991 97.0537C50.6859 97.6612 49.9058 98.3752 49.1777 99.1394C48.4527 99.9067 47.7785 100.735 47.2267 101.625C46.9579 102.071 46.7062 102.532 46.5397 102.998C46.4595 103.23 46.3952 103.466 46.3762 103.671C46.3645 103.774 46.3682 103.866 46.3811 103.929C46.3939 103.993 46.408 104.012 46.4105 104.02C46.416 104.023 46.4374 104.039 46.5054 104.043C46.5703 104.047 46.6646 104.037 46.7656 104.01C46.9683 103.959 47.1894 103.847 47.4031 103.726C47.8323 103.473 48.2383 103.137 48.618 102.778C49.3749 102.049 50.0472 101.223 50.681 100.381Z" fill="#000072"/>
<g opacity="0.3">
<path d="M42.8394 98.0127C42.8394 98.0127 41.5927 103.715 47.9819 104.806C54.3712 105.897 69.2538 99.2184 69.2538 99.2184L42.8394 98.0127Z" fill="#000072"/>
</g>
<g opacity="0.3">
<path d="M72.2094 103.358C72.2094 103.358 77.1498 115.221 63.6432 129.493L46.4306 117.144L47.9817 106.278C47.9817 106.278 40.4743 115.857 38.7034 122.77C36.9325 129.682 36.6055 142.02 36.6055 142.02C36.6055 142.02 54.9533 147.781 68.6302 144.651L69.1758 134.719C69.1758 134.719 70.7342 131.607 69.2535 130.443C69.2535 130.442 82.1521 110.508 72.2094 103.358Z" fill="#000072"/>
</g>
<path d="M54.5341 146.074C46.7456 146.074 37.79 145.026 32.6983 140.899C32.2304 140.52 32.1582 139.833 32.5378 139.365C32.9175 138.897 33.6045 138.825 34.0724 139.204C42.4353 145.982 63.4383 143.572 68.0854 142.938V134.026C68.0854 133.75 68.1901 133.484 68.3787 133.282C68.9506 132.669 68.8471 132.295 68.6592 132.089L68.6812 132.111L70.19 130.535C70.9297 131.244 71.4986 132.819 70.2666 134.424V143.883C70.2666 144.418 69.8777 144.875 69.3487 144.96C68.8129 145.046 62.2454 146.074 54.5341 146.074Z" fill="#000072"/>
<path d="M81.2533 110.572C81.2533 110.572 80.4089 95.4555 62.0592 98.3905C41.9037 101.614 31.7228 136.415 71.4098 151.064L74.6308 144.171C74.6308 144.171 60.2467 141.948 55.4887 134.234C50.7307 126.52 38.4819 115.771 60.3581 103.166C70.2678 97.4554 78.0079 106.971 76.1653 113.298L81.2533 110.572Z" fill="#F28B51"/>
<g opacity="0.3">
<path d="M76.4709 102.975C73.6241 100.941 69.3113 99.6979 62.78 100.743C46.2539 103.386 36.4336 127.259 55.3105 143.845C59.27 147.008 64.3402 149.867 70.6885 152.211L73.5292 144.778C70.1533 144.035 62.8872 143.425 58.4384 139.265C56.9706 138.16 55.6877 136.873 54.7674 135.38C50.0094 127.666 37.7606 116.918 59.6368 104.313C65.0059 101.219 69.7369 102.595 72.6529 105.512C75.3993 107.416 77.101 110.585 77.1561 113.527L80.5326 111.719C80.5326 111.718 80.2503 106.67 76.4709 102.975Z" fill="#000072"/>
</g>
<path d="M69.4351 132.415C69.2459 132.415 69.0542 132.365 68.8797 132.261C68.3617 131.954 68.1908 131.285 68.4982 130.767C75.0669 119.698 76.8623 110.601 73.4258 105.808C71.5355 103.172 68.1657 102.145 64.1824 102.99C55.5482 104.821 48.8099 115.31 47.4107 117.634C50.74 124.815 63.2351 129.368 63.3637 129.415C63.9307 129.618 64.2252 130.243 64.0219 130.81C63.8186 131.377 63.194 131.672 62.627 131.468C62.0526 131.261 48.5166 126.323 45.1775 117.963C45.0556 117.658 45.0776 117.315 45.2369 117.029C45.5522 116.462 53.0811 103.114 63.7298 100.856C68.5294 99.8375 72.8159 101.214 75.1992 104.537C77.5292 107.786 80.0006 115.659 70.3751 131.88C70.1705 132.223 69.8074 132.415 69.4351 132.415Z" fill="#000072"/>
<path d="M70.3449 120.156C70.1441 121.244 69.8122 122.284 69.4258 123.299C69.0449 124.319 68.5838 125.305 68.0627 126.266C67.544 127.229 66.9439 128.158 66.2397 129.039C65.5214 129.906 64.7364 130.771 63.5625 131.373C63.0255 131.648 62.3672 131.436 62.0923 130.9C61.8553 130.437 61.9796 129.884 62.3629 129.564L62.4272 129.51C63.0635 128.978 63.7346 128.247 64.3739 127.49C65.0205 126.731 65.6672 125.934 66.3052 125.113L68.2605 122.637C68.9218 121.803 69.6009 120.972 70.3449 120.156Z" fill="#000072"/>
<path d="M76.3969 129.493C77.1244 123.585 76.4398 120.003 76.0019 114.845C76.0019 114.845 81.1763 107.935 88.6562 110.955C96.136 113.975 95.4092 151.48 92.0847 157.09C88.7603 162.701 72.8643 156.155 72.8643 156.155C72.8643 156.155 69.8974 155.065 71.4099 151.065" fill="#F28B51"/>
<g opacity="0.3">
<path d="M77.2297 156.359C77.2297 156.359 74.2629 155.268 75.7754 151.268C75.7754 151.268 79.8812 141.886 80.7624 129.697C81.1916 123.76 80.8052 120.207 80.3674 115.049C80.3674 115.049 83.1119 111.389 87.4909 110.562C80.6448 108.652 76.0019 114.845 76.0019 114.845C76.4398 120.003 77.1244 123.585 76.3969 129.493L71.4099 151.064C69.8974 155.064 72.8643 156.155 72.8643 156.155C72.8643 156.155 81.8107 159.839 87.6838 159.311C82.5541 158.551 77.2297 156.359 77.2297 156.359Z" fill="#000072"/>
</g>
<path d="M74.6307 145.568C74.5542 145.568 74.4764 145.559 74.3986 145.538C63.5925 142.725 56.39 138.089 52.9897 131.758C52.7496 131.311 52.9174 130.754 53.3644 130.514C53.8114 130.274 54.3681 130.442 54.6081 130.889C57.7562 136.751 64.5704 141.082 74.861 143.761C75.3521 143.889 75.646 144.391 75.5186 144.882C75.4115 145.294 75.0392 145.568 74.6307 145.568Z" fill="#000072"/>
<path d="M51.215 103.959L55.9295 105.982L51.7257 109.984L47.6512 108.488" fill="#B2A1A1"/>
<path d="M71.41 151.983C71.3047 151.983 71.1969 151.965 71.0922 151.926C61.0772 148.23 53.5863 143.075 48.8284 136.606C44.7109 131.008 42.8659 124.663 43.4923 118.256C43.9883 113.186 46.0777 108.324 49.3758 104.567C52.718 100.758 57.171 98.2429 61.9149 97.4842C68.2472 96.4714 73.2875 97.4303 76.893 100.335C81.7685 104.264 82.1574 110.268 82.1714 110.521C82.1996 111.028 81.812 111.461 81.3056 111.489C80.7973 111.518 80.3668 111.131 80.3374 110.625C80.3344 110.571 79.9639 105.155 75.7234 101.752C72.5404 99.1982 67.9925 98.3721 62.2052 99.298C53.3683 100.711 46.2669 108.76 45.3208 118.435C44.0196 131.743 53.8913 143.619 71.7284 150.203C72.2042 150.378 72.4479 150.906 72.2722 151.383C72.1344 151.753 71.7835 151.983 71.41 151.983Z" fill="#000072"/>
<path d="M51.7253 110.902C51.6193 110.902 51.5122 110.884 51.4087 110.846L47.3347 109.35C46.8583 109.176 46.614 108.648 46.7891 108.172C46.9642 107.695 47.4915 107.451 47.9679 107.626L51.506 108.925L54.2879 106.278L50.8533 104.804C50.3873 104.603 50.1711 104.063 50.3713 103.597C50.5716 103.131 51.1117 102.916 51.5777 103.115L56.2922 105.139C56.5757 105.26 56.7796 105.516 56.8341 105.821C56.8886 106.124 56.7869 106.436 56.5634 106.649L52.359 110.649C52.1851 110.814 51.9573 110.902 51.7253 110.902Z" fill="#000072"/>
<path d="M49.2494 117.997L40.3458 129.857C38.0513 130.282 36.1016 129.507 34.9235 128.832C34.1482 128.388 33.1813 128.463 32.5028 129.044L32.4153 129.119C31.5745 129.839 31.441 131.09 32.1115 131.971L34.2676 134.804C34.2676 134.804 30.3198 139.216 29.5146 140.726C27.9561 143.648 32.6314 142.44 32.6314 142.44C32.6314 142.44 40.1119 145.401 42.7609 144.466C45.41 143.53 49.0724 138.777 49.0724 138.777L62.53 127.999C59.3666 123.346 55.0459 119.9 49.2494 117.997Z" fill="#FDC7A3"/>
<g opacity="0.6">
<path d="M32.8019 132.878C32.8227 132.314 33.0695 131.761 33.5294 131.367L33.6169 131.293C34.2954 130.712 35.2623 130.636 36.0376 131.08C37.2151 131.755 39.1654 132.531 41.4599 132.105L49.9563 118.229C49.2931 117.951 49.9563 118.229 49.2496 117.997L40.3461 129.857C38.0516 130.282 36.1018 129.507 34.9237 128.832C34.1485 128.388 33.1816 128.463 32.5031 129.044L32.4155 129.119C31.5747 129.839 31.4413 131.09 32.1118 131.971L32.8019 132.878Z" fill="white"/>
</g>
<g opacity="0.3">
<path d="M60.4456 125.31L47.7148 135.506C47.7148 135.506 44.0524 140.259 41.4033 141.194C39.5975 141.832 33.3767 141.22 30.0908 139.84C29.8403 140.188 29.6395 140.492 29.5146 140.727C27.9561 143.649 32.6314 142.44 32.6314 142.44C32.6314 142.44 40.1119 145.401 42.7609 144.466C45.41 143.531 49.0724 138.778 49.0724 138.778L62.53 127.999C61.8852 127.052 61.1896 126.156 60.4456 125.31Z" fill="#000072"/>
</g>
<path d="M119.036 94.976L106.344 74.1837C92.3549 75.8695 81.4801 79.3158 85.589 91.2297L97.5911 99.8448C103.673 101.605 113.33 99.7291 117.446 98.7744C118.597 98.5074 119.409 97.4805 119.409 96.2999C119.409 95.8327 119.28 95.3747 119.036 94.976Z" fill="#4881FF"/>
<g opacity="0.6">
<path d="M119.036 94.4898L106.344 71.2725C101.17 71.9688 96.4226 72.9351 92.7013 74.548C95.899 73.5254 99.6178 72.8328 103.588 72.2982L116.28 95.5155C116.524 95.9606 116.653 96.4726 116.653 96.9943C116.653 97.843 116.315 98.6189 115.769 99.1443C116.394 98.9979 116.96 98.8577 117.446 98.7315C118.597 98.4333 119.409 97.287 119.409 95.9686C119.408 95.4463 119.28 94.935 119.036 94.4898Z" fill="white"/>
</g>
<g opacity="0.3">
<path d="M101.388 100.486C100.035 100.383 98.7481 100.177 97.592 99.8436L85.5893 91.229C81.4816 79.317 92.3558 75.8695 106.344 74.1837L110.393 80.813C108.628 83.9237 105.748 87.2151 101.045 89.6118C96.6722 91.8402 97.9784 96.0507 101.388 100.486Z" fill="#000072"/>
</g>
<path d="M113.055 33.3221C91.0797 0.911018 59.2987 0.117413 45.9722 1.43397C41.9288 1.83383 38.1714 3.73579 35.4691 6.76937C24.2717 19.3403 21.4347 31.64 21.4347 31.64L107.772 76.4683C113.821 68.8195 115.822 54.7825 116.484 46.3346C116.844 41.734 115.645 37.1426 113.055 33.3221Z" fill="#5065C2"/>
<path d="M113.055 33.3221C91.0797 0.911018 59.2987 0.117413 45.9722 1.43397C41.9288 1.83383 38.1714 3.73579 35.4691 6.76937C24.2717 19.3403 21.4347 31.64 21.4347 31.64L107.772 76.4683C113.821 68.8195 115.822 54.7825 116.484 46.3346C116.844 41.734 115.645 37.1426 113.055 33.3221Z" fill="#4881FF"/>
<path d="M42.2521 18.916L39.4965 21.6715V24.4271C39.4965 24.4271 39.4965 27.1827 42.2521 27.1827V29.9383C42.2521 29.9383 39.4965 27.1827 33.9854 29.9383H31.2298L33.9854 18.916H42.2521Z" fill="white"/>
<g opacity="0.6">
<path d="M42.3141 3.71498C56.7851 2.28453 91.2739 3.1461 115.162 38.2632C114.578 36.1916 113.668 34.2106 112.442 32.4036C90.4668 -0.00749967 58.6859 -0.801105 45.3593 0.515448C41.3159 0.915313 37.5585 2.81727 34.8562 5.85086C34.6082 6.12947 34.3657 6.40748 34.1257 6.68549C36.5469 5.0401 39.3595 4.00707 42.3141 3.71498Z" fill="white"/>
</g>
<path d="M34.7054 20.2233L38.7059 12.2377C38.7059 12.2377 51.9554 8.86851 55.2278 12.4624C58.5002 16.0557 55.9767 19.4316 55.9767 19.4316C55.9767 19.4316 44.3022 18.3367 34.7054 20.2233Z" fill="#A84535"/>
<path d="M25.5932 32.1072C25.5932 32.1072 13.5415 28.315 10.0609 42.0812L13.7491 40.2111C13.7491 40.2111 10.7363 43.0255 10.6322 47.0725C10.6322 47.0725 13.201 44.7045 16.8549 43.4535C16.8427 43.4633 14.0595 45.623 13.5929 49.8734C13.5929 49.8734 14.9505 48.795 16.5389 48.5415C16.5506 48.6076 17.0392 51.4998 14.1122 52.8861C14.1122 52.8861 15.389 57.5957 20.4904 59.3709C20.4904 59.3709 80.0323 84.3658 91.3596 84.0413C102.687 83.7161 106.343 74.1849 106.343 74.1849C85.4871 15.0686 25.5932 32.1072 25.5932 32.1072Z" fill="#A84535"/>
<path d="M91.3601 84.04C98.8926 84.5073 103.98 78.5987 101.019 73.5603C98.0586 68.5212 92.5523 72.7814 92.5523 72.7814C92.9681 79.6905 87.7735 81.5086 87.7735 81.5086C84.1864 78.9765 86.0596 73.1451 86.0596 73.1451C86.0596 73.1451 77.1248 69.6645 77.7481 53.613L62.7878 41.925V31.1721C62.7878 31.1721 42.944 24.9384 25.5943 32.1072L26.1135 40.0029L19.5681 49.561L21.4211 69.2346C19.7414 71.6044 18.8407 74.2853 18.8407 77.2227C18.8407 88.9707 33.2505 100.365 54.2939 100.365C72.286 100.365 87.3651 93.4023 91.3601 84.04Z" fill="#FDC7A3"/>
<path d="M91.3601 84.04C98.8926 84.5073 103.98 78.5987 101.019 73.5603C98.0586 68.5212 92.5523 72.7814 92.5523 72.7814C92.9681 79.6905 87.7735 81.5086 87.7735 81.5086C84.1864 78.9765 86.0596 73.1451 86.0596 73.1451C86.0596 73.1451 77.1248 69.6645 77.7481 53.613L64.3217 43.1234C63.3536 42.3671 62.7878 41.2067 62.7878 39.9784V31.1721C62.7878 31.1721 42.944 24.9384 25.5943 32.1072L26.1135 40.0029L19.5681 49.561L21.4211 69.2346C19.7414 71.6044 18.8407 74.2853 18.8407 77.2227C18.8407 88.9707 33.2505 100.365 54.2939 100.365C72.286 100.365 87.3651 93.4023 91.3601 84.04Z" fill="#FDC7A3"/>
<g opacity="0.3">
<path d="M99.5921 71.9167C99.4586 71.8175 99.3239 71.7263 99.1873 71.6479C98.4103 74.3955 95.6375 76.7268 91.8538 77.3722C90.5134 80.5466 87.7731 81.5086 87.7731 81.5086C87.4669 81.2924 87.203 81.0506 86.9716 80.7915C81.2167 88.4618 67.6556 93.853 51.8275 93.853C36.0828 93.853 24.0568 87.4735 18.9964 79.3403C19.4024 82.1112 20.5934 84.8245 22.4684 87.3321C28.4474 93.8181 39.2333 98.5283 52.7626 98.5283C70.7553 98.5283 85.8344 91.5658 89.8294 82.2036C97.2658 82.6647 102.313 76.9123 99.5921 71.9167Z" fill="#000072"/>
</g>
<path d="M54.2935 101.455C44.2253 101.455 34.9065 98.8418 28.0543 94.0954C21.5052 89.5598 17.7491 83.4093 17.7491 77.2221C17.7491 74.2406 18.6064 71.4568 20.2971 68.9413L18.4814 49.6627C18.4576 49.4085 18.5237 49.1544 18.6676 48.9438L24.6637 40.1872C24.8805 39.8712 24.9852 39.4866 24.9601 39.1045L24.5045 32.1776C24.4739 31.711 24.7439 31.2762 25.1763 31.098C42.6907 23.8613 62.2878 29.8709 63.1132 30.1305C63.5676 30.2732 63.8774 30.6945 63.8774 31.1709V39.9049C63.8774 40.8497 64.3048 41.7254 65.0495 42.3077L78.4189 52.7526C78.6951 52.9687 78.8512 53.3043 78.8371 53.6546C78.2554 68.6406 86.1253 71.9945 86.4609 72.1298C86.9906 72.3441 87.2723 72.9332 87.0971 73.4776C87.0824 73.5235 85.6973 78.0059 87.9391 80.2288C89.1032 79.5901 91.7485 77.603 91.4626 72.8463C91.4411 72.4862 91.5985 72.1384 91.8839 71.9179C92.0112 71.8193 95.0418 69.5102 98.1396 70.1072C99.7226 70.4128 101.008 71.3882 101.959 73.0067C103.332 75.3428 103.299 78.02 101.866 80.3518C100.024 83.3505 96.2199 85.1759 92.0498 85.1551C87.3727 94.7886 72.0223 101.455 54.2935 101.455ZM20.6902 49.8513L22.5064 69.1324C22.5309 69.3926 22.4611 69.6522 22.3105 69.8653C20.7318 72.0924 19.9309 74.5676 19.9309 77.2221C19.9309 87.8274 33.0689 99.2735 54.2935 99.2735C62.7629 99.2735 71.0511 97.655 77.6314 94.717C83.9944 91.8757 88.5141 87.9315 90.3573 83.612C90.5385 83.1876 90.969 82.9255 91.4283 82.9513C95.1067 83.1797 98.4728 81.7113 100.009 79.2104C101.019 77.565 101.044 75.7543 100.08 74.1126C99.4525 73.0459 98.6859 72.4366 97.7349 72.2511C96.163 71.9437 94.4545 72.8456 93.6652 73.3423C93.7467 79.0359 90.1283 81.8392 88.1338 82.5373C87.8013 82.6543 87.4321 82.6022 87.1443 82.3989C83.8443 80.0695 84.3691 75.6355 84.7849 73.7207C82.4384 72.3619 76.2928 67.5115 76.6394 54.131L63.7066 44.0272C62.4292 43.0291 61.6962 41.527 61.6962 39.9055V31.9957C57.9842 30.9915 41.4427 27.0933 26.7341 32.8249L27.1376 38.9618C27.1952 39.8295 26.9558 40.7028 26.464 41.4204L20.6902 49.8513Z" fill="#000072"/>
<path d="M24.2943 49.0418L25.8006 51.2236C25.8006 51.2236 26.5538 47.2494 30.2677 47.1716C33.9817 47.0939 35.1249 49.7429 35.1249 49.7429L36.6833 45.5875C36.6833 45.5875 35.3196 42.4706 30.4888 42.977C25.658 43.4834 24.2943 49.0418 24.2943 49.0418Z" fill="#000072"/>
<path d="M25.8008 51.5291C25.7016 51.5291 25.6066 51.4808 25.5491 51.3969L24.0427 49.2151C23.9931 49.1428 23.9766 49.0534 23.9974 48.9683C24.0115 48.9107 25.4701 43.1951 30.4577 42.6721C35.4545 42.1479 36.9057 45.3285 36.9645 45.4644C36.9964 45.5373 36.9988 45.62 36.9706 45.6947L35.4122 49.8501C35.3681 49.967 35.2579 50.0454 35.133 50.0485C35.0038 50.0564 34.8935 49.9781 34.8446 49.8636C34.8005 49.7637 33.7209 47.4001 30.2752 47.4772C26.8491 47.5489 26.1094 51.2426 26.102 51.2799C26.0788 51.4012 25.9857 51.4967 25.8644 51.5224C25.843 51.5273 25.8216 51.5291 25.8008 51.5291ZM24.6275 48.9854L25.6856 50.5182C26.0984 49.332 27.2986 46.9273 30.2611 46.8655C33.0657 46.8055 34.4741 48.2102 35.0619 49.0381L36.3497 45.6047C36.0656 45.0793 34.6119 42.8521 30.5201 43.2814C26.366 43.7168 24.8688 48.1649 24.6275 48.9854Z" fill="#000072"/>
<path d="M48.6052 50.1844L50.1116 52.3662C50.1116 52.3662 50.8648 48.392 54.5787 48.3143C58.2926 48.2365 59.4359 50.8855 59.4359 50.8855L61.8516 47.574C61.8516 47.574 59.6306 43.6133 54.7998 44.1197C49.9689 44.6261 48.6052 50.1844 48.6052 50.1844Z" fill="#000072"/>
<path d="M50.1116 52.6724C50.0124 52.6724 49.9175 52.624 49.86 52.5401L48.3536 50.3583C48.304 50.286 48.2874 50.1966 48.3083 50.1115C48.3224 50.054 49.781 44.3383 54.768 43.8153C59.7421 43.2924 62.0953 47.3829 62.1186 47.4245C62.1774 47.5292 62.1694 47.6578 62.099 47.7546L59.6833 51.0662C59.619 51.155 59.5106 51.2033 59.4016 51.1899C59.2926 51.1776 59.1983 51.1078 59.1542 51.0068C59.1101 50.907 58.0281 48.5359 54.5849 48.6205C51.1588 48.6921 50.419 52.3858 50.4117 52.4231C50.3884 52.5444 50.2953 52.6399 50.1741 52.6656C50.1539 52.6699 50.1325 52.6724 50.1116 52.6724ZM48.939 50.1281L49.9971 51.6608C50.4099 50.4747 51.6107 48.0699 54.5732 48.0081C57.545 47.9469 58.9485 49.5237 59.4696 50.321L61.4842 47.5586C61.0096 46.8263 58.8983 43.9966 54.8322 44.424C50.6768 44.86 49.1803 49.3081 48.939 50.1281Z" fill="#000072"/>
<path d="M48.7083 79.7162C48.5809 79.7162 48.4517 79.6936 48.3256 79.6464C47.3372 79.2766 46.5216 78.7469 45.9013 78.0733C45.4935 77.63 45.5216 76.9398 45.965 76.532C46.4083 76.1236 47.0984 76.1524 47.5063 76.5957C47.8926 77.0152 48.4254 77.3544 49.0904 77.6036C49.6544 77.8149 49.9403 78.4438 49.7291 79.0077C49.5656 79.4456 49.1498 79.7162 48.7083 79.7162Z" fill="#000072"/>
<path d="M45.6341 76.3563C45.1338 76.3563 44.6825 76.0097 44.5698 75.5008C44.1044 73.3962 44.8233 71.3987 44.8539 71.3142C45.0615 70.7484 45.6886 70.4587 46.2538 70.6657C46.8196 70.8733 47.1098 71.5003 46.9022 72.0655C46.8979 72.0765 46.3756 73.5621 46.7002 75.0293C46.83 75.6178 46.4589 76.2001 45.8704 76.3299C45.7908 76.3477 45.7118 76.3563 45.6341 76.3563Z" fill="#000072"/>
<path d="M46.7039 77.3348L46.7008 77.3379C46.7008 77.3379 46.3702 78.5969 45.669 80.0996C44.7805 81.9917 43.2974 84.2697 41.1248 84.8992C41.0874 84.9084 41.047 84.9212 41.0097 84.9304C38.6625 85.5691 36.3625 83.9047 36.1256 81.5423C36.1102 81.4112 36.1035 81.2771 36.1035 81.143C36.0974 78.1541 35.3056 76.0189 35.2836 75.9534C35.4269 76.0715 39.1579 79.0763 45.6341 75.2645C45.794 75.9821 46.1148 76.7053 46.7039 77.3348Z" fill="#000072"/>
<path d="M45.6691 80.0989C44.7806 81.9911 43.2975 84.269 41.1248 84.8985C41.0875 84.9077 41.0471 84.9206 41.0097 84.9298C38.6626 85.5685 36.3626 83.9041 36.1256 81.5416C37.6467 80.2698 39.785 79.4817 42.1566 79.4817C43.4126 79.4823 44.6036 79.7034 45.6691 80.0989Z" fill="#FF668F"/>
<path d="M39.9894 86.1606C38.9233 86.1606 37.8719 85.8103 36.9889 85.1361C35.7354 84.179 35.0153 82.7241 35.0134 81.1449C35.0079 78.5748 34.3858 76.6845 34.2609 76.3312C34.2584 76.325 34.2517 76.3048 34.2498 76.2987C34.0961 75.837 34.2664 75.3294 34.6675 75.0544C35.0692 74.7795 35.6038 74.8027 35.9791 75.1132C36.1114 75.221 39.2944 77.7316 45.0817 74.3251C45.3824 74.1475 45.7498 74.1255 46.07 74.2651C46.3903 74.4041 46.6242 74.6882 46.7002 75.0293C46.8379 75.6508 47.1 76.1615 47.5011 76.5902C47.7852 76.8939 47.863 77.3183 47.7369 77.6875C47.5182 78.4805 45.6751 84.7142 41.4296 85.9469C41.4162 85.9512 41.4021 85.9549 41.388 85.9579L41.2729 85.9892C40.8491 86.1043 40.4181 86.1606 39.9894 86.1606ZM36.9062 77.9178C37.0654 78.81 37.1922 79.9055 37.1946 81.1406C37.1959 82.0364 37.6031 82.86 38.3128 83.4014C39.0066 83.931 39.8859 84.1043 40.7236 83.8765L40.8234 83.8496C43.2692 83.1374 44.8943 79.4664 45.4938 77.5791C45.3217 77.3428 45.1693 77.0923 45.037 76.829C41.4725 78.5999 38.698 78.437 36.9062 77.9178Z" fill="#000072"/>
<path d="M35.2819 77.0439C35.0039 77.0439 34.7259 76.938 34.5128 76.7249L34.5098 76.7218C34.0836 76.2956 34.0836 75.6049 34.5098 75.1787C34.936 74.7531 35.6267 74.7531 36.0529 75.1787C36.4791 75.6049 36.4803 76.2969 36.0541 76.7231C35.841 76.9374 35.5612 77.0439 35.2819 77.0439Z" fill="#000072"/>
<path d="M99.4909 82.5851C99.1149 82.5851 98.7499 82.391 98.5472 82.0432C98.2441 81.5227 98.4205 80.8546 98.941 80.5515C103.86 77.6875 104.999 74.9013 105.22 74.1836C104.858 72.7746 102.777 65.3793 97.1676 57.0684C91.4587 48.61 80.8081 37.4322 62.4878 32.2205C61.9085 32.0558 61.5723 31.4526 61.737 30.8727C61.9017 30.2934 62.5055 29.9578 63.0848 30.122C82.0781 35.5253 93.1145 47.1361 99.0279 55.9252C105.438 65.4521 107.33 73.6001 107.407 73.9424C107.437 74.074 107.442 74.21 107.423 74.3435C107.398 74.5131 106.729 78.5417 100.038 82.4369C99.8662 82.5373 99.677 82.5851 99.4909 82.5851Z" fill="#000072"/>
<path d="M10.6324 48.1434C10.4824 48.1434 10.3311 48.1122 10.1891 48.0473C9.79776 47.8691 9.55037 47.4748 9.56078 47.0449C9.59936 45.533 9.99616 44.1828 10.5081 43.0548C10.1413 43.2232 9.70897 43.1718 9.39177 42.9176C9.06355 42.6556 8.91903 42.2251 9.02191 41.8179C10.1939 37.1824 12.4278 33.9167 15.6629 32.1109C20.479 29.422 25.695 31.0154 25.9148 31.0846C26.4794 31.2622 26.7929 31.8635 26.6154 32.4287C26.4384 32.9927 25.8377 33.3062 25.2737 33.1298C25.2284 33.1164 20.686 31.7496 16.6885 33.9926C14.5631 35.1855 12.9428 37.1909 11.8534 39.9698L13.2643 39.2546C13.7401 39.0127 14.3212 39.159 14.6274 39.5962C14.9335 40.0335 14.8705 40.6293 14.4804 40.9936C14.462 41.0108 13.0108 42.4033 12.2129 44.5483C13.778 43.5367 16.0321 42.3659 18.6389 41.8681C19.22 41.7578 19.7815 42.1381 19.8924 42.7198C20.0032 43.301 19.6217 43.8625 19.0406 43.9733C14.7376 44.7945 11.3911 47.8299 11.358 47.8605C11.1566 48.0461 10.8963 48.1434 10.6324 48.1434Z" fill="#000072"/>
<path d="M13.5937 50.9621C13.4125 50.9621 13.2306 50.9174 13.0653 50.8256C12.6813 50.6125 12.4609 50.1906 12.5087 49.754C13.0206 45.0872 16.0597 42.6893 16.1889 42.5895C16.6653 42.2208 17.3505 42.309 17.7191 42.7854C18.0866 43.2606 18.0002 43.9434 17.5269 44.3126C17.443 44.3788 16.0235 45.5269 15.1987 47.7632C15.9011 47.5115 16.7106 47.3419 17.5501 47.4087C18.1508 47.457 18.5985 47.9824 18.5507 48.5832C18.5023 49.1839 17.9763 49.6278 17.3762 49.5837C16.1491 49.4845 14.7168 50.3761 14.271 50.7276C14.0744 50.8825 13.835 50.9621 13.5937 50.9621Z" fill="#000072"/>
<path d="M20.491 60.4615C20.3722 60.4615 20.2509 60.4419 20.1328 60.4009C14.5512 58.4591 13.1183 53.3864 13.0601 53.1715C12.9217 52.6614 13.1691 52.1262 13.6461 51.9002C15.8261 50.8672 15.482 48.8201 15.466 48.7331C15.3583 48.1404 15.7514 47.5727 16.3442 47.465C16.9375 47.3566 17.5046 47.7503 17.6123 48.3431C17.823 49.5041 17.5848 51.8776 15.4538 53.3668C16.0184 54.646 17.5162 57.1799 20.8498 58.3397C21.4187 58.5375 21.7194 59.1596 21.5216 59.7285C21.3648 60.1786 20.9429 60.4615 20.491 60.4615Z" fill="#000072"/>
<path d="M107.771 77.5602C107.534 77.5602 107.295 77.4836 107.095 77.325C106.623 76.9515 106.543 76.265 106.916 75.7929C112.871 68.2641 114.785 54.052 115.396 46.2507C115.737 41.8969 114.585 37.5235 112.152 33.9351C90.3897 1.83874 58.6956 1.27477 46.0794 2.52029C42.2865 2.89505 38.8077 4.66229 36.2836 7.49563C25.4224 19.6888 22.5253 31.7661 22.4972 31.8868C22.3612 32.4734 21.7752 32.8384 21.1886 32.703C20.6019 32.5671 20.2364 31.9823 20.3717 31.3957C20.4899 30.8825 23.4004 18.679 34.6548 6.04498C37.5444 2.80074 41.5253 0.77815 45.8651 0.349505C58.8689 -0.936431 91.5378 -0.355921 113.958 32.7104C116.667 36.7066 117.951 41.5754 117.571 46.4209C116.941 54.4696 114.941 69.1642 108.627 77.1468C108.412 77.4181 108.093 77.5602 107.771 77.5602Z" fill="#000072"/>
<path d="M113.184 66.3327C112.663 66.3327 112.203 65.9592 112.11 65.4289C110.301 55.0397 102.381 43.7235 90.9235 35.1567C78.3011 25.7192 62.9403 20.5215 47.6702 20.5215C32.4018 20.5215 29.1808 22.56 25.1032 25.1411L24.5423 25.495C24.0322 25.8153 23.3592 25.6622 23.0384 25.1521C22.7181 24.642 22.8712 23.9684 23.3813 23.6482L23.9361 23.2973C28.3125 20.5277 31.7692 18.3397 47.6702 18.3397C63.4076 18.3397 79.2325 23.6917 92.2303 33.4091C104.122 42.3004 112.358 54.1304 114.26 65.0535C114.364 65.6469 113.966 66.2121 113.373 66.3155C113.309 66.3272 113.246 66.3327 113.184 66.3327Z" fill="#000072"/>
<path d="M113.184 66.007C112.819 66.007 112.496 65.7449 112.431 65.3726C110.608 54.9038 102.64 43.5104 91.1183 34.8959C78.4402 25.4167 63.0095 20.1958 47.6702 20.1958C32.3075 20.1958 29.0516 22.2564 24.9293 24.8656L24.3696 25.2189C24.0114 25.4436 23.5393 25.3359 23.3139 24.9783C23.0892 24.6206 23.197 24.1479 23.5546 23.9226L24.1106 23.5717C28.4424 20.8302 31.8642 18.6643 47.6702 18.6643C63.3384 18.6643 79.0941 23.993 92.0349 33.6687C103.862 42.5117 112.05 54.2651 113.939 65.1086C114.012 65.525 113.733 65.9212 113.317 65.9941C113.272 66.0033 113.228 66.007 113.184 66.007Z" fill="#000072"/>
<path d="M55.8706 19.9172C55.8706 19.9172 54.6178 26.6996 52.9375 29.1961C50.1758 28.8501 46.9842 28.6132 43.5655 28.6664C38.8204 26.6965 38.7714 24.274 39.7958 22.418C40.805 20.5889 42.7694 19.4953 44.8587 19.4567C45.7491 19.4402 46.686 19.4316 47.6707 19.4316C50.444 19.431 53.1806 19.5994 55.8706 19.9172Z" fill="white"/>
<path d="M52.9377 29.8195C52.912 29.8195 52.8862 29.8177 52.8599 29.8146C49.7075 29.4197 46.5833 29.2439 43.5748 29.2892C43.491 29.2917 43.4046 29.2745 43.3262 29.2415C40.8646 28.2194 39.3545 26.9525 38.8383 25.4767C38.4672 24.4149 38.605 23.2845 39.2498 22.1161C40.3429 20.1346 42.4879 18.8768 44.8467 18.8327C45.7481 18.8162 46.6978 18.8076 47.6702 18.8076C50.4056 18.8076 53.1894 18.973 55.9437 19.2981C56.1152 19.3183 56.2701 19.4083 56.3724 19.5473C56.4746 19.6863 56.515 19.8609 56.4838 20.0305C56.4318 20.3128 55.1875 26.9696 53.4551 29.544C53.3382 29.7173 53.1434 29.8195 52.9377 29.8195ZM44.5209 28.0351C47.1608 28.0351 49.8784 28.2011 52.6187 28.5287C53.8189 26.4491 54.7882 22.1106 55.1275 20.4597C52.6407 20.1903 50.1356 20.0537 47.6702 20.0537C46.7058 20.0537 45.7634 20.0623 44.87 20.0789C42.9551 20.1144 41.2198 21.126 40.3416 22.7181C39.8756 23.5625 39.766 24.3518 40.0153 25.0646C40.4023 26.1711 41.6374 27.1717 43.6863 28.0406C43.9637 28.037 44.2423 28.0351 44.5209 28.0351Z" fill="#000072"/>
<path d="M52.9376 30.2867C52.8929 30.2867 52.8476 30.2836 52.8016 30.2781C49.6707 29.8856 46.5667 29.7105 43.5821 29.7564C43.4321 29.7619 43.2851 29.7307 43.1467 29.6731C40.5571 28.5978 38.9588 27.2378 38.3967 25.631C37.9852 24.4553 38.1389 23.1614 38.84 21.8901C40.0139 19.7628 42.3121 18.412 44.8374 18.3648C45.7412 18.3483 46.694 18.3397 47.6695 18.3397C50.4233 18.3397 53.2254 18.5057 55.9981 18.8333C56.2975 18.8688 56.5694 19.0262 56.7482 19.2693C56.927 19.5118 56.9975 19.8179 56.943 20.1149C56.8903 20.4009 55.6282 27.1502 53.8426 29.8048C53.6381 30.1085 53.2976 30.2867 52.9376 30.2867ZM44.5208 27.5678C47.0786 27.5678 49.7074 27.7222 52.3595 28.0277C53.2921 26.2292 54.1249 22.9256 54.5658 20.8718C52.264 20.6397 49.9499 20.5221 47.6707 20.5221C46.7087 20.5221 45.7694 20.5307 44.879 20.5472C43.1308 20.5797 41.5491 21.4988 40.7512 22.9452C40.3464 23.6782 40.2503 24.3212 40.4573 24.9115C40.7885 25.8594 41.9361 26.7773 43.7805 27.5727C44.026 27.5691 44.2734 27.5678 44.5208 27.5678Z" fill="#000072"/>
<path d="M61.3091 16.4329C60.6857 20.2417 59.6104 25.1252 57.7874 29.9725C56.4286 29.7043 54.8328 29.4361 53.0595 29.212C55.0919 24.0879 56.1702 18.8645 56.6968 15.676C56.9583 14.0772 55.9896 12.5499 54.4403 12.1225C47.7676 10.2806 41.2129 11.5898 38.7072 12.2377C38.4298 12.3124 38.1898 12.4991 38.0587 12.7551C36.5254 15.6693 33.3369 22.361 31.8752 30.0815C30.2078 30.4808 28.5373 30.9823 26.8852 31.5996C28.2128 22.249 32.1244 13.9926 33.9199 10.577C34.6651 9.15875 35.9835 8.1147 37.5352 7.71299C40.4089 6.97083 47.9237 5.47485 55.684 7.61624C59.5418 8.68112 61.9575 12.471 61.3091 16.4329Z" fill="white"/>
<path d="M26.8845 32.2223C26.7443 32.2223 26.6065 32.1752 26.4938 32.0845C26.3224 31.9468 26.236 31.7288 26.2673 31.5108C27.6218 21.9691 31.6835 13.4887 33.3669 10.2855C34.1935 8.71173 35.6552 7.55378 37.3778 7.10799C40.3005 6.35357 47.9494 4.83433 55.8487 7.01369C60.0121 8.16368 62.6237 12.256 61.9238 16.5327C61.1137 21.4805 59.9184 26.0755 58.3704 30.1905C58.2632 30.4759 57.9656 30.6418 57.6662 30.5824C56.1561 30.2848 54.5799 30.0313 52.9804 29.8286C52.7894 29.8041 52.6198 29.6933 52.5218 29.5274C52.4238 29.3614 52.4079 29.1593 52.4789 28.9805C54.4434 24.0272 55.5217 18.9551 56.0808 15.5725C56.2908 14.2896 55.5137 13.0637 54.2737 12.722C47.7424 10.9193 41.3201 12.204 38.8621 12.8402C38.7568 12.8684 38.6612 12.9431 38.6129 13.038C36.932 16.232 33.9057 22.6997 32.4869 30.196C32.441 30.4373 32.2579 30.629 32.0197 30.6865C30.3327 31.0901 28.6787 31.5934 27.1031 32.1825C27.0315 32.2095 26.958 32.2223 26.8845 32.2223ZM47.1258 7.13187C42.9214 7.13187 39.4346 7.86485 37.6901 8.31493C36.3074 8.67255 35.1341 9.60271 34.4703 10.8654C32.8782 13.8953 29.119 21.7309 27.6579 30.6578C28.8532 30.2456 30.0859 29.8807 31.3375 29.569C32.817 22.0812 35.8255 15.657 37.5057 12.4636C37.7115 12.0613 38.0912 11.757 38.5431 11.6345C41.1045 10.9719 47.784 9.637 54.605 11.52C56.4611 12.0313 57.6245 13.861 57.311 15.7746C56.7697 19.0494 55.7495 23.8815 53.9265 28.6958C55.101 28.8575 56.2602 29.0461 57.3863 29.2585C58.8174 25.3468 59.9294 21.001 60.6936 16.3306C61.2907 12.6841 59.0654 9.19488 55.5174 8.21512C52.6075 7.41294 49.7289 7.13187 47.1258 7.13187Z" fill="#000072"/>
<path d="M26.8846 32.6901C26.6397 32.6901 26.3978 32.6075 26.2012 32.4495C25.9012 32.2082 25.7506 31.8267 25.8051 31.4459C27.17 21.832 31.2593 13.294 32.9543 10.0687C33.8422 8.37861 35.4122 7.13493 37.2621 6.65607C40.221 5.89186 47.9666 4.35363 55.9749 6.56361C60.3692 7.77729 63.1254 12.0962 62.3869 16.6086C61.5718 21.587 60.3686 26.2121 58.8095 30.3559C58.6221 30.8549 58.101 31.1452 57.5775 31.0423C56.0784 30.7466 54.5127 30.4949 52.9236 30.294C52.5893 30.2518 52.2929 30.057 52.1214 29.7668C51.95 29.4765 51.9224 29.1232 52.0467 28.8097C53.9958 23.895 55.0668 18.8578 55.6216 15.4978C55.7931 14.4519 55.1611 13.4519 54.1514 13.1739C47.7572 11.4085 41.458 12.6565 39.0128 13.2854C37.6559 15.8695 34.4018 22.6029 32.9475 30.2842C32.8679 30.7061 32.5476 31.0423 32.1294 31.1421C30.4608 31.5414 28.8252 32.0386 27.2674 32.621C27.1424 32.6669 27.0132 32.6901 26.8846 32.6901ZM47.1253 7.59909C42.9747 7.59909 39.5309 8.32289 37.8071 8.76807C36.5524 9.09323 35.4869 9.93705 34.885 11.0834C33.3492 14.0061 29.7841 21.4284 28.252 29.967C29.1326 29.6811 30.0297 29.4214 30.9384 29.1887C32.4484 21.7677 35.4226 15.4213 37.0931 12.2468C37.3564 11.7318 37.8433 11.3406 38.4225 11.1844C41.0256 10.5114 47.8013 9.15813 54.7307 11.0705C56.8169 11.6461 58.1255 13.7012 57.7734 15.8517C57.2492 19.0243 56.2781 23.6494 54.5684 28.3161C55.4183 28.4398 56.2585 28.5776 57.0821 28.7282C58.4237 24.9733 59.5082 20.6838 60.2332 16.2571C60.7917 12.8469 58.7109 9.58372 55.3938 8.66764C52.5274 7.87587 49.691 7.59909 47.1253 7.59909Z" fill="#000072"/>
<path d="M43.216 22.7303C42.096 22.7303 42.0942 24.4706 43.216 24.4706C44.3354 24.4706 44.3378 22.7303 43.216 22.7303Z" fill="#000072"/>
<path d="M47.3261 22.5729C46.2061 22.5729 46.2043 24.3132 47.3261 24.3132C48.4461 24.3132 48.4479 22.5729 47.3261 22.5729Z" fill="#000072"/>
<path d="M51.2158 23.1773C50.0958 23.1773 50.094 24.9176 51.2158 24.9176C52.3352 24.917 52.3376 23.1773 51.2158 23.1773Z" fill="#000072"/>
<path d="M89.0842 46.6365C88.9201 46.6365 88.7548 46.5838 88.6152 46.4754C88.2814 46.2158 88.2214 45.7351 88.4811 45.4014C95.0681 36.9326 96.6296 29.2739 96.7796 24.3402C96.9425 18.9937 95.5311 15.5983 95.517 15.564C95.3523 15.1751 95.5329 14.7257 95.9217 14.5603C96.3106 14.395 96.7588 14.5744 96.9254 14.9626C96.9885 15.1102 98.4685 18.6386 98.313 24.2955C98.1709 29.4772 96.5592 37.5088 89.6898 46.3407C89.538 46.5348 89.312 46.6365 89.0842 46.6365Z" fill="#000072"/>
<path d="M103.709 101.654C101.414 101.654 99.1878 101.443 97.2871 100.893C97.1677 100.859 97.055 100.804 96.9546 100.731L84.9525 92.1157C84.4633 91.7642 84.3512 91.0827 84.7027 90.5934C85.0542 90.1041 85.7363 89.9921 86.225 90.3436L98.0709 98.8473C103.958 100.459 113.389 98.5956 117.199 97.712C117.857 97.5589 118.317 96.9784 118.317 96.2999C118.317 96.0329 118.244 95.7715 118.105 95.5443L105.412 74.7519C105.098 74.2375 105.261 73.5664 105.775 73.2523C106.289 72.9381 106.96 73.101 107.275 73.6148L119.967 94.4071C120.315 94.9772 120.499 95.6318 120.499 96.2999C120.499 97.9992 119.345 99.4535 117.692 99.8368C114.876 100.49 109.102 101.654 103.709 101.654Z" fill="#000072"/>
<path d="M62.9951 130.078C62.5671 130.078 62.1611 129.825 61.9872 129.405C58.9542 122.087 47.78 118.637 47.6674 118.604C47.0911 118.43 46.7641 117.821 46.9381 117.244C47.1113 116.668 47.7194 116.34 48.2962 116.514C48.7959 116.664 60.5708 120.291 64.0024 128.57C64.2333 129.126 63.9687 129.764 63.4121 129.995C63.2756 130.051 63.1341 130.078 62.9951 130.078Z" fill="#000072"/>
<path d="M41.433 145.734C38.4356 145.734 34.0756 144.166 32.5533 143.581C31.4321 143.828 29.4083 144.072 28.502 142.921C28.123 142.44 27.8248 141.58 28.5529 140.214C29.2252 138.954 31.682 136.094 32.8577 134.753L31.2441 132.633C30.2246 131.293 30.4279 129.386 31.7065 128.292L31.794 128.217C32.813 127.344 34.2887 127.211 35.4663 127.886C36.4546 128.453 37.9708 129.053 39.7411 128.846L48.3771 117.342C48.739 116.86 49.4218 116.763 49.9043 117.125C50.3862 117.487 50.4836 118.171 50.1217 118.652L41.2181 130.512C41.054 130.731 40.8133 130.88 40.5445 130.93C37.9512 131.411 35.7608 130.569 34.3812 129.778C34.0028 129.561 33.5325 129.6 33.2128 129.873L33.1253 129.948C32.7236 130.292 32.6599 130.89 32.9801 131.311L35.1362 134.144C35.4528 134.56 35.4295 135.142 35.0811 135.532C34.0071 136.732 31.0868 140.098 30.4775 141.24C30.4021 141.382 30.3568 141.49 30.3293 141.57C30.7432 141.646 31.6256 141.573 32.3604 141.385C32.5827 141.328 32.8191 141.343 33.0334 141.427C35.7798 142.513 40.7515 144.02 42.3981 143.439C44.3221 142.76 47.2448 139.364 48.2087 138.113C48.262 138.044 48.3232 137.982 48.3912 137.927L61.8488 127.15C62.3191 126.773 63.0055 126.849 63.3821 127.319C63.7587 127.789 63.6828 128.476 63.2125 128.852L49.8553 139.55C49.1915 140.398 45.8524 144.534 43.1243 145.496C42.6504 145.663 42.0723 145.734 41.433 145.734Z" fill="#000072"/>
<path d="M66.1473 128.284C65.7101 128.284 65.298 128.02 65.1302 127.588C60.5002 115.672 49.3811 114.43 48.9102 114.383C48.3114 114.323 47.8729 113.79 47.9317 113.191C47.9905 112.592 48.5202 112.152 49.1209 112.211C49.6457 112.261 62.0341 113.598 67.1632 126.797C67.3812 127.359 67.1032 127.991 66.5416 128.209C66.4118 128.26 66.2783 128.284 66.1473 128.284Z" fill="#000072"/>
<path d="M62.0856 150.778C61.8529 150.778 61.6215 150.726 61.4077 150.623C61.2718 150.558 58.0527 148.978 56.1709 146.001C55.8684 145.522 55.8494 144.917 56.1213 144.42L59.7446 137.797C59.9467 137.427 60.2902 137.155 60.6962 137.043C61.1022 136.931 61.537 136.988 61.9001 137.2L66.4192 139.849C67.1026 140.25 67.3769 141.099 67.0567 141.823L63.5112 149.849C63.3403 150.235 63.0201 150.536 62.6233 150.681C62.4493 150.747 62.2669 150.778 62.0856 150.778ZM59.3251 145.058C59.9724 145.857 60.7366 146.497 61.3808 146.959L63.6441 141.836L61.7084 140.701L59.3251 145.058Z" fill="#C4B7B7"/>
<path d="M62.0858 151.544C61.7373 151.544 61.3877 151.463 61.0742 151.312C60.9309 151.243 57.5231 149.574 55.5238 146.41C55.0731 145.696 55.045 144.794 55.4497 144.053L59.073 137.43C59.3724 136.883 59.8893 136.473 60.4912 136.306C61.0956 136.139 61.749 136.226 62.2872 136.541L66.8064 139.19C67.8259 139.788 68.2344 141.054 67.7567 142.134L64.2112 150.159C63.9583 150.732 63.4758 151.185 62.8873 151.401C62.6314 151.496 62.3613 151.544 62.0858 151.544ZM61.1103 137.752C61.0393 137.752 60.9682 137.762 60.899 137.781C60.6945 137.837 60.5182 137.977 60.4159 138.164L56.7926 144.788C56.6542 145.04 56.664 145.349 56.8177 145.592C58.5856 148.39 61.6118 149.872 61.7398 149.934C61.9321 150.027 62.1605 150.038 62.3576 149.964C62.5597 149.89 62.7244 149.735 62.8108 149.541L66.3563 141.515C66.5192 141.146 66.3796 140.714 66.0318 140.51L61.5126 137.861C61.3907 137.79 61.2511 137.752 61.1103 137.752ZM61.3809 147.724C61.2223 147.724 61.0662 147.675 60.9345 147.581C60.0626 146.956 59.321 146.269 58.7301 145.54C58.5347 145.298 58.5041 144.963 58.6535 144.69L61.0368 140.334C61.136 140.152 61.305 140.019 61.504 139.964C61.703 139.908 61.9168 139.936 62.0956 140.041L64.0312 141.175C64.3668 141.372 64.5015 141.789 64.3441 142.145L62.0809 147.268C61.9878 147.478 61.8047 147.636 61.5824 147.697C61.5163 147.716 61.4483 147.724 61.3809 147.724ZM60.2518 144.959C60.501 145.23 60.7772 145.495 61.0778 145.751L62.6681 142.151L62.0019 141.761L60.2518 144.959Z" fill="#000072"/>
<path d="M73.5395 136.207C73.7722 136.846 73.9038 137.524 74.0073 138.205C74.1065 138.888 74.1573 139.578 74.18 140.273C74.2039 140.968 74.1837 141.665 74.1463 142.364C74.1279 142.714 74.0918 143.06 74.0649 143.411L73.943 144.456L71.8371 143.887L72.2058 142.979C72.316 142.673 72.436 142.366 72.5401 142.055C72.7483 141.434 72.9424 140.804 73.0955 140.163C73.2498 139.523 73.3796 138.872 73.4623 138.211C73.5401 137.552 73.5934 136.882 73.5395 136.207Z" fill="#000072"/>
<path d="M76.2462 129.474C76.3821 127.029 76.3074 124.597 76.0067 122.196C75.714 119.793 75.2388 117.396 74.8696 114.94C74.8316 114.69 74.8953 114.447 75.0288 114.254L75.0919 114.163L75.0925 114.163C75.2799 113.92 75.4299 113.749 75.6032 113.556C75.771 113.369 75.9443 113.19 76.12 113.013C76.4721 112.661 76.8402 112.329 77.2247 112.013C77.9926 111.383 78.8242 110.821 79.7212 110.359C81.5038 109.429 83.5919 108.922 85.6537 109.094C86.6812 109.171 87.6898 109.401 88.6408 109.746L88.9971 109.877L89.0878 109.911L89.1962 109.962L89.4117 110.066C89.5599 110.132 89.6836 110.219 89.8134 110.302L90.0051 110.429L90.1777 110.569C90.6431 110.941 91.0093 111.364 91.3173 111.797C91.9438 112.663 92.3657 113.572 92.73 114.481C93.0895 115.392 93.3742 116.311 93.6204 117.231C94.1103 119.073 94.4434 120.925 94.7079 122.779C94.9706 124.632 95.1574 126.488 95.2945 128.344C95.567 132.057 95.6454 135.771 95.5781 139.484C95.5015 143.197 95.2964 146.908 94.8139 150.622C94.6908 151.55 94.5475 152.48 94.3675 153.412C94.1813 154.346 93.9804 155.277 93.6553 156.234C93.4887 156.711 93.3112 157.199 92.9921 157.715C92.6676 158.214 92.2708 158.679 91.7999 159.023C90.866 159.736 89.803 160.081 88.7938 160.266C87.7767 160.449 86.781 160.479 85.8056 160.445C84.8301 160.41 83.8724 160.307 82.9306 160.156C81.0458 159.86 79.2136 159.41 77.4133 158.878C76.5131 158.613 75.621 158.325 74.7355 158.017C74.2928 157.864 73.8519 157.705 73.4116 157.54L72.7509 157.286L72.4073 157.149C72.2377 157.074 72.0999 157.003 71.9664 156.921C71.4319 156.605 70.9769 156.174 70.6242 155.655C70.5427 155.522 70.4515 155.393 70.3829 155.253L70.1876 154.827C70.0914 154.534 69.9935 154.239 69.9579 153.941C69.7626 152.738 70.0363 151.643 70.3896 150.676C70.5966 150.11 71.2231 149.819 71.7889 150.026C72.3547 150.232 72.6462 150.859 72.4392 151.425L72.4373 151.43L72.4306 151.448C72.152 152.197 71.9995 152.964 72.114 153.59C72.1281 153.752 72.1863 153.891 72.2261 154.038C72.2598 154.105 72.291 154.171 72.3204 154.239C72.351 154.307 72.3988 154.364 72.4343 154.429C72.5978 154.67 72.825 154.889 73.0846 155.04C73.1458 155.079 73.2156 155.111 73.2554 155.13L73.553 155.248L74.1813 155.488C74.6032 155.646 75.0282 155.8 75.455 155.947C76.3086 156.242 77.1696 156.518 78.0348 156.773C79.7647 157.283 81.5167 157.708 83.2692 157.982C84.1455 158.122 85.0218 158.213 85.8852 158.243C86.7474 158.273 87.6016 158.24 88.397 158.096C89.1906 157.953 89.92 157.685 90.4515 157.273C90.7289 157.077 90.9273 156.823 91.1104 156.557C91.2806 156.292 91.4306 155.91 91.5629 155.52C91.8311 154.733 92.0234 153.861 92.1948 152.99C92.3632 152.115 92.4998 151.224 92.6174 150.329C93.0803 146.74 93.2811 143.087 93.3516 139.441C93.4146 135.792 93.3326 132.138 93.0625 128.508C92.926 126.693 92.7423 124.884 92.4863 123.093C92.2291 121.303 91.9058 119.525 91.4465 117.809C91.2169 116.952 90.9536 116.111 90.6364 115.31C90.3192 114.512 89.9481 113.742 89.4913 113.118C89.2672 112.801 89.0198 112.525 88.7638 112.325L88.6695 112.246L88.5722 112.184C88.5079 112.144 88.4454 112.094 88.3805 112.071L88.285 112.024L88.2378 112L88.1668 111.974L87.8747 111.867C87.0964 111.586 86.2936 111.406 85.4853 111.345C83.8681 111.214 82.238 111.602 80.7622 112.37C80.0225 112.751 79.3208 113.225 78.6668 113.763C78.3392 114.031 78.0244 114.317 77.725 114.616C77.5768 114.767 77.4292 114.918 77.2908 115.073C77.1561 115.222 77.0055 115.4 76.9112 115.521L77.1341 114.744C77.1708 117.169 77.3239 119.633 77.2933 122.122C77.2706 124.611 77.011 127.091 76.5474 129.506C76.5315 129.589 76.4519 129.643 76.3699 129.627C76.2939 129.617 76.2419 129.549 76.2462 129.474Z" fill="#000072"/>
<path d="M77.4084 138.871C79.9399 138.787 85.1216 138.85 90.0951 140.358C90.6548 140.528 90.8899 141.191 90.5635 141.678C89.6395 143.056 87.593 145.546 84.2269 146.815C83.9691 146.913 83.6813 146.873 83.4517 146.721C82.4297 146.047 79.4806 143.924 76.7458 140.265C76.3245 139.703 76.7054 138.894 77.4084 138.871Z" fill="#F7AE46"/>
<path d="M83.9355 147.959C83.5558 147.959 83.1774 147.848 82.851 147.633C81.6869 146.864 78.6778 144.671 75.872 140.919C75.4318 140.33 75.3558 139.553 75.6743 138.89C75.9915 138.23 76.6418 137.805 77.3723 137.781C80.0575 137.69 85.3224 137.771 90.4117 139.314C91.0118 139.496 91.4772 139.94 91.6884 140.531C91.8966 141.114 91.8152 141.77 91.4698 142.285C90.476 143.768 88.2636 146.459 84.6121 147.836C84.3935 147.919 84.1645 147.959 83.9355 147.959ZM77.8744 139.949C80.3251 143.126 82.8682 145.019 83.9594 145.75C86.7847 144.648 88.5844 142.598 89.4883 141.316C85.0457 140.022 80.472 139.889 77.8744 139.949Z" fill="#000072"/>
<g opacity="0.3">
<path d="M86.4993 145.047C85.5036 144.389 82.677 142.351 80.0023 138.862C78.9821 138.837 78.0954 138.848 77.409 138.871C76.706 138.894 76.3245 139.703 76.7458 140.267C79.4812 143.924 82.4303 146.048 83.4517 146.723C83.6813 146.875 83.9697 146.913 84.2269 146.816C85.4002 146.374 86.4093 145.782 87.2703 145.142C87.0143 145.237 86.7277 145.198 86.4993 145.047Z" fill="#000072"/>
</g>
<path d="M85.5404 131.41C84.68 131.41 83.982 130.713 83.982 129.852V110.574C83.982 109.713 84.68 110.048 85.5404 110.048C86.4007 110.048 87.0988 109.713 87.0988 110.574V129.852C87.0988 130.713 86.4007 131.41 85.5404 131.41Z" fill="white"/>
<path d="M85.5403 132.176C84.2587 132.176 83.2165 131.133 83.2165 129.852V110.574C83.2165 110.126 83.3512 109.776 83.6176 109.535C84.0364 109.154 84.5679 109.206 85.037 109.251C85.3676 109.282 85.713 109.282 86.0437 109.251C86.5127 109.206 87.0449 109.154 87.4631 109.535C87.7295 109.777 87.8642 110.126 87.8642 110.574V129.852C87.8642 131.133 86.822 132.176 85.5403 132.176ZM84.7473 110.761V129.852C84.7473 130.289 85.1031 130.645 85.5403 130.645C85.9775 130.645 86.3333 130.289 86.3333 129.852V110.761C86.2843 110.765 86.2347 110.77 86.19 110.774C85.9984 110.792 85.7804 110.813 85.5403 110.813C85.3003 110.813 85.0823 110.792 84.8906 110.774C84.8459 110.77 84.7963 110.765 84.7473 110.761Z" fill="#000072"/>
<path d="M87.0987 114.81C86.986 114.81 86.8733 114.769 86.7845 114.686L83.6677 111.764C83.4828 111.59 83.4729 111.299 83.6469 111.115C83.8202 110.93 84.1104 110.92 84.296 111.094L87.4128 114.016C87.5977 114.189 87.6075 114.48 87.4336 114.665C87.343 114.762 87.2212 114.81 87.0987 114.81Z" fill="#000072"/>
<path d="M87.0987 118.389C86.986 118.389 86.8733 118.348 86.7845 118.265L83.6677 115.343C83.4828 115.169 83.4729 114.879 83.6469 114.694C83.8202 114.509 84.1104 114.499 84.296 114.673L87.4128 117.595C87.5977 117.768 87.6075 118.059 87.4336 118.244C87.343 118.34 87.2212 118.389 87.0987 118.389Z" fill="#000072"/>
<path d="M87.0987 121.968C86.986 121.968 86.8733 121.927 86.7845 121.843L83.6677 118.921C83.4828 118.748 83.4729 118.457 83.6469 118.272C83.8202 118.087 84.1104 118.078 84.296 118.251L87.4128 121.174C87.5977 121.347 87.6075 121.638 87.4336 121.823C87.343 121.919 87.2212 121.968 87.0987 121.968Z" fill="#000072"/>
<path d="M87.0987 125.546C86.986 125.546 86.8733 125.505 86.7845 125.422L83.6677 122.5C83.4828 122.327 83.4729 122.036 83.6469 121.851C83.8202 121.666 84.1104 121.656 84.296 121.83L87.4128 124.752C87.5977 124.925 87.6075 125.216 87.4336 125.401C87.343 125.498 87.2212 125.546 87.0987 125.546Z" fill="#000072"/>
<path d="M87.0987 129.125C86.986 129.125 86.8733 129.084 86.7845 129.001L83.6677 126.079C83.4828 125.905 83.4729 125.614 83.6469 125.429C83.8202 125.245 84.1104 125.235 84.296 125.409L87.4128 128.331C87.5977 128.504 87.6075 128.795 87.4336 128.98C87.343 129.077 87.2212 129.125 87.0987 129.125Z" fill="#000072"/>
<g opacity="0.3">
<path d="M25.5932 36.0808C25.5932 36.0808 74.0075 15.5138 105.493 75.8505C106.083 74.8585 106.344 74.1837 106.344 74.1837C85.4878 15.0686 25.5938 32.1072 25.5938 32.1072C25.5938 32.1072 13.5422 28.315 10.0616 42.0812L12.0903 41.0525C16.8293 33.3252 25.5932 36.0808 25.5932 36.0808Z" fill="#000072"/>
</g>
<path d="M32.5873 56.7268C29.98 55.8578 27.0205 58.475 25.977 62.5716C24.9336 66.6683 26.2018 70.6939 28.8091 71.5628C31.4165 72.4317 34.376 69.8145 35.4195 65.7179C36.4635 61.6207 35.1953 57.5951 32.5873 56.7268Z" fill="#000072"/>
<path d="M32.1188 58.4358C31.2113 58.6348 30.6173 59.9777 30.7925 61.4351C30.9676 62.8925 31.8457 63.9121 32.7538 63.7131C33.6613 63.514 34.2553 62.1712 34.0802 60.7138C33.9044 59.2564 33.0263 58.2368 32.1188 58.4358Z" fill="white"/>
<path d="M27.8219 66.7981C27.3694 67.0326 27.1942 67.8054 27.4306 68.5249C27.667 69.2444 28.2248 69.6375 28.6773 69.4036C29.1299 69.1697 29.305 68.3963 29.0686 67.6768C28.8323 66.9573 28.2744 66.5642 27.8219 66.7981Z" fill="#B199C5"/>
<path d="M50.1356 67.4607C49.9605 66.7105 50.2036 65.8992 50.5753 65.2476C50.9525 64.5844 51.4675 64.0284 52.0382 63.5587C52.6095 63.0854 53.2482 62.7076 53.9285 62.4094C54.6101 62.1142 55.3333 61.8889 56.0993 61.7842C56.8635 61.6825 57.6725 61.6794 58.4857 61.8601C59.297 62.0328 60.1041 62.4039 60.7771 62.9556C61.4506 63.5043 61.9797 64.233 62.2718 65.0272C62.5682 65.8189 62.6576 66.6689 62.5082 67.46C62.4078 67.9928 61.8952 68.343 61.3625 68.2426C60.9926 68.1728 60.7103 67.904 60.6062 67.5672L60.5738 67.46C60.2657 66.4546 59.7446 65.6854 59.0306 65.2188C58.3319 64.7424 57.4122 64.5238 56.3553 64.5403C55.3057 64.5734 54.1784 64.8282 53.1435 65.285C52.6285 65.5171 52.1319 65.7951 51.6977 66.1416C51.266 66.4919 50.9005 66.9028 50.7051 67.46L50.6947 67.4907C50.6414 67.6425 50.4749 67.7221 50.3236 67.6688C50.2263 67.6352 50.1583 67.5537 50.1356 67.4607Z" fill="#000072"/>
<g opacity="0.3">
<path d="M116.445 42.726C116.416 42.8491 116.387 42.9722 116.358 43.0953C114.407 51.2554 104.034 53.771 98.5516 47.4197C86.7363 33.7312 72.5396 27.4693 59.42 24.9807C60.2981 21.8792 60.9013 18.9258 61.3091 16.4335C61.9576 12.4722 59.5418 8.68178 55.6834 7.61629C52.1765 6.64878 48.7216 6.42527 45.7211 6.53794C47.9892 6.62612 50.4215 6.93842 52.8782 7.61629C56.7367 8.68239 59.1524 12.4722 58.5039 16.4335C58.3251 17.5253 58.1089 18.7053 57.8487 19.9478C57.3178 22.4793 54.9719 24.2287 52.3976 23.9765C45.2992 23.2802 38.7434 23.5686 33.3437 24.1951C34.9156 19.0715 36.9326 14.8953 38.0581 12.7557C38.1892 12.4998 38.4292 12.313 38.7066 12.2383C40.0605 11.888 42.5975 11.3455 45.696 11.2108C41.3532 11.0167 37.646 11.787 35.9014 12.2383C35.624 12.313 35.384 12.4998 35.253 12.7557C34.3834 14.4079 33.441 16.1353 32.3504 19.153C31.6462 21.1009 30.0798 22.6428 28.0848 23.2006C26.3586 23.6838 24.7144 24.4627 23.3966 25.8986C21.9478 29.419 21.4347 31.6412 21.4347 31.6412L24.2325 33.0937C32.2757 29.8097 42.9698 27.3272 55.286 29.1343C55.2413 29.2592 55.1978 29.3835 55.1525 29.5084C56.1041 29.6572 56.9877 29.8146 57.7875 29.9726C57.8364 29.8422 57.883 29.7123 57.9307 29.5819C60.4242 30.0657 62.979 30.7288 65.5876 31.5996C98.3091 42.5196 107.773 76.4696 107.773 76.4696C113.822 68.8207 115.823 54.7838 116.485 46.3358C116.579 45.1264 116.563 43.9195 116.445 42.726Z" fill="#000072"/>
</g>
<path d="M36.6057 139.444C36.1525 140.169 35.6486 140.87 35.0864 141.548C34.5145 142.222 33.9034 142.88 33.051 143.448L32.9916 143.488C32.4741 143.834 31.7742 143.694 31.4289 143.176C31.0835 142.659 31.2231 141.959 31.7412 141.613C31.8863 141.516 32.051 141.457 32.2127 141.434C32.8954 141.34 33.6713 141.044 34.4122 140.692C35.1562 140.333 35.8941 139.913 36.6057 139.444Z" fill="#000072"/>
</svg>
