<svg width="167" height="178" viewBox="0 0 167 178" fill="none" xmlns="http://www.w3.org/2000/svg">
<path opacity="0.2" d="M81.2664 177.504C112.001 177.504 136.917 175.625 136.917 173.308C136.917 170.991 112.001 169.112 81.2664 169.112C50.5315 169.112 25.6159 170.991 25.6159 173.308C25.6159 175.625 50.5315 177.504 81.2664 177.504Z" fill="#000072"/>
<path d="M1.07352 98.2648L48.6761 49.4259L77.7477 82.5535C77.7477 82.5535 146.141 67.7824 165.925 74.4968L128.506 132.825L48.6761 131.566L1.07352 98.2648Z" fill="white"/>
<g opacity="0.3">
<path d="M1.07352 98.2648L48.6761 49.4259L77.7477 82.5535C77.7477 82.5535 146.141 67.7824 165.925 74.4968L128.506 132.825L48.6761 131.566L1.07352 98.2648Z" fill="#000072"/>
</g>
<path d="M128.506 133.899C128.5 133.899 128.494 133.899 128.489 133.899L48.659 132.641C48.4443 132.637 48.2361 132.569 48.0603 132.446L0.458278 99.1449C0.199943 98.9644 0.0342112 98.6789 0.00472095 98.3657C-0.0247693 98.052 0.0849325 97.7406 0.30493 97.5153L47.9076 48.6764C48.1163 48.4623 48.4071 48.3449 48.705 48.3526C49.0046 48.3603 49.2871 48.493 49.4841 48.7183L78.1398 81.3723C85.4587 79.8175 147.214 67.0123 166.271 73.4807C166.584 73.5868 166.831 73.831 166.94 74.143C167.049 74.455 167.008 74.7995 166.83 75.0779L129.41 133.406C129.212 133.713 128.871 133.899 128.506 133.899ZM49.0223 130.497L127.925 131.742L164.252 75.1162C143.384 69.5956 78.6412 83.4596 77.9747 83.6041C77.5925 83.6867 77.1973 83.5557 76.9407 83.2626L48.6354 51.0073L2.72608 98.1092L49.0223 130.497Z" fill="#000072"/>
<path d="M1.07413 98.2649V107.933L48.6762 137.072V127.773L1.07413 98.2649Z" fill="#39A1FF"/>
<g opacity="0.3">
<path d="M44.9161 125.442C44.9161 127.672 42.4732 129.041 40.571 127.877L1.07352 103.699V107.933L48.6761 137.072V127.773L44.9161 125.442Z" fill="#000072"/>
</g>
<path d="M48.6761 138.146C48.4814 138.146 48.2874 138.093 48.1152 137.988L0.513132 108.849C0.194047 108.654 0 108.307 0 107.933V98.265C0 97.8751 0.211149 97.5159 0.551467 97.3266C0.892375 97.1367 1.30878 97.1467 1.64025 97.352L49.2423 126.86C49.5584 127.056 49.7507 127.401 49.7507 127.773V137.072C49.7507 137.461 49.5407 137.819 49.2016 138.009C49.0382 138.1 48.8571 138.146 48.6761 138.146ZM2.14807 107.331L47.602 135.154V128.37L2.14807 100.194V107.331Z" fill="#000072"/>
<path d="M48.676 127.773V137.072L128.506 137.877V127.773H48.676Z" fill="#39A1FF"/>
<g opacity="0.3">
<path d="M60.297 133.22C56.6667 133.184 53.572 130.94 52.2785 127.773H48.6766V137.072L128.506 137.877V133.909L60.297 133.22Z" fill="#000072"/>
</g>
<path d="M128.506 138.951C128.502 138.951 128.499 138.951 128.495 138.951L48.6655 138.146C48.0763 138.14 47.6021 137.66 47.6021 137.072V127.773C47.6021 127.179 48.0828 126.699 48.6761 126.699H128.506C129.099 126.699 129.58 127.179 129.58 127.773V137.877C129.58 138.164 129.465 138.439 129.261 138.641C129.06 138.84 128.789 138.951 128.506 138.951ZM49.7501 136.008L127.432 136.792V128.847H49.7501V136.008Z" fill="#000072"/>
<path d="M165.925 74.4969L128.506 127.773V137.877L165.925 86.7955V74.4969Z" fill="#FF926B"/>
<path d="M165.925 74.4969L128.506 127.773V137.877L165.925 86.7955V74.4969Z" fill="#39A1FF"/>
<g opacity="0.3">
<path d="M128.506 137.877L165.925 86.7955V82.2304L128.506 133.312V137.877Z" fill="#000072"/>
</g>
<path d="M128.506 138.951C128.394 138.951 128.281 138.934 128.172 138.898C127.73 138.754 127.432 138.342 127.432 137.877V127.773C127.432 127.552 127.499 127.336 127.627 127.155L165.046 73.8793C165.315 73.4959 165.802 73.3308 166.25 73.4723C166.696 73.6139 167 74.0279 167 74.4968V86.7954C167 87.0237 166.927 87.2461 166.792 87.4301L129.373 138.511C129.166 138.793 128.841 138.951 128.506 138.951ZM129.58 128.113V134.593L164.851 86.4445V77.8959L129.58 128.113Z" fill="#000072"/>
<path d="M48.6763 127.773L78.5493 81.0686C78.5493 81.0686 80.225 53.6638 45.5426 45.8188L3.17746 98.0414C3.17746 98.0408 29.4964 100.279 48.6763 127.773Z" fill="white"/>
<g opacity="0.3">
<path d="M48.6763 127.773L78.5493 81.0686C78.5493 81.0686 80.225 53.6638 45.5426 45.8188L3.17746 98.0414C3.17746 98.0408 29.4964 100.279 48.6763 127.773Z" fill="#000072"/>
</g>
<path d="M48.6762 128.847C48.3252 128.847 47.9961 128.675 47.795 128.387C38.0549 114.425 26.4263 107.211 18.3855 103.617C9.65873 99.7176 3.15022 99.1172 3.08535 99.1113C2.689 99.0771 2.34396 98.827 2.18884 98.4608C2.03372 98.0945 2.0927 97.6728 2.34278 97.3643L44.7079 45.1417C44.9657 44.8244 45.3797 44.6799 45.779 44.7707C64.1049 48.9159 72.335 58.551 76.0119 65.9047C80.0113 73.903 79.6386 80.8421 79.6209 81.134C79.6097 81.3163 79.5525 81.4932 79.454 81.6472L49.5809 128.352C49.3875 128.654 49.056 128.84 48.6974 128.847C48.6903 128.847 48.6832 128.847 48.6762 128.847ZM5.211 97.2399C7.84036 97.6881 12.9198 98.8323 19.1711 101.615C27.232 105.203 38.7751 112.301 48.6284 125.854L77.4846 80.7383C77.5053 79.4277 77.3973 73.4229 74.0425 66.7693C69.0592 56.8865 59.6111 50.2424 45.9542 47.0161L5.211 97.2399Z" fill="#000072"/>
<path d="M48.6763 127.773L78.5493 81.0685C78.5493 81.0685 80.225 53.6638 45.5426 45.8188L2.01379 92.9383C2.01379 92.9377 36.8371 93.8337 48.6763 127.773Z" fill="white"/>
<g opacity="0.3">
<path d="M49.489 127.773L78.5499 81.0685C78.5499 81.0685 80.1795 53.6638 46.4409 45.8188L4.09576 92.9383C4.09517 92.9377 37.9718 93.8337 49.489 127.773Z" fill="#000072"/>
</g>
<path d="M48.676 128.847C48.6341 128.847 48.5929 128.845 48.5504 128.84C48.1422 128.791 47.7966 128.515 47.661 128.127C42.8629 114.372 33.741 104.453 20.5482 98.6447C10.663 94.2926 2.07075 94.0142 1.98523 94.0118C1.56411 94 1.18781 93.7435 1.02385 93.3554C0.859881 92.9673 0.938327 92.519 1.22438 92.2094L44.7532 45.0898C45.0139 44.8079 45.405 44.6864 45.7795 44.7707C64.1053 48.9159 72.3355 58.5509 76.0123 65.9046C80.0118 73.903 79.6391 80.842 79.6214 81.134C79.6102 81.3162 79.5529 81.4932 79.4544 81.6471L49.5814 128.352C49.382 128.662 49.0393 128.847 48.676 128.847ZM4.30848 92.0371C7.59251 92.3904 14.065 93.4556 21.3368 96.6441C30.4575 100.644 42.4719 108.851 48.9349 125.375L77.4851 80.7382C77.5057 79.4277 77.3978 73.4229 74.043 66.7693C69.0538 56.8753 59.591 50.2282 45.9086 47.0055L4.30848 92.0371Z" fill="#000072"/>
<path d="M48.676 127.773L78.5491 81.0684C78.5491 81.0684 80.2247 53.6637 45.5424 45.8187L4.09497 88.5294C4.09497 88.5294 42.4766 87.3876 48.676 127.773Z" fill="white"/>
<g opacity="0.3">
<path d="M50.1181 127.773L78.5497 81.0684C78.5497 81.0684 80.1439 53.6637 47.1354 45.8187L7.68747 88.5294C7.68806 88.5294 44.2177 87.3876 50.1181 127.773Z" fill="#000072"/>
</g>
<path d="M48.676 128.847C48.6023 128.847 48.5279 128.839 48.4536 128.823C48.016 128.731 47.6816 128.377 47.6137 127.936C45.1059 111.599 37.0562 100.187 23.6871 94.0177C13.658 89.3889 4.21879 89.5995 4.1256 89.6036C3.68148 89.6142 3.28749 89.3618 3.11173 88.9625C2.93537 88.5626 3.01912 88.0955 3.32346 87.7817L44.7709 45.0709C45.0316 44.802 45.4138 44.6887 45.7789 44.7713C64.1047 48.9164 72.3349 58.5515 76.0117 65.9052C80.0112 73.9036 79.6384 80.8426 79.6207 81.1346C79.6095 81.3168 79.5523 81.4938 79.4538 81.6477L49.5807 128.353C49.3808 128.665 49.0375 128.847 48.676 128.847ZM6.56917 87.5222C10.1493 87.7439 17.1007 88.6281 24.5087 92.0306C30.6828 94.8664 35.8725 98.87 39.9327 103.932C44.4966 109.62 47.6267 116.655 49.2569 124.871L77.4845 80.7388C77.5051 79.4283 77.3972 73.4235 74.0423 66.7699C69.0514 56.8717 59.5827 50.2229 45.8909 47.0019L6.56917 87.5222Z" fill="#000072"/>
<path d="M81.4361 78.1808L48.676 127.772C62.7977 119.615 86.0278 113.367 124.746 122.837L161.655 74.4904C161.655 74.491 118.963 50.7118 81.4361 78.1808Z" fill="white"/>
<g opacity="0.3">
<path d="M81.4361 78.1808L48.676 127.772C62.5034 119.785 84.2106 111.524 121.457 120.074C122.938 120.413 124.483 119.877 125.445 118.702L161.655 74.491C161.655 74.491 118.963 50.7118 81.4361 78.1808Z" fill="#000072"/>
</g>
<path d="M48.6767 128.847C48.3877 128.847 48.1028 128.731 47.894 128.509C47.5525 128.146 47.5053 127.597 47.7796 127.181L80.5397 77.5887C80.6099 77.4826 80.699 77.3894 80.8016 77.3139C89.4953 70.9505 99.19 66.7929 109.616 64.958C117.945 63.4918 126.752 63.4977 135.792 64.9751C151.164 67.4877 161.735 73.3061 162.178 73.5527C162.45 73.7043 162.643 73.9673 162.707 74.2722C162.77 74.5778 162.698 74.8951 162.509 75.1434L125.6 123.49C125.341 123.829 124.905 123.983 124.491 123.881C93.2896 116.25 67.9627 117.872 49.2134 128.703C49.0453 128.8 48.8601 128.847 48.6767 128.847ZM82.226 78.9347L51.91 124.826C70.5697 115.618 94.898 114.541 124.317 121.629L160.024 74.8573C156.927 73.3179 147.604 69.0719 135.373 67.0837C121.614 64.8471 101.243 65.0931 82.226 78.9347Z" fill="#000072"/>
<path d="M81.4362 78.1808L50.3334 125.264C57.5166 115.907 83.9688 107.817 122.687 117.287L158.495 70.1995C158.495 70.2001 118.963 50.7118 81.4362 78.1808Z" fill="white"/>
<g opacity="0.3">
<path d="M80.2654 76.2444L57.7584 110.315C56.0686 112.873 58.6508 116.079 61.5172 114.992C73.9373 110.28 94.0951 108.43 119.858 114.4C121.065 114.679 122.324 114.224 123.075 113.238L155.172 71.0306C155.103 69.0081 154.576 67.4268 153.772 66.1741C144.253 51.3594 89.1532 72.0733 81.5677 74.9769C81.133 75.3998 80.6989 75.8221 80.2654 76.2444Z" fill="#000072"/>
</g>
<path d="M50.3328 126.338C50.1169 126.338 49.8987 126.273 49.7099 126.139C49.2387 125.803 49.1184 125.155 49.4369 124.672L80.5397 77.5887C80.6098 77.4825 80.6989 77.3893 80.8015 77.3138C89.4805 70.961 98.9917 66.5817 109.071 64.2974C117.131 62.4708 125.567 61.9748 134.144 62.8205C148.744 64.2614 158.559 69.0341 158.97 69.2364C159.257 69.3786 159.467 69.6416 159.541 69.9537C159.614 70.2657 159.544 70.5948 159.35 70.8502L123.542 117.937C123.283 118.278 122.847 118.432 122.432 118.331C82.3055 108.517 57.4358 117.776 51.1856 125.917C50.9745 126.193 50.6554 126.338 50.3328 126.338ZM82.2259 78.9346L55.3945 119.552C60.1743 116.648 66.7677 114.415 74.5119 113.155C84.2212 111.577 100.353 110.818 122.257 116.078L156.821 70.6266C153.784 69.3308 145.218 66.0609 133.85 64.9503C120.797 63.6758 101.26 65.0712 82.2259 78.9346Z" fill="#000072"/>
<path d="M81.4362 78.1808L50.8642 124.204C58.0475 114.848 82.6707 102.088 121.389 111.558L156.257 65.8137C156.257 65.8137 118.963 50.7118 81.4362 78.1808Z" fill="white"/>
<path d="M50.8637 125.279C50.6472 125.279 50.429 125.214 50.2397 125.079C49.7684 124.742 49.6493 124.093 49.9696 123.61L80.5415 77.5864C80.6117 77.4808 80.6996 77.3888 80.8016 77.3139C100.431 62.9456 119.993 60.3092 132.945 60.6224C146.994 60.9651 156.272 64.6608 156.66 64.8177C156.97 64.9433 157.204 65.2064 157.293 65.5296C157.381 65.8528 157.314 66.1984 157.111 66.4644L122.243 112.209C121.984 112.549 121.548 112.703 121.134 112.601C104.288 108.482 88.1896 108.224 74.578 111.859C59.5427 115.874 53.2784 122.824 51.7166 124.858C51.5054 125.134 51.1869 125.279 50.8637 125.279ZM82.2248 78.9353L56.6066 117.501C68.2942 109.409 90.6378 103.108 120.96 110.349L154.512 66.3305C151.469 65.3143 143.475 63.0164 132.802 62.7681C120.237 62.4691 101.281 65.0477 82.2248 78.9353Z" fill="#000072"/>
<path d="M81.4363 78.1809L50.8643 124.205C58.0476 114.848 82.6708 102.088 121.389 111.559L156.257 65.8138C156.257 65.8138 118.963 50.7119 81.4363 78.1809Z" fill="white"/>
<path d="M50.8637 125.279C50.6472 125.279 50.429 125.214 50.2397 125.079C49.7684 124.742 49.6493 124.093 49.9696 123.61L80.5415 77.5864C80.6117 77.4808 80.6996 77.3888 80.8016 77.3139C100.431 62.9456 119.993 60.3092 132.945 60.6224C146.994 60.9651 156.272 64.6608 156.66 64.8177C156.97 64.9433 157.204 65.2064 157.293 65.5296C157.381 65.8528 157.314 66.1984 157.111 66.4644L122.243 112.209C121.984 112.549 121.548 112.703 121.134 112.601C104.288 108.482 88.1896 108.224 74.578 111.859C59.5427 115.874 53.2784 122.824 51.7166 124.858C51.5054 125.134 51.1869 125.279 50.8637 125.279ZM82.2248 78.9353L56.6066 117.501C68.2942 109.409 90.6378 103.108 120.96 110.349L154.512 66.3305C151.469 65.3143 143.475 63.0164 132.802 62.7681C120.237 62.4691 101.281 65.0477 82.2248 78.9353Z" fill="#000072"/>
<g opacity="0.3">
<path d="M79.3967 76.9021L49.253 119.36C54.1519 117.408 59.0514 115.455 63.9503 113.502C68.9554 110.937 75.2846 108.439 82.8064 107.006C93.1652 105.033 101.877 105.824 104.962 106.335C110.12 107.189 113.859 107.807 115.617 108.273C115.694 108.293 115.909 108.351 116.209 108.387C117.916 108.589 119.435 107.738 120.543 106.868L153.17 65.4923C153.17 65.4929 116.399 51.5611 79.3967 76.9021Z" fill="#000072"/>
</g>
<path d="M81.4363 78.1808L50.8643 124.205C58.0476 114.848 77.9523 95.9109 116.67 105.381L151.244 60.5108C151.244 60.5108 118.963 50.7118 81.4363 78.1808Z" fill="white"/>
<path d="M50.8637 125.279C50.6472 125.279 50.429 125.214 50.2397 125.079C49.7684 124.742 49.6493 124.092 49.9696 123.61L80.5415 77.5863C80.6117 77.4807 80.6996 77.3887 80.8016 77.3138C100.391 62.975 118.548 58.8824 130.33 57.9735C143.146 56.9867 151.219 59.3802 151.556 59.4828C151.894 59.5854 152.159 59.8473 152.267 60.1835C152.375 60.5197 152.31 60.8871 152.095 61.1667L117.521 106.037C117.262 106.374 116.827 106.526 116.415 106.425C78.0054 97.0304 58.3743 116.187 51.7166 124.859C51.5054 125.133 51.1869 125.279 50.8637 125.279ZM82.2248 78.9352L58.3247 114.915C61.8476 111.977 66.2075 109.085 71.5087 106.75C84.4284 101.058 99.4767 100.192 116.245 104.174L149.388 61.159C146.486 60.5268 139.665 59.3961 130.385 60.1245C118.937 61.0234 101.302 65.0187 82.2248 78.9352Z" fill="#000072"/>
<path d="M50.8642 124.205L81.4362 78.1808C81.4362 78.1808 81.2828 43.3239 47.1655 41.581L7.58661 82.4864C7.58602 82.4864 44.9284 78.573 50.8642 124.205Z" fill="white"/>
<path d="M50.8643 125.278C50.7835 125.278 50.7021 125.27 50.6207 125.251C50.1843 125.149 49.8569 124.787 49.7985 124.343C47.3927 105.85 39.5978 93.3688 26.6292 87.2472C16.9304 82.6686 7.78785 83.5456 7.69643 83.5551C7.247 83.5981 6.81703 83.3616 6.61944 82.9558C6.42245 82.55 6.49912 82.064 6.81349 81.7396L46.3924 40.8343C46.6077 40.6113 46.9073 40.4863 47.2193 40.5087C65.3694 41.4359 74.0095 51.6572 78.0614 60.069C82.4195 69.1154 82.508 77.8109 82.5092 78.1766C82.5103 78.3895 82.4478 78.5983 82.3298 78.7759L51.7579 124.8C51.5573 125.103 51.2188 125.278 50.8643 125.278ZM10.2055 81.325C13.7803 81.3622 20.4103 81.9573 27.4555 85.2614C33.4751 88.0842 38.5268 92.306 42.4708 97.8095C46.9333 104.037 49.9713 111.922 51.5184 121.278L80.3534 77.8699C80.2927 76.2444 79.8132 68.6147 76.095 60.9354C70.6269 49.6406 61.0402 43.5008 47.5956 42.6821L10.2055 81.325Z" fill="#000072"/>
<g opacity="0.3">
<path d="M86.6908 99.8774C81.8054 100.75 77.8596 97.1631 77.3878 92.9206C78.8871 92.4393 80.4577 92.0318 81.9906 91.7976C83.8385 91.5151 85.5 90.4411 86.3664 88.7849C86.7356 88.0783 86.9302 87.3334 86.6996 86.6716C86.2667 85.426 82.9178 85.4596 79.527 86.4127L87.6492 73.9377C85.5973 75.2441 83.5253 76.6514 81.4362 78.1808C81.4362 78.1808 81.4215 75.2813 80.5863 71.1161L70.7076 86.2434C69.3835 85.101 67.7657 84.0641 66.1998 83.9857C65.3044 83.9408 64.4988 84.1874 63.8175 84.612C61.3905 86.1272 61.4601 89.6773 63.8341 91.2757C64.441 91.6844 65.1523 92.2305 65.8942 92.9401C59.4671 99.3483 48.7592 99.4863 42.0856 92.6776C33.2627 83.6766 20.3418 80.0428 11.3691 78.576L7.58606 82.4858C7.58606 82.4858 44.9284 78.5718 50.8642 124.204C58.0475 114.847 77.9522 95.9103 116.67 105.381L118.948 102.425C107.821 97.8992 96.1666 98.184 86.6908 99.8774Z" fill="#000072"/>
</g>
<g opacity="0.55">
<mask id="mask0_79_17899" style="mask-type:luminance" maskUnits="userSpaceOnUse" x="71" y="22" width="40" height="43">
<path d="M110.243 41.9125C110.243 47.81 107.606 53.0899 103.452 56.6429C101.107 58.6465 99.0153 60.9102 97.24 63.4163L97.1645 63.3626C96.3022 64.4879 91.0842 64.3511 85.0016 62.9892C78.8894 61.6221 74.0925 59.5112 73.8318 58.1257C73.8318 58.0691 73.8289 58.0131 73.8236 57.9594V57.9488C73.6407 54.2241 73.0957 50.5261 72.1344 46.9165C71.6802 45.219 71.452 43.4307 71.4844 41.5799C71.659 31.0283 80.3981 22.4826 90.9497 22.5309C101.615 22.5787 110.243 31.2371 110.243 41.9125Z" fill="white"/>
</mask>
<g mask="url(#mask0_79_17899)">
<path d="M110.243 22.4821H71.4525V64.4874H110.243V22.4821Z" fill="#FFE610"/>
</g>
<mask id="mask1_79_17899" style="mask-type:luminance" maskUnits="userSpaceOnUse" x="71" y="22" width="40" height="43">
<path d="M110.243 41.9125C110.243 47.81 107.606 53.0899 103.452 56.6429C101.107 58.6465 99.0153 60.9102 97.24 63.4163L97.1645 63.3626C96.3022 64.4879 91.0842 64.3511 85.0016 62.9892C78.8894 61.6221 74.0925 59.5112 73.8318 58.1257C73.8318 58.0691 73.8289 58.0131 73.8236 57.9594V57.9488C73.6407 54.2241 73.0957 50.5261 72.1344 46.9165C71.6802 45.219 71.452 43.4307 71.4844 41.5799C71.659 31.0283 80.3981 22.4826 90.9497 22.5309C101.615 22.5787 110.243 31.2371 110.243 41.9125Z" fill="white"/>
</mask>
<g mask="url(#mask1_79_17899)">
<path d="M82.7721 64.783H76.8098V66.2934C74.8664 65.765 72.9678 65.1433 71.1187 64.4344H71.1577V22.1872H110.538V64.7824H82.7721V64.783Z" fill="#FFE610"/>
</g>
<mask id="mask2_79_17899" style="mask-type:luminance" maskUnits="userSpaceOnUse" x="71" y="22" width="40" height="43">
<path d="M110.243 41.9125C110.243 47.81 107.606 53.0899 103.452 56.6429C101.107 58.6465 99.0153 60.9102 97.24 63.4163L97.1645 63.3626C96.3022 64.4879 91.0842 64.3511 85.0016 62.9892C78.8894 61.6221 74.0925 59.5112 73.8318 58.1257C73.8318 58.0691 73.8289 58.0131 73.8236 57.9594V57.9488C73.6407 54.2241 73.0957 50.5261 72.1344 46.9165C71.6802 45.219 71.452 43.4307 71.4844 41.5799C71.659 31.0283 80.3981 22.4826 90.9497 22.5309C101.615 22.5787 110.243 31.2371 110.243 41.9125Z" fill="white"/>
</mask>
<g mask="url(#mask2_79_17899)">
<path d="M82.9132 66.7429C78.9126 66.0799 75.0735 65.0271 71.4285 63.6299C70.9732 63.4553 70.5202 63.2754 70.0708 63.0896H71.1578V22.1872H110.539V64.327H111.696C109.906 64.9469 108.081 65.4819 106.226 65.9278V64.783H82.9126V66.7429H82.9132Z" fill="#FFE611"/>
</g>
<mask id="mask3_79_17899" style="mask-type:luminance" maskUnits="userSpaceOnUse" x="71" y="22" width="40" height="43">
<path d="M110.243 41.9125C110.243 47.81 107.606 53.0899 103.452 56.6429C101.107 58.6465 99.0153 60.9102 97.24 63.4163L97.1645 63.3626C96.3022 64.4879 91.0842 64.3511 85.0016 62.9892C78.8894 61.6221 74.0925 59.5112 73.8318 58.1257C73.8318 58.0691 73.8289 58.0131 73.8236 57.9594V57.9488C73.6407 54.2241 73.0957 50.5261 72.1344 46.9165C71.6802 45.219 71.452 43.4307 71.4844 41.5799C71.659 31.0283 80.3981 22.4826 90.9497 22.5309C101.615 22.5787 110.243 31.2371 110.243 41.9125Z" fill="white"/>
</mask>
<g mask="url(#mask3_79_17899)">
<path d="M83.0541 65.8924C79.1119 65.2389 75.3294 64.2014 71.7381 62.8248C71.2893 62.6526 70.8434 62.475 70.4004 62.2928H71.1577V22.1872H110.538V63.5119H111.415C109.651 64.123 107.852 64.6497 106.025 65.0891V64.7824H83.0535V65.8924H83.0541Z" fill="#FFE512"/>
</g>
<mask id="mask4_79_17899" style="mask-type:luminance" maskUnits="userSpaceOnUse" x="71" y="22" width="40" height="43">
<path d="M110.243 41.9125C110.243 47.81 107.606 53.0899 103.452 56.6429C101.107 58.6465 99.0153 60.9102 97.24 63.4163L97.1645 63.3626C96.3022 64.4879 91.0842 64.3511 85.0016 62.9892C78.8894 61.6221 74.0925 59.5112 73.8318 58.1257C73.8318 58.0691 73.8289 58.0131 73.8236 57.9594V57.9488C73.6407 54.2241 73.0957 50.5261 72.1344 46.9165C71.6802 45.219 71.452 43.4307 71.4844 41.5799C71.659 31.0283 80.3981 22.4826 90.9497 22.5309C101.615 22.5787 110.243 31.2371 110.243 41.9125Z" fill="white"/>
</mask>
<g mask="url(#mask4_79_17899)">
<path d="M83.195 65.0419C79.3117 64.3984 75.5853 63.3763 72.0476 62.0197C71.1629 61.6806 70.2906 61.3208 69.4301 60.9404H71.1576V22.1872H110.538V62.6968H111.133C109.396 63.2984 107.624 63.818 105.823 64.2504C98.6219 65.982 90.9615 66.3294 83.195 65.0419Z" fill="#FFE513"/>
</g>
<mask id="mask5_79_17899" style="mask-type:luminance" maskUnits="userSpaceOnUse" x="71" y="22" width="40" height="43">
<path d="M110.243 41.9125C110.243 47.81 107.606 53.0899 103.452 56.6429C101.107 58.6465 99.0153 60.9102 97.24 63.4163L97.1645 63.3626C96.3022 64.4879 91.0842 64.3511 85.0016 62.9892C78.8894 61.6221 74.0925 59.5112 73.8318 58.1257C73.8318 58.0691 73.8289 58.0131 73.8236 57.9594V57.9488C73.6407 54.2241 73.0957 50.5261 72.1344 46.9165C71.6802 45.219 71.452 43.4307 71.4844 41.5799C71.659 31.0283 80.3981 22.4826 90.9497 22.5309C101.615 22.5787 110.243 31.2371 110.243 41.9125Z" fill="white"/>
</mask>
<g mask="url(#mask5_79_17899)">
<path d="M83.3361 64.1914C79.5112 63.5573 75.8414 62.5511 72.3568 61.2152C71.4857 60.8814 70.6264 60.5269 69.7788 60.1524H71.1578V22.1872H110.539V61.8817H110.852C109.141 62.4745 107.396 62.9858 105.622 63.4122C98.5301 65.1168 90.9853 65.4595 83.3361 64.1914Z" fill="#FEE414"/>
</g>
<mask id="mask6_79_17899" style="mask-type:luminance" maskUnits="userSpaceOnUse" x="71" y="22" width="40" height="43">
<path d="M110.243 41.9125C110.243 47.81 107.606 53.0899 103.452 56.6429C101.107 58.6465 99.0153 60.9102 97.24 63.4163L97.1645 63.3626C96.3022 64.4879 91.0842 64.3511 85.0016 62.9892C78.8894 61.6221 74.0925 59.5112 73.8318 58.1257C73.8318 58.0691 73.8289 58.0131 73.8236 57.9594V57.9488C73.6407 54.2241 73.0957 50.5261 72.1344 46.9165C71.6802 45.219 71.452 43.4307 71.4844 41.5799C71.659 31.0283 80.3981 22.4826 90.9497 22.5309C101.615 22.5787 110.243 31.2371 110.243 41.9125Z" fill="white"/>
</mask>
<g mask="url(#mask6_79_17899)">
<path d="M83.4771 63.3409C79.7112 62.7169 76.0974 61.7254 72.6665 60.4101C71.8089 60.081 70.9626 59.7325 70.128 59.3638H71.1578V22.1872H110.539V61.0666H110.571C108.886 61.6499 107.168 62.1536 105.421 62.5735C98.4375 64.2521 91.0089 64.5895 83.4771 63.3409Z" fill="#FEE415"/>
</g>
<mask id="mask7_79_17899" style="mask-type:luminance" maskUnits="userSpaceOnUse" x="71" y="22" width="40" height="43">
<path d="M110.243 41.9125C110.243 47.81 107.606 53.0899 103.452 56.6429C101.107 58.6465 99.0153 60.9102 97.24 63.4163L97.1645 63.3626C96.3022 64.4879 91.0842 64.3511 85.0016 62.9892C78.8894 61.6221 74.0925 59.5112 73.8318 58.1257C73.8318 58.0691 73.8289 58.0131 73.8236 57.9594V57.9488C73.6407 54.2241 73.0957 50.5261 72.1344 46.9165C71.6802 45.219 71.452 43.4307 71.4844 41.5799C71.659 31.0283 80.3981 22.4826 90.9497 22.5309C101.615 22.5787 110.243 31.2371 110.243 41.9125Z" fill="white"/>
</mask>
<g mask="url(#mask7_79_17899)">
<path d="M83.618 62.4904C79.9105 61.8758 76.3533 60.9003 72.9761 59.6056C72.1315 59.2818 71.2987 58.9386 70.4771 58.5753H71.1577V22.1872H110.538V59.8062H111.527C111.117 59.9595 110.704 60.1082 110.289 60.2515C108.63 60.826 106.939 61.3214 105.22 61.7348C98.3454 63.3875 91.0324 63.7195 83.618 62.4904Z" fill="#FEE416"/>
</g>
<mask id="mask8_79_17899" style="mask-type:luminance" maskUnits="userSpaceOnUse" x="71" y="22" width="40" height="43">
<path d="M110.243 41.9125C110.243 47.81 107.606 53.0899 103.452 56.6429C101.107 58.6465 99.0153 60.9102 97.24 63.4163L97.1645 63.3626C96.3022 64.4879 91.0842 64.3511 85.0016 62.9892C78.8894 61.6221 74.0925 59.5112 73.8318 58.1257C73.8318 58.0691 73.8289 58.0131 73.8236 57.9594V57.9488C73.6407 54.2241 73.0957 50.5261 72.1344 46.9165C71.6802 45.219 71.452 43.4307 71.4844 41.5799C71.659 31.0283 80.3981 22.4826 90.9497 22.5309C101.615 22.5787 110.243 31.2371 110.243 41.9125Z" fill="white"/>
</mask>
<g mask="url(#mask8_79_17899)">
<path d="M83.7589 61.6399C80.1104 61.0353 76.6093 60.0751 73.2857 58.8006C72.4547 58.4821 71.6349 58.1435 70.8268 57.7867H71.1583V22.1872H110.539V58.5304H112.432C111.633 58.8513 110.825 59.1533 110.008 59.4364C108.376 60.002 106.711 60.4898 105.02 60.8961C98.2528 62.5228 91.056 62.8496 83.7589 61.6399Z" fill="#FEE317"/>
</g>
<mask id="mask9_79_17899" style="mask-type:luminance" maskUnits="userSpaceOnUse" x="71" y="22" width="40" height="43">
<path d="M110.243 41.9125C110.243 47.81 107.606 53.0899 103.452 56.6429C101.107 58.6465 99.0153 60.9102 97.24 63.4163L97.1645 63.3626C96.3022 64.4879 91.0842 64.3511 85.0016 62.9892C78.8894 61.6221 74.0925 59.5112 73.8318 58.1257C73.8318 58.0691 73.8289 58.0131 73.8236 57.9594V57.9488C73.6407 54.2241 73.0957 50.5261 72.1344 46.9165C71.6802 45.219 71.452 43.4307 71.4844 41.5799C71.659 31.0283 80.3981 22.4826 90.9497 22.5309C101.615 22.5787 110.243 31.2371 110.243 41.9125Z" fill="white"/>
</mask>
<g mask="url(#mask9_79_17899)">
<path d="M83.8999 60.7894C80.3098 60.1943 76.8653 59.2494 73.5954 57.9961C72.778 57.6829 71.9711 57.3496 71.1761 56.9987C70.7785 56.8229 70.3834 56.6425 69.9917 56.4579H71.1584V22.1872H110.539V57.7301H112.112C111.325 58.0456 110.53 58.3429 109.727 58.6213C108.121 59.1774 106.483 59.6575 104.819 60.0574C98.1609 61.6582 91.0796 61.9796 83.8999 60.7894Z" fill="#FEE318"/>
</g>
<mask id="mask10_79_17899" style="mask-type:luminance" maskUnits="userSpaceOnUse" x="71" y="22" width="40" height="43">
<path d="M110.243 41.9125C110.243 47.81 107.606 53.0899 103.452 56.6429C101.107 58.6465 99.0153 60.9102 97.24 63.4163L97.1645 63.3626C96.3022 64.4879 91.0842 64.3511 85.0016 62.9892C78.8894 61.6221 74.0925 59.5112 73.8318 58.1257C73.8318 58.0691 73.8289 58.0131 73.8236 57.9594V57.9488C73.6407 54.2241 73.0957 50.5261 72.1344 46.9165C71.6802 45.219 71.452 43.4307 71.4844 41.5799C71.659 31.0283 80.3981 22.4826 90.9497 22.5309C101.615 22.5787 110.243 31.2371 110.243 41.9125Z" fill="white"/>
</mask>
<g mask="url(#mask10_79_17899)">
<path d="M84.0408 59.9389C80.5096 59.3538 77.1212 58.4243 73.9044 57.191C72.296 56.5746 70.7307 55.8816 69.2113 55.1178H71.1577V22.1872H110.538V56.9297H111.791C111.017 57.2405 110.235 57.5325 109.445 57.8061C107.865 58.3535 106.254 58.8253 104.617 59.2187C98.0682 60.7935 91.1031 61.1096 84.0408 59.9389Z" fill="#FEE319"/>
</g>
<mask id="mask11_79_17899" style="mask-type:luminance" maskUnits="userSpaceOnUse" x="71" y="22" width="40" height="43">
<path d="M110.243 41.9125C110.243 47.81 107.606 53.0899 103.452 56.6429C101.107 58.6465 99.0153 60.9102 97.24 63.4163L97.1645 63.3626C96.3022 64.4879 91.0842 64.3511 85.0016 62.9892C78.8894 61.6221 74.0925 59.5112 73.8318 58.1257C73.8318 58.0691 73.8289 58.0131 73.8236 57.9594V57.9488C73.6407 54.2241 73.0957 50.5261 72.1344 46.9165C71.6802 45.219 71.452 43.4307 71.4844 41.5799C71.659 31.0283 80.3981 22.4826 90.9497 22.5309C101.615 22.5787 110.243 31.2371 110.243 41.9125Z" fill="white"/>
</mask>
<g mask="url(#mask11_79_17899)">
<path d="M84.1817 59.0884C80.7095 58.5127 77.3771 57.5991 74.214 56.3865C72.6322 55.7802 71.0928 55.0989 69.5988 54.3481H71.1576V22.1872H110.538V56.1293H111.47C110.709 56.4348 109.94 56.7221 109.163 56.9916C107.609 57.5295 106.025 57.9937 104.415 58.3812C97.9761 59.9289 91.1267 60.2397 84.1817 59.0884Z" fill="#FEE21A"/>
</g>
<mask id="mask12_79_17899" style="mask-type:luminance" maskUnits="userSpaceOnUse" x="71" y="22" width="40" height="43">
<path d="M110.243 41.9125C110.243 47.81 107.606 53.0899 103.452 56.6429C101.107 58.6465 99.0153 60.9102 97.24 63.4163L97.1645 63.3626C96.3022 64.4879 91.0842 64.3511 85.0016 62.9892C78.8894 61.6221 74.0925 59.5112 73.8318 58.1257C73.8318 58.0691 73.8289 58.0131 73.8236 57.9594V57.9488C73.6407 54.2241 73.0957 50.5261 72.1344 46.9165C71.6802 45.219 71.452 43.4307 71.4844 41.5799C71.659 31.0283 80.3981 22.4826 90.9497 22.5309C101.615 22.5787 110.243 31.2371 110.243 41.9125Z" fill="white"/>
</mask>
<g mask="url(#mask12_79_17899)">
<path d="M84.3228 58.2379C80.909 57.6723 77.6333 56.774 74.5238 55.5814C72.9691 54.9851 71.4556 54.3157 69.987 53.5772H71.1584V22.1872H110.539V55.329H111.151C110.403 55.6292 109.646 55.9117 108.882 56.1765C107.355 56.7056 105.798 57.1621 104.215 57.5425C97.8836 59.0642 91.1504 59.3697 84.3228 58.2379Z" fill="#FEE21B"/>
</g>
<mask id="mask13_79_17899" style="mask-type:luminance" maskUnits="userSpaceOnUse" x="71" y="22" width="40" height="43">
<path d="M110.243 41.9125C110.243 47.81 107.606 53.0899 103.452 56.6429C101.107 58.6465 99.0153 60.9102 97.24 63.4163L97.1645 63.3626C96.3022 64.4879 91.0842 64.3511 85.0016 62.9892C78.8894 61.6221 74.0925 59.5112 73.8318 58.1257C73.8318 58.0691 73.8289 58.0131 73.8236 57.9594V57.9488C73.6407 54.2241 73.0957 50.5261 72.1344 46.9165C71.6802 45.219 71.452 43.4307 71.4844 41.5799C71.659 31.0283 80.3981 22.4826 90.9497 22.5309C101.615 22.5787 110.243 31.2371 110.243 41.9125Z" fill="white"/>
</mask>
<g mask="url(#mask13_79_17899)">
<path d="M84.4638 57.3874C81.1089 56.8312 77.8898 55.9483 74.8334 54.7769C73.3052 54.1912 71.8177 53.533 70.3745 52.8075H71.1583V22.1872H110.539V54.5286H110.83C110.095 54.8235 109.352 55.1013 108.602 55.3614C107.101 55.881 105.569 56.3299 104.014 56.7038C97.7916 58.1995 91.174 58.4998 84.4638 57.3874Z" fill="#FDE11C"/>
</g>
<mask id="mask14_79_17899" style="mask-type:luminance" maskUnits="userSpaceOnUse" x="71" y="22" width="40" height="43">
<path d="M110.243 41.9125C110.243 47.81 107.606 53.0899 103.452 56.6429C101.107 58.6465 99.0153 60.9102 97.24 63.4163L97.1645 63.3626C96.3022 64.4879 91.0842 64.3511 85.0016 62.9892C78.8894 61.6221 74.0925 59.5112 73.8318 58.1257C73.8318 58.0691 73.8289 58.0131 73.8236 57.9594V57.9488C73.6407 54.2241 73.0957 50.5261 72.1344 46.9165C71.6802 45.219 71.452 43.4307 71.4844 41.5799C71.659 31.0283 80.3981 22.4826 90.9497 22.5309C101.615 22.5787 110.243 31.2371 110.243 41.9125Z" fill="white"/>
</mask>
<g mask="url(#mask14_79_17899)">
<path d="M84.6047 56.5369C81.3083 55.9907 78.1458 55.1231 75.1425 53.9718C73.6408 53.3962 72.1799 52.7497 70.7614 52.0367H71.1577V22.1872H110.538V53.28H111.587C111.23 53.4333 110.871 53.5826 110.51 53.7276C109.787 54.0178 109.057 54.2903 108.32 54.5457C106.845 55.0565 105.341 55.4971 103.812 55.8645C97.699 57.3343 91.1976 57.6298 84.6047 56.5369Z" fill="#FDE11D"/>
</g>
<mask id="mask15_79_17899" style="mask-type:luminance" maskUnits="userSpaceOnUse" x="71" y="22" width="40" height="43">
<path d="M110.243 41.9125C110.243 47.81 107.606 53.0899 103.452 56.6429C101.107 58.6465 99.0153 60.9102 97.24 63.4163L97.1645 63.3626C96.3022 64.4879 91.0842 64.3511 85.0016 62.9892C78.8894 61.6221 74.0925 59.5112 73.8318 58.1257C73.8318 58.0691 73.8289 58.0131 73.8236 57.9594V57.9488C73.6407 54.2241 73.0957 50.5261 72.1344 46.9165C71.6802 45.219 71.452 43.4307 71.4844 41.5799C71.659 31.0283 80.3981 22.4826 90.9497 22.5309C101.615 22.5787 110.243 31.2371 110.243 41.9125Z" fill="white"/>
</mask>
<g mask="url(#mask15_79_17899)">
<path d="M84.7456 55.6864C81.5081 55.1497 78.4016 54.298 75.452 53.1673C73.9775 52.6017 72.5419 51.9671 71.1494 51.267H71.1576V22.1872H110.538V52.0231H112.294C109.519 53.2953 106.613 54.3051 103.611 55.0264C97.6069 56.4697 91.2205 56.7598 84.7456 55.6864Z" fill="#FDE11E"/>
</g>
<mask id="mask16_79_17899" style="mask-type:luminance" maskUnits="userSpaceOnUse" x="71" y="22" width="40" height="43">
<path d="M110.243 41.9125C110.243 47.81 107.606 53.0899 103.452 56.6429C101.107 58.6465 99.0153 60.9102 97.24 63.4163L97.1645 63.3626C96.3022 64.4879 91.0842 64.3511 85.0016 62.9892C78.8894 61.6221 74.0925 59.5112 73.8318 58.1257C73.8318 58.0691 73.8289 58.0131 73.8236 57.9594V57.9488C73.6407 54.2241 73.0957 50.5261 72.1344 46.9165C71.6802 45.219 71.452 43.4307 71.4844 41.5799C71.659 31.0283 80.3981 22.4826 90.9497 22.5309C101.615 22.5787 110.243 31.2371 110.243 41.9125Z" fill="white"/>
</mask>
<g mask="url(#mask16_79_17899)">
<path d="M84.8866 54.8359C81.7075 54.3092 78.6576 53.4723 75.7617 52.3622C74.3137 51.8072 72.9046 51.1838 71.5369 50.4961C70.8533 50.1522 70.1797 49.7925 69.5174 49.4173H71.1576V22.1872H110.538V51.2387H111.935C109.211 52.4879 106.357 53.4793 103.41 54.1877C97.5149 55.605 91.2441 55.8899 84.8866 54.8359Z" fill="#FDE01F"/>
</g>
<mask id="mask17_79_17899" style="mask-type:luminance" maskUnits="userSpaceOnUse" x="71" y="22" width="40" height="43">
<path d="M110.243 41.9125C110.243 47.81 107.606 53.0899 103.452 56.6429C101.107 58.6465 99.0153 60.9102 97.24 63.4163L97.1645 63.3626C96.3022 64.4879 91.0842 64.3511 85.0016 62.9892C78.8894 61.6221 74.0925 59.5112 73.8318 58.1257C73.8318 58.0691 73.8289 58.0131 73.8236 57.9594V57.9488C73.6407 54.2241 73.0957 50.5261 72.1344 46.9165C71.6802 45.219 71.452 43.4307 71.4844 41.5799C71.659 31.0283 80.3981 22.4826 90.9497 22.5309C101.615 22.5787 110.243 31.2371 110.243 41.9125Z" fill="white"/>
</mask>
<g mask="url(#mask17_79_17899)">
<path d="M85.0277 53.9854C81.9076 53.4681 78.9137 52.6471 76.0715 51.5577C74.65 51.0128 73.2669 50.4011 71.9245 49.7264C71.2533 49.389 70.5928 49.0357 69.9422 48.6677H71.1578V22.1872H110.539V50.4548H111.577C108.903 51.6804 106.102 52.6542 103.208 53.3496C97.4224 54.7403 91.2678 55.0199 85.0277 53.9854Z" fill="#FDE020"/>
</g>
<mask id="mask18_79_17899" style="mask-type:luminance" maskUnits="userSpaceOnUse" x="71" y="22" width="40" height="43">
<path d="M110.243 41.9125C110.243 47.81 107.606 53.0899 103.452 56.6429C101.107 58.6465 99.0153 60.9102 97.24 63.4163L97.1645 63.3626C96.3022 64.4879 91.0842 64.3511 85.0016 62.9892C78.8894 61.6221 74.0925 59.5112 73.8318 58.1257C73.8318 58.0691 73.8289 58.0131 73.8236 57.9594V57.9488C73.6407 54.2241 73.0957 50.5261 72.1344 46.9165C71.6802 45.219 71.452 43.4307 71.4844 41.5799C71.659 31.0283 80.3981 22.4826 90.9497 22.5309C101.615 22.5787 110.243 31.2371 110.243 41.9125Z" fill="white"/>
</mask>
<g mask="url(#mask18_79_17899)">
<path d="M85.1686 53.1349C82.1069 52.6277 79.1697 51.822 76.3805 50.7527C74.9862 50.2183 73.6291 49.6173 72.312 48.9555C71.6538 48.6246 71.005 48.2778 70.3669 47.9169H71.1578V22.1872H110.539V49.671H111.218C108.595 50.8736 105.846 51.8285 103.007 52.5109C97.3304 53.8757 91.2914 54.1499 85.1686 53.1349Z" fill="#FDDF21"/>
</g>
<mask id="mask19_79_17899" style="mask-type:luminance" maskUnits="userSpaceOnUse" x="71" y="22" width="40" height="43">
<path d="M110.243 41.9125C110.243 47.81 107.606 53.0899 103.452 56.6429C101.107 58.6465 99.0153 60.9102 97.24 63.4163L97.1645 63.3626C96.3022 64.4879 91.0842 64.3511 85.0016 62.9892C78.8894 61.6221 74.0925 59.5112 73.8318 58.1257C73.8318 58.0691 73.8289 58.0131 73.8236 57.9594V57.9488C73.6407 54.2241 73.0957 50.5261 72.1344 46.9165C71.6802 45.219 71.452 43.4307 71.4844 41.5799C71.659 31.0283 80.3981 22.4826 90.9497 22.5309C101.615 22.5787 110.243 31.2371 110.243 41.9125Z" fill="white"/>
</mask>
<g mask="url(#mask19_79_17899)">
<path d="M85.3095 52.2844C82.3068 51.7866 79.4256 50.9962 76.69 49.9476C75.3223 49.4232 73.9911 48.834 72.6994 48.1847C72.0536 47.8603 71.4178 47.5199 70.792 47.1661H71.1577V22.1872H110.538V48.8865H110.859C108.286 50.0661 105.591 51.0027 102.806 51.6722C97.2377 53.011 91.3149 53.28 85.3095 52.2844Z" fill="#FDDF22"/>
</g>
<mask id="mask20_79_17899" style="mask-type:luminance" maskUnits="userSpaceOnUse" x="71" y="22" width="40" height="43">
<path d="M110.243 41.9125C110.243 47.81 107.606 53.0899 103.452 56.6429C101.107 58.6465 99.0153 60.9102 97.24 63.4163L97.1645 63.3626C96.3022 64.4879 91.0842 64.3511 85.0016 62.9892C78.8894 61.6221 74.0925 59.5112 73.8318 58.1257C73.8318 58.0691 73.8289 58.0131 73.8236 57.9594V57.9488C73.6407 54.2241 73.0957 50.5261 72.1344 46.9165C71.6802 45.219 71.452 43.4307 71.4844 41.5799C71.659 31.0283 80.3981 22.4826 90.9497 22.5309C101.615 22.5787 110.243 31.2371 110.243 41.9125Z" fill="white"/>
</mask>
<g mask="url(#mask20_79_17899)">
<path d="M85.4504 51.4339C79.5624 50.4578 74.1509 48.3351 69.4065 45.3312H71.1577V22.1872H110.538V47.1908H112.37C111.755 47.5093 111.131 47.8137 110.501 48.1027C107.978 49.2593 105.335 50.1776 102.605 50.8341C97.1457 52.1464 91.3385 52.41 85.4504 51.4339Z" fill="#FCDF23"/>
</g>
<mask id="mask21_79_17899" style="mask-type:luminance" maskUnits="userSpaceOnUse" x="71" y="22" width="40" height="43">
<path d="M110.243 41.9125C110.243 47.81 107.606 53.0899 103.452 56.6429C101.107 58.6465 99.0153 60.9102 97.24 63.4163L97.1645 63.3626C96.3022 64.4879 91.0842 64.3511 85.0016 62.9892C78.8894 61.6221 74.0925 59.5112 73.8318 58.1257C73.8318 58.0691 73.8289 58.0131 73.8236 57.9594V57.9488C73.6407 54.2241 73.0957 50.5261 72.1344 46.9165C71.6802 45.219 71.452 43.4307 71.4844 41.5799C71.659 31.0283 80.3981 22.4826 90.9497 22.5309C101.615 22.5787 110.243 31.2371 110.243 41.9125Z" fill="white"/>
</mask>
<g mask="url(#mask21_79_17899)">
<path d="M85.5915 50.5834C79.8209 49.6267 74.5173 47.5465 69.8679 44.6028H71.1578V22.1872H110.539V46.4247H111.974C111.371 46.7367 110.76 47.0351 110.142 47.3182C107.669 48.4518 105.079 49.3519 102.403 49.9948C97.0532 51.2817 91.3622 51.54 85.5915 50.5834Z" fill="#FCDE24"/>
</g>
<mask id="mask22_79_17899" style="mask-type:luminance" maskUnits="userSpaceOnUse" x="71" y="22" width="40" height="43">
<path d="M110.243 41.9125C110.243 47.81 107.606 53.0899 103.452 56.6429C101.107 58.6465 99.0153 60.9102 97.24 63.4163L97.1645 63.3626C96.3022 64.4879 91.0842 64.3511 85.0016 62.9892C78.8894 61.6221 74.0925 59.5112 73.8318 58.1257C73.8318 58.0691 73.8289 58.0131 73.8236 57.9594V57.9488C73.6407 54.2241 73.0957 50.5261 72.1344 46.9165C71.6802 45.219 71.452 43.4307 71.4844 41.5799C71.659 31.0283 80.3981 22.4826 90.9497 22.5309C101.615 22.5787 110.243 31.2371 110.243 41.9125Z" fill="white"/>
</mask>
<g mask="url(#mask22_79_17899)">
<path d="M85.7325 49.7329C80.0792 48.7957 74.8836 46.7573 70.3285 43.8738H71.1578V22.1872H110.539V45.6591H111.578C110.987 45.9652 110.389 46.2572 109.784 46.5344C107.361 47.645 104.824 48.5267 102.203 49.1567C96.9612 50.4171 91.3858 50.6701 85.7325 49.7329Z" fill="#FCDE25"/>
</g>
<mask id="mask23_79_17899" style="mask-type:luminance" maskUnits="userSpaceOnUse" x="71" y="22" width="40" height="43">
<path d="M110.243 41.9125C110.243 47.81 107.606 53.0899 103.452 56.6429C101.107 58.6465 99.0153 60.9102 97.24 63.4163L97.1645 63.3626C96.3022 64.4879 91.0842 64.3511 85.0016 62.9892C78.8894 61.6221 74.0925 59.5112 73.8318 58.1257C73.8318 58.0691 73.8289 58.0131 73.8236 57.9594V57.9488C73.6407 54.2241 73.0957 50.5261 72.1344 46.9165C71.6802 45.219 71.452 43.4307 71.4844 41.5799C71.659 31.0283 80.3981 22.4826 90.9497 22.5309C101.615 22.5787 110.243 31.2371 110.243 41.9125Z" fill="white"/>
</mask>
<g mask="url(#mask23_79_17899)">
<path d="M85.8734 48.8824C80.3374 47.9646 75.2498 45.9687 70.7897 43.1448H71.1577V22.1872H110.538V44.8929H111.182C110.603 45.1926 110.018 45.4786 109.425 45.7499C107.053 46.8375 104.568 47.701 102.002 48.3179C96.8685 49.5518 91.4093 49.8001 85.8734 48.8824Z" fill="#FCDE27"/>
</g>
<mask id="mask24_79_17899" style="mask-type:luminance" maskUnits="userSpaceOnUse" x="71" y="22" width="40" height="43">
<path d="M110.243 41.9125C110.243 47.81 107.606 53.0899 103.452 56.6429C101.107 58.6465 99.0153 60.9102 97.24 63.4163L97.1645 63.3626C96.3022 64.4879 91.0842 64.3511 85.0016 62.9892C78.8894 61.6221 74.0925 59.5112 73.8318 58.1257C73.8318 58.0691 73.8289 58.0131 73.8236 57.9594V57.9488C73.6407 54.2241 73.0957 50.5261 72.1344 46.9165C71.6802 45.219 71.452 43.4307 71.4844 41.5799C71.659 31.0283 80.3981 22.4826 90.9497 22.5309C101.615 22.5787 110.243 31.2371 110.243 41.9125Z" fill="white"/>
</mask>
<g mask="url(#mask24_79_17899)">
<path d="M86.0143 48.0319C80.5957 47.1336 75.616 45.1802 71.2503 42.4163C70.7047 42.0707 70.1686 41.7127 69.6425 41.3423H71.1577V22.1872H110.538V43.2079H112.461C111.359 43.8472 110.226 44.4341 109.066 44.9661C106.744 46.0307 104.312 46.8753 101.8 47.4792C96.7765 48.6872 91.4328 48.9302 86.0143 48.0319Z" fill="#FCDD28"/>
</g>
<mask id="mask25_79_17899" style="mask-type:luminance" maskUnits="userSpaceOnUse" x="71" y="22" width="40" height="43">
<path d="M110.243 41.9125C110.243 47.81 107.606 53.0899 103.452 56.6429C101.107 58.6465 99.0153 60.9102 97.24 63.4163L97.1645 63.3626C96.3022 64.4879 91.0842 64.3511 85.0016 62.9892C78.8894 61.6221 74.0925 59.5112 73.8318 58.1257C73.8318 58.0691 73.8289 58.0131 73.8236 57.9594V57.9488C73.6407 54.2241 73.0957 50.5261 72.1344 46.9165C71.6802 45.219 71.452 43.4307 71.4844 41.5799C71.659 31.0283 80.3981 22.4826 90.9497 22.5309C101.615 22.5787 110.243 31.2371 110.243 41.9125Z" fill="white"/>
</mask>
<g mask="url(#mask25_79_17899)">
<path d="M86.1553 47.1814C80.8548 46.3026 75.9824 44.3916 71.7116 41.6873C71.1778 41.3494 70.6535 40.999 70.1386 40.6369H71.1584V22.1878H110.539V42.4623H112.03C110.953 43.0875 109.844 43.662 108.708 44.1828C106.437 45.2244 104.058 46.0507 101.6 46.6417C96.684 47.8225 91.4565 48.0602 86.1553 47.1814Z" fill="#FCDD29"/>
</g>
<mask id="mask26_79_17899" style="mask-type:luminance" maskUnits="userSpaceOnUse" x="71" y="22" width="40" height="43">
<path d="M110.243 41.9125C110.243 47.81 107.606 53.0899 103.452 56.6429C101.107 58.6465 99.0153 60.9102 97.24 63.4163L97.1645 63.3626C96.3022 64.4879 91.0842 64.3511 85.0016 62.9892C78.8894 61.6221 74.0925 59.5112 73.8318 58.1257C73.8318 58.0691 73.8289 58.0131 73.8236 57.9594V57.9488C73.6407 54.2241 73.0957 50.5261 72.1344 46.9165C71.6802 45.219 71.452 43.4307 71.4844 41.5799C71.659 31.0283 80.3981 22.4826 90.9497 22.5309C101.615 22.5787 110.243 31.2371 110.243 41.9125Z" fill="white"/>
</mask>
<g mask="url(#mask26_79_17899)">
<path d="M86.2962 46.3309C81.113 45.4715 76.3491 43.603 72.1721 40.9589C71.1282 40.2978 70.1208 39.5882 69.1523 38.8339H71.1577V22.1872H110.538V41.7157H111.597C110.543 42.3273 109.459 42.8888 108.349 43.3978C106.128 44.4158 103.802 45.2244 101.398 45.8024C96.5918 46.9579 91.4794 47.1902 86.2962 46.3309Z" fill="#FCDC2A"/>
</g>
<mask id="mask27_79_17899" style="mask-type:luminance" maskUnits="userSpaceOnUse" x="71" y="22" width="40" height="43">
<path d="M110.243 41.9125C110.243 47.81 107.606 53.0899 103.452 56.6429C101.107 58.6465 99.0153 60.9102 97.24 63.4163L97.1645 63.3626C96.3022 64.4879 91.0842 64.3511 85.0016 62.9892C78.8894 61.6221 74.0925 59.5112 73.8318 58.1257C73.8318 58.0691 73.8289 58.0131 73.8236 57.9594V57.9488C73.6407 54.2241 73.0957 50.5261 72.1344 46.9165C71.6802 45.219 71.452 43.4307 71.4844 41.5799C71.659 31.0283 80.3981 22.4826 90.9497 22.5309C101.615 22.5787 110.243 31.2371 110.243 41.9125Z" fill="white"/>
</mask>
<g mask="url(#mask27_79_17899)">
<path d="M86.4374 45.4804C81.3715 44.6405 76.7156 42.8139 72.6335 40.2299C71.6132 39.5841 70.6282 38.8905 69.6822 38.1532H71.1579V22.1872H110.539V40.9701H111.165C110.135 41.5676 109.075 42.1167 107.99 42.6139C105.82 43.6089 103.545 44.3993 101.197 44.9637C96.4994 46.0932 91.5032 46.3203 86.4374 45.4804Z" fill="#FBDC2B"/>
</g>
<mask id="mask28_79_17899" style="mask-type:luminance" maskUnits="userSpaceOnUse" x="71" y="22" width="40" height="43">
<path d="M110.243 41.9125C110.243 47.81 107.606 53.0899 103.452 56.6429C101.107 58.6465 99.0153 60.9102 97.24 63.4163L97.1645 63.3626C96.3022 64.4879 91.0842 64.3511 85.0016 62.9892C78.8894 61.6221 74.0925 59.5112 73.8318 58.1257C73.8318 58.0691 73.8289 58.0131 73.8236 57.9594V57.9488C73.6407 54.2241 73.0957 50.5261 72.1344 46.9165C71.6802 45.219 71.452 43.4307 71.4844 41.5799C71.659 31.0283 80.3981 22.4826 90.9497 22.5309C101.615 22.5787 110.243 31.2371 110.243 41.9125Z" fill="white"/>
</mask>
<g mask="url(#mask28_79_17899)">
<path d="M86.5782 44.6299C81.6298 43.8095 77.0818 42.0253 73.0941 39.5009C72.0973 38.8698 71.1353 38.1928 70.2111 37.4726H71.1578V22.1872H110.538V40.224H110.733C109.726 40.8079 108.692 41.3441 107.631 41.8301C105.511 42.8021 103.29 43.5741 100.995 44.1256C96.4073 45.2285 91.5267 45.4503 86.5782 44.6299Z" fill="#FBDC2C"/>
</g>
<mask id="mask29_79_17899" style="mask-type:luminance" maskUnits="userSpaceOnUse" x="71" y="22" width="40" height="43">
<path d="M110.243 41.9125C110.243 47.81 107.606 53.0899 103.452 56.6429C101.107 58.6465 99.0153 60.9102 97.24 63.4163L97.1645 63.3626C96.3022 64.4879 91.0842 64.3511 85.0016 62.9892C78.8894 61.6221 74.0925 59.5112 73.8318 58.1257C73.8318 58.0691 73.8289 58.0131 73.8236 57.9594V57.9488C73.6407 54.2241 73.0957 50.5261 72.1344 46.9165C71.6802 45.219 71.452 43.4307 71.4844 41.5799C71.659 31.0283 80.3981 22.4826 90.9497 22.5309C101.615 22.5787 110.243 31.2371 110.243 41.9125Z" fill="white"/>
</mask>
<g mask="url(#mask29_79_17899)">
<path d="M86.7191 43.7794C81.888 42.9784 77.448 41.2367 73.5553 38.7725C72.5821 38.1562 71.6431 37.495 70.7407 36.792H71.1577V22.1872H110.538V38.5885H111.752C111.276 38.8964 110.791 39.1931 110.3 39.4779C109.318 40.0477 108.308 40.5714 107.273 41.0456C105.203 41.9946 103.034 42.7484 100.794 43.2863C96.3153 44.3639 91.5502 44.5803 86.7191 43.7794Z" fill="#FBDB2D"/>
</g>
<mask id="mask30_79_17899" style="mask-type:luminance" maskUnits="userSpaceOnUse" x="71" y="22" width="40" height="43">
<path d="M110.243 41.9125C110.243 47.81 107.606 53.0899 103.452 56.6429C101.107 58.6465 99.0153 60.9102 97.24 63.4163L97.1645 63.3626C96.3022 64.4879 91.0842 64.3511 85.0016 62.9892C78.8894 61.6221 74.0925 59.5112 73.8318 58.1257C73.8318 58.0691 73.8289 58.0131 73.8236 57.9594V57.9488C73.6407 54.2241 73.0957 50.5261 72.1344 46.9165C71.6802 45.219 71.452 43.4307 71.4844 41.5799C71.659 31.0283 80.3981 22.4826 90.9497 22.5309C101.615 22.5787 110.243 31.2371 110.243 41.9125Z" fill="white"/>
</mask>
<g mask="url(#mask30_79_17899)">
<path d="M86.8602 42.9289C82.1464 42.1474 77.8143 40.4482 74.016 38.0435C73.0664 37.4425 72.1504 36.7973 71.2698 36.1113C70.8298 35.7686 70.3987 35.4154 69.9764 35.0526H71.1572V22.1872H110.538V37.8642H111.285C110.819 38.1644 110.347 38.454 109.868 38.7318C108.909 39.288 107.924 39.7988 106.914 40.2618C104.895 41.1878 102.779 41.9227 100.593 42.4482C96.2227 43.4992 91.5739 43.7098 86.8602 42.9289Z" fill="#FBDB2E"/>
</g>
<mask id="mask31_79_17899" style="mask-type:luminance" maskUnits="userSpaceOnUse" x="71" y="22" width="40" height="43">
<path d="M110.243 41.9125C110.243 47.81 107.606 53.0899 103.452 56.6429C101.107 58.6465 99.0153 60.9102 97.24 63.4163L97.1645 63.3626C96.3022 64.4879 91.0842 64.3511 85.0016 62.9892C78.8894 61.6221 74.0925 59.5112 73.8318 58.1257C73.8318 58.0691 73.8289 58.0131 73.8236 57.9594V57.9488C73.6407 54.2241 73.0957 50.5261 72.1344 46.9165C71.6802 45.219 71.452 43.4307 71.4844 41.5799C71.659 31.0283 80.3981 22.4826 90.9497 22.5309C101.615 22.5787 110.243 31.2371 110.243 41.9125Z" fill="white"/>
</mask>
<g mask="url(#mask31_79_17899)">
<path d="M87.001 42.0784C82.4047 41.3164 78.1805 39.6596 74.4771 37.3145C72.6251 36.142 70.9041 34.7978 69.3311 33.308H71.1577V22.1872H110.538V36.2293H112.156C105.133 41.255 96.1938 43.6019 87.001 42.0784Z" fill="#FBDA2F"/>
</g>
<mask id="mask32_79_17899" style="mask-type:luminance" maskUnits="userSpaceOnUse" x="71" y="22" width="40" height="43">
<path d="M110.243 41.9125C110.243 47.81 107.606 53.0899 103.452 56.6429C101.107 58.6465 99.0153 60.9102 97.24 63.4163L97.1645 63.3626C96.3022 64.4879 91.0842 64.3511 85.0016 62.9892C78.8894 61.6221 74.0925 59.5112 73.8318 58.1257C73.8318 58.0691 73.8289 58.0131 73.8236 57.9594V57.9488C73.6407 54.2241 73.0957 50.5261 72.1344 46.9165C71.6802 45.219 71.452 43.4307 71.4844 41.5799C71.659 31.0283 80.3981 22.4826 90.9497 22.5309C101.615 22.5787 110.243 31.2371 110.243 41.9125Z" fill="white"/>
</mask>
<g mask="url(#mask32_79_17899)">
<path d="M87.1421 41.2279C82.6631 40.4853 78.5469 38.8704 74.9379 36.5861C73.1337 35.4437 71.4557 34.1337 69.9233 32.6822H71.1572V22.1872H110.538V35.5286H111.654C104.812 40.4258 96.1001 42.7124 87.1421 41.2279Z" fill="#FBDA30"/>
</g>
<mask id="mask33_79_17899" style="mask-type:luminance" maskUnits="userSpaceOnUse" x="71" y="22" width="40" height="43">
<path d="M110.243 41.9125C110.243 47.81 107.606 53.0899 103.452 56.6429C101.107 58.6465 99.0153 60.9102 97.24 63.4163L97.1645 63.3626C96.3022 64.4879 91.0842 64.3511 85.0016 62.9892C78.8894 61.6221 74.0925 59.5112 73.8318 58.1257C73.8318 58.0691 73.8289 58.0131 73.8236 57.9594V57.9488C73.6407 54.2241 73.0957 50.5261 72.1344 46.9165C71.6802 45.219 71.452 43.4307 71.4844 41.5799C71.659 31.0283 80.3981 22.4826 90.9497 22.5309C101.615 22.5787 110.243 31.2371 110.243 41.9125Z" fill="white"/>
</mask>
<g mask="url(#mask33_79_17899)">
<path d="M87.283 40.3774C82.9214 39.6543 78.913 38.0819 75.399 35.8571C73.642 34.7447 72.0082 33.469 70.516 32.0552H71.1577V22.1872H110.538V34.8273H111.152C104.489 39.5965 96.0056 41.823 87.283 40.3774Z" fill="#FBDA31"/>
</g>
<mask id="mask34_79_17899" style="mask-type:luminance" maskUnits="userSpaceOnUse" x="71" y="22" width="40" height="43">
<path d="M110.243 41.9125C110.243 47.81 107.606 53.0899 103.452 56.6429C101.107 58.6465 99.0153 60.9102 97.24 63.4163L97.1645 63.3626C96.3022 64.4879 91.0842 64.3511 85.0016 62.9892C78.8894 61.6221 74.0925 59.5112 73.8318 58.1257C73.8318 58.0691 73.8289 58.0131 73.8236 57.9594V57.9488C73.6407 54.2241 73.0957 50.5261 72.1344 46.9165C71.6802 45.219 71.452 43.4307 71.4844 41.5799C71.659 31.0283 80.3981 22.4826 90.9497 22.5309C101.615 22.5787 110.243 31.2371 110.243 41.9125Z" fill="white"/>
</mask>
<g mask="url(#mask34_79_17899)">
<path d="M87.4239 39.5269C83.1796 38.8233 79.2793 37.2933 75.8596 35.1281C74.1497 34.0458 72.5602 32.8043 71.1081 31.4289H71.1576V22.1872H110.538V34.126H110.65C104.167 38.7666 95.9118 40.9336 87.4239 39.5269Z" fill="#FBD932"/>
</g>
<mask id="mask35_79_17899" style="mask-type:luminance" maskUnits="userSpaceOnUse" x="71" y="22" width="40" height="43">
<path d="M110.243 41.9125C110.243 47.81 107.606 53.0899 103.452 56.6429C101.107 58.6465 99.0153 60.9102 97.24 63.4163L97.1645 63.3626C96.3022 64.4879 91.0842 64.3511 85.0016 62.9892C78.8894 61.6221 74.0925 59.5112 73.8318 58.1257C73.8318 58.0691 73.8289 58.0131 73.8236 57.9594V57.9488C73.6407 54.2241 73.0957 50.5261 72.1344 46.9165C71.6802 45.219 71.452 43.4307 71.4844 41.5799C71.659 31.0283 80.3981 22.4826 90.9497 22.5309C101.615 22.5787 110.243 31.2371 110.243 41.9125Z" fill="white"/>
</mask>
<g mask="url(#mask35_79_17899)">
<path d="M87.5649 38.6764C83.4386 37.9922 79.6455 36.5047 76.3208 34.3997C74.6581 33.3475 73.1128 32.1402 71.7009 30.8025C70.9949 30.1336 70.3225 29.4318 69.6855 28.7004H71.1582V22.1872H110.539V31.6223H112.43C111.699 32.2593 110.938 32.8609 110.15 33.4248C103.844 37.9374 95.818 40.0441 87.5649 38.6764Z" fill="#FAD933"/>
</g>
<mask id="mask36_79_17899" style="mask-type:luminance" maskUnits="userSpaceOnUse" x="71" y="22" width="40" height="43">
<path d="M110.243 41.9125C110.243 47.81 107.606 53.0899 103.452 56.6429C101.107 58.6465 99.0153 60.9102 97.24 63.4163L97.1645 63.3626C96.3022 64.4879 91.0842 64.3511 85.0016 62.9892C78.8894 61.6221 74.0925 59.5112 73.8318 58.1257C73.8318 58.0691 73.8289 58.0131 73.8236 57.9594V57.9488C73.6407 54.2241 73.0957 50.5261 72.1344 46.9165C71.6802 45.219 71.452 43.4307 71.4844 41.5799C71.659 31.0283 80.3981 22.4826 90.9497 22.5309C101.615 22.5787 110.243 31.2371 110.243 41.9125Z" fill="white"/>
</mask>
<g mask="url(#mask36_79_17899)">
<path d="M87.706 37.8259C83.6971 37.1612 80.012 35.7162 76.7822 33.6707C75.1673 32.648 73.6656 31.4755 72.2938 30.1761C71.6078 29.5261 70.9543 28.8449 70.3356 28.1342H71.1584V22.1872H110.539V30.9723H111.864C111.153 31.5911 110.413 32.1756 109.648 32.7235C103.522 37.1081 95.7244 39.1547 87.706 37.8259Z" fill="#FAD834"/>
</g>
<mask id="mask37_79_17899" style="mask-type:luminance" maskUnits="userSpaceOnUse" x="71" y="22" width="40" height="43">
<path d="M110.243 41.9125C110.243 47.81 107.606 53.0899 103.452 56.6429C101.107 58.6465 99.0153 60.9102 97.24 63.4163L97.1645 63.3626C96.3022 64.4879 91.0842 64.3511 85.0016 62.9892C78.8894 61.6221 74.0925 59.5112 73.8318 58.1257C73.8318 58.0691 73.8289 58.0131 73.8236 57.9594V57.9488C73.6407 54.2241 73.0957 50.5261 72.1344 46.9165C71.6802 45.219 71.452 43.4307 71.4844 41.5799C71.659 31.0283 80.3981 22.4826 90.9497 22.5309C101.615 22.5787 110.243 31.2371 110.243 41.9125Z" fill="white"/>
</mask>
<g mask="url(#mask37_79_17899)">
<path d="M87.8468 36.9754C80.0637 35.6855 73.5399 31.3628 69.2845 25.4164H71.1577V22.1872H110.538V30.323H111.296C110.607 30.924 109.888 31.4914 109.145 32.0228C103.199 36.2782 95.6305 38.2653 87.8468 36.9754Z" fill="#FAD835"/>
</g>
<mask id="mask38_79_17899" style="mask-type:luminance" maskUnits="userSpaceOnUse" x="71" y="22" width="40" height="43">
<path d="M110.243 41.9125C110.243 47.81 107.606 53.0899 103.452 56.6429C101.107 58.6465 99.0153 60.9102 97.24 63.4163L97.1645 63.3626C96.3022 64.4879 91.0842 64.3511 85.0016 62.9892C78.8894 61.6221 74.0925 59.5112 73.8318 58.1257C73.8318 58.0691 73.8289 58.0131 73.8236 57.9594V57.9488C73.6407 54.2241 73.0957 50.5261 72.1344 46.9165C71.6802 45.219 71.452 43.4307 71.4844 41.5799C71.659 31.0283 80.3981 22.4826 90.9497 22.5309C101.615 22.5787 110.243 31.2371 110.243 41.9125Z" fill="white"/>
</mask>
<g mask="url(#mask38_79_17899)">
<path d="M87.9879 36.1249C80.4396 34.8739 74.1127 30.6816 69.9858 24.915H71.1578V22.1878H110.539V29.6736H110.73C110.061 30.2563 109.365 30.8066 108.644 31.3221C102.878 35.449 95.5362 37.3759 87.9879 36.1249Z" fill="#FAD836"/>
</g>
<mask id="mask39_79_17899" style="mask-type:luminance" maskUnits="userSpaceOnUse" x="71" y="22" width="40" height="43">
<path d="M110.243 41.9125C110.243 47.81 107.606 53.0899 103.452 56.6429C101.107 58.6465 99.0153 60.9102 97.24 63.4163L97.1645 63.3626C96.3022 64.4879 91.0842 64.3511 85.0016 62.9892C78.8894 61.6221 74.0925 59.5112 73.8318 58.1257C73.8318 58.0691 73.8289 58.0131 73.8236 57.9594V57.9488C73.6407 54.2241 73.0957 50.5261 72.1344 46.9165C71.6802 45.219 71.452 43.4307 71.4844 41.5799C71.659 31.0283 80.3981 22.4826 90.9497 22.5309C101.615 22.5787 110.243 31.2371 110.243 41.9125Z" fill="white"/>
</mask>
<g mask="url(#mask39_79_17899)">
<path d="M88.1288 35.2744C80.8152 34.0623 74.6854 30.0003 70.6871 24.4131H71.1577V22.1878H110.538V27.2377H112.026C110.84 28.4887 109.539 29.6217 108.142 30.6214C102.555 34.6197 95.4424 36.4864 88.1288 35.2744Z" fill="#FAD737"/>
</g>
<mask id="mask40_79_17899" style="mask-type:luminance" maskUnits="userSpaceOnUse" x="71" y="22" width="40" height="43">
<path d="M110.243 41.9125C110.243 47.81 107.606 53.0899 103.452 56.6429C101.107 58.6465 99.0153 60.9102 97.24 63.4163L97.1645 63.3626C96.3022 64.4879 91.0842 64.3511 85.0016 62.9892C78.8894 61.6221 74.0925 59.5112 73.8318 58.1257C73.8318 58.0691 73.8289 58.0131 73.8236 57.9594V57.9488C73.6407 54.2241 73.0957 50.5261 72.1344 46.9165C71.6802 45.219 71.452 43.4307 71.4844 41.5799C71.659 31.0283 80.3981 22.4826 90.9497 22.5309C101.615 22.5787 110.243 31.2371 110.243 41.9125Z" fill="white"/>
</mask>
<g mask="url(#mask40_79_17899)">
<path d="M88.2698 34.4239C81.191 33.2508 75.2581 29.3192 71.3878 23.9112C70.9042 23.2353 70.4524 22.5364 70.0348 21.8168L71.1572 22.1878H110.538V26.645H111.399C110.252 27.8559 108.992 28.9523 107.64 29.9202C102.233 33.7899 95.3487 35.5971 88.2698 34.4239Z" fill="#FAD738"/>
</g>
<mask id="mask41_79_17899" style="mask-type:luminance" maskUnits="userSpaceOnUse" x="71" y="22" width="40" height="43">
<path d="M110.243 41.9125C110.243 47.81 107.606 53.0899 103.452 56.6429C101.107 58.6465 99.0153 60.9102 97.24 63.4163L97.1645 63.3626C96.3022 64.4879 91.0842 64.3511 85.0016 62.9892C78.8894 61.6221 74.0925 59.5112 73.8318 58.1257C73.8318 58.0691 73.8289 58.0131 73.8236 57.9594V57.9488C73.6407 54.2241 73.0957 50.5261 72.1344 46.9165C71.6802 45.219 71.452 43.4307 71.4844 41.5799C71.659 31.0283 80.3981 22.4826 90.9497 22.5309C101.615 22.5787 110.243 31.2371 110.243 41.9125Z" fill="white"/>
</mask>
<g mask="url(#mask41_79_17899)">
<path d="M88.4107 33.5733C81.5666 32.4391 75.8308 28.6378 72.089 23.4098C71.6213 22.7563 71.1849 22.0803 70.7814 21.3844L71.1577 22.1877H110.538V26.0527H110.773C109.664 27.2234 108.446 28.2833 107.139 29.2188C101.91 32.9605 95.2548 34.7075 88.4107 33.5733Z" fill="#FAD739"/>
</g>
<mask id="mask42_79_17899" style="mask-type:luminance" maskUnits="userSpaceOnUse" x="71" y="22" width="40" height="43">
<path d="M110.243 41.9125C110.243 47.81 107.606 53.0899 103.452 56.6429C101.107 58.6465 99.0153 60.9102 97.24 63.4163L97.1645 63.3626C96.3022 64.4879 91.0842 64.3511 85.0016 62.9892C78.8894 61.6221 74.0925 59.5112 73.8318 58.1257C73.8318 58.0691 73.8289 58.0131 73.8236 57.9594V57.9488C73.6407 54.2241 73.0957 50.5261 72.1344 46.9165C71.6802 45.219 71.452 43.4307 71.4844 41.5799C71.659 31.0283 80.3981 22.4826 90.9497 22.5309C101.615 22.5787 110.243 31.2371 110.243 41.9125Z" fill="white"/>
</mask>
<g mask="url(#mask42_79_17899)">
<path d="M88.5518 32.7228C81.943 31.6276 76.4035 27.9566 72.7904 22.9079C72.3386 22.2768 71.9169 21.6239 71.5276 20.9521V22.1871H110.539V23.6852H111.673C111.193 24.3022 110.683 24.8943 110.147 25.46C109.076 26.5906 107.9 27.6145 106.638 28.5175C101.588 32.1307 95.1611 33.8181 88.5518 32.7228Z" fill="#F9D63A"/>
</g>
<mask id="mask43_79_17899" style="mask-type:luminance" maskUnits="userSpaceOnUse" x="71" y="22" width="40" height="43">
<path d="M110.243 41.9125C110.243 47.81 107.606 53.0899 103.452 56.6429C101.107 58.6465 99.0153 60.9102 97.24 63.4163L97.1645 63.3626C96.3022 64.4879 91.0842 64.3511 85.0016 62.9892C78.8894 61.6221 74.0925 59.5112 73.8318 58.1257C73.8318 58.0691 73.8289 58.0131 73.8236 57.9594V57.9488C73.6407 54.2241 73.0957 50.5261 72.1344 46.9165C71.6802 45.219 71.452 43.4307 71.4844 41.5799C71.659 31.0283 80.3981 22.4826 90.9497 22.5309C101.615 22.5787 110.243 31.2371 110.243 41.9125Z" fill="white"/>
</mask>
<g mask="url(#mask43_79_17899)">
<path d="M88.6927 31.8724C82.3186 30.816 76.9762 27.276 73.491 22.406C73.0552 21.7973 72.6488 21.168 72.2731 20.5198V22.1872H110.538L112.298 21.2989C110.673 23.867 108.57 26.074 106.136 27.8163C101.266 31.3015 95.0667 32.9287 88.6927 31.8724Z" fill="#F9D63B"/>
</g>
<mask id="mask44_79_17899" style="mask-type:luminance" maskUnits="userSpaceOnUse" x="71" y="22" width="40" height="43">
<path d="M110.243 41.9125C110.243 47.81 107.606 53.0899 103.452 56.6429C101.107 58.6465 99.0153 60.9102 97.24 63.4163L97.1645 63.3626C96.3022 64.4879 91.0842 64.3511 85.0016 62.9892C78.8894 61.6221 74.0925 59.5112 73.8318 58.1257C73.8318 58.0691 73.8289 58.0131 73.8236 57.9594V57.9488C73.6407 54.2241 73.0957 50.5261 72.1344 46.9165C71.6802 45.219 71.452 43.4307 71.4844 41.5799C71.659 31.0283 80.3981 22.4826 90.9497 22.5309C101.615 22.5787 110.243 31.2371 110.243 41.9125Z" fill="white"/>
</mask>
<g mask="url(#mask44_79_17899)">
<path d="M88.8336 31.0218C82.6943 30.0044 77.5488 26.5948 74.1923 21.9046V22.1877H110.538L111.569 20.8388C110.003 23.3125 107.979 25.4376 105.634 27.1161C100.943 30.4721 94.9729 32.0392 88.8336 31.0218Z" fill="#F9D53C"/>
</g>
<mask id="mask45_79_17899" style="mask-type:luminance" maskUnits="userSpaceOnUse" x="71" y="22" width="40" height="43">
<path d="M110.243 41.9125C110.243 47.81 107.606 53.0899 103.452 56.6429C101.107 58.6465 99.0153 60.9102 97.24 63.4163L97.1645 63.3626C96.3022 64.4879 91.0842 64.3511 85.0016 62.9892C78.8894 61.6221 74.0925 59.5112 73.8318 58.1257C73.8318 58.0691 73.8289 58.0131 73.8236 57.9594V57.9488C73.6407 54.2241 73.0957 50.5261 72.1344 46.9165C71.6802 45.219 71.452 43.4307 71.4844 41.5799C71.659 31.0283 80.3981 22.4826 90.9497 22.5309C101.615 22.5787 110.243 31.2371 110.243 41.9125Z" fill="white"/>
</mask>
<g mask="url(#mask45_79_17899)">
<path d="M88.9745 30.1714C83.07 29.1929 78.1215 25.9136 74.8935 21.4027V22.1878H110.538L110.84 20.3777C109.335 22.7563 107.387 24.8006 105.132 26.4143C100.621 29.6423 94.8791 31.1499 88.9745 30.1714Z" fill="#F9D53D"/>
</g>
</g>
<path d="M110.446 41.9125C110.446 47.81 107.809 53.0899 103.654 56.6429C101.31 58.6465 99.2176 60.9102 97.4423 63.4163L97.3674 63.3626C96.5051 64.4879 91.2871 64.3511 85.2044 62.9892C79.0923 61.6221 74.2954 59.5112 74.0353 58.1257C74.0353 58.0691 74.0323 58.0131 74.027 57.9594V57.9488C73.8442 54.2241 73.2992 50.5261 72.3378 46.9165C71.8837 45.219 71.6554 43.4307 71.6879 41.5799C71.8624 31.0283 80.6016 22.4826 91.1532 22.5309C101.817 22.5787 110.446 31.2371 110.446 41.9125Z" fill="#FEDA24"/>
<path d="M74.4776 74.4969L74.6876 77.0637C74.9277 79.9986 77.1023 82.4386 80.0047 82.9335C80.0531 82.9417 80.102 82.95 80.1516 82.9576C82.8558 83.3876 85.5341 82.0305 86.8382 79.6223L88.0874 77.3162L74.4776 74.4969Z" fill="#5E4C80"/>
<path d="M81.1471 83.8423C80.775 83.8423 80.3998 83.8134 80.0253 83.7538C79.9716 83.7456 79.918 83.7367 79.8643 83.7273C76.6186 83.174 74.1573 80.4609 73.8854 77.1297L73.6755 74.5623C73.6548 74.3093 73.7545 74.061 73.945 73.8929C74.1355 73.7248 74.3933 73.6558 74.6422 73.7077L88.2513 76.5275C88.5008 76.5788 88.7114 76.7458 88.8187 76.977C88.9261 77.2082 88.9178 77.4765 88.7963 77.7006L87.5471 80.0068C86.2548 82.3908 83.7753 83.8423 81.1471 83.8423ZM75.3688 75.5042L75.4909 76.9982C75.7032 79.5951 77.6148 81.709 80.1403 82.1389L80.2778 82.1619C82.6275 82.5341 84.9809 81.361 86.1304 79.2389L86.8635 77.8858L75.3688 75.5042Z" fill="#000072"/>
<path d="M91.0171 75.4618L73.6078 71.3054C73.6078 71.3054 72.4388 72.9516 72.9514 74.455C73.3253 75.5503 76.8689 77.0914 81.4357 78.182C86.2432 79.3297 89.3568 79.3899 90.5211 78.1749C91.2931 76.8673 91.0171 75.4618 91.0171 75.4618Z" fill="#9DA9B9"/>
<g opacity="0.3">
<path d="M91.0171 75.4618L73.6078 71.3054C73.6078 71.3054 72.4388 72.9516 72.9514 74.455C73.3253 75.5503 76.8689 77.0914 81.4357 78.182C86.2432 79.3297 89.3568 79.3899 90.5211 78.1749C91.2931 76.8673 91.0171 75.4618 91.0171 75.4618Z" fill="#000072"/>
</g>
<path d="M87.385 79.8682C85.8002 79.8682 83.7719 79.5669 81.2493 78.9647C79.3059 78.5005 72.9088 76.8231 72.1893 74.7139C71.5505 72.8425 72.8935 70.9191 72.9513 70.8383C73.1418 70.5705 73.4751 70.4443 73.7953 70.521L91.2046 74.6774C91.5119 74.7505 91.7472 74.9964 91.808 75.3055C91.8216 75.3751 92.1324 77.0307 91.2158 78.5831C91.1846 78.6367 91.1468 78.6863 91.1038 78.7311C90.3765 79.4902 89.1592 79.8682 87.385 79.8682ZM74.0029 72.2279C73.7475 72.7505 73.491 73.539 73.7145 74.1943C73.9322 74.7027 76.4778 76.169 81.6232 77.3975C87.4369 78.7859 89.2889 78.2015 89.8776 77.6771C90.1866 77.108 90.2556 76.5134 90.2586 76.1088L74.0029 72.2279Z" fill="#000072"/>
<path d="M94.222 71.5643L71.8507 66.2926C71.8507 66.2926 70.3137 68.4507 70.9294 70.1794C71.3783 71.4392 75.6974 73.5944 81.5666 74.9769C87.7442 76.4325 91.7661 76.5971 93.309 75.2482C94.3471 73.7837 94.222 71.5643 94.222 71.5643Z" fill="#9DA9B9"/>
<path d="M89.6087 76.9782C87.5414 76.9782 84.8254 76.573 81.3821 75.7614C76.3268 74.57 70.8529 72.363 70.171 70.4502C69.4226 68.3499 71.1224 65.9276 71.1949 65.8256C71.3849 65.559 71.7169 65.4339 72.036 65.5088L94.4073 70.7805C94.7547 70.8625 95.0072 71.1633 95.0272 71.5195C95.0331 71.6216 95.154 74.0392 93.9673 75.7148C93.9308 75.7667 93.8877 75.8139 93.8399 75.8558C92.9835 76.6037 91.5957 76.9782 89.6087 76.9782ZM72.2301 67.2098C71.8455 67.9064 71.3843 69.0548 71.6886 69.9094C71.9505 70.6384 75.6374 72.7522 81.7513 74.1931C89.0731 75.9189 91.7579 75.4406 92.7075 74.701C93.2254 73.9124 93.3705 72.8525 93.4082 72.2002L72.2301 67.2098Z" fill="#000072"/>
<path d="M94.2222 71.5644C93.8335 73.2129 88.5111 73.3698 82.3329 71.9135C76.1552 70.4579 71.4622 67.9412 71.8508 66.2927C72.2395 64.6436 77.5625 64.4873 83.7401 65.9429C89.9178 67.3992 94.6108 69.9153 94.2222 71.5644Z" fill="#9DA9B9"/>
<g opacity="0.3">
<path d="M94.2222 71.5644C93.8335 73.2129 88.5111 73.3698 82.3329 71.9135C76.1552 70.4579 71.4622 67.9412 71.8508 66.2927C72.2395 64.6436 77.5625 64.4873 83.7401 65.9429C89.9178 67.3992 94.6108 69.9153 94.2222 71.5644Z" fill="#000072"/>
</g>
<path d="M89.8723 73.7149C87.5667 73.7149 84.7828 73.3191 82.1482 72.698C76.3834 71.3397 70.4565 68.698 71.0663 66.1081C71.6768 63.5183 78.1599 63.8008 83.9247 65.1591C86.9787 65.8787 89.7844 66.8778 91.824 67.9713C94.2233 69.2583 95.2938 70.5287 95.006 71.7496C94.6751 73.1557 92.6113 73.7149 89.8723 73.7149ZM76.1829 65.7578C73.9617 65.7578 72.7178 66.127 72.6352 66.4779C72.4848 67.1167 75.7618 69.5379 82.518 71.1297C89.2748 72.7222 93.2878 72.0186 93.4382 71.3798C93.4677 71.2542 93.1386 70.5046 91.0631 69.3916C89.1433 68.3624 86.4774 67.4163 83.5555 66.7274C80.5044 66.0085 78.0119 65.7578 76.1829 65.7578Z" fill="#000072"/>
<path d="M93.5138 66.551L75.2722 62.4141C75.2722 62.4141 74.0702 64.1481 74.624 65.7128C75.0275 66.8529 78.7491 68.4212 83.5342 69.5065C88.5718 70.6489 91.8257 70.6749 93.0283 69.3915C93.8187 68.0172 93.5138 66.551 93.5138 66.551Z" fill="#9DA9B9"/>
<g opacity="0.3">
<path d="M93.5138 66.551L75.2722 62.4141C75.2722 62.4141 74.0702 64.1481 74.624 65.7128C75.0275 66.8529 78.7491 68.4212 83.5342 69.5065C88.5718 70.6489 91.8257 70.6749 93.0283 69.3915C93.8187 68.0172 93.5138 66.551 93.5138 66.551Z" fill="#000072"/>
</g>
<path d="M89.6198 71.1644C87.9902 71.1644 85.9176 70.8731 83.3561 70.2921C81.3242 69.8315 74.6352 68.1582 73.8643 65.9818C73.1813 64.0502 74.5514 62.0395 74.6098 61.9546C74.7968 61.6845 75.1289 61.5541 75.4503 61.6279L93.6918 65.7648C93.9997 65.8344 94.2386 66.0774 94.3023 66.3864C94.317 66.459 94.6591 68.1712 93.7266 69.7925C93.696 69.8462 93.6588 69.8963 93.6163 69.9418C92.8519 70.758 91.5449 71.1644 89.6198 71.1644ZM75.6756 63.3318C75.4078 63.8874 75.1342 64.7408 75.3831 65.4445C75.6043 65.9771 78.2749 67.4876 83.7123 68.7214C89.8315 70.1093 91.7673 69.464 92.3783 68.9019C92.7074 68.282 92.7694 67.6362 92.7647 67.2074L75.6756 63.3318Z" fill="#000072"/>
<path d="M97.2755 63.1325L73.8354 57.8892C73.8354 57.8892 72.4441 59.5247 73.1082 61.3236C73.5918 62.6347 78.1316 64.8353 84.2809 66.2107C90.7534 67.6587 94.9587 67.7826 96.5547 66.3546C97.6211 64.8123 97.2755 63.1325 97.2755 63.1325Z" fill="#9DA9B9"/>
<path d="M92.5163 68.1724C90.3841 68.1724 87.605 67.7807 84.1045 66.9975C78.8169 65.8149 73.0822 63.5819 72.352 61.6031C71.5339 59.3872 73.1524 57.4485 73.2214 57.3671C73.4148 57.1395 73.7192 57.0368 74.0105 57.1029L97.4506 62.3463C97.7596 62.4153 97.9997 62.6595 98.064 62.9703C98.0811 63.0529 98.465 65.0081 97.2164 66.8135C97.1804 66.8654 97.138 66.9131 97.0908 66.9556C96.1849 67.7666 94.6856 68.1724 92.5163 68.1724ZM74.191 58.7945C73.9085 59.2787 73.5357 60.1569 73.8637 61.0452C74.1462 61.8096 78.0324 63.9883 84.456 65.4251C92.1518 67.1461 94.9604 66.6058 95.9472 65.8143C96.4302 65.0688 96.5222 64.2826 96.5216 63.7895L74.191 58.7945Z" fill="#000072"/>
<path d="M93.6593 65.2015C90.2278 65.2015 85.9635 64.305 84.7668 64.0372C82.8641 63.6114 73.3423 61.3359 72.7761 58.3238C72.7637 58.2583 72.7578 58.1917 72.7578 58.1256C72.7578 58.105 72.7572 58.0849 72.7548 58.0655C72.7513 58.0301 72.7495 57.9947 72.7495 57.9593C72.7495 57.9103 72.753 57.8496 72.7595 57.8006C72.7637 57.7735 72.7684 57.7458 72.7737 57.7175C72.7772 57.6962 72.7814 57.675 72.7861 57.6544C73.163 55.974 75.7552 55.8094 77.6714 55.8324C80.0625 55.8608 83.1425 56.2707 86.3445 56.9867C89.5454 57.7021 92.5056 58.6435 94.6803 59.6367C96.4243 60.4329 98.6986 61.6863 98.3223 63.3672C98.3223 63.3672 98.3223 63.3678 98.3223 63.3684C98.2692 63.6043 98.166 63.8237 98.015 64.0195C97.3367 64.9048 95.6363 65.2015 93.6593 65.2015ZM75.15 58.184C76.1338 59.0227 79.5087 60.66 85.2363 61.9411C90.9621 63.2227 94.7133 63.1779 95.9601 62.8382C94.9769 62.0006 91.6021 60.3633 85.8762 59.0829C80.1498 57.8024 76.398 57.8449 75.15 58.184Z" fill="#000072"/>
<path d="M97.2779 63.1312C97.584 61.763 92.5848 59.4801 86.1119 58.0322C79.639 56.5843 74.1436 56.5196 73.8375 57.8878C73.5315 59.256 78.5307 61.5389 85.0036 62.9869C91.4765 64.4348 96.9719 64.4994 97.2779 63.1312Z" fill="white"/>
<g opacity="0.3">
<path d="M97.2432 63.2865C97.4729 62.2594 92.4119 60.253 85.939 58.805C79.4661 57.3571 74.0325 57.016 73.8028 58.0431C73.573 59.0702 78.6341 61.0766 85.107 62.5245C91.5799 63.9724 97.0134 64.3136 97.2432 63.2865Z" fill="#000072"/>
</g>
<path d="M89.6546 61.606C89.641 61.606 89.6275 61.606 89.6139 61.6054C89.1698 61.5836 88.8271 61.2055 88.8489 60.7614C88.8619 60.4948 89.201 54.1479 92.0333 46.6839C92.1005 46.5064 92.1689 46.3354 92.2385 46.1696L87.2169 44.7152C86.9816 48.2204 85.8291 53.0515 83.2511 59.4025C83.0836 59.8148 82.6135 60.0135 82.2018 59.846C81.7895 59.6785 81.5908 59.2091 81.7583 58.7968C84.5044 52.0311 85.4941 47.3652 85.6445 44.2598L85.0871 44.0982C84.7374 43.9909 81.7553 43.0248 81.149 41.0312C80.9626 40.4196 80.9284 39.4594 81.8214 38.36C82.7379 37.2311 84.0497 36.9274 85.1626 37.5862C86.3422 38.2833 87.2016 40.0439 87.26 43.0507L92.9652 44.7034C94.3601 42.3211 95.9525 41.7667 96.8821 41.6682C98.1578 41.5349 99.407 42.0982 100.063 43.1109C100.548 43.8582 100.598 44.7163 100.197 45.4058C99.0331 47.4088 95.4022 46.9163 93.8133 46.589C93.7189 46.8025 93.6275 47.0248 93.5402 47.256C90.8029 54.4694 90.4614 60.7779 90.4585 60.841C90.4373 61.271 90.081 61.606 89.6546 61.606ZM94.6208 45.0979C96.2993 45.3728 98.3466 45.3822 98.8042 44.5948C98.9328 44.3737 98.7824 44.0953 98.7117 43.9862C98.4421 43.5704 97.8252 43.1893 97.0531 43.2696C96.1938 43.3616 95.3533 44.0044 94.6208 45.0979ZM83.9488 38.859C83.5466 38.859 83.218 39.1969 83.073 39.3757C82.5327 40.0398 82.6518 40.432 82.6908 40.5606C82.9609 41.4518 84.5876 42.2563 85.5495 42.5535L85.6433 42.5807C85.5124 40.3571 84.8648 39.2801 84.3434 38.9722C84.2066 38.892 84.0739 38.859 83.9488 38.859Z" fill="#000072"/>
<path d="M54.2392 18.9248C57.5197 19.0782 60.753 21.0009 63.0503 23.2534C64.063 24.2466 65.5505 25.733 65.5812 27.2393C65.6165 28.9592 64.1019 29.7336 62.5855 29.5631C59.4643 29.2128 56.3029 27.3402 54.1201 25.142C53.1705 24.1853 51.8752 22.7998 51.7956 21.3861C51.719 20.0236 52.8767 18.8658 54.2392 18.9248Z" fill="#FEDA24"/>
<path d="M63.0013 30.5264C62.8297 30.5264 62.6563 30.5169 62.4811 30.4975C59.4035 30.1519 56.0286 28.3972 53.4535 25.8044C52.1595 24.5015 50.9498 23.0712 50.8578 21.4392C50.8065 20.5298 51.1503 19.6303 51.8021 18.9703C52.4579 18.305 53.3627 17.9476 54.2804 17.9865C54.2816 17.9865 54.2828 17.9865 54.284 17.9865C57.4453 18.134 60.8803 19.809 63.7091 22.5823C64.7465 23.5991 66.4823 25.3013 66.5218 27.2199C66.5419 28.1813 66.2022 29.01 65.5392 29.6151C64.891 30.2055 63.9868 30.5264 63.0013 30.5264ZM54.1418 19.8627C53.772 19.8627 53.4099 20.0166 53.1397 20.2903C52.8608 20.5728 52.7127 20.9532 52.7345 21.3331C52.7994 22.4773 54.1424 23.8297 54.7876 24.4797C57.0366 26.7445 60.0652 28.3347 62.691 28.6296C63.3269 28.6998 63.9173 28.5505 64.2717 28.2267C64.5301 27.9914 64.651 27.6747 64.6427 27.2589C64.6185 26.107 63.1712 24.6879 62.3932 23.9253C59.9272 21.5077 56.8638 19.9895 54.1984 19.8645C54.179 19.8633 54.1601 19.8627 54.1418 19.8627Z" fill="#000072"/>
<path d="M77.1932 1.30078C79.9564 3.07492 81.7937 6.35778 82.656 9.45779C83.0358 10.8244 83.5796 12.8557 82.853 14.1751C82.0231 15.682 80.3245 15.5941 79.0965 14.6876C76.5698 12.8226 74.7697 9.61881 73.9794 6.62378C73.6355 5.32031 73.2079 3.47303 73.8461 2.20849C74.4606 0.990541 76.0425 0.568243 77.1932 1.30078Z" fill="#FEDA24"/>
<path d="M80.9361 16.2836C80.1257 16.2836 79.2811 15.9923 78.5379 15.4438C76.0466 13.6048 74.0023 10.3968 73.0704 6.86327C72.6021 5.08796 72.2701 3.24422 73.0073 1.78504C73.4178 0.972293 74.1663 0.364793 75.0604 0.119434C75.9611 -0.128284 76.9224 0.0132701 77.6986 0.507527C77.6998 0.508117 77.7004 0.508705 77.7016 0.509295C80.3645 2.21914 82.5008 5.38876 83.5619 9.20539C83.9511 10.605 84.6023 12.9471 83.6769 14.6281C83.2127 15.4703 82.5044 16.0176 81.6273 16.2099C81.4014 16.2595 81.1702 16.2836 80.9361 16.2836ZM75.944 1.88C75.8148 1.88 75.685 1.89711 75.557 1.93191C75.1743 2.03748 74.8558 2.29228 74.6841 2.632C74.1675 3.65532 74.6535 5.49787 74.887 6.38317C75.701 9.46962 77.5276 12.3614 79.6532 13.9309C80.1675 14.3107 80.7544 14.4765 81.2227 14.3733C81.5642 14.2984 81.8273 14.0849 82.0278 13.7209C82.5834 12.7118 82.0402 10.7583 81.7488 9.7085C80.8234 6.38199 78.9313 3.535 76.6859 2.09233C76.4659 1.95255 76.2082 1.88 75.944 1.88Z" fill="#000072"/>
<path d="M114.81 8.94124C114.112 12.1498 111.677 15.0174 109.073 16.9072C107.924 17.74 106.211 18.9585 104.721 18.7379C103.019 18.4861 102.508 16.8635 102.929 15.3967C103.796 12.3774 106.169 9.57292 108.701 7.78699C109.802 7.01021 111.384 5.96449 112.791 6.12138C114.147 6.27237 115.096 7.60769 114.81 8.94124Z" fill="#FEDA24"/>
<path d="M105.082 19.7034C104.915 19.7034 104.749 19.6916 104.584 19.6674C103.632 19.5264 102.872 19.0528 102.386 18.2985C101.829 17.4338 101.698 16.2813 102.026 15.1371C102.88 12.1598 105.173 9.1252 108.159 7.01901C109.66 5.96031 111.274 5.00482 112.896 5.18707C113.801 5.28793 114.631 5.77747 115.173 6.53006C115.719 7.28796 115.922 8.23814 115.73 9.13759C115.73 9.13877 115.729 9.13995 115.729 9.14113C115.056 12.2341 112.831 15.3418 109.625 17.668C108.552 18.4459 106.819 19.7034 105.082 19.7034ZM112.5 7.04496C111.382 7.04496 109.95 8.0553 109.243 8.55486C106.634 10.3945 104.562 13.1152 103.833 15.6555C103.657 16.2701 103.706 16.8776 103.966 17.281C104.156 17.5748 104.447 17.7476 104.859 17.8083C105.997 17.9746 107.639 16.7862 108.521 16.1462C111.315 14.1185 113.323 11.3517 113.891 8.74419C113.972 8.36317 113.884 7.95739 113.648 7.62946C113.415 7.30742 113.066 7.09804 112.687 7.05616C112.626 7.0485 112.563 7.04496 112.5 7.04496Z" fill="#000072"/>
<path d="M131.152 31.8061C128.971 34.2615 125.443 35.5679 122.248 35.9395C120.839 36.1035 118.748 36.3258 117.557 35.4034C116.197 34.35 116.547 32.6855 117.632 31.6127C119.866 29.405 123.31 28.1228 126.391 27.8061C127.732 27.6681 129.623 27.5318 130.774 28.3581C131.882 29.155 132.054 30.7828 131.152 31.8061Z" fill="#FEDA24"/>
<path d="M120.238 37.0284C119.097 37.0284 117.881 36.8438 116.981 36.1466C116.221 35.5574 115.79 34.7724 115.736 33.8765C115.674 32.8496 116.124 31.7809 116.971 30.9433C119.174 28.767 122.66 27.2447 126.295 26.8707C128.121 26.6838 129.994 26.6407 131.322 27.5944C132.062 28.1258 132.545 28.9592 132.649 29.8805C132.754 30.8089 132.465 31.7366 131.857 32.4267C131.856 32.4273 131.856 32.4285 131.855 32.4291C129.753 34.7948 126.291 36.4144 122.356 36.8715C121.769 36.9411 121.021 37.0284 120.238 37.0284ZM128.069 28.6413C127.463 28.6413 126.883 28.7015 126.487 28.7416C123.312 29.0678 120.172 30.4243 118.293 32.281C117.838 32.7305 117.584 33.2843 117.613 33.7632C117.634 34.1118 117.804 34.4055 118.132 34.6597C119.043 35.3657 121.058 35.131 122.139 35.0053C125.57 34.6066 128.676 33.1775 130.448 31.1828C130.706 30.8903 130.827 30.4933 130.781 30.0923C130.737 29.6977 130.534 29.3438 130.225 29.1214C129.698 28.7434 128.861 28.6413 128.069 28.6413Z" fill="#000072"/>
<path d="M93.6901 65.0582C90.0952 65.0582 85.5437 64.0738 84.7964 63.9063C83.6392 63.6474 73.4709 61.2905 72.9083 58.299C72.8976 58.2418 72.8918 58.1834 72.8918 58.1256C72.8918 58.1008 72.8906 58.0761 72.8882 58.0519C72.8859 58.0259 72.8841 57.9994 72.8835 57.9734C72.6989 54.2329 72.1409 50.5938 71.2256 47.1576C70.7401 45.3427 70.5113 43.4601 70.5437 41.5633C70.726 30.5315 79.8314 21.5901 90.8596 21.5901C90.8914 21.5901 90.9215 21.5901 90.9534 21.5901C102.108 21.6408 111.183 30.7568 111.183 41.9124C111.183 47.8577 108.587 53.4874 104.062 57.3571C101.744 59.3376 99.7061 61.5594 98.0063 63.9594C97.8801 64.1375 97.6966 64.2655 97.4878 64.3227C96.6857 64.8647 95.2814 65.0576 93.6901 65.0582ZM74.7679 57.9776C75.1135 58.6476 78.561 60.5851 85.2069 62.0714C91.9378 63.5778 95.8977 63.2658 96.4327 62.7739C96.5141 62.6677 96.6126 62.5845 96.7217 62.5255C98.4604 60.1315 100.517 57.9139 102.841 55.928C106.948 52.4157 109.303 47.3068 109.303 41.9118C109.303 31.7884 101.068 23.5158 90.9457 23.4698C90.9174 23.4698 90.8891 23.4698 90.8608 23.4698C80.8524 23.4698 72.5904 31.5826 72.4246 41.5945C72.3945 43.3173 72.6027 45.026 73.0427 46.6722C73.9941 50.2434 74.5727 54.0211 74.7626 57.9015C74.7626 57.9027 74.7626 57.9044 74.7626 57.9062C74.765 57.9298 74.7667 57.954 74.7679 57.9776Z" fill="#000072"/>
<g opacity="0.3">
<path d="M107.38 47.8341C106.754 49.6 106.044 51.6071 104.225 53.429C102.898 54.7578 101.953 55.0156 100.188 57.0622C99.6418 57.6956 99.4619 57.984 98.0475 59.7399C97.1516 60.8523 96.4037 61.7553 95.8988 62.3586C91.549 62.522 88.0155 62.0814 85.5371 61.6202C81.4191 60.8535 79.3147 59.862 78.1068 59.2032C76.9584 58.5762 76.0613 57.9451 75.4432 57.4727C78.6116 57.6573 81.1903 57.4285 82.9408 57.189C85.5979 56.8257 95.6299 55.3217 102.479 47.9237C104.26 45.9998 105.074 44.4893 105.433 43.7609C107.26 40.0551 107.221 36.4962 107.044 34.5629C107.657 36.2479 109.486 41.8912 107.38 47.8341Z" fill="#000072"/>
</g>
<g opacity="0.7">
<path d="M75.6626 36.5641C75.2969 33.391 78.2489 30.5911 79.1813 29.7064C80.1581 28.7798 81.2067 28.1883 83.3041 27.0045C84.5209 26.318 85.1974 26.1057 86.052 26.1151C87.0263 26.1251 88.0532 26.676 88.341 27.6067C88.6619 28.643 87.9777 29.756 87.0877 30.377C86.1977 30.9975 85.1219 31.2806 84.1434 31.7495C82.6759 32.4526 81.4214 33.5933 80.5815 34.9876C79.8773 36.1571 79.9617 36.6561 79.1082 37.4535C78.926 37.624 77.5517 38.8797 76.5762 38.4332C75.8389 38.0941 75.7074 36.9534 75.6626 36.5641Z" fill="white"/>
</g>
<g opacity="0.7">
<path d="M90.5953 25.3649C90.0291 25.7382 89.5784 26.469 89.7424 27.2694C89.9129 28.0981 90.6578 28.6413 91.3579 28.6932C92.1311 28.7504 92.8967 28.3151 93.3267 27.6705C93.4228 27.5265 93.5343 27.362 93.5832 27.116C93.7177 26.4448 93.2883 25.7164 92.7127 25.3478C92.091 24.9485 91.2452 24.9355 90.5953 25.3649Z" fill="white"/>
</g>
</svg>
