<svg width="31" height="31" viewBox="0 0 31 31" fill="none" xmlns="http://www.w3.org/2000/svg">
<path d="M12.8802 12.92C16.4479 12.92 19.3402 10.0278 19.3402 6.46C19.3402 2.89224 16.4479 0 12.8802 0C9.31241 0 6.42017 2.89224 6.42017 6.46C6.42017 10.0278 9.31241 12.92 12.8802 12.92Z" fill="#928A8A"/>
<path d="M17.0202 24.73H24.0202V26.13H17.0202V24.73Z" fill="#928A8A"/>
<path d="M11.0202 26.73V29.73C11.0202 29.9952 11.1255 30.2496 11.3131 30.4371C11.5006 30.6246 11.755 30.73 12.0202 30.73H29.0202C29.2854 30.73 29.5397 30.6246 29.7273 30.4371C29.9148 30.2496 30.0202 29.9952 30.0202 29.73V19.73C30.0202 19.4648 29.9148 19.2104 29.7273 19.0229C29.5397 18.8354 29.2854 18.73 29.0202 18.73H22.0202V17.26C22.0202 16.9948 21.9148 16.7404 21.7273 16.5529C21.5397 16.3654 21.2854 16.26 21.0202 16.26C20.755 16.26 20.5006 16.3654 20.3131 16.5529C20.1255 16.7404 20.0202 16.9948 20.0202 17.26V18.73H18.0202V15.15C16.3209 14.8725 14.602 14.732 12.8802 14.73C9.08297 14.7138 5.32832 15.5296 1.88017 17.12C1.31266 17.3878 0.83388 17.8128 0.50065 18.3446C0.167419 18.8763 -0.0062759 19.4925 0.000173279 20.12V26.73H11.0202ZM28.0202 28.73H13.0202V20.73H20.0202V21.15C20.0202 21.4152 20.1255 21.6696 20.3131 21.8571C20.5006 22.0446 20.755 22.15 21.0202 22.15C21.2854 22.15 21.5397 22.0446 21.7273 21.8571C21.9148 21.6696 22.0202 21.4152 22.0202 21.15V20.73H28.0202V28.73Z" fill="#928A8A"/>
</svg>
