<svg width="38" height="38" viewBox="0 0 38 38" fill="none" xmlns="http://www.w3.org/2000/svg">
<path d="M21.7708 20.5833C21.7708 20.0584 21.9794 19.555 22.3505 19.1838C22.7217 18.8126 23.2251 18.6041 23.75 18.6041C24.2749 18.6041 24.7783 18.8126 25.1495 19.1838C25.5207 19.555 25.7292 20.0584 25.7292 20.5833C25.7292 21.1082 25.5207 21.6116 25.1495 21.9828C24.7783 22.3539 24.2749 22.5625 23.75 22.5625C23.2251 22.5625 22.7217 22.3539 22.3505 21.9828C21.9794 21.6116 21.7708 21.1082 21.7708 20.5833ZM34.8333 19V34.8333H3.16667V19C3.16667 10.2916 10.2917 3.16663 19 3.16663C27.7083 3.16663 34.8333 10.2916 34.8333 19ZM6.33334 19C6.33334 25.9825 12.0175 31.6666 19 31.6666C25.9825 31.6666 31.6667 25.9825 31.6667 19C31.6667 17.7491 31.4767 16.5458 31.1442 15.4216C28.0832 16.1327 24.8797 15.9144 21.9434 14.7946C19.0072 13.6749 16.4718 11.7046 14.6617 9.13579C13.11 12.92 10.1492 15.9758 6.41251 17.6383C6.33334 18.0816 6.33334 18.5408 6.33334 19ZM14.25 22.5625C14.7749 22.5625 15.2783 22.3539 15.6495 21.9828C16.0207 21.6116 16.2292 21.1082 16.2292 20.5833C16.2292 20.0584 16.0207 19.555 15.6495 19.1838C15.2783 18.8126 14.7749 18.6041 14.25 18.6041C13.7251 18.6041 13.2217 18.8126 12.8505 19.1838C12.4794 19.555 12.2708 20.0584 12.2708 20.5833C12.2708 21.1082 12.4794 21.6116 12.8505 21.9828C13.2217 22.3539 13.7251 22.5625 14.25 22.5625Z" fill="#928A8A"/>
</svg>
