<svg width="30" height="22" viewBox="0 0 30 22" fill="none" xmlns="http://www.w3.org/2000/svg">
<path d="M2 0H28C28.5304 0 29.0391 0.210714 29.4142 0.585786C29.7893 0.960859 30 1.46957 30 2V20C30 20.5304 29.7893 21.0391 29.4142 21.4142C29.0391 21.7893 28.5304 22 28 22H2C1.46957 22 0.960859 21.7893 0.585786 21.4142C0.210714 21.0391 0 20.5304 0 20V2C0 1.46957 0.210714 0.960859 0.585786 0.585786C0.960859 0.210714 1.46957 0 2 0ZM2 2V5H28V2H2ZM2 9V13H28V9H2ZM28 17H2V20H28V17Z" fill="#928A8A"/>
</svg>
