<svg width="236" height="141" viewBox="0 0 236 141" fill="none" xmlns="http://www.w3.org/2000/svg">
<g clip-path="url(#clip0_23_730)">
<path d="M180.687 139.406C177.666 136.854 175.83 132.824 176.312 128.9C176.793 124.976 179.774 121.369 183.641 120.536C187.508 119.703 191.916 122.009 193.09 125.784C193.736 118.507 194.481 110.924 198.353 104.727C201.859 99.115 207.931 95.0996 214.512 94.3812C221.093 93.6629 228.022 96.376 232.126 101.567C236.23 106.757 237.235 114.304 234.361 120.263C232.243 124.653 228.342 127.92 224.254 130.578C211.046 139.095 195.204 142.558 179.644 140.331L180.687 139.406Z" fill="#F2F2F2"/>
<path d="M225.618 96.5264C220.188 100.946 215.207 105.89 210.746 111.285C203.764 119.699 198.115 129.133 193.995 139.259C193.693 139.997 194.893 140.319 195.192 139.588C201.933 123.133 212.696 108.629 226.496 97.4035C227.116 96.8993 226.233 96.0263 225.618 96.5264Z" fill="white"/>
<path d="M75.9722 138.712C80.1222 135.208 82.6429 129.672 81.9818 124.283C81.3208 118.894 77.2264 113.94 71.9153 112.795C66.6043 111.651 60.55 114.819 58.9369 120.003C58.0491 110.008 57.0261 99.5932 51.7081 91.0809C46.8929 83.3732 38.5527 77.8581 29.5139 76.8714C20.4751 75.8848 10.9583 79.6113 5.32114 86.7407C-0.316049 93.8702 -1.69629 104.235 2.25185 112.42C5.16031 118.45 10.5187 122.937 16.133 126.588C34.0444 138.235 56.2636 143.093 77.4054 139.983" fill="#F2F2F2"/>
<path d="M14.2595 79.8178C21.7176 85.8885 28.5597 92.6781 34.6867 100.088C40.8147 107.491 46.2098 115.47 50.7961 123.914C53.3596 128.65 55.6625 133.523 57.6944 138.511C58.1087 139.525 56.4602 139.967 56.0505 138.964C52.4514 130.171 47.9986 121.752 42.7561 113.827C37.539 105.931 31.5677 98.5593 24.9262 91.8156C21.1697 88.0032 17.2063 84.4001 13.054 81.0225C12.2029 80.3299 13.4154 79.131 14.2595 79.8178Z" fill="white"/>
<path d="M169.405 140.691H70.3931V39.1713C70.3931 17.5721 87.9771 0 109.591 0H130.207C151.821 0 169.405 17.5721 169.405 39.1713V140.691Z" fill="#F2F2F2"/>
<path d="M148.789 140.691H70.3931V39.1713C70.3715 30.895 72.994 22.8279 77.8788 16.1445C78.0589 15.8992 78.2385 15.6571 78.4237 15.4176C80.7865 12.3208 83.5983 9.5935 86.7662 7.3257C86.9452 7.19558 87.1249 7.06773 87.3072 6.93986C89.958 5.10665 92.8256 3.60804 95.8445 2.47813C96.0237 2.41023 96.2063 2.34219 96.3888 2.27693C99.1191 1.30323 101.949 0.636245 104.827 0.288298C105.006 0.263942 105.189 0.244882 105.372 0.225823C108.177 -0.07385 111.005 -0.07385 113.81 0.225823C113.993 0.244882 114.176 0.263939 114.356 0.288559C117.234 0.636528 120.063 1.30343 122.793 2.27694C122.975 2.3422 123.158 2.41023 123.338 2.47827C126.319 3.59392 129.153 5.07017 131.776 6.87408C131.958 6.99917 132.14 7.12703 132.32 7.25489C134.096 8.52159 135.764 9.93276 137.307 11.474C138.544 12.7103 139.697 14.028 140.758 15.4185C140.943 15.6571 141.123 15.8992 141.302 16.1441C146.187 22.8276 148.81 30.8948 148.789 39.1713V140.691Z" fill="#CCCCCC"/>
<path d="M142.414 95.2852C144.811 95.2852 146.754 93.3433 146.754 90.9479C146.754 88.5525 144.811 86.6106 142.414 86.6106C140.017 86.6106 138.074 88.5525 138.074 90.9479C138.074 93.3433 140.017 95.2852 142.414 95.2852Z" fill="#0792B0"/>
<path d="M161.294 137.651H157.968L156.386 124.832L161.294 124.832L161.294 137.651Z" fill="#FFB8B8"/>
<path d="M155.592 136.701H162.006V140.737H151.554C151.554 140.207 151.658 139.682 151.861 139.192C152.064 138.703 152.362 138.258 152.737 137.883C153.112 137.508 153.557 137.211 154.047 137.008C154.537 136.805 155.062 136.701 155.592 136.701Z" fill="#2F2E41"/>
<path d="M177.841 137.651H174.515L172.933 124.832L177.841 124.832L177.841 137.651Z" fill="#FFB8B8"/>
<path d="M172.139 136.701H178.553V140.737H168.101C168.101 140.207 168.206 139.682 168.409 139.192C168.611 138.703 168.909 138.258 169.284 137.883C169.659 137.508 170.104 137.211 170.594 137.008C171.084 136.805 171.609 136.701 172.139 136.701Z" fill="#2F2E41"/>
<path d="M144.61 91.8071C144.371 91.4549 144.212 91.0545 144.144 90.6341C144.077 90.2138 144.102 89.7837 144.219 89.3743C144.335 88.9648 144.541 88.5859 144.82 88.2642C145.099 87.9425 145.445 87.6859 145.834 87.5124L157.139 56.3741L162.702 59.4079L149.794 89.1647C150.042 89.8372 150.035 90.5773 149.774 91.2448C149.513 91.9124 149.016 92.461 148.377 92.7867C147.738 93.1124 147.001 93.1926 146.307 93.0121C145.613 92.8315 145.009 92.4028 144.61 91.8071Z" fill="#FFB8B8"/>
<path d="M176.142 97.6581C175.772 97.4464 175.454 97.1562 175.208 96.8081C174.963 96.46 174.797 96.0623 174.722 95.6432C174.648 95.2241 174.666 94.7937 174.775 94.3823C174.885 93.9709 175.084 93.5885 175.357 93.2621L171.855 60.3232L178.186 60.6122L179.641 93.012C180.159 93.5075 180.478 94.1758 180.536 94.8902C180.594 95.6046 180.388 96.3156 179.957 96.8883C179.525 97.461 178.899 97.8556 178.196 97.9975C177.493 98.1394 176.762 98.0187 176.142 97.6581Z" fill="#FFB8B8"/>
<path d="M166.042 50.6065C169.722 50.6065 172.705 47.6256 172.705 43.9485C172.705 40.2713 169.722 37.2904 166.042 37.2904C162.363 37.2904 159.38 40.2713 159.38 43.9485C159.38 47.6256 162.363 50.6065 166.042 50.6065Z" fill="#FFB8B8"/>
<path d="M176.099 90.1668H156.013L156.037 90.0106C156.073 89.7771 159.617 66.5786 157.003 58.9891C156.741 58.2433 156.764 57.4269 157.068 56.697C157.372 55.9672 157.935 55.3754 158.65 55.0358C162.386 53.2777 169.557 51.1129 175.609 56.3666C176.5 57.1524 177.195 58.1345 177.641 59.2353C178.086 60.336 178.269 61.5252 178.175 62.7088L176.099 90.1668Z" fill="#0792B0"/>
<path d="M159.871 70.007L150.828 68.1736L155.067 58.1355C155.32 57.1632 155.95 56.3312 156.816 55.822C157.683 55.3127 158.716 55.1677 159.69 55.4189C160.663 55.67 161.497 56.2968 162.009 57.1616C162.521 58.0265 162.668 59.0589 162.419 60.0324L159.871 70.007Z" fill="#0792B0"/>
<path d="M171.453 73.4111L170.909 60.9572C170.497 58.6161 171.838 56.403 173.9 56.0412C175.964 55.6808 177.978 57.3045 178.392 59.6628L180.436 71.2998L171.453 73.4111Z" fill="#0792B0"/>
<path d="M175.431 88.6758C178.663 100.977 179.016 116.616 178.144 133.675L173.803 133.133L165.937 100.603L161.597 133.675L156.714 133.404C155.255 115.505 153.835 100.138 156.171 90.0313L175.431 88.6758Z" fill="#2F2E41"/>
<path d="M170.432 49.0939C169.19 50.417 166.881 49.7068 166.719 47.8992C166.707 47.7589 166.708 47.6177 166.722 47.4775C166.806 46.6769 167.269 45.95 167.158 45.1046C167.133 44.8942 167.054 44.6937 166.93 44.5221C165.939 43.1967 163.614 45.1149 162.68 43.915C162.106 43.1793 162.78 42.0209 162.34 41.1986C161.76 40.1133 160.04 40.6487 158.962 40.0544C157.762 39.3931 157.834 37.5536 158.624 36.4347C159.587 35.0702 161.276 34.3421 162.943 34.2371C164.611 34.1322 166.267 34.5827 167.824 35.189C169.593 35.8779 171.347 36.83 172.436 38.3844C173.759 40.2747 173.887 42.816 173.225 45.0264C172.822 46.371 171.447 48.0135 170.432 49.0939Z" fill="#2F2E41"/>
<path d="M227.857 140.866H27.5842C27.4987 140.866 27.4168 140.831 27.3564 140.771C27.2961 140.71 27.2622 140.628 27.2622 140.543C27.2622 140.458 27.2961 140.376 27.3564 140.315C27.4168 140.255 27.4987 140.22 27.5842 140.22H227.857C227.943 140.22 228.024 140.255 228.085 140.315C228.145 140.376 228.179 140.458 228.179 140.543C228.179 140.628 228.145 140.71 228.085 140.771C228.024 140.831 227.943 140.866 227.857 140.866Z" fill="#3F3D56"/>
<path d="M127.223 111.279H91.9586C91.4942 111.282 91.0477 111.1 90.7172 110.774C90.3866 110.448 90.199 110.004 90.1954 109.54V30.8803C90.199 30.4162 90.3866 29.9725 90.7172 29.6465C91.0477 29.3204 91.4942 29.1388 91.9586 29.1413H127.223C127.687 29.1388 128.134 29.3204 128.464 29.6465C128.795 29.9725 128.983 30.4162 128.986 30.8803V109.54C128.983 110.004 128.795 110.448 128.464 110.774C128.134 111.1 127.687 111.282 127.223 111.279Z" fill="white"/>
<path d="M128.986 54.593H90.1954V55.1352H128.986V54.593Z" fill="#CCCCCC"/>
<path d="M129.122 85.5262H90.331V86.0684H129.122V85.5262Z" fill="#CCCCCC"/>
<path d="M102.945 29.1413H102.402V111.55H102.945V29.1413Z" fill="#CCCCCC"/>
<path d="M116.508 29.1413H115.966V111.55H116.508V29.1413Z" fill="#CCCCCC"/>
</g>
<defs>
<clipPath id="clip0_23_730">
<rect width="236" height="141" fill="white"/>
</clipPath>
</defs>
</svg>
