<svg width="402" height="224" viewBox="0 0 402 224" fill="none" xmlns="http://www.w3.org/2000/svg">
<path d="M305.221 163.468H67.2709C49.5392 163.448 32.5394 156.389 20.0012 143.839C7.46299 131.289 0.410234 114.273 0.390228 96.5252V67.3461C0.410216 49.5978 7.46295 32.5823 20.0012 20.0323C32.5394 7.48237 49.5391 0.422965 67.2709 0.402832H334.373C352.105 0.422965 369.105 7.48237 381.643 20.0323C394.181 32.5823 401.234 49.5978 401.254 67.3461C401.225 92.8303 391.098 117.263 373.095 135.283C355.091 153.303 330.682 163.439 305.221 163.468Z" fill="white"/>
<path d="M243.84 44.3548H86.5516C85.652 44.3548 84.7893 43.9971 84.1532 43.3604C83.5171 42.7237 83.1597 41.8602 83.1597 40.9598C83.1597 40.0593 83.5171 39.1958 84.1532 38.5591C84.7893 37.9224 85.652 37.5647 86.5516 37.5647H243.84C244.739 37.5647 245.602 37.9224 246.238 38.5591C246.874 39.1958 247.232 40.0593 247.232 40.9598C247.232 41.8602 246.874 42.7237 246.238 43.3604C245.602 43.9971 244.739 44.3548 243.84 44.3548Z" fill="#E6E6E6"/>
<path d="M323.462 80.578H86.5516C85.652 80.578 84.7893 80.2203 84.1532 79.5836C83.5171 78.9469 83.1597 78.0833 83.1597 77.1829C83.1597 76.2825 83.5171 75.4189 84.1532 74.7822C84.7893 74.1455 85.652 73.7878 86.5516 73.7878H323.462C324.361 73.7878 325.224 74.1455 325.86 74.7822C326.496 75.4189 326.853 76.2825 326.853 77.1829C326.853 78.0833 326.496 78.9469 325.86 79.5836C325.224 80.2203 324.361 80.578 323.462 80.578Z" fill="#E6E6E6"/>
<path d="M323.462 116.801H86.5516C85.652 116.801 84.7893 116.443 84.1532 115.807C83.5171 115.17 83.1597 114.306 83.1597 113.406C83.1597 112.506 83.5171 111.642 84.1532 111.005C84.7893 110.369 85.652 110.011 86.5516 110.011H323.462C324.361 110.011 325.224 110.369 325.86 111.005C326.496 111.642 326.853 112.506 326.853 113.406C326.853 114.306 326.496 115.17 325.86 115.807C325.224 116.443 324.361 116.801 323.462 116.801Z" fill="#E6E6E6"/>
<path d="M227.242 84.7355C227.279 85.7582 227.541 86.7601 228.007 87.6708C228.474 88.5815 229.134 89.3787 229.941 90.0063C230.749 90.6339 231.684 91.0767 232.681 91.3034C233.678 91.5301 234.713 91.5353 235.712 91.3185L248.647 112.559L254.153 100.866L241.025 82.4881C240.55 80.8321 239.484 79.408 238.03 78.4858C236.576 77.5635 234.835 77.2071 233.136 77.4842C231.437 77.7612 229.899 78.6524 228.812 79.9888C227.726 81.3253 227.167 83.0142 227.242 84.7355Z" fill="#FFB6B6"/>
<path d="M324.314 145.609L279.736 121.407L265.675 108.203C265.675 108.203 259.562 106.564 261.812 104.575C264.062 102.586 257.651 100.667 257.651 100.667L250.102 93.5786L239.377 101.175L242.481 105.991C242.481 105.991 242.267 113.965 246.631 112.431C250.995 110.897 249.904 117.509 249.904 117.509L275.951 157.923L324.314 145.609Z" fill="#3F3D56"/>
<path d="M192.724 122.807C216.772 122.807 236.266 103.294 236.266 79.2242C236.266 55.1542 216.772 35.6416 192.724 35.6416C168.677 35.6416 149.182 55.1542 149.182 79.2242C149.182 103.294 168.677 122.807 192.724 122.807Z" fill="#0792B0"/>
<path d="M315.549 198.707L320.47 183.93L323.985 179.005L325.391 164.931C325.391 126.933 316.923 133.261 316.923 133.261L312.034 119.897L289.537 119.193L275.125 132.915L263.174 137.137L258.494 161.477L267.041 187.449L269.15 201.522C265.127 208.956 265.467 205.44 268.798 211.021L308.519 221.928C322.579 226.854 322.579 214.188 319.759 211.021C316.94 207.855 315.549 198.707 315.549 198.707Z" fill="#3F3D56"/>
<path d="M297.879 114.47C309.397 114.47 318.734 105.124 318.734 93.5953C318.734 82.0667 309.397 72.7209 297.879 72.7209C286.361 72.7209 277.024 82.0667 277.024 93.5953C277.024 105.124 286.361 114.47 297.879 114.47Z" fill="#FFB6B6"/>
<path d="M325.721 121.459C325.918 121.791 326.037 122.163 326.07 122.547C326.103 122.931 326.049 123.318 325.911 123.679C325.774 124.039 325.558 124.364 325.278 124.629C324.997 124.894 324.661 125.092 324.294 125.209C321.496 126.138 319.774 128.847 317.763 131.015C315.76 133.175 312.533 134.969 309.974 133.499C307.422 132.035 307.246 128.299 305.109 126.272C303.028 124.302 299.569 124.541 297.123 126.04L297.05 126.085C296.627 126.36 296.133 126.506 295.629 126.504C295.125 126.501 294.633 126.351 294.213 126.072C293.793 125.792 293.465 125.396 293.268 124.932C293.07 124.467 293.014 123.955 293.104 123.459C293.961 118.896 294.818 114.333 295.674 109.771C293.424 115.197 290.158 120.141 286.05 124.337C284.919 125.644 283.485 126.654 281.874 127.278C280.412 127.743 278.992 126.23 277.572 126.504C281.101 123.415 292.968 103.614 290.845 90.378C288.349 90.6594 285.853 90.9409 283.358 91.2224C283.088 90.0402 282.51 88.9503 281.684 88.063C281.785 89.2135 281.639 90.3723 281.256 91.4616C280.215 91.5813 279.168 91.6938 278.127 91.8135C276.679 91.9753 275.104 92.116 273.86 91.3561C271.786 90.0895 271.723 87.0919 272.313 84.7275C274.043 77.8527 279.287 72.1038 285.706 69.0921C292.124 66.0874 294.022 72.7793 300.785 70.6402C314.143 66.4182 324.378 73.6378 327.985 87.0356C331.015 98.2731 328.814 110.2 325.721 121.459Z" fill="#2F2E41"/>
<path d="M188.766 137.883L162.074 115.321C161.162 114.548 160.593 113.444 160.493 112.252C160.392 111.06 160.768 109.877 161.539 108.962L166.451 103.139C167.224 102.226 168.326 101.657 169.517 101.556C170.708 101.456 171.891 101.832 172.805 102.603L199.497 125.165C200.409 125.938 200.978 127.042 201.078 128.234C201.179 129.426 200.802 130.609 200.032 131.524L195.12 137.347C194.347 138.26 193.245 138.83 192.054 138.93C190.863 139.031 189.68 138.654 188.766 137.883Z" fill="#3F3D56"/>
<path d="M163.475 109.431C163.06 109.924 162.857 110.562 162.911 111.204C162.965 111.847 163.272 112.442 163.764 112.858L190.455 135.42C190.948 135.836 191.585 136.038 192.227 135.984C192.869 135.93 193.463 135.623 193.879 135.131L198.792 129.309C199.207 128.815 199.41 128.178 199.355 127.535C199.301 126.893 198.995 126.298 198.503 125.882L171.811 103.32C171.319 102.904 170.682 102.701 170.04 102.755C169.398 102.81 168.804 103.116 168.388 103.608L163.475 109.431Z" fill="white"/>
<path d="M179.145 118.202C179.052 118.332 178.931 118.438 178.79 118.513C178.649 118.587 178.493 118.628 178.333 118.632L174.14 118.728C174.005 118.731 173.871 118.708 173.745 118.659C173.619 118.61 173.505 118.537 173.407 118.444C173.31 118.351 173.232 118.239 173.177 118.116C173.123 117.992 173.093 117.86 173.09 117.725C173.087 117.59 173.11 117.456 173.159 117.33C173.208 117.204 173.281 117.089 173.374 116.992C173.467 116.894 173.578 116.816 173.702 116.761C173.825 116.707 173.958 116.677 174.092 116.674L176.836 116.611L174.134 109.475C174.038 109.22 174.048 108.938 174.159 108.69C174.271 108.442 174.477 108.249 174.731 108.153C174.985 108.056 175.267 108.065 175.515 108.176C175.763 108.287 175.957 108.493 176.053 108.747L179.27 117.241C179.328 117.394 179.348 117.56 179.329 117.723C179.311 117.886 179.253 118.042 179.161 118.179L179.145 118.202Z" fill="#0792B0"/>
<path d="M179.683 119.996C180.694 120.144 181.661 120.513 182.515 121.076C183.368 121.639 184.088 122.383 184.624 123.255C185.159 124.126 185.497 125.105 185.614 126.122C185.731 127.138 185.624 128.168 185.3 129.139L204.988 144.319L192.776 148.526L175.952 133.465C174.359 132.812 173.061 131.597 172.303 130.051C171.545 128.504 171.38 126.732 171.84 125.072C172.3 123.411 173.352 121.978 174.798 121.042C176.243 120.107 177.981 119.734 179.683 119.996Z" fill="#FFB6B6"/>
<path d="M282.185 127.501L231.776 158.523C231.776 158.523 211.452 150.996 215.424 147.512C219.396 144.027 206.751 141.672 206.751 141.672L192.783 132.265L184.677 141.694C184.677 141.694 186.154 157.01 188.667 154.358C191.18 151.706 194.936 158.95 194.936 158.95C194.936 158.95 196.046 167.039 203.2 165.004C210.353 162.968 229.549 184.305 229.549 184.305L291.587 161.146L282.185 127.501Z" fill="#3F3D56"/>
<path d="M191.193 96.707C190.609 96.707 190.032 96.5707 189.51 96.3091C188.987 96.0474 188.533 95.6676 188.182 95.1995L178.95 82.8783C178.653 82.4824 178.437 82.032 178.315 81.5527C178.192 81.0734 178.165 80.5746 178.235 80.0848C178.305 79.595 178.47 79.1237 178.722 78.698C178.974 78.2723 179.307 77.9003 179.703 77.6035C180.501 77.004 181.505 76.7465 182.494 76.8879C182.983 76.9579 183.454 77.1237 183.879 77.3758C184.304 77.6279 184.676 77.9613 184.973 78.3572L191.013 86.4174L206.526 63.1266C207.08 62.2951 207.941 61.7179 208.92 61.5219C209.899 61.3259 210.915 61.5272 211.746 62.0816C212.577 62.6359 213.153 63.4978 213.349 64.4777C213.545 65.4576 213.344 66.4752 212.79 67.3066L194.326 95.0291C193.992 95.5304 193.542 95.9444 193.016 96.2361C192.489 96.5278 191.9 96.6889 191.298 96.7058C191.263 96.7064 191.228 96.707 191.193 96.707Z" fill="white"/>
</svg>
