<svg width="28" height="31" viewBox="0 0 28 31" fill="none" xmlns="http://www.w3.org/2000/svg">
<path d="M24.5 14.6389V6.88889L20.8075 8.71444C21.0568 9.72794 21.0691 10.7839 20.8433 11.8027C20.6174 12.8216 20.1595 13.7766 19.504 14.5959C18.8484 15.4152 18.0124 16.0772 17.059 16.5322C16.1056 16.9871 15.0596 17.2231 14 17.2222C12.9404 17.2231 11.8944 16.9871 10.941 16.5322C9.98758 16.0772 9.15156 15.4152 8.49603 14.5959C7.84049 13.7766 7.38255 12.8216 7.15675 11.8027C6.93094 10.7839 6.94317 9.72794 7.1925 8.71444L1.75 6.02778L14 0L26.25 6.02778V14.6389H24.5ZM14 12.0556L10.5 10.3333C10.5 12.2278 12.075 13.7778 14 13.7778C15.925 13.7778 17.5 12.2278 17.5 10.3333L14 12.0556ZM18.8125 5.89L14.28 3.61667L9.5725 5.97611L14.1225 8.24944L18.8125 5.89ZM14 18.9444C18.6725 18.9444 28 21.235 28 25.8333V31H0V25.8333C0 21.235 9.3275 18.9444 14 18.9444ZM14 22.2167C8.75 22.2167 3.325 24.7311 3.325 25.8333V27.7278H24.675V25.8333C24.675 24.7311 19.1975 22.2167 14 22.2167Z" fill="#928A8A"/>
</svg>
