<svg width="30" height="30" viewBox="0 0 30 30" fill="none" xmlns="http://www.w3.org/2000/svg">
<path fill-rule="evenodd" clip-rule="evenodd" d="M0 0.9375C0 0.68886 0.0987721 0.450403 0.274587 0.274587C0.450403 0.0987721 0.68886 0 0.9375 0L6.5625 0C6.81114 0 7.0496 0.0987721 7.22541 0.274587C7.40123 0.450403 7.5 0.68886 7.5 0.9375C7.5 1.18614 7.40123 1.4246 7.22541 1.60041C7.0496 1.77623 6.81114 1.875 6.5625 1.875H3.20062L6.5625 5.23688L7.77375 4.02375C7.86091 3.93658 7.96439 3.86744 8.07828 3.82027C8.19217 3.7731 8.31423 3.74882 8.4375 3.74882C8.56077 3.74882 8.68283 3.7731 8.79672 3.82027C8.91061 3.86744 9.01408 3.93658 9.10125 4.02375C9.18842 4.11091 9.25756 4.21439 9.30473 4.32828C9.3519 4.44217 9.37618 4.56423 9.37618 4.6875C9.37618 4.81077 9.3519 4.93283 9.30473 5.04672C9.25756 5.16061 9.18842 5.26409 9.10125 5.35125L7.88812 6.5625L9.42937 8.10375C10.1318 7.32263 10.9909 6.6982 11.9507 6.27112C12.9105 5.84405 13.9495 5.62389 15 5.625C17.2125 5.625 19.1981 6.58125 20.5706 8.10375L26.7994 1.875H21.5625C21.3139 1.875 21.0754 1.77623 20.8996 1.60041C20.7238 1.4246 20.625 1.18614 20.625 0.9375C20.625 0.68886 20.7238 0.450403 20.8996 0.274587C21.0754 0.0987721 21.3139 0 21.5625 0L29.0625 0C29.3111 0 29.5496 0.0987721 29.7254 0.274587C29.9012 0.450403 30 0.68886 30 0.9375V8.4375C30 8.68614 29.9012 8.9246 29.7254 9.10041C29.5496 9.27623 29.3111 9.375 29.0625 9.375C28.8139 9.375 28.5754 9.27623 28.3996 9.10041C28.2238 8.9246 28.125 8.68614 28.125 8.4375V3.20062L21.6562 9.66938C22.2136 10.7421 22.5034 11.9336 22.501 13.1424C22.4986 14.3513 22.204 15.5416 21.6424 16.6121C21.0807 17.6825 20.2687 18.6013 19.2753 19.2903C18.282 19.9792 17.1369 20.4178 15.9375 20.5688V24.375H18.75C18.9986 24.375 19.2371 24.4738 19.4129 24.6496C19.5887 24.8254 19.6875 25.0639 19.6875 25.3125C19.6875 25.5611 19.5887 25.7996 19.4129 25.9754C19.2371 26.1512 18.9986 26.25 18.75 26.25H15.9375V29.0625C15.9375 29.3111 15.8387 29.5496 15.6629 29.7254C15.4871 29.9012 15.2486 30 15 30C14.7514 30 14.5129 29.9012 14.3371 29.7254C14.1613 29.5496 14.0625 29.3111 14.0625 29.0625V26.25H11.25C11.0014 26.25 10.7629 26.1512 10.5871 25.9754C10.4113 25.7996 10.3125 25.5611 10.3125 25.3125C10.3125 25.0639 10.4113 24.8254 10.5871 24.6496C10.7629 24.4738 11.0014 24.375 11.25 24.375H14.0625V20.5688C12.8629 20.4179 11.7174 19.9793 10.7239 19.2903C9.73037 18.6012 8.91814 17.6822 8.35645 16.6115C7.79476 15.5408 7.50027 14.3501 7.49805 13.141C7.49584 11.932 7.78598 10.7403 8.34375 9.6675L6.5625 7.88812L5.35125 9.10125C5.26409 9.18842 5.16061 9.25756 5.04672 9.30473C4.93283 9.3519 4.81077 9.37618 4.6875 9.37618C4.56423 9.37618 4.44217 9.3519 4.32828 9.30473C4.21439 9.25756 4.11091 9.18842 4.02375 9.10125C3.93658 9.01408 3.86744 8.91061 3.82027 8.79672C3.7731 8.68283 3.74882 8.56077 3.74882 8.4375C3.74882 8.31423 3.7731 8.19217 3.82027 8.07828C3.86744 7.96439 3.93658 7.86091 4.02375 7.77375L5.23688 6.5625L1.875 3.20062V6.5625C1.875 6.81114 1.77623 7.0496 1.60041 7.22541C1.4246 7.40123 1.18614 7.5 0.9375 7.5C0.68886 7.5 0.450403 7.40123 0.274587 7.22541C0.0987721 7.0496 0 6.81114 0 6.5625V0.9375ZM10.2937 10.0425C9.88895 10.6605 9.60985 11.3522 9.47237 12.0781C9.3349 12.804 9.34174 13.5499 9.49252 14.2732C9.6433 14.9964 9.93506 15.6829 10.3511 16.2934C10.7672 16.9039 11.2995 17.4265 11.9175 17.8313C12.5355 18.236 13.2272 18.5152 13.9531 18.6526C14.679 18.7901 15.4249 18.7833 16.1482 18.6325C16.8714 18.4817 17.5579 18.1899 18.1684 17.7739C18.7789 17.3578 19.3015 16.8255 19.7063 16.2075C20.5238 14.9593 20.812 13.4375 20.5075 11.9768C20.203 10.5162 19.3307 9.23628 18.0825 8.41875C16.8343 7.60122 15.3125 7.31301 13.8518 7.61752C12.3912 7.92203 11.1113 8.79432 10.2937 10.0425Z" fill="#928A8A"/>
</svg>
